G04 #@! TF.GenerationSoftware,KiCad,Pcbnew,8.0.7*
G04 #@! TF.CreationDate,2025-04-02T23:58:34+11:00*
G04 #@! TF.ProjectId,Ganglion_01,47616e67-6c69-46f6-9e5f-30312e6b6963,01*
G04 #@! TF.SameCoordinates,Original*
G04 #@! TF.FileFunction,Paste,Bot*
G04 #@! TF.FilePolarity,Positive*
%FSLAX46Y46*%
G04 Gerber Fmt 4.6, Leading zero omitted, Abs format (unit mm)*
G04 Created by KiCad (PCBNEW 8.0.7) date 2025-04-02 23:58:34*
%MOMM*%
%LPD*%
G01*
G04 APERTURE LIST*
G04 Aperture macros list*
%AMRoundRect*
0 Rectangle with rounded corners*
0 $1 Rounding radius*
0 $2 $3 $4 $5 $6 $7 $8 $9 X,Y pos of 4 corners*
0 Add a 4 corners polygon primitive as box body*
4,1,4,$2,$3,$4,$5,$6,$7,$8,$9,$2,$3,0*
0 Add four circle primitives for the rounded corners*
1,1,$1+$1,$2,$3*
1,1,$1+$1,$4,$5*
1,1,$1+$1,$6,$7*
1,1,$1+$1,$8,$9*
0 Add four rect primitives between the rounded corners*
20,1,$1+$1,$2,$3,$4,$5,0*
20,1,$1+$1,$4,$5,$6,$7,0*
20,1,$1+$1,$6,$7,$8,$9,0*
20,1,$1+$1,$8,$9,$2,$3,0*%
G04 Aperture macros list end*
%ADD10R,0.300000X0.700000*%
%ADD11RoundRect,0.140000X0.140000X0.170000X-0.140000X0.170000X-0.140000X-0.170000X0.140000X-0.170000X0*%
%ADD12RoundRect,0.225000X-0.225000X-0.250000X0.225000X-0.250000X0.225000X0.250000X-0.225000X0.250000X0*%
%ADD13RoundRect,0.140000X-0.140000X-0.170000X0.140000X-0.170000X0.140000X0.170000X-0.140000X0.170000X0*%
%ADD14RoundRect,0.135000X-0.135000X-0.185000X0.135000X-0.185000X0.135000X0.185000X-0.135000X0.185000X0*%
%ADD15RoundRect,0.135000X0.135000X0.185000X-0.135000X0.185000X-0.135000X-0.185000X0.135000X-0.185000X0*%
%ADD16R,0.700000X1.500000*%
%ADD17RoundRect,0.100000X0.100000X-0.712500X0.100000X0.712500X-0.100000X0.712500X-0.100000X-0.712500X0*%
%ADD18R,0.450000X1.750000*%
%ADD19RoundRect,0.150000X0.150000X-0.512500X0.150000X0.512500X-0.150000X0.512500X-0.150000X-0.512500X0*%
%ADD20RoundRect,0.150000X-0.150000X0.512500X-0.150000X-0.512500X0.150000X-0.512500X0.150000X0.512500X0*%
%ADD21RoundRect,0.225000X0.225000X0.250000X-0.225000X0.250000X-0.225000X-0.250000X0.225000X-0.250000X0*%
%ADD22RoundRect,0.225000X0.250000X-0.225000X0.250000X0.225000X-0.250000X0.225000X-0.250000X-0.225000X0*%
%ADD23RoundRect,0.100000X0.712500X0.100000X-0.712500X0.100000X-0.712500X-0.100000X0.712500X-0.100000X0*%
%ADD24RoundRect,0.250000X1.500000X-0.250000X1.500000X0.250000X-1.500000X0.250000X-1.500000X-0.250000X0*%
%ADD25RoundRect,0.250001X1.449999X-0.499999X1.449999X0.499999X-1.449999X0.499999X-1.449999X-0.499999X0*%
%ADD26RoundRect,0.135000X0.185000X-0.135000X0.185000X0.135000X-0.185000X0.135000X-0.185000X-0.135000X0*%
%ADD27R,0.400000X0.650000*%
%ADD28R,4.500000X2.000000*%
%ADD29RoundRect,0.140000X-0.170000X0.140000X-0.170000X-0.140000X0.170000X-0.140000X0.170000X0.140000X0*%
%ADD30RoundRect,0.250000X-1.500000X0.250000X-1.500000X-0.250000X1.500000X-0.250000X1.500000X0.250000X0*%
%ADD31RoundRect,0.250001X-1.449999X0.499999X-1.449999X-0.499999X1.449999X-0.499999X1.449999X0.499999X0*%
%ADD32RoundRect,0.140000X0.170000X-0.140000X0.170000X0.140000X-0.170000X0.140000X-0.170000X-0.140000X0*%
%ADD33RoundRect,0.135000X-0.185000X0.135000X-0.185000X-0.135000X0.185000X-0.135000X0.185000X0.135000X0*%
G04 APERTURE END LIST*
D10*
X134050000Y-49325000D03*
X134550000Y-49325000D03*
X135050000Y-49325000D03*
X135550000Y-49325000D03*
X135550000Y-52075000D03*
X135050000Y-52075000D03*
X134550000Y-52075000D03*
X134050000Y-52075000D03*
D11*
X132480000Y-38500000D03*
X131520000Y-38500000D03*
X132480000Y-37500000D03*
X131520000Y-37500000D03*
X110680000Y-37600000D03*
X109720000Y-37600000D03*
X110680000Y-38600000D03*
X109720000Y-38600000D03*
D12*
X128825000Y-39800000D03*
X130375000Y-39800000D03*
X114425000Y-39900000D03*
X115975000Y-39900000D03*
X114425000Y-55493750D03*
X115975000Y-55493750D03*
D13*
X114720000Y-56693750D03*
X115680000Y-56693750D03*
X114720000Y-46000000D03*
X115680000Y-46000000D03*
X114720000Y-47193750D03*
X115680000Y-47193750D03*
D12*
X114425000Y-49893750D03*
X115975000Y-49893750D03*
D13*
X114820000Y-38600000D03*
X115780000Y-38600000D03*
D12*
X114425000Y-48393750D03*
X115975000Y-48393750D03*
X111075000Y-55537500D03*
X112625000Y-55537500D03*
D13*
X111370000Y-56837500D03*
X112330000Y-56837500D03*
X111182500Y-47137500D03*
X112142500Y-47137500D03*
D12*
X110975000Y-49937500D03*
X112525000Y-49937500D03*
X110975000Y-48437500D03*
X112525000Y-48437500D03*
D14*
X112490000Y-38600000D03*
X113510000Y-38600000D03*
X133390000Y-38500000D03*
X134410000Y-38500000D03*
X133390000Y-37500000D03*
X134410000Y-37500000D03*
X125790000Y-35000000D03*
X126810000Y-35000000D03*
X112490000Y-37600000D03*
X113510000Y-37600000D03*
X129090000Y-38500000D03*
X130110000Y-38500000D03*
D15*
X115210000Y-41200000D03*
X114190000Y-41200000D03*
D16*
X113050000Y-60237500D03*
X110050000Y-60237500D03*
X108550000Y-60237500D03*
D17*
X134075000Y-44312500D03*
X133425000Y-44312500D03*
X132775000Y-44312500D03*
X132125000Y-44312500D03*
X132125000Y-40087500D03*
X132775000Y-40087500D03*
X133425000Y-40087500D03*
X134075000Y-40087500D03*
X112875000Y-44412500D03*
X112225000Y-44412500D03*
X111575000Y-44412500D03*
X110925000Y-44412500D03*
X110925000Y-40187500D03*
X111575000Y-40187500D03*
X112225000Y-40187500D03*
X112875000Y-40187500D03*
D18*
X118275000Y-39900000D03*
X118925000Y-39900000D03*
X119575000Y-39900000D03*
X120225000Y-39900000D03*
X120875000Y-39900000D03*
X121525000Y-39900000D03*
X122175000Y-39900000D03*
X122825000Y-39900000D03*
X123475000Y-39900000D03*
X124125000Y-39900000D03*
X124775000Y-39900000D03*
X125425000Y-39900000D03*
X126075000Y-39900000D03*
X126725000Y-39900000D03*
X126725000Y-47100000D03*
X126075000Y-47100000D03*
X125425000Y-47100000D03*
X124775000Y-47100000D03*
X124125000Y-47100000D03*
X123475000Y-47100000D03*
X122825000Y-47100000D03*
X122175000Y-47100000D03*
X121525000Y-47100000D03*
X120875000Y-47100000D03*
X120225000Y-47100000D03*
X119575000Y-47100000D03*
X118925000Y-47100000D03*
X118275000Y-47100000D03*
D19*
X116150000Y-53831250D03*
X115200000Y-53831250D03*
X114250000Y-53831250D03*
X114250000Y-51556250D03*
X116150000Y-51556250D03*
D20*
X117850000Y-55362500D03*
X118800000Y-55362500D03*
X119750000Y-55362500D03*
X119750000Y-57637500D03*
X117850000Y-57637500D03*
D19*
X112700000Y-53875000D03*
X111750000Y-53875000D03*
X110800000Y-53875000D03*
X110800000Y-51600000D03*
X112700000Y-51600000D03*
D21*
X109275000Y-58400000D03*
X107725000Y-58400000D03*
D22*
X130800000Y-34075000D03*
X130800000Y-32525000D03*
D12*
X126015000Y-36200000D03*
X127565000Y-36200000D03*
D11*
X122680000Y-37600000D03*
X121720000Y-37600000D03*
D23*
X124212500Y-34325000D03*
X124212500Y-34975000D03*
X124212500Y-35625000D03*
X124212500Y-36275000D03*
X119987500Y-36275000D03*
X119987500Y-35625000D03*
X119987500Y-34975000D03*
X119987500Y-34325000D03*
D12*
X125425000Y-55000000D03*
X126975000Y-55000000D03*
D24*
X107750000Y-53900000D03*
X107750000Y-51900000D03*
D25*
X102000000Y-56250000D03*
X102000000Y-49550000D03*
D12*
X134025000Y-53500000D03*
X135575000Y-53500000D03*
D21*
X123575000Y-55000000D03*
X122025000Y-55000000D03*
D22*
X110950000Y-34325000D03*
X110950000Y-32775000D03*
D26*
X129600000Y-33810000D03*
X129600000Y-32790000D03*
X132400000Y-36410000D03*
X132400000Y-35390000D03*
X109700000Y-34110000D03*
X109700000Y-33090000D03*
D27*
X133650000Y-34250000D03*
X133000000Y-34250000D03*
X132350000Y-34250000D03*
X132350000Y-32350000D03*
X133650000Y-32350000D03*
D26*
X113550000Y-36560000D03*
X113550000Y-35540000D03*
X133400000Y-36410000D03*
X133400000Y-35390000D03*
D27*
X113750000Y-34450000D03*
X113100000Y-34450000D03*
X112450000Y-34450000D03*
X112450000Y-32550000D03*
X113750000Y-32550000D03*
D28*
X119950000Y-51500000D03*
X128450000Y-51500000D03*
D29*
X133200000Y-50620000D03*
X133200000Y-51580000D03*
D14*
X123790000Y-33000000D03*
X124810000Y-33000000D03*
D30*
X137250000Y-40600000D03*
X137250000Y-42600000D03*
X137250000Y-44600000D03*
D31*
X143000000Y-38250000D03*
X143000000Y-46950000D03*
D32*
X115050000Y-33930000D03*
X115050000Y-32970000D03*
X135000000Y-33280000D03*
X135000000Y-32320000D03*
D26*
X136400000Y-51500000D03*
X136400000Y-50480000D03*
D24*
X107750000Y-44700000D03*
X107750000Y-42700000D03*
X107750000Y-40700000D03*
D25*
X102000000Y-47050000D03*
X102000000Y-38350000D03*
D33*
X128800000Y-43990000D03*
X128800000Y-45010000D03*
D15*
X126810000Y-34000000D03*
X125790000Y-34000000D03*
D11*
X120280000Y-33000000D03*
X119320000Y-33000000D03*
D26*
X112550000Y-36560000D03*
X112550000Y-35540000D03*
M02*
