G04 #@! TF.GenerationSoftware,KiCad,Pcbnew,8.0.7*
G04 #@! TF.CreationDate,2025-04-02T23:58:34+11:00*
G04 #@! TF.ProjectId,Ganglion_01,47616e67-6c69-46f6-9e5f-30312e6b6963,01*
G04 #@! TF.SameCoordinates,Original*
G04 #@! TF.FileFunction,Legend,Top*
G04 #@! TF.FilePolarity,Positive*
%FSLAX46Y46*%
G04 Gerber Fmt 4.6, Leading zero omitted, Abs format (unit mm)*
G04 Created by KiCad (PCBNEW 8.0.7) date 2025-04-02 23:58:34*
%MOMM*%
%LPD*%
G01*
G04 APERTURE LIST*
G04 Aperture macros list*
%AMRoundRect*
0 Rectangle with rounded corners*
0 $1 Rounding radius*
0 $2 $3 $4 $5 $6 $7 $8 $9 X,Y pos of 4 corners*
0 Add a 4 corners polygon primitive as box body*
4,1,4,$2,$3,$4,$5,$6,$7,$8,$9,$2,$3,0*
0 Add four circle primitives for the rounded corners*
1,1,$1+$1,$2,$3*
1,1,$1+$1,$4,$5*
1,1,$1+$1,$6,$7*
1,1,$1+$1,$8,$9*
0 Add four rect primitives between the rounded corners*
20,1,$1+$1,$2,$3,$4,$5,0*
20,1,$1+$1,$4,$5,$6,$7,0*
20,1,$1+$1,$6,$7,$8,$9,0*
20,1,$1+$1,$8,$9,$2,$3,0*%
%AMFreePoly0*
4,1,22,0.686777,0.780194,0.756366,0.724698,0.794986,0.644504,0.800000,0.600000,0.800000,-0.600000,0.780194,-0.686777,0.724698,-0.756366,0.644504,-0.794986,0.600000,-0.800000,-0.600000,-0.800000,-0.686777,-0.780194,-0.756366,-0.724698,-0.794986,-0.644504,-0.800000,-0.600000,-0.800000,0.000000,-0.780194,0.086777,-0.741421,0.141421,-0.141421,0.741421,-0.066056,0.788777,0.000000,0.800000,
0.600000,0.800000,0.686777,0.780194,0.686777,0.780194,$1*%
G04 Aperture macros list end*
%ADD10C,0.150000*%
%ADD11C,0.200000*%
%ADD12C,0.160000*%
%ADD13C,0.120000*%
%ADD14C,0.300000*%
%ADD15C,0.100000*%
%ADD16C,0.000000*%
%ADD17RoundRect,0.325000X-0.350000X0.325000X-0.350000X-0.325000X0.350000X-0.325000X0.350000X0.325000X0*%
%ADD18RoundRect,0.325000X0.350000X-0.325000X0.350000X0.325000X-0.350000X0.325000X-0.350000X-0.325000X0*%
%ADD19RoundRect,0.240000X0.270000X-0.240000X0.270000X0.240000X-0.270000X0.240000X-0.270000X-0.240000X0*%
%ADD20RoundRect,0.240000X-0.270000X0.240000X-0.270000X-0.240000X0.270000X-0.240000X0.270000X0.240000X0*%
%ADD21RoundRect,0.235000X0.285000X-0.235000X0.285000X0.235000X-0.285000X0.235000X-0.285000X-0.235000X0*%
%ADD22RoundRect,0.235000X-0.285000X0.235000X-0.285000X-0.235000X0.285000X-0.235000X0.285000X0.235000X0*%
%ADD23RoundRect,0.235000X-0.235000X-0.285000X0.235000X-0.285000X0.235000X0.285000X-0.235000X0.285000X0*%
%ADD24RoundRect,0.300000X0.300000X0.375000X-0.300000X0.375000X-0.300000X-0.375000X0.300000X-0.375000X0*%
%ADD25RoundRect,0.200000X0.800000X0.500000X-0.800000X0.500000X-0.800000X-0.500000X0.800000X-0.500000X0*%
%ADD26RoundRect,0.200000X-0.800000X-0.500000X0.800000X-0.500000X0.800000X0.500000X-0.800000X0.500000X0*%
%ADD27RoundRect,0.200000X-0.325000X-0.200000X0.325000X-0.200000X0.325000X0.200000X-0.325000X0.200000X0*%
%ADD28RoundRect,0.250000X0.612500X0.250000X-0.612500X0.250000X-0.612500X-0.250000X0.612500X-0.250000X0*%
%ADD29RoundRect,0.200000X-0.200000X0.325000X-0.200000X-0.325000X0.200000X-0.325000X0.200000X0.325000X0*%
%ADD30RoundRect,0.200000X0.525000X0.325000X-0.525000X0.325000X-0.525000X-0.325000X0.525000X-0.325000X0*%
%ADD31RoundRect,0.200000X-0.125000X0.200000X-0.125000X-0.200000X0.125000X-0.200000X0.125000X0.200000X0*%
%ADD32RoundRect,0.200000X-0.200000X0.125000X-0.200000X-0.125000X0.200000X-0.125000X0.200000X0.125000X0*%
%ADD33RoundRect,0.200000X0.325000X0.200000X-0.325000X0.200000X-0.325000X-0.200000X0.325000X-0.200000X0*%
%ADD34RoundRect,0.325000X0.325000X0.350000X-0.325000X0.350000X-0.325000X-0.350000X0.325000X-0.350000X0*%
%ADD35RoundRect,0.337500X-0.337500X0.387500X-0.337500X-0.387500X0.337500X-0.387500X0.337500X0.387500X0*%
%ADD36C,6.800000*%
%ADD37C,1.900000*%
%ADD38RoundRect,0.240000X0.240000X0.270000X-0.240000X0.270000X-0.240000X-0.270000X0.240000X-0.270000X0*%
%ADD39RoundRect,0.200000X-0.400000X0.200000X-0.400000X-0.200000X0.400000X-0.200000X0.400000X0.200000X0*%
%ADD40RoundRect,0.200000X0.200000X0.400000X-0.200000X0.400000X-0.200000X-0.400000X0.200000X-0.400000X0*%
%ADD41FreePoly0,180.000000*%
%ADD42RoundRect,0.200000X0.600000X0.600000X-0.600000X0.600000X-0.600000X-0.600000X0.600000X-0.600000X0*%
%ADD43RoundRect,0.200000X-0.400000X-0.400000X0.400000X-0.400000X0.400000X0.400000X-0.400000X0.400000X0*%
%ADD44C,1.300000*%
G04 APERTURE END LIST*
D10*
X144600000Y-43600000D02*
X139200000Y-43600000D01*
X105800000Y-45800000D02*
X100400000Y-45800000D01*
X144600000Y-41600000D02*
X139200000Y-41600000D01*
X105800000Y-39800000D02*
X100400000Y-39800000D01*
X144600000Y-45500000D02*
X139200000Y-45500000D01*
X105800000Y-43700000D02*
X100400000Y-43700000D01*
X105800000Y-50900000D02*
X100400000Y-50900000D01*
X105800000Y-55000000D02*
X100400000Y-55000000D01*
X105800000Y-41700000D02*
X100400000Y-41700000D01*
X144600000Y-39600000D02*
X139200000Y-39600000D01*
X105800000Y-52900000D02*
X100400000Y-52900000D01*
X131905826Y-46500414D02*
X131655826Y-46143271D01*
X131477255Y-46500414D02*
X131477255Y-45750414D01*
X131477255Y-45750414D02*
X131762969Y-45750414D01*
X131762969Y-45750414D02*
X131834398Y-45786128D01*
X131834398Y-45786128D02*
X131870112Y-45821842D01*
X131870112Y-45821842D02*
X131905826Y-45893271D01*
X131905826Y-45893271D02*
X131905826Y-46000414D01*
X131905826Y-46000414D02*
X131870112Y-46071842D01*
X131870112Y-46071842D02*
X131834398Y-46107557D01*
X131834398Y-46107557D02*
X131762969Y-46143271D01*
X131762969Y-46143271D02*
X131477255Y-46143271D01*
X132227255Y-46107557D02*
X132477255Y-46107557D01*
X132584398Y-46500414D02*
X132227255Y-46500414D01*
X132227255Y-46500414D02*
X132227255Y-45750414D01*
X132227255Y-45750414D02*
X132584398Y-45750414D01*
X133155826Y-46107557D02*
X132905826Y-46107557D01*
X132905826Y-46500414D02*
X132905826Y-45750414D01*
X132905826Y-45750414D02*
X133262969Y-45750414D01*
X112305826Y-39600414D02*
X112055826Y-39243271D01*
X111877255Y-39600414D02*
X111877255Y-38850414D01*
X111877255Y-38850414D02*
X112162969Y-38850414D01*
X112162969Y-38850414D02*
X112234398Y-38886128D01*
X112234398Y-38886128D02*
X112270112Y-38921842D01*
X112270112Y-38921842D02*
X112305826Y-38993271D01*
X112305826Y-38993271D02*
X112305826Y-39100414D01*
X112305826Y-39100414D02*
X112270112Y-39171842D01*
X112270112Y-39171842D02*
X112234398Y-39207557D01*
X112234398Y-39207557D02*
X112162969Y-39243271D01*
X112162969Y-39243271D02*
X111877255Y-39243271D01*
X112627255Y-39207557D02*
X112877255Y-39207557D01*
X112984398Y-39600414D02*
X112627255Y-39600414D01*
X112627255Y-39600414D02*
X112627255Y-38850414D01*
X112627255Y-38850414D02*
X112984398Y-38850414D01*
X113555826Y-39207557D02*
X113305826Y-39207557D01*
X113305826Y-39600414D02*
X113305826Y-38850414D01*
X113305826Y-38850414D02*
X113662969Y-38850414D01*
D11*
X117769673Y-42867219D02*
X117769673Y-41867219D01*
X117769673Y-41867219D02*
X118007768Y-41867219D01*
X118007768Y-41867219D02*
X118150625Y-41914838D01*
X118150625Y-41914838D02*
X118245863Y-42010076D01*
X118245863Y-42010076D02*
X118293482Y-42105314D01*
X118293482Y-42105314D02*
X118341101Y-42295790D01*
X118341101Y-42295790D02*
X118341101Y-42438647D01*
X118341101Y-42438647D02*
X118293482Y-42629123D01*
X118293482Y-42629123D02*
X118245863Y-42724361D01*
X118245863Y-42724361D02*
X118150625Y-42819600D01*
X118150625Y-42819600D02*
X118007768Y-42867219D01*
X118007768Y-42867219D02*
X117769673Y-42867219D01*
X118769673Y-42486266D02*
X119531578Y-42486266D01*
X119150625Y-42867219D02*
X119150625Y-42105314D01*
D10*
X101370112Y-51586128D02*
X101298684Y-51550414D01*
X101298684Y-51550414D02*
X101191541Y-51550414D01*
X101191541Y-51550414D02*
X101084398Y-51586128D01*
X101084398Y-51586128D02*
X101012969Y-51657557D01*
X101012969Y-51657557D02*
X100977255Y-51728985D01*
X100977255Y-51728985D02*
X100941541Y-51871842D01*
X100941541Y-51871842D02*
X100941541Y-51978985D01*
X100941541Y-51978985D02*
X100977255Y-52121842D01*
X100977255Y-52121842D02*
X101012969Y-52193271D01*
X101012969Y-52193271D02*
X101084398Y-52264700D01*
X101084398Y-52264700D02*
X101191541Y-52300414D01*
X101191541Y-52300414D02*
X101262969Y-52300414D01*
X101262969Y-52300414D02*
X101370112Y-52264700D01*
X101370112Y-52264700D02*
X101405826Y-52228985D01*
X101405826Y-52228985D02*
X101405826Y-51978985D01*
X101405826Y-51978985D02*
X101262969Y-51978985D01*
X101727255Y-52300414D02*
X101727255Y-51550414D01*
X101727255Y-51550414D02*
X102155826Y-52300414D01*
X102155826Y-52300414D02*
X102155826Y-51550414D01*
X102512969Y-52300414D02*
X102512969Y-51550414D01*
X102512969Y-51550414D02*
X102691540Y-51550414D01*
X102691540Y-51550414D02*
X102798683Y-51586128D01*
X102798683Y-51586128D02*
X102870112Y-51657557D01*
X102870112Y-51657557D02*
X102905826Y-51728985D01*
X102905826Y-51728985D02*
X102941540Y-51871842D01*
X102941540Y-51871842D02*
X102941540Y-51978985D01*
X102941540Y-51978985D02*
X102905826Y-52121842D01*
X102905826Y-52121842D02*
X102870112Y-52193271D01*
X102870112Y-52193271D02*
X102798683Y-52264700D01*
X102798683Y-52264700D02*
X102691540Y-52300414D01*
X102691540Y-52300414D02*
X102512969Y-52300414D01*
X131377255Y-39500414D02*
X131377255Y-38750414D01*
X131377255Y-38750414D02*
X131805826Y-39500414D01*
X131805826Y-39500414D02*
X131805826Y-38750414D01*
X132162969Y-39107557D02*
X132412969Y-39107557D01*
X132520112Y-39500414D02*
X132162969Y-39500414D01*
X132162969Y-39500414D02*
X132162969Y-38750414D01*
X132162969Y-38750414D02*
X132520112Y-38750414D01*
X133234397Y-38786128D02*
X133162969Y-38750414D01*
X133162969Y-38750414D02*
X133055826Y-38750414D01*
X133055826Y-38750414D02*
X132948683Y-38786128D01*
X132948683Y-38786128D02*
X132877254Y-38857557D01*
X132877254Y-38857557D02*
X132841540Y-38928985D01*
X132841540Y-38928985D02*
X132805826Y-39071842D01*
X132805826Y-39071842D02*
X132805826Y-39178985D01*
X132805826Y-39178985D02*
X132841540Y-39321842D01*
X132841540Y-39321842D02*
X132877254Y-39393271D01*
X132877254Y-39393271D02*
X132948683Y-39464700D01*
X132948683Y-39464700D02*
X133055826Y-39500414D01*
X133055826Y-39500414D02*
X133127254Y-39500414D01*
X133127254Y-39500414D02*
X133234397Y-39464700D01*
X133234397Y-39464700D02*
X133270111Y-39428985D01*
X133270111Y-39428985D02*
X133270111Y-39178985D01*
X133270111Y-39178985D02*
X133127254Y-39178985D01*
D12*
G36*
X135587424Y-35964000D02*
G01*
X135299413Y-35151159D01*
X135475854Y-35151159D01*
X135679651Y-35751411D01*
X135876999Y-35151159D01*
X136049532Y-35151159D01*
X135761130Y-35964000D01*
X135587424Y-35964000D01*
G37*
G36*
X136489364Y-35964000D02*
G01*
X136335003Y-35964000D01*
X136335003Y-35375863D01*
X136302211Y-35406111D01*
X136267290Y-35433254D01*
X136230239Y-35457292D01*
X136191058Y-35478225D01*
X136149749Y-35496053D01*
X136135505Y-35501306D01*
X136135505Y-35351243D01*
X136174271Y-35335757D01*
X136210923Y-35316011D01*
X136244903Y-35293839D01*
X136266810Y-35277775D01*
X136299490Y-35249491D01*
X136326601Y-35218961D01*
X136348143Y-35186184D01*
X136364117Y-35151159D01*
X136489364Y-35151159D01*
X136489364Y-35964000D01*
G37*
D10*
X100941541Y-44421842D02*
X100977255Y-44386128D01*
X100977255Y-44386128D02*
X101048684Y-44350414D01*
X101048684Y-44350414D02*
X101227255Y-44350414D01*
X101227255Y-44350414D02*
X101298684Y-44386128D01*
X101298684Y-44386128D02*
X101334398Y-44421842D01*
X101334398Y-44421842D02*
X101370112Y-44493271D01*
X101370112Y-44493271D02*
X101370112Y-44564700D01*
X101370112Y-44564700D02*
X101334398Y-44671842D01*
X101334398Y-44671842D02*
X100905826Y-45100414D01*
X100905826Y-45100414D02*
X101370112Y-45100414D01*
X102262970Y-45100414D02*
X102262970Y-44350414D01*
X102620113Y-45100414D02*
X102620113Y-44350414D01*
X102620113Y-44350414D02*
X103048684Y-45100414D01*
X103048684Y-45100414D02*
X103048684Y-44350414D01*
X103405827Y-44814700D02*
X103977256Y-44814700D01*
X103691541Y-45100414D02*
X103691541Y-44528985D01*
D13*
X101107518Y-56320331D02*
X100821804Y-56320331D01*
X100821804Y-56320331D02*
X100793232Y-56606045D01*
X100793232Y-56606045D02*
X100821804Y-56577474D01*
X100821804Y-56577474D02*
X100878947Y-56548902D01*
X100878947Y-56548902D02*
X101021804Y-56548902D01*
X101021804Y-56548902D02*
X101078947Y-56577474D01*
X101078947Y-56577474D02*
X101107518Y-56606045D01*
X101107518Y-56606045D02*
X101136089Y-56663188D01*
X101136089Y-56663188D02*
X101136089Y-56806045D01*
X101136089Y-56806045D02*
X101107518Y-56863188D01*
X101107518Y-56863188D02*
X101078947Y-56891760D01*
X101078947Y-56891760D02*
X101021804Y-56920331D01*
X101021804Y-56920331D02*
X100878947Y-56920331D01*
X100878947Y-56920331D02*
X100821804Y-56891760D01*
X100821804Y-56891760D02*
X100793232Y-56863188D01*
X101307518Y-56320331D02*
X101507518Y-56920331D01*
X101507518Y-56920331D02*
X101707518Y-56320331D01*
X102364662Y-56920331D02*
X102364662Y-56320331D01*
X102364662Y-56320331D02*
X102564662Y-56748902D01*
X102564662Y-56748902D02*
X102764662Y-56320331D01*
X102764662Y-56320331D02*
X102764662Y-56920331D01*
X103021804Y-56748902D02*
X103307519Y-56748902D01*
X102964661Y-56920331D02*
X103164661Y-56320331D01*
X103164661Y-56320331D02*
X103364661Y-56920331D01*
X103507519Y-56320331D02*
X103907519Y-56920331D01*
X103907519Y-56320331D02*
X103507519Y-56920331D01*
D10*
X100977255Y-41100414D02*
X100977255Y-40350414D01*
X100977255Y-40350414D02*
X101155826Y-40350414D01*
X101155826Y-40350414D02*
X101262969Y-40386128D01*
X101262969Y-40386128D02*
X101334398Y-40457557D01*
X101334398Y-40457557D02*
X101370112Y-40528985D01*
X101370112Y-40528985D02*
X101405826Y-40671842D01*
X101405826Y-40671842D02*
X101405826Y-40778985D01*
X101405826Y-40778985D02*
X101370112Y-40921842D01*
X101370112Y-40921842D02*
X101334398Y-40993271D01*
X101334398Y-40993271D02*
X101262969Y-41064700D01*
X101262969Y-41064700D02*
X101155826Y-41100414D01*
X101155826Y-41100414D02*
X100977255Y-41100414D01*
X102120112Y-40386128D02*
X102048684Y-40350414D01*
X102048684Y-40350414D02*
X101941541Y-40350414D01*
X101941541Y-40350414D02*
X101834398Y-40386128D01*
X101834398Y-40386128D02*
X101762969Y-40457557D01*
X101762969Y-40457557D02*
X101727255Y-40528985D01*
X101727255Y-40528985D02*
X101691541Y-40671842D01*
X101691541Y-40671842D02*
X101691541Y-40778985D01*
X101691541Y-40778985D02*
X101727255Y-40921842D01*
X101727255Y-40921842D02*
X101762969Y-40993271D01*
X101762969Y-40993271D02*
X101834398Y-41064700D01*
X101834398Y-41064700D02*
X101941541Y-41100414D01*
X101941541Y-41100414D02*
X102012969Y-41100414D01*
X102012969Y-41100414D02*
X102120112Y-41064700D01*
X102120112Y-41064700D02*
X102155826Y-41028985D01*
X102155826Y-41028985D02*
X102155826Y-40778985D01*
X102155826Y-40778985D02*
X102012969Y-40778985D01*
X132882143Y-63846307D02*
X132989286Y-63882021D01*
X132989286Y-63882021D02*
X133025000Y-63917735D01*
X133025000Y-63917735D02*
X133060714Y-63989164D01*
X133060714Y-63989164D02*
X133060714Y-64096307D01*
X133060714Y-64096307D02*
X133025000Y-64167735D01*
X133025000Y-64167735D02*
X132989286Y-64203450D01*
X132989286Y-64203450D02*
X132917857Y-64239164D01*
X132917857Y-64239164D02*
X132632143Y-64239164D01*
X132632143Y-64239164D02*
X132632143Y-63489164D01*
X132632143Y-63489164D02*
X132882143Y-63489164D01*
X132882143Y-63489164D02*
X132953572Y-63524878D01*
X132953572Y-63524878D02*
X132989286Y-63560592D01*
X132989286Y-63560592D02*
X133025000Y-63632021D01*
X133025000Y-63632021D02*
X133025000Y-63703450D01*
X133025000Y-63703450D02*
X132989286Y-63774878D01*
X132989286Y-63774878D02*
X132953572Y-63810592D01*
X132953572Y-63810592D02*
X132882143Y-63846307D01*
X132882143Y-63846307D02*
X132632143Y-63846307D01*
X133525000Y-63489164D02*
X133667857Y-63489164D01*
X133667857Y-63489164D02*
X133739286Y-63524878D01*
X133739286Y-63524878D02*
X133810714Y-63596307D01*
X133810714Y-63596307D02*
X133846429Y-63739164D01*
X133846429Y-63739164D02*
X133846429Y-63989164D01*
X133846429Y-63989164D02*
X133810714Y-64132021D01*
X133810714Y-64132021D02*
X133739286Y-64203450D01*
X133739286Y-64203450D02*
X133667857Y-64239164D01*
X133667857Y-64239164D02*
X133525000Y-64239164D01*
X133525000Y-64239164D02*
X133453572Y-64203450D01*
X133453572Y-64203450D02*
X133382143Y-64132021D01*
X133382143Y-64132021D02*
X133346429Y-63989164D01*
X133346429Y-63989164D02*
X133346429Y-63739164D01*
X133346429Y-63739164D02*
X133382143Y-63596307D01*
X133382143Y-63596307D02*
X133453572Y-63524878D01*
X133453572Y-63524878D02*
X133525000Y-63489164D01*
X134310714Y-63489164D02*
X134453571Y-63489164D01*
X134453571Y-63489164D02*
X134525000Y-63524878D01*
X134525000Y-63524878D02*
X134596428Y-63596307D01*
X134596428Y-63596307D02*
X134632143Y-63739164D01*
X134632143Y-63739164D02*
X134632143Y-63989164D01*
X134632143Y-63989164D02*
X134596428Y-64132021D01*
X134596428Y-64132021D02*
X134525000Y-64203450D01*
X134525000Y-64203450D02*
X134453571Y-64239164D01*
X134453571Y-64239164D02*
X134310714Y-64239164D01*
X134310714Y-64239164D02*
X134239286Y-64203450D01*
X134239286Y-64203450D02*
X134167857Y-64132021D01*
X134167857Y-64132021D02*
X134132143Y-63989164D01*
X134132143Y-63989164D02*
X134132143Y-63739164D01*
X134132143Y-63739164D02*
X134167857Y-63596307D01*
X134167857Y-63596307D02*
X134239286Y-63524878D01*
X134239286Y-63524878D02*
X134310714Y-63489164D01*
X134846428Y-63489164D02*
X135275000Y-63489164D01*
X135060714Y-64239164D02*
X135060714Y-63489164D01*
D11*
X124569673Y-42867219D02*
X124569673Y-41867219D01*
X124569673Y-41867219D02*
X124807768Y-41867219D01*
X124807768Y-41867219D02*
X124950625Y-41914838D01*
X124950625Y-41914838D02*
X125045863Y-42010076D01*
X125045863Y-42010076D02*
X125093482Y-42105314D01*
X125093482Y-42105314D02*
X125141101Y-42295790D01*
X125141101Y-42295790D02*
X125141101Y-42438647D01*
X125141101Y-42438647D02*
X125093482Y-42629123D01*
X125093482Y-42629123D02*
X125045863Y-42724361D01*
X125045863Y-42724361D02*
X124950625Y-42819600D01*
X124950625Y-42819600D02*
X124807768Y-42867219D01*
X124807768Y-42867219D02*
X124569673Y-42867219D01*
X125569673Y-42486266D02*
X126331578Y-42486266D01*
D10*
X142805826Y-44900414D02*
X142555826Y-44543271D01*
X142377255Y-44900414D02*
X142377255Y-44150414D01*
X142377255Y-44150414D02*
X142662969Y-44150414D01*
X142662969Y-44150414D02*
X142734398Y-44186128D01*
X142734398Y-44186128D02*
X142770112Y-44221842D01*
X142770112Y-44221842D02*
X142805826Y-44293271D01*
X142805826Y-44293271D02*
X142805826Y-44400414D01*
X142805826Y-44400414D02*
X142770112Y-44471842D01*
X142770112Y-44471842D02*
X142734398Y-44507557D01*
X142734398Y-44507557D02*
X142662969Y-44543271D01*
X142662969Y-44543271D02*
X142377255Y-44543271D01*
X143127255Y-44507557D02*
X143377255Y-44507557D01*
X143484398Y-44900414D02*
X143127255Y-44900414D01*
X143127255Y-44900414D02*
X143127255Y-44150414D01*
X143127255Y-44150414D02*
X143484398Y-44150414D01*
X144055826Y-44507557D02*
X143805826Y-44507557D01*
X143805826Y-44900414D02*
X143805826Y-44150414D01*
X143805826Y-44150414D02*
X144162969Y-44150414D01*
X111777255Y-46500414D02*
X111777255Y-45750414D01*
X111777255Y-45750414D02*
X112205826Y-46500414D01*
X112205826Y-46500414D02*
X112205826Y-45750414D01*
X112562969Y-46107557D02*
X112812969Y-46107557D01*
X112920112Y-46500414D02*
X112562969Y-46500414D01*
X112562969Y-46500414D02*
X112562969Y-45750414D01*
X112562969Y-45750414D02*
X112920112Y-45750414D01*
X113634397Y-45786128D02*
X113562969Y-45750414D01*
X113562969Y-45750414D02*
X113455826Y-45750414D01*
X113455826Y-45750414D02*
X113348683Y-45786128D01*
X113348683Y-45786128D02*
X113277254Y-45857557D01*
X113277254Y-45857557D02*
X113241540Y-45928985D01*
X113241540Y-45928985D02*
X113205826Y-46071842D01*
X113205826Y-46071842D02*
X113205826Y-46178985D01*
X113205826Y-46178985D02*
X113241540Y-46321842D01*
X113241540Y-46321842D02*
X113277254Y-46393271D01*
X113277254Y-46393271D02*
X113348683Y-46464700D01*
X113348683Y-46464700D02*
X113455826Y-46500414D01*
X113455826Y-46500414D02*
X113527254Y-46500414D01*
X113527254Y-46500414D02*
X113634397Y-46464700D01*
X113634397Y-46464700D02*
X113670111Y-46428985D01*
X113670111Y-46428985D02*
X113670111Y-46178985D01*
X113670111Y-46178985D02*
X113527254Y-46178985D01*
X100941541Y-42421842D02*
X100977255Y-42386128D01*
X100977255Y-42386128D02*
X101048684Y-42350414D01*
X101048684Y-42350414D02*
X101227255Y-42350414D01*
X101227255Y-42350414D02*
X101298684Y-42386128D01*
X101298684Y-42386128D02*
X101334398Y-42421842D01*
X101334398Y-42421842D02*
X101370112Y-42493271D01*
X101370112Y-42493271D02*
X101370112Y-42564700D01*
X101370112Y-42564700D02*
X101334398Y-42671842D01*
X101334398Y-42671842D02*
X100905826Y-43100414D01*
X100905826Y-43100414D02*
X101370112Y-43100414D01*
X102262970Y-43100414D02*
X102262970Y-42350414D01*
X102620113Y-43100414D02*
X102620113Y-42350414D01*
X102620113Y-42350414D02*
X103048684Y-43100414D01*
X103048684Y-43100414D02*
X103048684Y-42350414D01*
X103405827Y-42814700D02*
X103977256Y-42814700D01*
X141570112Y-43000414D02*
X141141541Y-43000414D01*
X141355826Y-43000414D02*
X141355826Y-42250414D01*
X141355826Y-42250414D02*
X141284398Y-42357557D01*
X141284398Y-42357557D02*
X141212969Y-42428985D01*
X141212969Y-42428985D02*
X141141541Y-42464700D01*
X142462970Y-43000414D02*
X142462970Y-42250414D01*
X142820113Y-43000414D02*
X142820113Y-42250414D01*
X142820113Y-42250414D02*
X143248684Y-43000414D01*
X143248684Y-43000414D02*
X143248684Y-42250414D01*
X143605827Y-42714700D02*
X144177256Y-42714700D01*
X141570112Y-40900414D02*
X141141541Y-40900414D01*
X141355826Y-40900414D02*
X141355826Y-40150414D01*
X141355826Y-40150414D02*
X141284398Y-40257557D01*
X141284398Y-40257557D02*
X141212969Y-40328985D01*
X141212969Y-40328985D02*
X141141541Y-40364700D01*
X142462970Y-40900414D02*
X142462970Y-40150414D01*
X142820113Y-40900414D02*
X142820113Y-40150414D01*
X142820113Y-40150414D02*
X143248684Y-40900414D01*
X143248684Y-40900414D02*
X143248684Y-40150414D01*
X143605827Y-40614700D02*
X144177256Y-40614700D01*
X143891541Y-40900414D02*
X143891541Y-40328985D01*
D14*
G36*
X127430094Y-33576547D02*
G01*
X127430094Y-33893452D01*
X126278245Y-33893452D01*
X126278245Y-33576547D01*
X127430094Y-33576547D01*
G37*
G36*
X126574267Y-33734816D02*
G01*
X126471685Y-34367894D01*
X126295464Y-34169691D01*
X127501169Y-34169691D01*
X127501169Y-34522500D01*
X126037177Y-34522500D01*
X126156612Y-33734816D01*
X126037177Y-32947500D01*
X127490544Y-32947500D01*
X127490544Y-33300308D01*
X126295464Y-33300308D01*
X126471685Y-33102105D01*
X126574267Y-33734816D01*
G37*
G36*
X127680321Y-34006292D02*
G01*
X128122889Y-34006292D01*
X128148843Y-34077968D01*
X128182973Y-34119865D01*
X128246514Y-34164758D01*
X128318894Y-34194237D01*
X128393149Y-34211316D01*
X128470386Y-34219353D01*
X128519295Y-34220615D01*
X128595224Y-34218028D01*
X128670353Y-34208931D01*
X128747380Y-34188919D01*
X128771354Y-34179216D01*
X128834215Y-34135449D01*
X128862952Y-34067740D01*
X128863311Y-34057950D01*
X128838376Y-33987960D01*
X128810555Y-33964160D01*
X128740187Y-33936302D01*
X128661570Y-33921500D01*
X128609054Y-33915434D01*
X128316696Y-33887957D01*
X128237733Y-33879324D01*
X128164426Y-33867898D01*
X128080745Y-33849687D01*
X128005901Y-33827111D01*
X127927754Y-33794259D01*
X127862332Y-33755121D01*
X127843353Y-33740678D01*
X127786537Y-33684749D01*
X127743676Y-33620826D01*
X127714770Y-33548908D01*
X127699818Y-33468996D01*
X127697540Y-33419743D01*
X127703494Y-33340883D01*
X127721354Y-33268435D01*
X127755679Y-33194594D01*
X127792795Y-33142772D01*
X127845254Y-33089763D01*
X127907375Y-33043579D01*
X127979160Y-33004217D01*
X128049898Y-32975374D01*
X128060607Y-32971680D01*
X128139084Y-32948839D01*
X128210843Y-32933726D01*
X128286749Y-32922736D01*
X128366802Y-32915866D01*
X128451003Y-32913119D01*
X128465440Y-32913061D01*
X128548928Y-32915341D01*
X128628758Y-32922180D01*
X128704930Y-32933579D01*
X128777445Y-32949537D01*
X128857421Y-32973918D01*
X128868440Y-32977908D01*
X128941923Y-33008767D01*
X129008499Y-33044606D01*
X129076127Y-33091661D01*
X129134734Y-33145219D01*
X129147976Y-33159624D01*
X129194115Y-33220510D01*
X129228485Y-33286295D01*
X129251085Y-33356980D01*
X129261916Y-33432566D01*
X128819347Y-33432566D01*
X128790949Y-33362434D01*
X128766591Y-33335479D01*
X128701632Y-33293517D01*
X128643493Y-33272098D01*
X128569321Y-33256571D01*
X128489899Y-33249938D01*
X128456647Y-33249384D01*
X128378997Y-33252485D01*
X128303935Y-33263204D01*
X128229446Y-33286173D01*
X128224006Y-33288585D01*
X128162471Y-33333042D01*
X128138276Y-33402890D01*
X128166715Y-33473164D01*
X128188835Y-33491184D01*
X128260459Y-33519486D01*
X128334140Y-33533524D01*
X128374215Y-33538445D01*
X128688555Y-33569220D01*
X128769244Y-33578021D01*
X128843699Y-33589038D01*
X128922684Y-33604690D01*
X129002563Y-33626272D01*
X129046860Y-33641760D01*
X129116814Y-33673860D01*
X129180742Y-33716664D01*
X129234285Y-33772427D01*
X129242132Y-33783543D01*
X129276757Y-33850620D01*
X129297009Y-33928434D01*
X129302948Y-34008490D01*
X129296766Y-34088335D01*
X129278219Y-34163005D01*
X129247307Y-34232499D01*
X129204030Y-34296819D01*
X129149762Y-34355117D01*
X129085511Y-34406545D01*
X129021102Y-34445910D01*
X128949049Y-34480016D01*
X128927059Y-34488794D01*
X128846303Y-34515346D01*
X128772535Y-34532914D01*
X128694568Y-34545691D01*
X128612402Y-34553677D01*
X128526037Y-34556871D01*
X128511235Y-34556938D01*
X128436311Y-34555256D01*
X128350204Y-34548799D01*
X128268244Y-34537499D01*
X128190432Y-34521356D01*
X128116767Y-34500370D01*
X128081490Y-34488061D01*
X128004368Y-34455281D01*
X127934890Y-34417206D01*
X127873055Y-34373836D01*
X127811746Y-34317788D01*
X127791329Y-34294987D01*
X127744961Y-34230232D01*
X127711004Y-34160532D01*
X127689457Y-34085885D01*
X127680321Y-34006292D01*
G37*
G36*
X130404606Y-32947500D02*
G01*
X130489101Y-32950725D01*
X130568196Y-32960402D01*
X130641892Y-32976531D01*
X130719504Y-33002863D01*
X130746790Y-33014911D01*
X130814041Y-33052051D01*
X130872911Y-33096060D01*
X130929122Y-33153782D01*
X130965509Y-33204687D01*
X131002346Y-33276764D01*
X131027127Y-33355332D01*
X131039034Y-33430619D01*
X131041713Y-33490451D01*
X131036950Y-33569609D01*
X131022662Y-33643683D01*
X130995202Y-33720941D01*
X130965509Y-33776582D01*
X130917548Y-33841066D01*
X130858979Y-33896855D01*
X130798014Y-33939147D01*
X130746790Y-33966359D01*
X130671823Y-33995851D01*
X130600441Y-34014744D01*
X130523660Y-34027186D01*
X130441479Y-34033177D01*
X130404606Y-34033770D01*
X129722069Y-34033770D01*
X129722069Y-33684624D01*
X130378960Y-33684624D01*
X130456713Y-33676099D01*
X130527343Y-33645074D01*
X130542725Y-33632967D01*
X130586964Y-33571509D01*
X130601652Y-33496092D01*
X130601710Y-33490451D01*
X130590420Y-33417843D01*
X130549868Y-33354095D01*
X130542725Y-33347569D01*
X130477547Y-33311017D01*
X130404520Y-33297440D01*
X130378960Y-33296645D01*
X129760904Y-33296645D01*
X129956542Y-33094778D01*
X129956542Y-34522500D01*
X129520569Y-34522500D01*
X129520569Y-32947500D01*
X130404606Y-32947500D01*
G37*
G36*
X131665265Y-32947500D02*
G01*
X131665265Y-34329426D01*
X131469627Y-34135252D01*
X132647121Y-34135252D01*
X132647121Y-34522500D01*
X131229292Y-34522500D01*
X131229292Y-32947500D01*
X131665265Y-32947500D01*
G37*
G36*
X132804658Y-33303972D02*
G01*
X133019347Y-33346837D01*
X133234037Y-33303972D01*
X133234037Y-34522500D01*
X132804658Y-34522500D01*
X132804658Y-33303972D01*
G37*
G36*
X133018248Y-33206519D02*
G01*
X132940814Y-33198636D01*
X132870066Y-33172307D01*
X132837631Y-33150465D01*
X132790297Y-33093594D01*
X132769470Y-33021717D01*
X132768388Y-32998424D01*
X132781641Y-32922079D01*
X132825256Y-32857244D01*
X132837631Y-32846383D01*
X132906463Y-32807815D01*
X132978076Y-32791946D01*
X133018248Y-32789963D01*
X133091379Y-32796630D01*
X133163741Y-32821699D01*
X133200698Y-32846383D01*
X133247531Y-32903074D01*
X133268137Y-32975051D01*
X133269208Y-32998424D01*
X133256095Y-33074589D01*
X133212941Y-33139542D01*
X133200698Y-33150465D01*
X133132236Y-33188783D01*
X133059490Y-33204548D01*
X133018248Y-33206519D01*
G37*
G36*
X134267177Y-33291013D02*
G01*
X134347389Y-33299398D01*
X134423557Y-33313373D01*
X134495681Y-33332938D01*
X134574714Y-33362828D01*
X134585555Y-33367719D01*
X134657545Y-33405391D01*
X134722207Y-33449164D01*
X134779541Y-33499037D01*
X134829548Y-33555012D01*
X134854832Y-33589736D01*
X134892519Y-33654401D01*
X134920950Y-33723694D01*
X134940124Y-33797615D01*
X134950041Y-33876164D01*
X134951553Y-33923128D01*
X134946924Y-34003500D01*
X134933040Y-34079525D01*
X134909899Y-34151202D01*
X134877501Y-34218532D01*
X134854832Y-34255054D01*
X134809014Y-34314674D01*
X134755867Y-34368194D01*
X134695392Y-34415613D01*
X134627589Y-34456932D01*
X134585555Y-34477803D01*
X134507166Y-34508638D01*
X134435622Y-34529040D01*
X134360059Y-34543877D01*
X134280478Y-34553151D01*
X134196878Y-34556860D01*
X134182554Y-34556938D01*
X134098409Y-34554156D01*
X134018257Y-34545809D01*
X133942097Y-34531899D01*
X133869931Y-34512424D01*
X133790783Y-34482672D01*
X133779920Y-34477803D01*
X133707929Y-34439971D01*
X133643267Y-34396038D01*
X133585933Y-34346004D01*
X133535927Y-34289870D01*
X133510642Y-34255054D01*
X133473098Y-34190083D01*
X133444775Y-34120835D01*
X133425674Y-34047310D01*
X133415794Y-33969507D01*
X133414288Y-33923128D01*
X133414330Y-33922395D01*
X133847697Y-33922395D01*
X133854288Y-33998110D01*
X133876126Y-34069236D01*
X133887631Y-34092021D01*
X133933140Y-34150883D01*
X133994105Y-34195577D01*
X134003402Y-34200465D01*
X134075089Y-34226261D01*
X134151200Y-34237280D01*
X134182920Y-34238201D01*
X134257899Y-34232894D01*
X134329126Y-34215169D01*
X134363172Y-34200465D01*
X134425591Y-34157580D01*
X134472716Y-34100366D01*
X134477844Y-34091655D01*
X134506770Y-34019409D01*
X134517790Y-33941230D01*
X134518144Y-33923128D01*
X134511493Y-33846998D01*
X134489454Y-33775832D01*
X134477844Y-33753135D01*
X134432758Y-33694090D01*
X134372378Y-33649536D01*
X134363172Y-33644691D01*
X134292065Y-33618895D01*
X134215238Y-33607876D01*
X134182920Y-33606955D01*
X134109075Y-33612262D01*
X134037913Y-33629987D01*
X134003402Y-33644691D01*
X133940376Y-33687313D01*
X133892806Y-33744425D01*
X133887631Y-33753135D01*
X133858967Y-33825359D01*
X133848321Y-33898112D01*
X133847697Y-33922395D01*
X133414330Y-33922395D01*
X133418899Y-33842059D01*
X133432731Y-33765548D01*
X133455784Y-33693595D01*
X133488059Y-33626201D01*
X133510642Y-33589736D01*
X133556461Y-33530276D01*
X133609608Y-33476916D01*
X133670082Y-33429657D01*
X133737885Y-33388499D01*
X133779920Y-33367719D01*
X133858434Y-33336742D01*
X133930030Y-33316245D01*
X134005592Y-33301339D01*
X134085122Y-33292023D01*
X134168619Y-33288296D01*
X134182920Y-33288218D01*
X134267177Y-33291013D01*
G37*
G36*
X135068056Y-33322657D02*
G01*
X135497069Y-33322657D01*
X135576204Y-33802594D01*
X135576204Y-34522500D01*
X135146825Y-34522500D01*
X135146825Y-33737381D01*
X135068056Y-33322657D01*
G37*
G36*
X136015841Y-33288218D02*
G01*
X136099074Y-33292546D01*
X136175850Y-33305529D01*
X136246169Y-33327167D01*
X136310031Y-33357461D01*
X136373929Y-33400754D01*
X136428785Y-33453147D01*
X136474599Y-33514639D01*
X136496144Y-33552733D01*
X136527314Y-33627305D01*
X136546457Y-33699771D01*
X136557539Y-33778053D01*
X136560625Y-33851320D01*
X136560625Y-34522500D01*
X136131246Y-34522500D01*
X136131246Y-33914335D01*
X136124591Y-33836103D01*
X136101899Y-33764512D01*
X136063102Y-33708072D01*
X136003596Y-33664761D01*
X135927295Y-33641439D01*
X135867097Y-33636997D01*
X135793617Y-33644220D01*
X135720458Y-33670163D01*
X135712125Y-33674733D01*
X135654148Y-33720345D01*
X135611375Y-33781711D01*
X135586130Y-33851998D01*
X135576513Y-33927913D01*
X135576204Y-33945476D01*
X135442847Y-33876599D01*
X135456589Y-33795395D01*
X135475695Y-33720082D01*
X135500166Y-33650658D01*
X135534702Y-33578530D01*
X135549459Y-33553466D01*
X135592736Y-33492054D01*
X135647225Y-33432491D01*
X135707857Y-33383012D01*
X135751692Y-33355629D01*
X135821318Y-33323043D01*
X135894596Y-33301121D01*
X135971525Y-33289864D01*
X136015841Y-33288218D01*
G37*
D10*
X100870112Y-53550414D02*
X101120112Y-54300414D01*
X101120112Y-54300414D02*
X101370112Y-53550414D01*
X101620112Y-54014700D02*
X102191541Y-54014700D01*
X101905826Y-54300414D02*
X101905826Y-53728985D01*
D13*
X138310000Y-57359420D02*
X138310000Y-57640580D01*
X137290000Y-57359420D02*
X137290000Y-57640580D01*
X136710000Y-57359420D02*
X136710000Y-57640580D01*
X135690000Y-57359420D02*
X135690000Y-57640580D01*
X134090000Y-57640580D02*
X134090000Y-57359420D01*
X135110000Y-57640580D02*
X135110000Y-57359420D01*
X132490000Y-57640580D02*
X132490000Y-57359420D01*
X133510000Y-57640580D02*
X133510000Y-57359420D01*
X131240000Y-57207836D02*
X131240000Y-56992164D01*
X131960000Y-57207836D02*
X131960000Y-56992164D01*
X119340000Y-39692164D02*
X119340000Y-39907836D01*
X120060000Y-39692164D02*
X120060000Y-39907836D01*
X118340000Y-37492164D02*
X118340000Y-37707836D01*
X119060000Y-37492164D02*
X119060000Y-37707836D01*
X141640000Y-50292164D02*
X141640000Y-50507836D01*
X142360000Y-50292164D02*
X142360000Y-50507836D01*
X124790000Y-39540580D02*
X124790000Y-39259420D01*
X125810000Y-39540580D02*
X125810000Y-39259420D01*
X137388600Y-52940580D02*
X137388600Y-52659420D01*
X138408600Y-52940580D02*
X138408600Y-52659420D01*
X135890000Y-52940580D02*
X135890000Y-52659420D01*
X136910000Y-52940580D02*
X136910000Y-52659420D01*
X136120000Y-40253641D02*
X136120000Y-39946359D01*
X136880000Y-40253641D02*
X136880000Y-39946359D01*
X137220000Y-39956359D02*
X137220000Y-40263641D01*
X137980000Y-39956359D02*
X137980000Y-40263641D01*
X107120000Y-40453641D02*
X107120000Y-40146359D01*
X107880000Y-40453641D02*
X107880000Y-40146359D01*
X108220000Y-40146359D02*
X108220000Y-40453641D01*
X108980000Y-40146359D02*
X108980000Y-40453641D01*
X120146359Y-34120000D02*
X120453641Y-34120000D01*
X120146359Y-34880000D02*
X120453641Y-34880000D01*
X123620000Y-34653641D02*
X123620000Y-34346359D01*
X124380000Y-34653641D02*
X124380000Y-34346359D01*
X121537258Y-32455000D02*
X121062742Y-32455000D01*
X121537258Y-33500000D02*
X121062742Y-33500000D01*
D10*
X131350000Y-45350000D02*
X131350000Y-39850000D01*
X134350000Y-39850000D02*
X131350000Y-39850000D01*
X134350000Y-45350000D02*
X131350000Y-45350000D01*
X134350000Y-45350000D02*
X134350000Y-39850000D01*
X110650000Y-39950000D02*
X110650000Y-45450000D01*
X110650000Y-39950000D02*
X113650000Y-39950000D01*
X110650000Y-45450000D02*
X113650000Y-45450000D01*
X113650000Y-39950000D02*
X113650000Y-45450000D01*
D13*
X134200000Y-48660000D02*
X135600000Y-48660000D01*
X135600000Y-46340000D02*
X133700000Y-46340000D01*
X121300000Y-35140000D02*
X120500000Y-35140000D01*
X121300000Y-35140000D02*
X122100000Y-35140000D01*
X121300000Y-38260000D02*
X120500000Y-38260000D01*
X121300000Y-38260000D02*
X123100000Y-38260000D01*
X138940000Y-49300000D02*
X138940000Y-50700000D01*
X141260000Y-50700000D02*
X141260000Y-48800000D01*
D15*
X139100000Y-51837500D02*
X141100000Y-51837500D01*
X139100000Y-53837500D02*
X139100000Y-51837500D01*
X141100000Y-51837500D02*
X141100000Y-53837500D01*
X141100000Y-53837500D02*
X139100000Y-53837500D01*
D13*
X121100000Y-40960000D02*
X123000000Y-40960000D01*
X122500000Y-38640000D02*
X121100000Y-38640000D01*
X118320000Y-35853641D02*
X118320000Y-35546359D01*
X119080000Y-35853641D02*
X119080000Y-35546359D01*
X109392800Y-49740580D02*
X109392800Y-49459420D01*
X110412800Y-49740580D02*
X110412800Y-49459420D01*
X106802800Y-50760000D02*
X108702800Y-50760000D01*
X108202800Y-48440000D02*
X106802800Y-48440000D01*
X136300000Y-43760000D02*
X138200000Y-43760000D01*
X137700000Y-41440000D02*
X136300000Y-41440000D01*
X107300000Y-43860000D02*
X108700000Y-43860000D01*
X108700000Y-41540000D02*
X106800000Y-41540000D01*
X115800000Y-41060000D02*
X117200000Y-41060000D01*
X117200000Y-38740000D02*
X115300000Y-38740000D01*
X128050000Y-38410000D02*
X129950000Y-38410000D01*
X129450000Y-36090000D02*
X128050000Y-36090000D01*
X128050000Y-41410000D02*
X129950000Y-41410000D01*
X129450000Y-39090000D02*
X128050000Y-39090000D01*
X107640580Y-46890000D02*
X107359420Y-46890000D01*
X107640580Y-47910000D02*
X107359420Y-47910000D01*
X118240000Y-39692164D02*
X118240000Y-39907836D01*
X118960000Y-39692164D02*
X118960000Y-39907836D01*
X131220000Y-55153641D02*
X131220000Y-54846359D01*
X131980000Y-55153641D02*
X131980000Y-54846359D01*
X111365000Y-57240000D02*
X111365000Y-59700000D01*
X112835000Y-57240000D02*
X111365000Y-57240000D01*
X112835000Y-59700000D02*
X112835000Y-57240000D01*
X110722800Y-49753641D02*
X110722800Y-49446359D01*
X111482800Y-49753641D02*
X111482800Y-49446359D01*
X113690000Y-59040580D02*
X113690000Y-58759420D01*
X114710000Y-59040580D02*
X114710000Y-58759420D01*
X110220000Y-59053641D02*
X110220000Y-58746359D01*
X110980000Y-59053641D02*
X110980000Y-58746359D01*
X124150000Y-43500000D02*
G75*
G02*
X122250000Y-43500000I-950000J0D01*
G01*
X122250000Y-43500000D02*
G75*
G02*
X124150000Y-43500000I950000J0D01*
G01*
X126307200Y-37142164D02*
X126307200Y-37357836D01*
X127027200Y-37142164D02*
X127027200Y-37357836D01*
X136690000Y-47692164D02*
X136690000Y-47907836D01*
X137410000Y-47692164D02*
X137410000Y-47907836D01*
X107410636Y-51190000D02*
X107194964Y-51190000D01*
X107410636Y-51910000D02*
X107194964Y-51910000D01*
X123620000Y-36346359D02*
X123620000Y-36653641D01*
X124380000Y-36346359D02*
X124380000Y-36653641D01*
X113820000Y-56146359D02*
X113820000Y-56453641D01*
X114580000Y-56146359D02*
X114580000Y-56453641D01*
X121350000Y-43500000D02*
G75*
G02*
X119450000Y-43500000I-950000J0D01*
G01*
X119450000Y-43500000D02*
G75*
G02*
X121350000Y-43500000I950000J0D01*
G01*
X115150000Y-44400000D02*
X115150000Y-45450000D01*
X115150000Y-65200000D02*
X115150000Y-64200000D01*
X115300000Y-44550000D02*
X130700000Y-44550000D01*
X115300000Y-59950000D02*
X115300000Y-44550000D01*
X115300000Y-65050000D02*
X115300000Y-59950000D01*
X116200000Y-44400000D02*
X115150000Y-44400000D01*
X116200000Y-65200000D02*
X115150000Y-65200000D01*
X129650000Y-65200000D02*
X130850000Y-65200000D01*
X129800000Y-44400000D02*
X130850000Y-44400000D01*
X130700000Y-44550000D02*
X130700000Y-59950000D01*
X130700000Y-65050000D02*
X115300000Y-65050000D01*
X130700000Y-65050000D02*
X130700000Y-59950000D01*
X130850000Y-44400000D02*
X130850000Y-45450000D01*
X123620000Y-40553641D02*
X123620000Y-40246359D01*
X124380000Y-40553641D02*
X124380000Y-40246359D01*
X107346359Y-45820000D02*
X107653641Y-45820000D01*
X107346359Y-46580000D02*
X107653641Y-46580000D01*
X126296953Y-40142164D02*
X126296953Y-40357836D01*
X127016953Y-40142164D02*
X127016953Y-40357836D01*
X123630000Y-38643641D02*
X123630000Y-38336359D01*
X124390000Y-38643641D02*
X124390000Y-38336359D01*
X109099159Y-51170000D02*
X109406441Y-51170000D01*
X109099159Y-51930000D02*
X109406441Y-51930000D01*
D16*
G36*
X114359725Y-34226138D02*
G01*
X114365057Y-34250897D01*
X114372967Y-34282306D01*
X114382781Y-34318059D01*
X114393829Y-34355844D01*
X114405434Y-34393353D01*
X114416920Y-34428273D01*
X114426819Y-34456158D01*
X114435854Y-34478772D01*
X114448061Y-34506962D01*
X114462551Y-34538898D01*
X114478442Y-34572737D01*
X114494848Y-34606652D01*
X114510882Y-34638803D01*
X114525663Y-34667358D01*
X114538299Y-34690481D01*
X114546416Y-34704057D01*
X114574015Y-34746734D01*
X114597830Y-34782758D01*
X114618972Y-34813658D01*
X114638551Y-34840965D01*
X114657681Y-34866206D01*
X114677470Y-34890911D01*
X114699034Y-34916610D01*
X114710993Y-34930501D01*
X114794290Y-35019369D01*
X114884181Y-35101512D01*
X114980133Y-35176543D01*
X115081619Y-35244077D01*
X115188108Y-35303724D01*
X115285026Y-35349169D01*
X115397073Y-35392032D01*
X115511518Y-35425878D01*
X115627789Y-35450740D01*
X115745315Y-35466663D01*
X115863524Y-35473684D01*
X115981841Y-35471844D01*
X116099700Y-35461183D01*
X116216527Y-35441739D01*
X116331751Y-35413552D01*
X116444797Y-35376661D01*
X116555095Y-35331108D01*
X116662072Y-35276933D01*
X116707907Y-35250395D01*
X116805149Y-35186638D01*
X116898264Y-35115207D01*
X116986295Y-35037025D01*
X117068283Y-34953020D01*
X117143270Y-34864115D01*
X117210299Y-34771237D01*
X117221480Y-34754113D01*
X117276679Y-34661154D01*
X117326053Y-34563568D01*
X117368854Y-34463152D01*
X117404341Y-34361699D01*
X117431764Y-34261007D01*
X117438114Y-34232153D01*
X117446548Y-34191575D01*
X117724454Y-34191575D01*
X117774945Y-34191603D01*
X117822481Y-34191680D01*
X117866225Y-34191806D01*
X117905345Y-34191971D01*
X117939000Y-34192173D01*
X117966357Y-34192406D01*
X117986581Y-34192667D01*
X117998835Y-34192949D01*
X118002360Y-34193207D01*
X118001596Y-34198224D01*
X117999489Y-34210971D01*
X117996319Y-34229778D01*
X117992367Y-34252981D01*
X117990150Y-34265908D01*
X117961994Y-34402191D01*
X117925085Y-34535221D01*
X117879748Y-34664680D01*
X117826304Y-34790250D01*
X117765074Y-34911608D01*
X117696380Y-35028438D01*
X117620546Y-35140417D01*
X117537891Y-35247229D01*
X117448737Y-35348554D01*
X117353408Y-35444069D01*
X117252224Y-35533458D01*
X117145505Y-35616403D01*
X117033577Y-35692580D01*
X116916759Y-35761671D01*
X116795373Y-35823360D01*
X116669741Y-35877324D01*
X116540185Y-35923243D01*
X116407028Y-35960799D01*
X116270590Y-35989674D01*
X116250391Y-35993148D01*
X116201847Y-36000871D01*
X116157699Y-36006964D01*
X116115590Y-36011618D01*
X116073163Y-36015027D01*
X116028059Y-36017382D01*
X115977929Y-36018877D01*
X115926218Y-36019652D01*
X115889230Y-36019944D01*
X115853927Y-36020087D01*
X115821848Y-36020087D01*
X115794524Y-36019945D01*
X115773493Y-36019668D01*
X115760289Y-36019257D01*
X115759368Y-36019203D01*
X115733306Y-36017046D01*
X115700259Y-36013542D01*
X115662620Y-36009011D01*
X115622797Y-36003771D01*
X115583184Y-35998141D01*
X115546185Y-35992438D01*
X115514202Y-35986978D01*
X115509087Y-35986033D01*
X115370581Y-35955259D01*
X115235433Y-35915655D01*
X115103949Y-35867431D01*
X114976434Y-35810791D01*
X114853199Y-35745942D01*
X114734550Y-35673089D01*
X114620796Y-35592439D01*
X114512239Y-35504197D01*
X114409195Y-35408570D01*
X114311966Y-35305764D01*
X114220858Y-35195985D01*
X114136180Y-35079440D01*
X114119460Y-35054451D01*
X114100010Y-35023781D01*
X114078070Y-34987221D01*
X114055061Y-34947301D01*
X114032398Y-34906546D01*
X114011507Y-34867491D01*
X113993804Y-34832659D01*
X113986989Y-34818470D01*
X113964658Y-34770797D01*
X113459247Y-34769584D01*
X112953834Y-34768371D01*
X112953834Y-34479974D01*
X112953834Y-34191575D01*
X113653588Y-34191575D01*
X114353340Y-34191575D01*
X114359725Y-34226138D01*
G37*
G36*
X116018493Y-32853934D02*
G01*
X116114703Y-32869637D01*
X116209614Y-32894475D01*
X116302678Y-32928448D01*
X116360533Y-32954744D01*
X116447114Y-33002399D01*
X116528411Y-33057548D01*
X116603963Y-33119638D01*
X116673313Y-33188104D01*
X116735995Y-33262391D01*
X116791553Y-33341937D01*
X116839524Y-33426182D01*
X116879448Y-33514570D01*
X116910868Y-33606536D01*
X116917875Y-33632074D01*
X116930345Y-33684027D01*
X116939467Y-33732256D01*
X116945629Y-33779909D01*
X116949221Y-33830135D01*
X116950640Y-33886075D01*
X116950693Y-33896009D01*
X116948070Y-33982960D01*
X116939424Y-34064559D01*
X116924349Y-34143156D01*
X116902441Y-34221098D01*
X116886986Y-34265467D01*
X116848327Y-34356312D01*
X116801961Y-34442035D01*
X116748411Y-34522306D01*
X116688197Y-34596799D01*
X116621839Y-34665181D01*
X116549861Y-34727124D01*
X116472784Y-34782296D01*
X116391129Y-34830367D01*
X116305417Y-34871011D01*
X116216169Y-34903894D01*
X116123910Y-34928689D01*
X116029158Y-34945065D01*
X115932436Y-34952692D01*
X115834269Y-34951244D01*
X115805876Y-34949101D01*
X115709403Y-34935797D01*
X115614135Y-34913356D01*
X115521411Y-34882158D01*
X115437579Y-34845088D01*
X115352646Y-34798602D01*
X115275263Y-34747246D01*
X115204324Y-34690165D01*
X115138722Y-34626494D01*
X115097532Y-34580107D01*
X115035222Y-34498690D01*
X114981607Y-34413361D01*
X114936685Y-34324118D01*
X114900460Y-34230960D01*
X114872925Y-34133885D01*
X114857182Y-34053561D01*
X114853380Y-34021777D01*
X114850710Y-33982994D01*
X114849174Y-33939654D01*
X114848769Y-33894202D01*
X114849044Y-33877047D01*
X115396074Y-33877047D01*
X115397336Y-33945587D01*
X115407701Y-34012246D01*
X115426812Y-34076312D01*
X115454311Y-34137084D01*
X115489840Y-34193851D01*
X115533044Y-34245909D01*
X115583560Y-34292555D01*
X115620680Y-34319995D01*
X115670326Y-34349946D01*
X115720073Y-34372292D01*
X115773225Y-34388408D01*
X115798051Y-34393782D01*
X115842194Y-34401228D01*
X115880667Y-34405012D01*
X115916535Y-34405276D01*
X115952878Y-34402164D01*
X115959589Y-34401273D01*
X116022619Y-34389315D01*
X116079982Y-34371398D01*
X116134074Y-34346646D01*
X116174354Y-34322800D01*
X116229743Y-34281351D01*
X116278186Y-34233563D01*
X116319334Y-34179992D01*
X116352831Y-34121189D01*
X116378321Y-34057708D01*
X116395457Y-33990100D01*
X116398440Y-33972302D01*
X116402915Y-33937674D01*
X116404804Y-33907646D01*
X116404102Y-33878286D01*
X116400799Y-33845650D01*
X116398171Y-33826884D01*
X116383533Y-33758525D01*
X116360639Y-33694909D01*
X116329385Y-33635828D01*
X116289665Y-33581081D01*
X116251552Y-33540097D01*
X116199752Y-33495392D01*
X116145032Y-33459329D01*
X116086061Y-33431148D01*
X116024928Y-33410996D01*
X116005943Y-33406190D01*
X115989119Y-33402793D01*
X115972056Y-33400561D01*
X115952354Y-33399258D01*
X115927616Y-33398643D01*
X115900000Y-33398478D01*
X115869171Y-33398582D01*
X115845489Y-33399163D01*
X115826578Y-33400458D01*
X115810051Y-33402701D01*
X115793529Y-33406133D01*
X115774731Y-33410962D01*
X115708493Y-33433562D01*
X115647220Y-33463874D01*
X115591414Y-33501287D01*
X115541569Y-33545189D01*
X115498180Y-33594970D01*
X115461747Y-33650018D01*
X115432764Y-33709723D01*
X115411727Y-33773473D01*
X115399135Y-33840657D01*
X115396074Y-33877047D01*
X114849044Y-33877047D01*
X114849494Y-33849061D01*
X114851347Y-33806680D01*
X114854329Y-33769496D01*
X114857313Y-33746445D01*
X114877878Y-33647275D01*
X114906968Y-33551698D01*
X114944241Y-33460170D01*
X114989362Y-33373148D01*
X115041995Y-33291088D01*
X115101801Y-33214447D01*
X115168442Y-33143679D01*
X115241582Y-33079245D01*
X115320883Y-33021597D01*
X115406007Y-32971194D01*
X115444729Y-32951663D01*
X115537195Y-32912515D01*
X115631658Y-32882515D01*
X115727568Y-32861656D01*
X115824379Y-32849942D01*
X115921533Y-32847370D01*
X116018493Y-32853934D01*
G37*
G36*
X115944612Y-31781928D02*
G01*
X115993770Y-31782826D01*
X116040010Y-31784242D01*
X116081555Y-31786162D01*
X116116628Y-31788577D01*
X116135978Y-31790509D01*
X116278298Y-31812070D01*
X116417630Y-31842544D01*
X116553659Y-31881781D01*
X116686074Y-31929631D01*
X116814563Y-31985944D01*
X116938810Y-32050565D01*
X117058505Y-32123351D01*
X117173335Y-32204148D01*
X117282989Y-32292808D01*
X117387152Y-32389178D01*
X117392338Y-32394322D01*
X117479854Y-32486650D01*
X117561896Y-32583722D01*
X117637634Y-32684374D01*
X117706244Y-32787453D01*
X117766893Y-32891794D01*
X117811605Y-32980696D01*
X117820369Y-32999470D01*
X117827492Y-33014704D01*
X117832109Y-33024542D01*
X117833406Y-33027261D01*
X117838163Y-33027432D01*
X117851835Y-33027596D01*
X117873799Y-33027748D01*
X117903437Y-33027888D01*
X117940128Y-33028015D01*
X117983249Y-33028128D01*
X118032182Y-33028223D01*
X118086305Y-33028301D01*
X118144997Y-33028361D01*
X118207638Y-33028399D01*
X118273609Y-33028417D01*
X118340126Y-33028411D01*
X118846166Y-33028284D01*
X118846166Y-33319129D01*
X118846166Y-33609974D01*
X118146453Y-33609974D01*
X117446739Y-33609974D01*
X117438237Y-33568261D01*
X117414634Y-33472233D01*
X117382873Y-33374431D01*
X117343701Y-33276494D01*
X117297864Y-33180063D01*
X117246105Y-33086777D01*
X117189170Y-32998280D01*
X117162184Y-32960622D01*
X117092550Y-32873953D01*
X117015417Y-32791238D01*
X116931959Y-32713457D01*
X116843355Y-32641589D01*
X116750787Y-32576612D01*
X116655432Y-32519506D01*
X116591252Y-32486461D01*
X116480770Y-32437737D01*
X116370610Y-32398225D01*
X116259773Y-32367699D01*
X116147260Y-32345926D01*
X116032072Y-32332680D01*
X115913213Y-32327731D01*
X115900000Y-32327683D01*
X115779897Y-32331786D01*
X115663550Y-32344237D01*
X115550100Y-32365246D01*
X115438680Y-32395020D01*
X115328429Y-32433777D01*
X115218483Y-32481719D01*
X115171187Y-32505160D01*
X115069866Y-32562457D01*
X114973116Y-32627777D01*
X114881393Y-32700539D01*
X114795146Y-32780166D01*
X114714833Y-32866078D01*
X114640905Y-32957697D01*
X114573817Y-33054447D01*
X114514021Y-33155747D01*
X114461974Y-33261021D01*
X114418127Y-33369689D01*
X114382932Y-33481171D01*
X114371916Y-33524178D01*
X114365773Y-33549743D01*
X114360344Y-33572245D01*
X114356046Y-33589958D01*
X114353299Y-33601153D01*
X114352570Y-33604014D01*
X114347625Y-33605292D01*
X114334208Y-33606432D01*
X114313336Y-33607432D01*
X114286030Y-33608292D01*
X114253311Y-33609011D01*
X114216201Y-33609591D01*
X114175717Y-33610029D01*
X114132882Y-33610322D01*
X114088716Y-33610474D01*
X114044237Y-33610482D01*
X114000465Y-33610344D01*
X113958423Y-33610062D01*
X113919130Y-33609633D01*
X113883606Y-33609056D01*
X113852872Y-33608331D01*
X113827946Y-33607460D01*
X113809851Y-33606437D01*
X113799605Y-33605266D01*
X113797640Y-33604424D01*
X113798437Y-33597951D01*
X113800632Y-33583927D01*
X113803923Y-33564183D01*
X113808007Y-33540552D01*
X113809746Y-33530707D01*
X113839160Y-33392206D01*
X113877683Y-33256330D01*
X113925169Y-33123421D01*
X113981471Y-32993813D01*
X114046439Y-32867849D01*
X114119928Y-32745869D01*
X114200233Y-32630302D01*
X114215094Y-32610459D01*
X114228410Y-32592949D01*
X114238905Y-32579428D01*
X114245309Y-32571548D01*
X114246067Y-32570710D01*
X114251753Y-32564305D01*
X114262005Y-32552329D01*
X114275315Y-32536560D01*
X114288607Y-32520655D01*
X114312285Y-32493354D01*
X114341132Y-32461928D01*
X114373362Y-32428179D01*
X114407187Y-32393906D01*
X114440821Y-32360914D01*
X114472475Y-32330998D01*
X114500366Y-32305963D01*
X114508561Y-32298977D01*
X114527006Y-32283478D01*
X114543055Y-32269912D01*
X114555159Y-32259597D01*
X114561765Y-32253852D01*
X114562232Y-32253421D01*
X114571194Y-32245830D01*
X114586356Y-32233930D01*
X114606122Y-32218903D01*
X114628894Y-32201930D01*
X114653077Y-32184189D01*
X114677073Y-32166864D01*
X114699287Y-32151134D01*
X114717720Y-32138448D01*
X114771540Y-32103320D01*
X114824744Y-32071042D01*
X114880425Y-32039819D01*
X114941678Y-32007863D01*
X114951316Y-32003006D01*
X115075853Y-31945201D01*
X115201823Y-31896213D01*
X115330177Y-31855767D01*
X115461868Y-31823586D01*
X115597847Y-31799390D01*
X115687859Y-31787935D01*
X115717223Y-31785525D01*
X115754326Y-31783693D01*
X115797396Y-31782427D01*
X115844651Y-31781718D01*
X115894317Y-31781555D01*
X115944612Y-31781928D01*
G37*
G36*
X110024796Y-32519280D02*
G01*
X110092911Y-32525373D01*
X110140442Y-32537055D01*
X110180330Y-32558451D01*
X110204697Y-32576648D01*
X110277567Y-32653780D01*
X110323497Y-32744184D01*
X110341451Y-32841643D01*
X110330397Y-32939934D01*
X110289302Y-33032843D01*
X110282275Y-33043372D01*
X110215593Y-33112266D01*
X110130235Y-33160488D01*
X110034921Y-33185519D01*
X109938372Y-33184829D01*
X109865887Y-33163968D01*
X109780398Y-33109750D01*
X109718322Y-33037100D01*
X109679976Y-32951924D01*
X109665680Y-32860136D01*
X109675749Y-32767641D01*
X109710504Y-32680353D01*
X109770262Y-32604182D01*
X109833242Y-32556983D01*
X109879295Y-32532810D01*
X109920833Y-32520465D01*
X109971532Y-32517256D01*
X110024796Y-32519280D01*
G37*
G36*
X112329049Y-33176625D02*
G01*
X112411678Y-33216977D01*
X112482305Y-33279548D01*
X112535705Y-33362692D01*
X112564634Y-33453309D01*
X112566575Y-33547983D01*
X112537834Y-33637994D01*
X112481278Y-33719093D01*
X112399778Y-33787034D01*
X112308002Y-33833215D01*
X112194415Y-33891990D01*
X112105959Y-33972510D01*
X112040968Y-34076330D01*
X112036910Y-34085288D01*
X112021272Y-34128772D01*
X112012244Y-34178219D01*
X112008740Y-34243043D01*
X112009438Y-34323418D01*
X112010736Y-34401027D01*
X112008939Y-34454540D01*
X112002290Y-34493384D01*
X111989028Y-34526993D01*
X111967398Y-34564797D01*
X111963166Y-34571670D01*
X111894761Y-34653255D01*
X111808927Y-34706441D01*
X111707787Y-34730040D01*
X111677936Y-34731185D01*
X111574016Y-34715963D01*
X111516986Y-34692131D01*
X111436554Y-34631552D01*
X111378898Y-34549816D01*
X111347880Y-34453476D01*
X111343563Y-34397387D01*
X111357554Y-34291421D01*
X111398646Y-34203399D01*
X111467851Y-34132097D01*
X111566180Y-34076291D01*
X111628132Y-34053318D01*
X111730140Y-34005653D01*
X111812847Y-33936414D01*
X111868242Y-33854545D01*
X111892361Y-33795129D01*
X111904777Y-33737205D01*
X111906626Y-33669824D01*
X111899044Y-33582037D01*
X111897698Y-33570789D01*
X111893034Y-33469838D01*
X111908616Y-33387682D01*
X111947247Y-33314451D01*
X111983018Y-33270287D01*
X112061403Y-33205322D01*
X112148686Y-33169155D01*
X112239643Y-33160137D01*
X112329049Y-33176625D01*
G37*
G36*
X107758830Y-33166435D02*
G01*
X107837444Y-33199303D01*
X107907782Y-33246117D01*
X107934722Y-33271845D01*
X107987928Y-33346076D01*
X108016303Y-33427167D01*
X108021654Y-33522642D01*
X108013276Y-33598305D01*
X108007670Y-33721481D01*
X108031535Y-33829769D01*
X108083792Y-33921351D01*
X108163364Y-33994428D01*
X108269175Y-34047184D01*
X108283004Y-34051873D01*
X108380321Y-34089656D01*
X108451137Y-34132938D01*
X108502500Y-34186585D01*
X108521899Y-34216713D01*
X108562536Y-34309068D01*
X108573790Y-34397526D01*
X108557806Y-34488951D01*
X108522376Y-34565192D01*
X108467083Y-34636274D01*
X108401375Y-34691536D01*
X108358945Y-34713408D01*
X108274533Y-34730265D01*
X108180582Y-34725386D01*
X108092159Y-34699842D01*
X108078587Y-34693433D01*
X108014615Y-34649262D01*
X107958806Y-34590426D01*
X107953389Y-34582925D01*
X107931305Y-34549546D01*
X107916811Y-34519954D01*
X107908311Y-34485938D01*
X107904209Y-34439296D01*
X107902907Y-34371816D01*
X107902808Y-34322862D01*
X107901648Y-34232980D01*
X107897481Y-34168335D01*
X107889223Y-34120666D01*
X107875798Y-34081710D01*
X107869599Y-34068443D01*
X107811002Y-33979530D01*
X107732854Y-33903032D01*
X107644862Y-33847733D01*
X107610358Y-33833933D01*
X107521299Y-33792574D01*
X107444022Y-33734561D01*
X107388542Y-33667702D01*
X107381846Y-33655723D01*
X107366141Y-33603221D01*
X107358865Y-33531547D01*
X107360087Y-33454028D01*
X107369881Y-33383990D01*
X107380204Y-33350376D01*
X107425796Y-33280181D01*
X107494929Y-33220047D01*
X107577799Y-33176266D01*
X107664601Y-33155133D01*
X107685918Y-33154125D01*
X107758830Y-33166435D01*
G37*
G36*
X110622638Y-31578542D02*
G01*
X110670061Y-31585974D01*
X110710903Y-31602804D01*
X110756726Y-31631404D01*
X110836269Y-31703266D01*
X110889587Y-31789998D01*
X110916664Y-31885695D01*
X110917488Y-31984451D01*
X110892045Y-32080361D01*
X110840321Y-32167519D01*
X110762303Y-32240022D01*
X110758162Y-32242852D01*
X110671614Y-32289808D01*
X110586631Y-32310458D01*
X110498396Y-32304374D01*
X110402085Y-32271126D01*
X110292880Y-32210281D01*
X110276842Y-32199900D01*
X110173334Y-32137954D01*
X110084614Y-32100585D01*
X110003265Y-32087206D01*
X109921882Y-32097234D01*
X109833039Y-32130084D01*
X109773607Y-32160211D01*
X109665786Y-32218256D01*
X109581972Y-32261278D01*
X109516997Y-32290838D01*
X109465697Y-32308503D01*
X109422905Y-32315832D01*
X109383453Y-32314389D01*
X109342177Y-32305737D01*
X109316634Y-32298413D01*
X109270980Y-32279973D01*
X109219936Y-32253124D01*
X109214010Y-32249536D01*
X109139717Y-32185199D01*
X109087768Y-32102187D01*
X109058858Y-32007454D01*
X109053675Y-31907962D01*
X109072912Y-31810670D01*
X109117260Y-31722533D01*
X109157019Y-31676163D01*
X109222010Y-31622293D01*
X109285943Y-31591426D01*
X109361994Y-31578387D01*
X109409782Y-31576938D01*
X109466439Y-31577817D01*
X109510641Y-31582638D01*
X109550992Y-31594563D01*
X109596098Y-31616752D01*
X109654565Y-31652368D01*
X109706493Y-31685969D01*
X109803533Y-31743470D01*
X109884871Y-31777803D01*
X109956858Y-31791091D01*
X110012196Y-31787959D01*
X110081876Y-31768565D01*
X110170029Y-31731219D01*
X110269279Y-31679360D01*
X110351543Y-31629841D01*
X110400852Y-31601037D01*
X110443976Y-31585014D01*
X110494777Y-31578170D01*
X110555179Y-31576875D01*
X110622638Y-31578542D01*
G37*
G36*
X109145570Y-35585552D02*
G01*
X109217096Y-35617875D01*
X109298586Y-35677231D01*
X109312432Y-35688922D01*
X109407394Y-35762142D01*
X109492213Y-35806856D01*
X109573472Y-35823579D01*
X109657756Y-35812822D01*
X109751647Y-35775099D01*
X109832330Y-35729417D01*
X109909368Y-35694559D01*
X109986591Y-35687353D01*
X110069690Y-35708241D01*
X110159503Y-35754659D01*
X110254371Y-35802364D01*
X110342513Y-35822250D01*
X110428526Y-35813613D01*
X110517004Y-35775740D01*
X110612548Y-35707925D01*
X110645416Y-35679738D01*
X110735726Y-35614266D01*
X110822410Y-35581970D01*
X110906379Y-35582777D01*
X110988543Y-35616620D01*
X111033000Y-35649040D01*
X111095554Y-35720709D01*
X111128330Y-35801438D01*
X111131754Y-35885663D01*
X111106249Y-35967820D01*
X111052237Y-36042346D01*
X110999729Y-36085630D01*
X110924281Y-36117751D01*
X110838582Y-36124737D01*
X110754449Y-36106736D01*
X110706675Y-36082026D01*
X110603656Y-36022654D01*
X110510378Y-35993351D01*
X110422133Y-35994495D01*
X110334214Y-36026466D01*
X110241917Y-36089645D01*
X110203974Y-36122592D01*
X110158050Y-36161966D01*
X110116196Y-36193682D01*
X110097687Y-36205290D01*
X110053298Y-36217789D01*
X109991160Y-36223125D01*
X109925446Y-36221352D01*
X109870322Y-36212521D01*
X109849108Y-36204370D01*
X109818227Y-36183005D01*
X109773892Y-36147965D01*
X109740050Y-36119267D01*
X109645031Y-36045955D01*
X109558575Y-36002682D01*
X109475150Y-35989034D01*
X109389223Y-36004596D01*
X109295266Y-36048953D01*
X109243213Y-36082026D01*
X109173080Y-36113184D01*
X109090990Y-36125197D01*
X109009925Y-36117676D01*
X108944055Y-36091020D01*
X108880833Y-36030887D01*
X108837600Y-35952092D01*
X108817568Y-35864377D01*
X108823951Y-35777479D01*
X108832050Y-35751557D01*
X108869298Y-35692438D01*
X108929741Y-35637968D01*
X109003297Y-35597077D01*
X109009144Y-35594775D01*
X109078191Y-35578453D01*
X109145570Y-35585552D01*
G37*
G36*
X111568866Y-31686908D02*
G01*
X111645487Y-31719253D01*
X111718586Y-31779969D01*
X111764747Y-31859853D01*
X111783480Y-31957411D01*
X111774288Y-32071150D01*
X111769465Y-32093943D01*
X111762177Y-32191387D01*
X111786410Y-32279370D01*
X111841022Y-32356132D01*
X111924877Y-32419915D01*
X112005112Y-32457734D01*
X112108837Y-32509106D01*
X112183612Y-32573915D01*
X112232247Y-32654778D01*
X112240189Y-32676402D01*
X112254432Y-32768811D01*
X112240483Y-32862123D01*
X112201639Y-32948082D01*
X112141202Y-33018427D01*
X112089652Y-33053031D01*
X112016231Y-33077210D01*
X111931227Y-33085684D01*
X111851011Y-33077508D01*
X111821641Y-33068469D01*
X111788109Y-33048573D01*
X111741745Y-33013129D01*
X111699449Y-32976066D01*
X111599649Y-32898253D01*
X111497929Y-32851498D01*
X111388957Y-32833475D01*
X111371526Y-32833105D01*
X111300204Y-32835921D01*
X111241722Y-32847738D01*
X111183243Y-32872610D01*
X111111930Y-32914599D01*
X111110081Y-32915769D01*
X111017432Y-32962716D01*
X110931459Y-32980032D01*
X110849850Y-32970128D01*
X110764622Y-32932014D01*
X110698782Y-32872672D01*
X110653839Y-32798325D01*
X110631289Y-32715197D01*
X110632640Y-32629514D01*
X110659394Y-32547496D01*
X110713056Y-32475367D01*
X110727255Y-32462587D01*
X110813562Y-32407188D01*
X110901581Y-32385084D01*
X110991787Y-32396296D01*
X111084654Y-32440848D01*
X111142454Y-32484104D01*
X111229975Y-32546071D01*
X111321481Y-32589873D01*
X111411034Y-32614307D01*
X111492693Y-32618170D01*
X111560527Y-32600252D01*
X111594807Y-32575944D01*
X111629983Y-32521810D01*
X111633166Y-32463634D01*
X111605410Y-32403184D01*
X111547773Y-32342229D01*
X111461310Y-32282535D01*
X111399993Y-32249976D01*
X111309476Y-32197486D01*
X111248622Y-32140213D01*
X111213551Y-32072766D01*
X111200378Y-31989756D01*
X111200031Y-31972638D01*
X111214507Y-31877691D01*
X111255002Y-31797567D01*
X111316101Y-31735346D01*
X111392387Y-31694110D01*
X111478449Y-31676936D01*
X111568866Y-31686908D01*
G37*
G36*
X108612139Y-31693562D02*
G01*
X108694337Y-31740784D01*
X108757971Y-31809975D01*
X108789810Y-31862523D01*
X108804033Y-31912620D01*
X108806455Y-31970249D01*
X108790267Y-32070830D01*
X108745464Y-32154306D01*
X108672977Y-32219488D01*
X108577142Y-32264090D01*
X108518117Y-32293198D01*
X108458550Y-32338529D01*
X108408019Y-32391168D01*
X108376104Y-32442202D01*
X108371767Y-32455159D01*
X108368984Y-32516652D01*
X108391952Y-32563708D01*
X108435989Y-32596027D01*
X108496412Y-32613309D01*
X108568541Y-32615250D01*
X108647691Y-32601552D01*
X108729180Y-32571912D01*
X108808327Y-32526031D01*
X108857377Y-32486364D01*
X108909446Y-32445015D01*
X108964170Y-32411578D01*
X108991891Y-32399513D01*
X109083363Y-32385385D01*
X109171082Y-32400687D01*
X109249560Y-32441334D01*
X109313307Y-32503245D01*
X109356832Y-32582337D01*
X109374644Y-32674526D01*
X109374799Y-32684240D01*
X109360132Y-32778191D01*
X109319724Y-32856991D01*
X109258969Y-32918006D01*
X109183263Y-32958602D01*
X109097999Y-32976149D01*
X109008568Y-32968013D01*
X108920369Y-32931560D01*
X108898068Y-32916952D01*
X108790577Y-32859822D01*
X108672648Y-32834486D01*
X108631581Y-32833018D01*
X108531010Y-32843202D01*
X108443498Y-32875513D01*
X108358997Y-32934173D01*
X108330532Y-32959593D01*
X108279723Y-33003627D01*
X108229639Y-33041445D01*
X108199919Y-33059958D01*
X108135858Y-33079613D01*
X108057126Y-33085276D01*
X107979641Y-33076760D01*
X107936386Y-33063045D01*
X107866451Y-33016918D01*
X107806517Y-32950305D01*
X107763494Y-32873189D01*
X107744294Y-32795561D01*
X107743897Y-32784909D01*
X107759121Y-32685315D01*
X107803268Y-32596032D01*
X107872035Y-32522696D01*
X107961118Y-32470939D01*
X107991952Y-32460227D01*
X108080971Y-32426520D01*
X108144632Y-32382989D01*
X108190985Y-32323027D01*
X108212789Y-32278864D01*
X108232136Y-32230364D01*
X108241272Y-32191518D01*
X108241264Y-32149294D01*
X108233179Y-32090668D01*
X108229829Y-32070802D01*
X108219459Y-31972879D01*
X108227675Y-31894611D01*
X108256540Y-31826454D01*
X108293583Y-31775505D01*
X108365270Y-31715384D01*
X108454938Y-31683171D01*
X108519154Y-31677545D01*
X108612139Y-31693562D01*
G37*
G36*
X110913959Y-34032057D02*
G01*
X111002697Y-34058942D01*
X111080789Y-34108318D01*
X111140102Y-34177480D01*
X111149088Y-34193631D01*
X111163752Y-34227285D01*
X111173566Y-34265036D01*
X111179437Y-34314332D01*
X111182272Y-34382621D01*
X111182976Y-34472112D01*
X111185328Y-34588461D01*
X111195048Y-34678858D01*
X111216134Y-34749867D01*
X111252582Y-34808055D01*
X111308387Y-34859985D01*
X111387547Y-34912222D01*
X111483456Y-34965672D01*
X111587048Y-35030299D01*
X111658956Y-35097863D01*
X111701046Y-35171675D01*
X111715191Y-35255050D01*
X111703258Y-35351304D01*
X111702588Y-35354129D01*
X111666008Y-35443800D01*
X111607479Y-35514792D01*
X111532979Y-35565329D01*
X111448487Y-35593635D01*
X111359984Y-35597932D01*
X111273450Y-35576443D01*
X111194861Y-35527393D01*
X111176882Y-35510331D01*
X111122334Y-35437029D01*
X111093141Y-35352815D01*
X111088008Y-35252233D01*
X111097159Y-35174311D01*
X111108825Y-35068959D01*
X111103084Y-34980545D01*
X111078335Y-34896399D01*
X111055676Y-34846623D01*
X111000758Y-34759680D01*
X110940952Y-34705508D01*
X110878354Y-34684062D01*
X110815063Y-34695291D01*
X110753172Y-34739148D01*
X110694779Y-34815583D01*
X110672743Y-34855519D01*
X110652040Y-34900390D01*
X110638885Y-34942569D01*
X110632960Y-34989144D01*
X110633952Y-35047202D01*
X110641548Y-35123830D01*
X110655430Y-35226118D01*
X110656092Y-35230710D01*
X110660166Y-35292192D01*
X110656924Y-35351790D01*
X110655431Y-35361099D01*
X110632095Y-35420109D01*
X110588493Y-35482404D01*
X110534202Y-35535939D01*
X110496551Y-35560942D01*
X110429789Y-35583541D01*
X110349572Y-35594198D01*
X110273583Y-35591182D01*
X110246940Y-35585349D01*
X110176702Y-35548928D01*
X110113018Y-35488344D01*
X110064131Y-35412949D01*
X110042351Y-35353219D01*
X110029456Y-35257039D01*
X110042023Y-35174220D01*
X110082045Y-35101194D01*
X110151517Y-35034399D01*
X110252435Y-34970265D01*
X110258357Y-34967057D01*
X110378329Y-34891758D01*
X110468400Y-34811537D01*
X110527164Y-34727802D01*
X110546349Y-34678176D01*
X110556296Y-34615445D01*
X110559668Y-34530118D01*
X110557385Y-34454256D01*
X110556728Y-34334059D01*
X110572010Y-34239372D01*
X110605561Y-34165032D01*
X110659716Y-34105872D01*
X110736812Y-34056726D01*
X110737085Y-34056586D01*
X110822713Y-34030371D01*
X110913959Y-34032057D01*
G37*
G36*
X109179940Y-34045072D02*
G01*
X109269176Y-34090679D01*
X109288064Y-34105440D01*
X109329321Y-34144497D01*
X109358090Y-34185203D01*
X109376386Y-34234455D01*
X109386224Y-34299151D01*
X109389622Y-34386192D01*
X109389401Y-34452381D01*
X109388936Y-34540517D01*
X109390842Y-34603533D01*
X109396278Y-34649838D01*
X109406403Y-34687845D01*
X109422377Y-34725969D01*
X109429028Y-34739800D01*
X109462655Y-34795962D01*
X109507913Y-34846271D01*
X109570369Y-34895373D01*
X109655591Y-34947918D01*
X109721099Y-34983627D01*
X109811772Y-35041435D01*
X109872152Y-35105202D01*
X109905479Y-35179656D01*
X109915027Y-35266441D01*
X109900316Y-35370216D01*
X109860947Y-35457301D01*
X109801813Y-35525439D01*
X109727806Y-35572379D01*
X109643818Y-35595864D01*
X109554740Y-35593644D01*
X109465465Y-35563464D01*
X109387692Y-35509365D01*
X109328681Y-35441560D01*
X109297584Y-35366434D01*
X109291805Y-35276320D01*
X109295671Y-35236848D01*
X109309004Y-35104643D01*
X109309419Y-34997767D01*
X109295665Y-34910084D01*
X109266498Y-34835458D01*
X109220671Y-34767758D01*
X109194263Y-34737899D01*
X109135691Y-34694207D01*
X109074858Y-34683051D01*
X109013732Y-34703673D01*
X108954276Y-34755324D01*
X108898459Y-34837245D01*
X108889020Y-34855013D01*
X108860958Y-34925023D01*
X108846507Y-35003175D01*
X108845046Y-35096944D01*
X108855960Y-35213803D01*
X108858057Y-35229629D01*
X108864590Y-35291791D01*
X108861912Y-35337111D01*
X108847557Y-35381619D01*
X108828402Y-35422578D01*
X108769638Y-35508606D01*
X108693830Y-35566581D01*
X108604289Y-35595132D01*
X108504325Y-35592887D01*
X108450252Y-35579394D01*
X108392360Y-35553628D01*
X108339674Y-35519119D01*
X108329058Y-35509825D01*
X108280742Y-35443946D01*
X108247868Y-35359908D01*
X108234800Y-35271226D01*
X108237507Y-35226219D01*
X108253852Y-35159931D01*
X108284177Y-35103803D01*
X108333328Y-35052405D01*
X108406157Y-35000316D01*
X108476111Y-34959262D01*
X108563216Y-34909584D01*
X108625918Y-34869740D01*
X108669948Y-34834812D01*
X108701043Y-34799883D01*
X108724936Y-34760035D01*
X108736218Y-34736184D01*
X108750438Y-34697814D01*
X108759578Y-34653633D01*
X108764492Y-34595793D01*
X108766026Y-34516440D01*
X108765766Y-34463400D01*
X108767137Y-34352988D01*
X108775257Y-34269300D01*
X108792399Y-34205801D01*
X108820841Y-34155954D01*
X108862853Y-34113228D01*
X108896543Y-34087569D01*
X108986628Y-34043199D01*
X109083426Y-34029139D01*
X109179940Y-34045072D01*
G37*
G36*
X108686272Y-33142539D02*
G01*
X108729071Y-33149692D01*
X108783480Y-33163224D01*
X108854853Y-33184422D01*
X108948546Y-33214569D01*
X109035362Y-33243386D01*
X109199927Y-33297275D01*
X109339481Y-33340006D01*
X109460211Y-33372802D01*
X109568298Y-33396879D01*
X109669923Y-33413457D01*
X109771271Y-33423757D01*
X109878523Y-33428998D01*
X109983330Y-33430397D01*
X110100533Y-33428980D01*
X110206200Y-33423519D01*
X110306609Y-33412792D01*
X110408038Y-33395576D01*
X110516767Y-33370647D01*
X110639075Y-33336785D01*
X110781240Y-33292766D01*
X110914524Y-33249069D01*
X111030446Y-33211107D01*
X111120740Y-33183353D01*
X111191247Y-33164373D01*
X111247809Y-33152732D01*
X111296269Y-33146995D01*
X111335483Y-33145689D01*
X111402113Y-33148076D01*
X111449547Y-33157703D01*
X111491971Y-33178370D01*
X111515670Y-33193988D01*
X111590271Y-33264014D01*
X111640029Y-33349609D01*
X111663613Y-33444049D01*
X111659697Y-33540604D01*
X111626949Y-33632549D01*
X111608280Y-33662612D01*
X111535193Y-33740920D01*
X111447442Y-33789192D01*
X111345605Y-33807289D01*
X111230267Y-33795064D01*
X111156240Y-33773613D01*
X111043255Y-33747216D01*
X110921601Y-33741395D01*
X110799698Y-33754807D01*
X110685962Y-33786105D01*
X110588814Y-33833945D01*
X110539672Y-33872201D01*
X110497227Y-33917653D01*
X110464794Y-33966769D01*
X110440341Y-34025676D01*
X110421833Y-34100506D01*
X110407237Y-34197390D01*
X110396060Y-34305243D01*
X110380864Y-34423622D01*
X110359622Y-34509993D01*
X110345726Y-34543362D01*
X110286057Y-34625173D01*
X110203920Y-34687457D01*
X110105640Y-34727929D01*
X109997535Y-34744304D01*
X109885936Y-34734296D01*
X109846420Y-34723888D01*
X109745927Y-34678118D01*
X109668088Y-34609259D01*
X109629310Y-34553659D01*
X109608709Y-34513491D01*
X109593974Y-34469771D01*
X109583210Y-34413952D01*
X109574520Y-34337494D01*
X109570266Y-34287690D01*
X109556478Y-34156303D01*
X109536862Y-34053060D01*
X109508751Y-33972695D01*
X109469473Y-33909943D01*
X109416362Y-33859545D01*
X109346747Y-33816227D01*
X109325888Y-33805609D01*
X109264446Y-33777654D01*
X109210572Y-33760320D01*
X109151055Y-33750566D01*
X109072681Y-33745350D01*
X109062236Y-33744920D01*
X108975343Y-33743534D01*
X108908759Y-33748424D01*
X108849581Y-33761060D01*
X108810424Y-33773613D01*
X108689544Y-33802766D01*
X108579808Y-33802784D01*
X108483811Y-33774708D01*
X108404133Y-33719577D01*
X108343368Y-33638431D01*
X108316215Y-33575180D01*
X108298783Y-33490469D01*
X108307488Y-33408984D01*
X108339645Y-33326953D01*
X108399724Y-33239517D01*
X108479146Y-33179500D01*
X108577908Y-33146904D01*
X108614080Y-33142223D01*
X108649728Y-33140478D01*
X108686272Y-33142539D01*
G37*
%LPC*%
D17*
X137800000Y-56725000D03*
X137800000Y-58275000D03*
X136200000Y-56725000D03*
X136200000Y-58275000D03*
D18*
X134600000Y-58275000D03*
X134600000Y-56725000D03*
X133000000Y-58275000D03*
X133000000Y-56725000D03*
D19*
X131600000Y-57580000D03*
X131600000Y-56620000D03*
D20*
X119700000Y-39320000D03*
X119700000Y-40280000D03*
X118700000Y-37120000D03*
X118700000Y-38080000D03*
X142000000Y-49920000D03*
X142000000Y-50880000D03*
D18*
X125300000Y-40175000D03*
X125300000Y-38625000D03*
X137898600Y-53575000D03*
X137898600Y-52025000D03*
X136400000Y-53575000D03*
X136400000Y-52025000D03*
D21*
X136500000Y-40610000D03*
X136500000Y-39590000D03*
D22*
X137600000Y-39600000D03*
X137600000Y-40620000D03*
D21*
X107500000Y-40810000D03*
X107500000Y-39790000D03*
D22*
X108600000Y-39790000D03*
X108600000Y-40810000D03*
D23*
X119790000Y-34500000D03*
X120810000Y-34500000D03*
D21*
X124000000Y-35010000D03*
X124000000Y-33990000D03*
D24*
X122125000Y-32977500D03*
X120475000Y-32977500D03*
D25*
X133850000Y-44350000D03*
X131550000Y-42600000D03*
X133850000Y-40850000D03*
D26*
X111150000Y-40950000D03*
X113450000Y-42700000D03*
X111150000Y-44450000D03*
D27*
X133950000Y-46850000D03*
X133950000Y-47500000D03*
X133950000Y-48150000D03*
X135850000Y-48150000D03*
X135850000Y-47500000D03*
X135850000Y-46850000D03*
D28*
X122437500Y-37650000D03*
X122437500Y-36700000D03*
X122437500Y-35750000D03*
X120162500Y-35750000D03*
X120162500Y-37650000D03*
D29*
X140750000Y-49050000D03*
X140100000Y-49050000D03*
X139450000Y-49050000D03*
X139450000Y-50950000D03*
X140750000Y-50950000D03*
D30*
X135975000Y-62575000D03*
X131825000Y-62575000D03*
X135975000Y-60425000D03*
X131825000Y-60425000D03*
D31*
X140850000Y-51912500D03*
X140350000Y-51912500D03*
X139850000Y-51912500D03*
X139350000Y-51912500D03*
D32*
X139175000Y-52587500D03*
X139175000Y-53087500D03*
D31*
X139350000Y-53762500D03*
X139850000Y-53762500D03*
X140350000Y-53762500D03*
X140850000Y-53762500D03*
D32*
X141025000Y-53087500D03*
X141025000Y-52587500D03*
D33*
X122750000Y-40450000D03*
X122750000Y-39800000D03*
X122750000Y-39150000D03*
X120850000Y-39150000D03*
X120850000Y-40450000D03*
D21*
X118700000Y-36210000D03*
X118700000Y-35190000D03*
D18*
X109902800Y-50375000D03*
X109902800Y-48825000D03*
D33*
X108452800Y-50250000D03*
X108452800Y-49600000D03*
X108452800Y-48950000D03*
X106552800Y-48950000D03*
X106552800Y-50250000D03*
X137950000Y-43250000D03*
X137950000Y-42600000D03*
X137950000Y-41950000D03*
X136050000Y-41950000D03*
X136050000Y-42600000D03*
X136050000Y-43250000D03*
D27*
X107050000Y-42050000D03*
X107050000Y-42700000D03*
X107050000Y-43350000D03*
X108950000Y-43350000D03*
X108950000Y-42700000D03*
X108950000Y-42050000D03*
X115550000Y-39250000D03*
X115550000Y-39900000D03*
X115550000Y-40550000D03*
X117450000Y-40550000D03*
X117450000Y-39250000D03*
D33*
X129700000Y-37900000D03*
X129700000Y-37250000D03*
X129700000Y-36600000D03*
X127800000Y-36600000D03*
X127800000Y-37900000D03*
X129700000Y-40900000D03*
X129700000Y-40250000D03*
X129700000Y-39600000D03*
X127800000Y-39600000D03*
X127800000Y-40900000D03*
D34*
X108275000Y-47400000D03*
X106725000Y-47400000D03*
D20*
X118600000Y-39320000D03*
X118600000Y-40280000D03*
D21*
X131600000Y-55510000D03*
X131600000Y-54490000D03*
D35*
X112100000Y-58025000D03*
X112100000Y-59775000D03*
D21*
X111102800Y-50110000D03*
X111102800Y-49090000D03*
D36*
X141500000Y-33500000D03*
D18*
X114200000Y-59675000D03*
X114200000Y-58125000D03*
D21*
X110600000Y-59410000D03*
X110600000Y-58390000D03*
D37*
X123200000Y-43500000D03*
D20*
X126667200Y-36770000D03*
X126667200Y-37730000D03*
X137050000Y-47320000D03*
X137050000Y-48280000D03*
D36*
X141500000Y-61500000D03*
D38*
X107782800Y-51550000D03*
X106822800Y-51550000D03*
D22*
X124000000Y-35990000D03*
X124000000Y-37010000D03*
X114200000Y-55790000D03*
X114200000Y-56810000D03*
D37*
X120400000Y-43500000D03*
D36*
X103500000Y-61500000D03*
D39*
X130000000Y-58200000D03*
X130000000Y-57350000D03*
X130000000Y-56500000D03*
X130000000Y-55650000D03*
X130000000Y-54800000D03*
X130000000Y-53950000D03*
X130000000Y-53100000D03*
X130000000Y-52250000D03*
X130000000Y-51400000D03*
X130000000Y-50550000D03*
X130000000Y-49700000D03*
X130000000Y-48850000D03*
X130000000Y-48000000D03*
X130000000Y-47150000D03*
X130000000Y-46300000D03*
D40*
X128950000Y-45250000D03*
X128100000Y-45250000D03*
X127250000Y-45250000D03*
X126400000Y-45250000D03*
X125550000Y-45250000D03*
X124700000Y-45250000D03*
X123850000Y-45250000D03*
X123000000Y-45250000D03*
X122150000Y-45250000D03*
X121300000Y-45250000D03*
X120450000Y-45250000D03*
X119600000Y-45250000D03*
X118750000Y-45250000D03*
X117900000Y-45250000D03*
X117050000Y-45250000D03*
D39*
X116000000Y-46300000D03*
X116000000Y-47150000D03*
X116000000Y-48000000D03*
X116000000Y-48850000D03*
X116000000Y-49700000D03*
X116000000Y-50550000D03*
X116000000Y-51400000D03*
X116000000Y-52250000D03*
X116000000Y-53100000D03*
X116000000Y-53950000D03*
X116000000Y-54800000D03*
X116000000Y-55650000D03*
X116000000Y-56500000D03*
X116000000Y-57350000D03*
X116000000Y-58200000D03*
D40*
X117050000Y-59250000D03*
X117900000Y-59250000D03*
X118750000Y-59250000D03*
X119600000Y-59250000D03*
X120450000Y-59250000D03*
X121300000Y-59250000D03*
X122150000Y-59250000D03*
X123000000Y-59250000D03*
X123850000Y-59250000D03*
X124700000Y-59250000D03*
X125550000Y-59250000D03*
X126400000Y-59250000D03*
X127250000Y-59250000D03*
X128100000Y-59250000D03*
X128950000Y-59250000D03*
D41*
X124650000Y-53900000D03*
D42*
X124650000Y-52250000D03*
X124650000Y-50600000D03*
X123000000Y-53900000D03*
X123000000Y-52250000D03*
X123000000Y-50600000D03*
X121350000Y-53900000D03*
X121350000Y-52250000D03*
X121350000Y-50600000D03*
D43*
X130000000Y-59250000D03*
X130000000Y-45250000D03*
X116000000Y-45250000D03*
X116000000Y-59250000D03*
D21*
X124000000Y-40910000D03*
X124000000Y-39890000D03*
D23*
X106990000Y-46200000D03*
X108010000Y-46200000D03*
D20*
X126656953Y-39770000D03*
X126656953Y-40730000D03*
D36*
X103500000Y-33500000D03*
D21*
X124010000Y-39000000D03*
X124010000Y-37980000D03*
D23*
X108742800Y-51550000D03*
X109762800Y-51550000D03*
D44*
X109300000Y-61987500D03*
X112300000Y-61987500D03*
%LPD*%
M02*
