M48
; DRILL file {KiCad 8.0.7} date 2025-04-02T23:59:11+1100
; FORMAT={-:-/ absolute / metric / decimal}
; #@! TF.CreationDate,2025-04-02T23:59:11+11:00
; #@! TF.GenerationSoftware,Kicad,Pcbnew,8.0.7
; #@! TF.FileFunction,Plated,1,4,PTH
FMAT,2
METRIC
; #@! TA.AperFunction,Plated,PTH,ViaDrill
T1C0.300
; #@! TA.AperFunction,Plated,PTH,ComponentDrill
T2C3.200
%
G90
G05
T1
X105.5Y-51.1
X105.5Y-51.9
X105.5Y-52.7
X105.7Y-50.2
X106.6Y-41.5
X107.7Y-43.7
X107.7Y-50.8
X108.024Y-38.5
X109.0Y-38.1
X109.7Y-42.7
X109.7Y-44.0
X109.8Y-39.6
X110.229Y-36.871
X110.3Y-53.8
X110.9Y-46.1
X111.6Y-43.3
X111.6Y-52.6
X112.8Y-46.7
X112.8Y-47.5
X113.1Y-33.8
X113.4Y-56.4
X113.8Y-53.8
X113.9Y-47.2
X114.5Y-61.1
X114.8Y-37.8
X114.9Y-52.6
X115.8Y-33.0
X115.8Y-42.1
X116.0Y-44.2
X117.0Y-58.1
X117.1Y-49.0
X117.1Y-49.8
X117.8Y-38.1
X117.8Y-53.8
X117.822Y-36.75
X118.45Y-48.9
X119.2Y-48.9
X119.3Y-31.9
X119.4Y-38.5
X120.0Y-48.9
X120.2Y-53.9
X120.5Y-55.4
X120.8Y-48.9
X121.3Y-58.3
X121.4Y-36.5
X121.5Y-45.915
X122.176Y-53.076
X122.6Y-41.3
X122.9Y-57.5
X123.825Y-51.426
X123.826Y-53.073
X124.1Y-48.9
X124.5Y-55.7
X124.7Y-44.2
X124.9Y-36.7
X125.4Y-37.8
X125.4Y-41.175
X125.6Y-58.3
X125.8Y-53.9
X126.7Y-48.9
X127.2Y-38.5
X127.9Y-44.0
X127.9Y-46.5
X128.3Y-32.5
X128.431Y-35.763
X128.6Y-47.4
X128.8Y-46.2
X129.1Y-58.3
X129.7Y-35.9
X131.0Y-38.0
X131.042Y-36.763
X131.3Y-50.2
X132.3Y-51.6
X132.779Y-33.121
X132.8Y-43.1
X132.8Y-45.8
X133.0Y-47.5
X133.0Y-48.3
X133.0Y-49.1
X133.8Y-56.0
X133.9Y-62.6
X135.3Y-41.3
X135.3Y-42.6
X135.7Y-33.3
X136.9Y-38.2
X137.1Y-43.7
X137.2Y-54.3
X137.3Y-50.8
X137.7Y-47.3
X137.7Y-48.3
X138.5Y-41.6
X138.9Y-49.1
X141.1Y-50.1
X141.3Y-49.0
X142.0Y-49.3
X142.015Y-52.797
T2
X103.5Y-33.5
X103.5Y-61.5
X141.5Y-33.5
X141.5Y-61.5
M30
