G04 #@! TF.GenerationSoftware,KiCad,Pcbnew,8.0.7*
G04 #@! TF.CreationDate,2025-04-02T23:58:34+11:00*
G04 #@! TF.ProjectId,Ganglion_01,47616e67-6c69-46f6-9e5f-30312e6b6963,01*
G04 #@! TF.SameCoordinates,Original*
G04 #@! TF.FileFunction,Soldermask,Top*
G04 #@! TF.FilePolarity,Negative*
%FSLAX46Y46*%
G04 Gerber Fmt 4.6, Leading zero omitted, Abs format (unit mm)*
G04 Created by KiCad (PCBNEW 8.0.7) date 2025-04-02 23:58:34*
%MOMM*%
%LPD*%
G01*
G04 APERTURE LIST*
G04 Aperture macros list*
%AMRoundRect*
0 Rectangle with rounded corners*
0 $1 Rounding radius*
0 $2 $3 $4 $5 $6 $7 $8 $9 X,Y pos of 4 corners*
0 Add a 4 corners polygon primitive as box body*
4,1,4,$2,$3,$4,$5,$6,$7,$8,$9,$2,$3,0*
0 Add four circle primitives for the rounded corners*
1,1,$1+$1,$2,$3*
1,1,$1+$1,$4,$5*
1,1,$1+$1,$6,$7*
1,1,$1+$1,$8,$9*
0 Add four rect primitives between the rounded corners*
20,1,$1+$1,$2,$3,$4,$5,0*
20,1,$1+$1,$4,$5,$6,$7,0*
20,1,$1+$1,$6,$7,$8,$9,0*
20,1,$1+$1,$8,$9,$2,$3,0*%
%AMFreePoly0*
4,1,22,0.686777,0.780194,0.756366,0.724698,0.794986,0.644504,0.800000,0.600000,0.800000,-0.600000,0.780194,-0.686777,0.724698,-0.756366,0.644504,-0.794986,0.600000,-0.800000,-0.600000,-0.800000,-0.686777,-0.780194,-0.756366,-0.724698,-0.794986,-0.644504,-0.800000,-0.600000,-0.800000,0.000000,-0.780194,0.086777,-0.741421,0.141421,-0.141421,0.741421,-0.066056,0.788777,0.000000,0.800000,
0.600000,0.800000,0.686777,0.780194,0.686777,0.780194,$1*%
G04 Aperture macros list end*
%ADD10RoundRect,0.325000X-0.350000X0.325000X-0.350000X-0.325000X0.350000X-0.325000X0.350000X0.325000X0*%
%ADD11RoundRect,0.325000X0.350000X-0.325000X0.350000X0.325000X-0.350000X0.325000X-0.350000X-0.325000X0*%
%ADD12RoundRect,0.240000X0.270000X-0.240000X0.270000X0.240000X-0.270000X0.240000X-0.270000X-0.240000X0*%
%ADD13RoundRect,0.240000X-0.270000X0.240000X-0.270000X-0.240000X0.270000X-0.240000X0.270000X0.240000X0*%
%ADD14RoundRect,0.235000X0.285000X-0.235000X0.285000X0.235000X-0.285000X0.235000X-0.285000X-0.235000X0*%
%ADD15RoundRect,0.235000X-0.285000X0.235000X-0.285000X-0.235000X0.285000X-0.235000X0.285000X0.235000X0*%
%ADD16RoundRect,0.235000X-0.235000X-0.285000X0.235000X-0.285000X0.235000X0.285000X-0.235000X0.285000X0*%
%ADD17RoundRect,0.300000X0.300000X0.375000X-0.300000X0.375000X-0.300000X-0.375000X0.300000X-0.375000X0*%
%ADD18RoundRect,0.200000X0.800000X0.500000X-0.800000X0.500000X-0.800000X-0.500000X0.800000X-0.500000X0*%
%ADD19RoundRect,0.200000X-0.800000X-0.500000X0.800000X-0.500000X0.800000X0.500000X-0.800000X0.500000X0*%
%ADD20RoundRect,0.200000X-0.325000X-0.200000X0.325000X-0.200000X0.325000X0.200000X-0.325000X0.200000X0*%
%ADD21RoundRect,0.250000X0.612500X0.250000X-0.612500X0.250000X-0.612500X-0.250000X0.612500X-0.250000X0*%
%ADD22RoundRect,0.200000X-0.200000X0.325000X-0.200000X-0.325000X0.200000X-0.325000X0.200000X0.325000X0*%
%ADD23RoundRect,0.200000X0.525000X0.325000X-0.525000X0.325000X-0.525000X-0.325000X0.525000X-0.325000X0*%
%ADD24RoundRect,0.200000X-0.125000X0.200000X-0.125000X-0.200000X0.125000X-0.200000X0.125000X0.200000X0*%
%ADD25RoundRect,0.200000X-0.200000X0.125000X-0.200000X-0.125000X0.200000X-0.125000X0.200000X0.125000X0*%
%ADD26RoundRect,0.200000X0.325000X0.200000X-0.325000X0.200000X-0.325000X-0.200000X0.325000X-0.200000X0*%
%ADD27RoundRect,0.325000X0.325000X0.350000X-0.325000X0.350000X-0.325000X-0.350000X0.325000X-0.350000X0*%
%ADD28RoundRect,0.337500X-0.337500X0.387500X-0.337500X-0.387500X0.337500X-0.387500X0.337500X0.387500X0*%
%ADD29C,6.800000*%
%ADD30C,1.900000*%
%ADD31RoundRect,0.240000X0.240000X0.270000X-0.240000X0.270000X-0.240000X-0.270000X0.240000X-0.270000X0*%
%ADD32RoundRect,0.200000X-0.400000X0.200000X-0.400000X-0.200000X0.400000X-0.200000X0.400000X0.200000X0*%
%ADD33RoundRect,0.200000X0.200000X0.400000X-0.200000X0.400000X-0.200000X-0.400000X0.200000X-0.400000X0*%
%ADD34FreePoly0,180.000000*%
%ADD35RoundRect,0.200000X0.600000X0.600000X-0.600000X0.600000X-0.600000X-0.600000X0.600000X-0.600000X0*%
%ADD36RoundRect,0.200000X-0.400000X-0.400000X0.400000X-0.400000X0.400000X0.400000X-0.400000X0.400000X0*%
%ADD37C,1.300000*%
G04 APERTURE END LIST*
D10*
X137800000Y-56725000D03*
X137800000Y-58275000D03*
X136200000Y-56725000D03*
X136200000Y-58275000D03*
D11*
X134600000Y-58275000D03*
X134600000Y-56725000D03*
X133000000Y-58275000D03*
X133000000Y-56725000D03*
D12*
X131600000Y-57580000D03*
X131600000Y-56620000D03*
D13*
X119700000Y-39320000D03*
X119700000Y-40280000D03*
X118700000Y-37120000D03*
X118700000Y-38080000D03*
X142000000Y-49920000D03*
X142000000Y-50880000D03*
D11*
X125300000Y-40175000D03*
X125300000Y-38625000D03*
X137898600Y-53575000D03*
X137898600Y-52025000D03*
X136400000Y-53575000D03*
X136400000Y-52025000D03*
D14*
X136500000Y-40610000D03*
X136500000Y-39590000D03*
D15*
X137600000Y-39600000D03*
X137600000Y-40620000D03*
D14*
X107500000Y-40810000D03*
X107500000Y-39790000D03*
D15*
X108600000Y-39790000D03*
X108600000Y-40810000D03*
D16*
X119790000Y-34500000D03*
X120810000Y-34500000D03*
D14*
X124000000Y-35010000D03*
X124000000Y-33990000D03*
D17*
X122125000Y-32977500D03*
X120475000Y-32977500D03*
D18*
X133850000Y-44350000D03*
X131550000Y-42600000D03*
X133850000Y-40850000D03*
D19*
X111150000Y-40950000D03*
X113450000Y-42700000D03*
X111150000Y-44450000D03*
D20*
X133950000Y-46850000D03*
X133950000Y-47500000D03*
X133950000Y-48150000D03*
X135850000Y-48150000D03*
X135850000Y-47500000D03*
X135850000Y-46850000D03*
D21*
X122437500Y-37650000D03*
X122437500Y-36700000D03*
X122437500Y-35750000D03*
X120162500Y-35750000D03*
X120162500Y-37650000D03*
D22*
X140750000Y-49050000D03*
X140100000Y-49050000D03*
X139450000Y-49050000D03*
X139450000Y-50950000D03*
X140750000Y-50950000D03*
D23*
X135975000Y-62575000D03*
X131825000Y-62575000D03*
X135975000Y-60425000D03*
X131825000Y-60425000D03*
D24*
X140850000Y-51912500D03*
X140350000Y-51912500D03*
X139850000Y-51912500D03*
X139350000Y-51912500D03*
D25*
X139175000Y-52587500D03*
X139175000Y-53087500D03*
D24*
X139350000Y-53762500D03*
X139850000Y-53762500D03*
X140350000Y-53762500D03*
X140850000Y-53762500D03*
D25*
X141025000Y-53087500D03*
X141025000Y-52587500D03*
D26*
X122750000Y-40450000D03*
X122750000Y-39800000D03*
X122750000Y-39150000D03*
X120850000Y-39150000D03*
X120850000Y-40450000D03*
D14*
X118700000Y-36210000D03*
X118700000Y-35190000D03*
D11*
X109902800Y-50375000D03*
X109902800Y-48825000D03*
D26*
X108452800Y-50250000D03*
X108452800Y-49600000D03*
X108452800Y-48950000D03*
X106552800Y-48950000D03*
X106552800Y-50250000D03*
X137950000Y-43250000D03*
X137950000Y-42600000D03*
X137950000Y-41950000D03*
X136050000Y-41950000D03*
X136050000Y-42600000D03*
X136050000Y-43250000D03*
D20*
X107050000Y-42050000D03*
X107050000Y-42700000D03*
X107050000Y-43350000D03*
X108950000Y-43350000D03*
X108950000Y-42700000D03*
X108950000Y-42050000D03*
X115550000Y-39250000D03*
X115550000Y-39900000D03*
X115550000Y-40550000D03*
X117450000Y-40550000D03*
X117450000Y-39250000D03*
D26*
X129700000Y-37900000D03*
X129700000Y-37250000D03*
X129700000Y-36600000D03*
X127800000Y-36600000D03*
X127800000Y-37900000D03*
X129700000Y-40900000D03*
X129700000Y-40250000D03*
X129700000Y-39600000D03*
X127800000Y-39600000D03*
X127800000Y-40900000D03*
D27*
X108275000Y-47400000D03*
X106725000Y-47400000D03*
D13*
X118600000Y-39320000D03*
X118600000Y-40280000D03*
D14*
X131600000Y-55510000D03*
X131600000Y-54490000D03*
D28*
X112100000Y-58025000D03*
X112100000Y-59775000D03*
D14*
X111102800Y-50110000D03*
X111102800Y-49090000D03*
D29*
X141500000Y-33500000D03*
D11*
X114200000Y-59675000D03*
X114200000Y-58125000D03*
D14*
X110600000Y-59410000D03*
X110600000Y-58390000D03*
D30*
X123200000Y-43500000D03*
D13*
X126667200Y-36770000D03*
X126667200Y-37730000D03*
X137050000Y-47320000D03*
X137050000Y-48280000D03*
D29*
X141500000Y-61500000D03*
D31*
X107782800Y-51550000D03*
X106822800Y-51550000D03*
D15*
X124000000Y-35990000D03*
X124000000Y-37010000D03*
X114200000Y-55790000D03*
X114200000Y-56810000D03*
D30*
X120400000Y-43500000D03*
D29*
X103500000Y-61500000D03*
D32*
X130000000Y-58200000D03*
X130000000Y-57350000D03*
X130000000Y-56500000D03*
X130000000Y-55650000D03*
X130000000Y-54800000D03*
X130000000Y-53950000D03*
X130000000Y-53100000D03*
X130000000Y-52250000D03*
X130000000Y-51400000D03*
X130000000Y-50550000D03*
X130000000Y-49700000D03*
X130000000Y-48850000D03*
X130000000Y-48000000D03*
X130000000Y-47150000D03*
X130000000Y-46300000D03*
D33*
X128950000Y-45250000D03*
X128100000Y-45250000D03*
X127250000Y-45250000D03*
X126400000Y-45250000D03*
X125550000Y-45250000D03*
X124700000Y-45250000D03*
X123850000Y-45250000D03*
X123000000Y-45250000D03*
X122150000Y-45250000D03*
X121300000Y-45250000D03*
X120450000Y-45250000D03*
X119600000Y-45250000D03*
X118750000Y-45250000D03*
X117900000Y-45250000D03*
X117050000Y-45250000D03*
D32*
X116000000Y-46300000D03*
X116000000Y-47150000D03*
X116000000Y-48000000D03*
X116000000Y-48850000D03*
X116000000Y-49700000D03*
X116000000Y-50550000D03*
X116000000Y-51400000D03*
X116000000Y-52250000D03*
X116000000Y-53100000D03*
X116000000Y-53950000D03*
X116000000Y-54800000D03*
X116000000Y-55650000D03*
X116000000Y-56500000D03*
X116000000Y-57350000D03*
X116000000Y-58200000D03*
D33*
X117050000Y-59250000D03*
X117900000Y-59250000D03*
X118750000Y-59250000D03*
X119600000Y-59250000D03*
X120450000Y-59250000D03*
X121300000Y-59250000D03*
X122150000Y-59250000D03*
X123000000Y-59250000D03*
X123850000Y-59250000D03*
X124700000Y-59250000D03*
X125550000Y-59250000D03*
X126400000Y-59250000D03*
X127250000Y-59250000D03*
X128100000Y-59250000D03*
X128950000Y-59250000D03*
D34*
X124650000Y-53900000D03*
D35*
X124650000Y-52250000D03*
X124650000Y-50600000D03*
X123000000Y-53900000D03*
X123000000Y-52250000D03*
X123000000Y-50600000D03*
X121350000Y-53900000D03*
X121350000Y-52250000D03*
X121350000Y-50600000D03*
D36*
X130000000Y-59250000D03*
X130000000Y-45250000D03*
X116000000Y-45250000D03*
X116000000Y-59250000D03*
D14*
X124000000Y-40910000D03*
X124000000Y-39890000D03*
D16*
X106990000Y-46200000D03*
X108010000Y-46200000D03*
D13*
X126656953Y-39770000D03*
X126656953Y-40730000D03*
D29*
X103500000Y-33500000D03*
D14*
X124010000Y-39000000D03*
X124010000Y-37980000D03*
D16*
X108742800Y-51550000D03*
X109762800Y-51550000D03*
D37*
X109300000Y-61987500D03*
X112300000Y-61987500D03*
M02*
