G04 #@! TF.GenerationSoftware,KiCad,Pcbnew,8.0.7*
G04 #@! TF.CreationDate,2025-04-02T23:58:34+11:00*
G04 #@! TF.ProjectId,Ganglion_01,47616e67-6c69-46f6-9e5f-30312e6b6963,01*
G04 #@! TF.SameCoordinates,Original*
G04 #@! TF.FileFunction,AssemblyDrawing,Top*
%FSLAX46Y46*%
G04 Gerber Fmt 4.6, Leading zero omitted, Abs format (unit mm)*
G04 Created by KiCad (PCBNEW 8.0.7) date 2025-04-02 23:58:34*
%MOMM*%
%LPD*%
G01*
G04 APERTURE LIST*
%ADD10C,0.060000*%
%ADD11C,0.040000*%
%ADD12C,0.150000*%
%ADD13C,0.075000*%
%ADD14C,0.100000*%
G04 APERTURE END LIST*
D10*
X137943832Y-57757142D02*
X137962880Y-57776190D01*
X137962880Y-57776190D02*
X137981927Y-57833332D01*
X137981927Y-57833332D02*
X137981927Y-57871428D01*
X137981927Y-57871428D02*
X137962880Y-57928571D01*
X137962880Y-57928571D02*
X137924784Y-57966666D01*
X137924784Y-57966666D02*
X137886689Y-57985713D01*
X137886689Y-57985713D02*
X137810499Y-58004761D01*
X137810499Y-58004761D02*
X137753356Y-58004761D01*
X137753356Y-58004761D02*
X137677165Y-57985713D01*
X137677165Y-57985713D02*
X137639070Y-57966666D01*
X137639070Y-57966666D02*
X137600975Y-57928571D01*
X137600975Y-57928571D02*
X137581927Y-57871428D01*
X137581927Y-57871428D02*
X137581927Y-57833332D01*
X137581927Y-57833332D02*
X137600975Y-57776190D01*
X137600975Y-57776190D02*
X137620022Y-57757142D01*
X137715260Y-57414285D02*
X137981927Y-57414285D01*
X137562880Y-57509523D02*
X137848594Y-57604761D01*
X137848594Y-57604761D02*
X137848594Y-57357142D01*
X137753356Y-57147619D02*
X137734308Y-57185714D01*
X137734308Y-57185714D02*
X137715260Y-57204761D01*
X137715260Y-57204761D02*
X137677165Y-57223809D01*
X137677165Y-57223809D02*
X137658118Y-57223809D01*
X137658118Y-57223809D02*
X137620022Y-57204761D01*
X137620022Y-57204761D02*
X137600975Y-57185714D01*
X137600975Y-57185714D02*
X137581927Y-57147619D01*
X137581927Y-57147619D02*
X137581927Y-57071428D01*
X137581927Y-57071428D02*
X137600975Y-57033333D01*
X137600975Y-57033333D02*
X137620022Y-57014285D01*
X137620022Y-57014285D02*
X137658118Y-56995238D01*
X137658118Y-56995238D02*
X137677165Y-56995238D01*
X137677165Y-56995238D02*
X137715260Y-57014285D01*
X137715260Y-57014285D02*
X137734308Y-57033333D01*
X137734308Y-57033333D02*
X137753356Y-57071428D01*
X137753356Y-57071428D02*
X137753356Y-57147619D01*
X137753356Y-57147619D02*
X137772403Y-57185714D01*
X137772403Y-57185714D02*
X137791451Y-57204761D01*
X137791451Y-57204761D02*
X137829546Y-57223809D01*
X137829546Y-57223809D02*
X137905737Y-57223809D01*
X137905737Y-57223809D02*
X137943832Y-57204761D01*
X137943832Y-57204761D02*
X137962880Y-57185714D01*
X137962880Y-57185714D02*
X137981927Y-57147619D01*
X137981927Y-57147619D02*
X137981927Y-57071428D01*
X137981927Y-57071428D02*
X137962880Y-57033333D01*
X137962880Y-57033333D02*
X137943832Y-57014285D01*
X137943832Y-57014285D02*
X137905737Y-56995238D01*
X137905737Y-56995238D02*
X137829546Y-56995238D01*
X137829546Y-56995238D02*
X137791451Y-57014285D01*
X137791451Y-57014285D02*
X137772403Y-57033333D01*
X137772403Y-57033333D02*
X137753356Y-57071428D01*
X136343832Y-57757142D02*
X136362880Y-57776190D01*
X136362880Y-57776190D02*
X136381927Y-57833332D01*
X136381927Y-57833332D02*
X136381927Y-57871428D01*
X136381927Y-57871428D02*
X136362880Y-57928571D01*
X136362880Y-57928571D02*
X136324784Y-57966666D01*
X136324784Y-57966666D02*
X136286689Y-57985713D01*
X136286689Y-57985713D02*
X136210499Y-58004761D01*
X136210499Y-58004761D02*
X136153356Y-58004761D01*
X136153356Y-58004761D02*
X136077165Y-57985713D01*
X136077165Y-57985713D02*
X136039070Y-57966666D01*
X136039070Y-57966666D02*
X136000975Y-57928571D01*
X136000975Y-57928571D02*
X135981927Y-57871428D01*
X135981927Y-57871428D02*
X135981927Y-57833332D01*
X135981927Y-57833332D02*
X136000975Y-57776190D01*
X136000975Y-57776190D02*
X136020022Y-57757142D01*
X136115260Y-57414285D02*
X136381927Y-57414285D01*
X135962880Y-57509523D02*
X136248594Y-57604761D01*
X136248594Y-57604761D02*
X136248594Y-57357142D01*
X135981927Y-57242857D02*
X135981927Y-56976190D01*
X135981927Y-56976190D02*
X136381927Y-57147619D01*
X134743832Y-57757142D02*
X134762880Y-57776190D01*
X134762880Y-57776190D02*
X134781927Y-57833332D01*
X134781927Y-57833332D02*
X134781927Y-57871428D01*
X134781927Y-57871428D02*
X134762880Y-57928571D01*
X134762880Y-57928571D02*
X134724784Y-57966666D01*
X134724784Y-57966666D02*
X134686689Y-57985713D01*
X134686689Y-57985713D02*
X134610499Y-58004761D01*
X134610499Y-58004761D02*
X134553356Y-58004761D01*
X134553356Y-58004761D02*
X134477165Y-57985713D01*
X134477165Y-57985713D02*
X134439070Y-57966666D01*
X134439070Y-57966666D02*
X134400975Y-57928571D01*
X134400975Y-57928571D02*
X134381927Y-57871428D01*
X134381927Y-57871428D02*
X134381927Y-57833332D01*
X134381927Y-57833332D02*
X134400975Y-57776190D01*
X134400975Y-57776190D02*
X134420022Y-57757142D01*
X134781927Y-57376190D02*
X134781927Y-57604761D01*
X134781927Y-57490475D02*
X134381927Y-57490475D01*
X134381927Y-57490475D02*
X134439070Y-57528571D01*
X134439070Y-57528571D02*
X134477165Y-57566666D01*
X134477165Y-57566666D02*
X134496213Y-57604761D01*
X134553356Y-57147619D02*
X134534308Y-57185714D01*
X134534308Y-57185714D02*
X134515260Y-57204761D01*
X134515260Y-57204761D02*
X134477165Y-57223809D01*
X134477165Y-57223809D02*
X134458118Y-57223809D01*
X134458118Y-57223809D02*
X134420022Y-57204761D01*
X134420022Y-57204761D02*
X134400975Y-57185714D01*
X134400975Y-57185714D02*
X134381927Y-57147619D01*
X134381927Y-57147619D02*
X134381927Y-57071428D01*
X134381927Y-57071428D02*
X134400975Y-57033333D01*
X134400975Y-57033333D02*
X134420022Y-57014285D01*
X134420022Y-57014285D02*
X134458118Y-56995238D01*
X134458118Y-56995238D02*
X134477165Y-56995238D01*
X134477165Y-56995238D02*
X134515260Y-57014285D01*
X134515260Y-57014285D02*
X134534308Y-57033333D01*
X134534308Y-57033333D02*
X134553356Y-57071428D01*
X134553356Y-57071428D02*
X134553356Y-57147619D01*
X134553356Y-57147619D02*
X134572403Y-57185714D01*
X134572403Y-57185714D02*
X134591451Y-57204761D01*
X134591451Y-57204761D02*
X134629546Y-57223809D01*
X134629546Y-57223809D02*
X134705737Y-57223809D01*
X134705737Y-57223809D02*
X134743832Y-57204761D01*
X134743832Y-57204761D02*
X134762880Y-57185714D01*
X134762880Y-57185714D02*
X134781927Y-57147619D01*
X134781927Y-57147619D02*
X134781927Y-57071428D01*
X134781927Y-57071428D02*
X134762880Y-57033333D01*
X134762880Y-57033333D02*
X134743832Y-57014285D01*
X134743832Y-57014285D02*
X134705737Y-56995238D01*
X134705737Y-56995238D02*
X134629546Y-56995238D01*
X134629546Y-56995238D02*
X134591451Y-57014285D01*
X134591451Y-57014285D02*
X134572403Y-57033333D01*
X134572403Y-57033333D02*
X134553356Y-57071428D01*
X133143832Y-57757142D02*
X133162880Y-57776190D01*
X133162880Y-57776190D02*
X133181927Y-57833332D01*
X133181927Y-57833332D02*
X133181927Y-57871428D01*
X133181927Y-57871428D02*
X133162880Y-57928571D01*
X133162880Y-57928571D02*
X133124784Y-57966666D01*
X133124784Y-57966666D02*
X133086689Y-57985713D01*
X133086689Y-57985713D02*
X133010499Y-58004761D01*
X133010499Y-58004761D02*
X132953356Y-58004761D01*
X132953356Y-58004761D02*
X132877165Y-57985713D01*
X132877165Y-57985713D02*
X132839070Y-57966666D01*
X132839070Y-57966666D02*
X132800975Y-57928571D01*
X132800975Y-57928571D02*
X132781927Y-57871428D01*
X132781927Y-57871428D02*
X132781927Y-57833332D01*
X132781927Y-57833332D02*
X132800975Y-57776190D01*
X132800975Y-57776190D02*
X132820022Y-57757142D01*
X133181927Y-57376190D02*
X133181927Y-57604761D01*
X133181927Y-57490475D02*
X132781927Y-57490475D01*
X132781927Y-57490475D02*
X132839070Y-57528571D01*
X132839070Y-57528571D02*
X132877165Y-57566666D01*
X132877165Y-57566666D02*
X132896213Y-57604761D01*
X133181927Y-57185714D02*
X133181927Y-57109523D01*
X133181927Y-57109523D02*
X133162880Y-57071428D01*
X133162880Y-57071428D02*
X133143832Y-57052380D01*
X133143832Y-57052380D02*
X133086689Y-57014285D01*
X133086689Y-57014285D02*
X133010499Y-56995238D01*
X133010499Y-56995238D02*
X132858118Y-56995238D01*
X132858118Y-56995238D02*
X132820022Y-57014285D01*
X132820022Y-57014285D02*
X132800975Y-57033333D01*
X132800975Y-57033333D02*
X132781927Y-57071428D01*
X132781927Y-57071428D02*
X132781927Y-57147619D01*
X132781927Y-57147619D02*
X132800975Y-57185714D01*
X132800975Y-57185714D02*
X132820022Y-57204761D01*
X132820022Y-57204761D02*
X132858118Y-57223809D01*
X132858118Y-57223809D02*
X132953356Y-57223809D01*
X132953356Y-57223809D02*
X132991451Y-57204761D01*
X132991451Y-57204761D02*
X133010499Y-57185714D01*
X133010499Y-57185714D02*
X133029546Y-57147619D01*
X133029546Y-57147619D02*
X133029546Y-57071428D01*
X133029546Y-57071428D02*
X133010499Y-57033333D01*
X133010499Y-57033333D02*
X132991451Y-57014285D01*
X132991451Y-57014285D02*
X132953356Y-56995238D01*
D11*
X131689765Y-57260714D02*
X131701670Y-57272618D01*
X131701670Y-57272618D02*
X131713574Y-57308333D01*
X131713574Y-57308333D02*
X131713574Y-57332142D01*
X131713574Y-57332142D02*
X131701670Y-57367856D01*
X131701670Y-57367856D02*
X131677860Y-57391666D01*
X131677860Y-57391666D02*
X131654050Y-57403571D01*
X131654050Y-57403571D02*
X131606431Y-57415475D01*
X131606431Y-57415475D02*
X131570717Y-57415475D01*
X131570717Y-57415475D02*
X131523098Y-57403571D01*
X131523098Y-57403571D02*
X131499289Y-57391666D01*
X131499289Y-57391666D02*
X131475479Y-57367856D01*
X131475479Y-57367856D02*
X131463574Y-57332142D01*
X131463574Y-57332142D02*
X131463574Y-57308333D01*
X131463574Y-57308333D02*
X131475479Y-57272618D01*
X131475479Y-57272618D02*
X131487384Y-57260714D01*
X131487384Y-57165475D02*
X131475479Y-57153571D01*
X131475479Y-57153571D02*
X131463574Y-57129761D01*
X131463574Y-57129761D02*
X131463574Y-57070237D01*
X131463574Y-57070237D02*
X131475479Y-57046428D01*
X131475479Y-57046428D02*
X131487384Y-57034523D01*
X131487384Y-57034523D02*
X131511193Y-57022618D01*
X131511193Y-57022618D02*
X131535003Y-57022618D01*
X131535003Y-57022618D02*
X131570717Y-57034523D01*
X131570717Y-57034523D02*
X131713574Y-57177380D01*
X131713574Y-57177380D02*
X131713574Y-57022618D01*
X131463574Y-56867857D02*
X131463574Y-56844047D01*
X131463574Y-56844047D02*
X131475479Y-56820238D01*
X131475479Y-56820238D02*
X131487384Y-56808333D01*
X131487384Y-56808333D02*
X131511193Y-56796428D01*
X131511193Y-56796428D02*
X131558812Y-56784523D01*
X131558812Y-56784523D02*
X131618336Y-56784523D01*
X131618336Y-56784523D02*
X131665955Y-56796428D01*
X131665955Y-56796428D02*
X131689765Y-56808333D01*
X131689765Y-56808333D02*
X131701670Y-56820238D01*
X131701670Y-56820238D02*
X131713574Y-56844047D01*
X131713574Y-56844047D02*
X131713574Y-56867857D01*
X131713574Y-56867857D02*
X131701670Y-56891666D01*
X131701670Y-56891666D02*
X131689765Y-56903571D01*
X131689765Y-56903571D02*
X131665955Y-56915476D01*
X131665955Y-56915476D02*
X131618336Y-56927380D01*
X131618336Y-56927380D02*
X131558812Y-56927380D01*
X131558812Y-56927380D02*
X131511193Y-56915476D01*
X131511193Y-56915476D02*
X131487384Y-56903571D01*
X131487384Y-56903571D02*
X131475479Y-56891666D01*
X131475479Y-56891666D02*
X131463574Y-56867857D01*
X119789765Y-39960714D02*
X119801670Y-39972618D01*
X119801670Y-39972618D02*
X119813574Y-40008333D01*
X119813574Y-40008333D02*
X119813574Y-40032142D01*
X119813574Y-40032142D02*
X119801670Y-40067856D01*
X119801670Y-40067856D02*
X119777860Y-40091666D01*
X119777860Y-40091666D02*
X119754050Y-40103571D01*
X119754050Y-40103571D02*
X119706431Y-40115475D01*
X119706431Y-40115475D02*
X119670717Y-40115475D01*
X119670717Y-40115475D02*
X119623098Y-40103571D01*
X119623098Y-40103571D02*
X119599289Y-40091666D01*
X119599289Y-40091666D02*
X119575479Y-40067856D01*
X119575479Y-40067856D02*
X119563574Y-40032142D01*
X119563574Y-40032142D02*
X119563574Y-40008333D01*
X119563574Y-40008333D02*
X119575479Y-39972618D01*
X119575479Y-39972618D02*
X119587384Y-39960714D01*
X119587384Y-39865475D02*
X119575479Y-39853571D01*
X119575479Y-39853571D02*
X119563574Y-39829761D01*
X119563574Y-39829761D02*
X119563574Y-39770237D01*
X119563574Y-39770237D02*
X119575479Y-39746428D01*
X119575479Y-39746428D02*
X119587384Y-39734523D01*
X119587384Y-39734523D02*
X119611193Y-39722618D01*
X119611193Y-39722618D02*
X119635003Y-39722618D01*
X119635003Y-39722618D02*
X119670717Y-39734523D01*
X119670717Y-39734523D02*
X119813574Y-39877380D01*
X119813574Y-39877380D02*
X119813574Y-39722618D01*
X119670717Y-39579761D02*
X119658812Y-39603571D01*
X119658812Y-39603571D02*
X119646908Y-39615476D01*
X119646908Y-39615476D02*
X119623098Y-39627380D01*
X119623098Y-39627380D02*
X119611193Y-39627380D01*
X119611193Y-39627380D02*
X119587384Y-39615476D01*
X119587384Y-39615476D02*
X119575479Y-39603571D01*
X119575479Y-39603571D02*
X119563574Y-39579761D01*
X119563574Y-39579761D02*
X119563574Y-39532142D01*
X119563574Y-39532142D02*
X119575479Y-39508333D01*
X119575479Y-39508333D02*
X119587384Y-39496428D01*
X119587384Y-39496428D02*
X119611193Y-39484523D01*
X119611193Y-39484523D02*
X119623098Y-39484523D01*
X119623098Y-39484523D02*
X119646908Y-39496428D01*
X119646908Y-39496428D02*
X119658812Y-39508333D01*
X119658812Y-39508333D02*
X119670717Y-39532142D01*
X119670717Y-39532142D02*
X119670717Y-39579761D01*
X119670717Y-39579761D02*
X119682622Y-39603571D01*
X119682622Y-39603571D02*
X119694527Y-39615476D01*
X119694527Y-39615476D02*
X119718336Y-39627380D01*
X119718336Y-39627380D02*
X119765955Y-39627380D01*
X119765955Y-39627380D02*
X119789765Y-39615476D01*
X119789765Y-39615476D02*
X119801670Y-39603571D01*
X119801670Y-39603571D02*
X119813574Y-39579761D01*
X119813574Y-39579761D02*
X119813574Y-39532142D01*
X119813574Y-39532142D02*
X119801670Y-39508333D01*
X119801670Y-39508333D02*
X119789765Y-39496428D01*
X119789765Y-39496428D02*
X119765955Y-39484523D01*
X119765955Y-39484523D02*
X119718336Y-39484523D01*
X119718336Y-39484523D02*
X119694527Y-39496428D01*
X119694527Y-39496428D02*
X119682622Y-39508333D01*
X119682622Y-39508333D02*
X119670717Y-39532142D01*
X118789765Y-37760714D02*
X118801670Y-37772618D01*
X118801670Y-37772618D02*
X118813574Y-37808333D01*
X118813574Y-37808333D02*
X118813574Y-37832142D01*
X118813574Y-37832142D02*
X118801670Y-37867856D01*
X118801670Y-37867856D02*
X118777860Y-37891666D01*
X118777860Y-37891666D02*
X118754050Y-37903571D01*
X118754050Y-37903571D02*
X118706431Y-37915475D01*
X118706431Y-37915475D02*
X118670717Y-37915475D01*
X118670717Y-37915475D02*
X118623098Y-37903571D01*
X118623098Y-37903571D02*
X118599289Y-37891666D01*
X118599289Y-37891666D02*
X118575479Y-37867856D01*
X118575479Y-37867856D02*
X118563574Y-37832142D01*
X118563574Y-37832142D02*
X118563574Y-37808333D01*
X118563574Y-37808333D02*
X118575479Y-37772618D01*
X118575479Y-37772618D02*
X118587384Y-37760714D01*
X118563574Y-37677380D02*
X118563574Y-37522618D01*
X118563574Y-37522618D02*
X118658812Y-37605952D01*
X118658812Y-37605952D02*
X118658812Y-37570237D01*
X118658812Y-37570237D02*
X118670717Y-37546428D01*
X118670717Y-37546428D02*
X118682622Y-37534523D01*
X118682622Y-37534523D02*
X118706431Y-37522618D01*
X118706431Y-37522618D02*
X118765955Y-37522618D01*
X118765955Y-37522618D02*
X118789765Y-37534523D01*
X118789765Y-37534523D02*
X118801670Y-37546428D01*
X118801670Y-37546428D02*
X118813574Y-37570237D01*
X118813574Y-37570237D02*
X118813574Y-37641666D01*
X118813574Y-37641666D02*
X118801670Y-37665475D01*
X118801670Y-37665475D02*
X118789765Y-37677380D01*
X118563574Y-37367857D02*
X118563574Y-37344047D01*
X118563574Y-37344047D02*
X118575479Y-37320238D01*
X118575479Y-37320238D02*
X118587384Y-37308333D01*
X118587384Y-37308333D02*
X118611193Y-37296428D01*
X118611193Y-37296428D02*
X118658812Y-37284523D01*
X118658812Y-37284523D02*
X118718336Y-37284523D01*
X118718336Y-37284523D02*
X118765955Y-37296428D01*
X118765955Y-37296428D02*
X118789765Y-37308333D01*
X118789765Y-37308333D02*
X118801670Y-37320238D01*
X118801670Y-37320238D02*
X118813574Y-37344047D01*
X118813574Y-37344047D02*
X118813574Y-37367857D01*
X118813574Y-37367857D02*
X118801670Y-37391666D01*
X118801670Y-37391666D02*
X118789765Y-37403571D01*
X118789765Y-37403571D02*
X118765955Y-37415476D01*
X118765955Y-37415476D02*
X118718336Y-37427380D01*
X118718336Y-37427380D02*
X118658812Y-37427380D01*
X118658812Y-37427380D02*
X118611193Y-37415476D01*
X118611193Y-37415476D02*
X118587384Y-37403571D01*
X118587384Y-37403571D02*
X118575479Y-37391666D01*
X118575479Y-37391666D02*
X118563574Y-37367857D01*
X142089765Y-50560714D02*
X142101670Y-50572618D01*
X142101670Y-50572618D02*
X142113574Y-50608333D01*
X142113574Y-50608333D02*
X142113574Y-50632142D01*
X142113574Y-50632142D02*
X142101670Y-50667856D01*
X142101670Y-50667856D02*
X142077860Y-50691666D01*
X142077860Y-50691666D02*
X142054050Y-50703571D01*
X142054050Y-50703571D02*
X142006431Y-50715475D01*
X142006431Y-50715475D02*
X141970717Y-50715475D01*
X141970717Y-50715475D02*
X141923098Y-50703571D01*
X141923098Y-50703571D02*
X141899289Y-50691666D01*
X141899289Y-50691666D02*
X141875479Y-50667856D01*
X141875479Y-50667856D02*
X141863574Y-50632142D01*
X141863574Y-50632142D02*
X141863574Y-50608333D01*
X141863574Y-50608333D02*
X141875479Y-50572618D01*
X141875479Y-50572618D02*
X141887384Y-50560714D01*
X141863574Y-50477380D02*
X141863574Y-50322618D01*
X141863574Y-50322618D02*
X141958812Y-50405952D01*
X141958812Y-50405952D02*
X141958812Y-50370237D01*
X141958812Y-50370237D02*
X141970717Y-50346428D01*
X141970717Y-50346428D02*
X141982622Y-50334523D01*
X141982622Y-50334523D02*
X142006431Y-50322618D01*
X142006431Y-50322618D02*
X142065955Y-50322618D01*
X142065955Y-50322618D02*
X142089765Y-50334523D01*
X142089765Y-50334523D02*
X142101670Y-50346428D01*
X142101670Y-50346428D02*
X142113574Y-50370237D01*
X142113574Y-50370237D02*
X142113574Y-50441666D01*
X142113574Y-50441666D02*
X142101670Y-50465475D01*
X142101670Y-50465475D02*
X142089765Y-50477380D01*
X142113574Y-50084523D02*
X142113574Y-50227380D01*
X142113574Y-50155952D02*
X141863574Y-50155952D01*
X141863574Y-50155952D02*
X141899289Y-50179761D01*
X141899289Y-50179761D02*
X141923098Y-50203571D01*
X141923098Y-50203571D02*
X141935003Y-50227380D01*
D10*
X125443832Y-39657142D02*
X125462880Y-39676190D01*
X125462880Y-39676190D02*
X125481927Y-39733332D01*
X125481927Y-39733332D02*
X125481927Y-39771428D01*
X125481927Y-39771428D02*
X125462880Y-39828571D01*
X125462880Y-39828571D02*
X125424784Y-39866666D01*
X125424784Y-39866666D02*
X125386689Y-39885713D01*
X125386689Y-39885713D02*
X125310499Y-39904761D01*
X125310499Y-39904761D02*
X125253356Y-39904761D01*
X125253356Y-39904761D02*
X125177165Y-39885713D01*
X125177165Y-39885713D02*
X125139070Y-39866666D01*
X125139070Y-39866666D02*
X125100975Y-39828571D01*
X125100975Y-39828571D02*
X125081927Y-39771428D01*
X125081927Y-39771428D02*
X125081927Y-39733332D01*
X125081927Y-39733332D02*
X125100975Y-39676190D01*
X125100975Y-39676190D02*
X125120022Y-39657142D01*
X125215260Y-39314285D02*
X125481927Y-39314285D01*
X125062880Y-39409523D02*
X125348594Y-39504761D01*
X125348594Y-39504761D02*
X125348594Y-39257142D01*
X125081927Y-39028571D02*
X125081927Y-38990476D01*
X125081927Y-38990476D02*
X125100975Y-38952380D01*
X125100975Y-38952380D02*
X125120022Y-38933333D01*
X125120022Y-38933333D02*
X125158118Y-38914285D01*
X125158118Y-38914285D02*
X125234308Y-38895238D01*
X125234308Y-38895238D02*
X125329546Y-38895238D01*
X125329546Y-38895238D02*
X125405737Y-38914285D01*
X125405737Y-38914285D02*
X125443832Y-38933333D01*
X125443832Y-38933333D02*
X125462880Y-38952380D01*
X125462880Y-38952380D02*
X125481927Y-38990476D01*
X125481927Y-38990476D02*
X125481927Y-39028571D01*
X125481927Y-39028571D02*
X125462880Y-39066666D01*
X125462880Y-39066666D02*
X125443832Y-39085714D01*
X125443832Y-39085714D02*
X125405737Y-39104761D01*
X125405737Y-39104761D02*
X125329546Y-39123809D01*
X125329546Y-39123809D02*
X125234308Y-39123809D01*
X125234308Y-39123809D02*
X125158118Y-39104761D01*
X125158118Y-39104761D02*
X125120022Y-39085714D01*
X125120022Y-39085714D02*
X125100975Y-39066666D01*
X125100975Y-39066666D02*
X125081927Y-39028571D01*
X138042432Y-53057142D02*
X138061480Y-53076190D01*
X138061480Y-53076190D02*
X138080527Y-53133332D01*
X138080527Y-53133332D02*
X138080527Y-53171428D01*
X138080527Y-53171428D02*
X138061480Y-53228571D01*
X138061480Y-53228571D02*
X138023384Y-53266666D01*
X138023384Y-53266666D02*
X137985289Y-53285713D01*
X137985289Y-53285713D02*
X137909099Y-53304761D01*
X137909099Y-53304761D02*
X137851956Y-53304761D01*
X137851956Y-53304761D02*
X137775765Y-53285713D01*
X137775765Y-53285713D02*
X137737670Y-53266666D01*
X137737670Y-53266666D02*
X137699575Y-53228571D01*
X137699575Y-53228571D02*
X137680527Y-53171428D01*
X137680527Y-53171428D02*
X137680527Y-53133332D01*
X137680527Y-53133332D02*
X137699575Y-53076190D01*
X137699575Y-53076190D02*
X137718622Y-53057142D01*
X137813860Y-52714285D02*
X138080527Y-52714285D01*
X137661480Y-52809523D02*
X137947194Y-52904761D01*
X137947194Y-52904761D02*
X137947194Y-52657142D01*
X138080527Y-52295238D02*
X138080527Y-52523809D01*
X138080527Y-52409523D02*
X137680527Y-52409523D01*
X137680527Y-52409523D02*
X137737670Y-52447619D01*
X137737670Y-52447619D02*
X137775765Y-52485714D01*
X137775765Y-52485714D02*
X137794813Y-52523809D01*
X136543832Y-53057142D02*
X136562880Y-53076190D01*
X136562880Y-53076190D02*
X136581927Y-53133332D01*
X136581927Y-53133332D02*
X136581927Y-53171428D01*
X136581927Y-53171428D02*
X136562880Y-53228571D01*
X136562880Y-53228571D02*
X136524784Y-53266666D01*
X136524784Y-53266666D02*
X136486689Y-53285713D01*
X136486689Y-53285713D02*
X136410499Y-53304761D01*
X136410499Y-53304761D02*
X136353356Y-53304761D01*
X136353356Y-53304761D02*
X136277165Y-53285713D01*
X136277165Y-53285713D02*
X136239070Y-53266666D01*
X136239070Y-53266666D02*
X136200975Y-53228571D01*
X136200975Y-53228571D02*
X136181927Y-53171428D01*
X136181927Y-53171428D02*
X136181927Y-53133332D01*
X136181927Y-53133332D02*
X136200975Y-53076190D01*
X136200975Y-53076190D02*
X136220022Y-53057142D01*
X136315260Y-52714285D02*
X136581927Y-52714285D01*
X136162880Y-52809523D02*
X136448594Y-52904761D01*
X136448594Y-52904761D02*
X136448594Y-52657142D01*
X136220022Y-52523809D02*
X136200975Y-52504761D01*
X136200975Y-52504761D02*
X136181927Y-52466666D01*
X136181927Y-52466666D02*
X136181927Y-52371428D01*
X136181927Y-52371428D02*
X136200975Y-52333333D01*
X136200975Y-52333333D02*
X136220022Y-52314285D01*
X136220022Y-52314285D02*
X136258118Y-52295238D01*
X136258118Y-52295238D02*
X136296213Y-52295238D01*
X136296213Y-52295238D02*
X136353356Y-52314285D01*
X136353356Y-52314285D02*
X136581927Y-52542857D01*
X136581927Y-52542857D02*
X136581927Y-52295238D01*
D11*
X136618200Y-40143332D02*
X136494391Y-40229999D01*
X136618200Y-40291904D02*
X136358200Y-40291904D01*
X136358200Y-40291904D02*
X136358200Y-40192856D01*
X136358200Y-40192856D02*
X136370581Y-40168094D01*
X136370581Y-40168094D02*
X136382962Y-40155713D01*
X136382962Y-40155713D02*
X136407724Y-40143332D01*
X136407724Y-40143332D02*
X136444867Y-40143332D01*
X136444867Y-40143332D02*
X136469629Y-40155713D01*
X136469629Y-40155713D02*
X136482010Y-40168094D01*
X136482010Y-40168094D02*
X136494391Y-40192856D01*
X136494391Y-40192856D02*
X136494391Y-40291904D01*
X136382962Y-40044285D02*
X136370581Y-40031904D01*
X136370581Y-40031904D02*
X136358200Y-40007142D01*
X136358200Y-40007142D02*
X136358200Y-39945237D01*
X136358200Y-39945237D02*
X136370581Y-39920475D01*
X136370581Y-39920475D02*
X136382962Y-39908094D01*
X136382962Y-39908094D02*
X136407724Y-39895713D01*
X136407724Y-39895713D02*
X136432486Y-39895713D01*
X136432486Y-39895713D02*
X136469629Y-39908094D01*
X136469629Y-39908094D02*
X136618200Y-40056666D01*
X136618200Y-40056666D02*
X136618200Y-39895713D01*
X137718200Y-40153332D02*
X137594391Y-40239999D01*
X137718200Y-40301904D02*
X137458200Y-40301904D01*
X137458200Y-40301904D02*
X137458200Y-40202856D01*
X137458200Y-40202856D02*
X137470581Y-40178094D01*
X137470581Y-40178094D02*
X137482962Y-40165713D01*
X137482962Y-40165713D02*
X137507724Y-40153332D01*
X137507724Y-40153332D02*
X137544867Y-40153332D01*
X137544867Y-40153332D02*
X137569629Y-40165713D01*
X137569629Y-40165713D02*
X137582010Y-40178094D01*
X137582010Y-40178094D02*
X137594391Y-40202856D01*
X137594391Y-40202856D02*
X137594391Y-40301904D01*
X137458200Y-40066666D02*
X137458200Y-39905713D01*
X137458200Y-39905713D02*
X137557248Y-39992380D01*
X137557248Y-39992380D02*
X137557248Y-39955237D01*
X137557248Y-39955237D02*
X137569629Y-39930475D01*
X137569629Y-39930475D02*
X137582010Y-39918094D01*
X137582010Y-39918094D02*
X137606772Y-39905713D01*
X137606772Y-39905713D02*
X137668677Y-39905713D01*
X137668677Y-39905713D02*
X137693439Y-39918094D01*
X137693439Y-39918094D02*
X137705820Y-39930475D01*
X137705820Y-39930475D02*
X137718200Y-39955237D01*
X137718200Y-39955237D02*
X137718200Y-40029523D01*
X137718200Y-40029523D02*
X137705820Y-40054285D01*
X137705820Y-40054285D02*
X137693439Y-40066666D01*
X107618200Y-40343332D02*
X107494391Y-40429999D01*
X107618200Y-40491904D02*
X107358200Y-40491904D01*
X107358200Y-40491904D02*
X107358200Y-40392856D01*
X107358200Y-40392856D02*
X107370581Y-40368094D01*
X107370581Y-40368094D02*
X107382962Y-40355713D01*
X107382962Y-40355713D02*
X107407724Y-40343332D01*
X107407724Y-40343332D02*
X107444867Y-40343332D01*
X107444867Y-40343332D02*
X107469629Y-40355713D01*
X107469629Y-40355713D02*
X107482010Y-40368094D01*
X107482010Y-40368094D02*
X107494391Y-40392856D01*
X107494391Y-40392856D02*
X107494391Y-40491904D01*
X107444867Y-40120475D02*
X107618200Y-40120475D01*
X107345820Y-40182380D02*
X107531534Y-40244285D01*
X107531534Y-40244285D02*
X107531534Y-40083332D01*
X108718200Y-40343332D02*
X108594391Y-40429999D01*
X108718200Y-40491904D02*
X108458200Y-40491904D01*
X108458200Y-40491904D02*
X108458200Y-40392856D01*
X108458200Y-40392856D02*
X108470581Y-40368094D01*
X108470581Y-40368094D02*
X108482962Y-40355713D01*
X108482962Y-40355713D02*
X108507724Y-40343332D01*
X108507724Y-40343332D02*
X108544867Y-40343332D01*
X108544867Y-40343332D02*
X108569629Y-40355713D01*
X108569629Y-40355713D02*
X108582010Y-40368094D01*
X108582010Y-40368094D02*
X108594391Y-40392856D01*
X108594391Y-40392856D02*
X108594391Y-40491904D01*
X108458200Y-40108094D02*
X108458200Y-40231904D01*
X108458200Y-40231904D02*
X108582010Y-40244285D01*
X108582010Y-40244285D02*
X108569629Y-40231904D01*
X108569629Y-40231904D02*
X108557248Y-40207142D01*
X108557248Y-40207142D02*
X108557248Y-40145237D01*
X108557248Y-40145237D02*
X108569629Y-40120475D01*
X108569629Y-40120475D02*
X108582010Y-40108094D01*
X108582010Y-40108094D02*
X108606772Y-40095713D01*
X108606772Y-40095713D02*
X108668677Y-40095713D01*
X108668677Y-40095713D02*
X108693439Y-40108094D01*
X108693439Y-40108094D02*
X108705820Y-40120475D01*
X108705820Y-40120475D02*
X108718200Y-40145237D01*
X108718200Y-40145237D02*
X108718200Y-40207142D01*
X108718200Y-40207142D02*
X108705820Y-40231904D01*
X108705820Y-40231904D02*
X108693439Y-40244285D01*
X120132857Y-34618200D02*
X120046190Y-34494391D01*
X119984285Y-34618200D02*
X119984285Y-34358200D01*
X119984285Y-34358200D02*
X120083333Y-34358200D01*
X120083333Y-34358200D02*
X120108095Y-34370581D01*
X120108095Y-34370581D02*
X120120476Y-34382962D01*
X120120476Y-34382962D02*
X120132857Y-34407724D01*
X120132857Y-34407724D02*
X120132857Y-34444867D01*
X120132857Y-34444867D02*
X120120476Y-34469629D01*
X120120476Y-34469629D02*
X120108095Y-34482010D01*
X120108095Y-34482010D02*
X120083333Y-34494391D01*
X120083333Y-34494391D02*
X119984285Y-34494391D01*
X120231904Y-34382962D02*
X120244285Y-34370581D01*
X120244285Y-34370581D02*
X120269047Y-34358200D01*
X120269047Y-34358200D02*
X120330952Y-34358200D01*
X120330952Y-34358200D02*
X120355714Y-34370581D01*
X120355714Y-34370581D02*
X120368095Y-34382962D01*
X120368095Y-34382962D02*
X120380476Y-34407724D01*
X120380476Y-34407724D02*
X120380476Y-34432486D01*
X120380476Y-34432486D02*
X120368095Y-34469629D01*
X120368095Y-34469629D02*
X120219523Y-34618200D01*
X120219523Y-34618200D02*
X120380476Y-34618200D01*
X120467142Y-34358200D02*
X120640476Y-34358200D01*
X120640476Y-34358200D02*
X120529047Y-34618200D01*
X124118200Y-34667142D02*
X123994391Y-34753809D01*
X124118200Y-34815714D02*
X123858200Y-34815714D01*
X123858200Y-34815714D02*
X123858200Y-34716666D01*
X123858200Y-34716666D02*
X123870581Y-34691904D01*
X123870581Y-34691904D02*
X123882962Y-34679523D01*
X123882962Y-34679523D02*
X123907724Y-34667142D01*
X123907724Y-34667142D02*
X123944867Y-34667142D01*
X123944867Y-34667142D02*
X123969629Y-34679523D01*
X123969629Y-34679523D02*
X123982010Y-34691904D01*
X123982010Y-34691904D02*
X123994391Y-34716666D01*
X123994391Y-34716666D02*
X123994391Y-34815714D01*
X123882962Y-34568095D02*
X123870581Y-34555714D01*
X123870581Y-34555714D02*
X123858200Y-34530952D01*
X123858200Y-34530952D02*
X123858200Y-34469047D01*
X123858200Y-34469047D02*
X123870581Y-34444285D01*
X123870581Y-34444285D02*
X123882962Y-34431904D01*
X123882962Y-34431904D02*
X123907724Y-34419523D01*
X123907724Y-34419523D02*
X123932486Y-34419523D01*
X123932486Y-34419523D02*
X123969629Y-34431904D01*
X123969629Y-34431904D02*
X124118200Y-34580476D01*
X124118200Y-34580476D02*
X124118200Y-34419523D01*
X123969629Y-34270952D02*
X123957248Y-34295714D01*
X123957248Y-34295714D02*
X123944867Y-34308095D01*
X123944867Y-34308095D02*
X123920105Y-34320476D01*
X123920105Y-34320476D02*
X123907724Y-34320476D01*
X123907724Y-34320476D02*
X123882962Y-34308095D01*
X123882962Y-34308095D02*
X123870581Y-34295714D01*
X123870581Y-34295714D02*
X123858200Y-34270952D01*
X123858200Y-34270952D02*
X123858200Y-34221428D01*
X123858200Y-34221428D02*
X123870581Y-34196666D01*
X123870581Y-34196666D02*
X123882962Y-34184285D01*
X123882962Y-34184285D02*
X123907724Y-34171904D01*
X123907724Y-34171904D02*
X123920105Y-34171904D01*
X123920105Y-34171904D02*
X123944867Y-34184285D01*
X123944867Y-34184285D02*
X123957248Y-34196666D01*
X123957248Y-34196666D02*
X123969629Y-34221428D01*
X123969629Y-34221428D02*
X123969629Y-34270952D01*
X123969629Y-34270952D02*
X123982010Y-34295714D01*
X123982010Y-34295714D02*
X123994391Y-34308095D01*
X123994391Y-34308095D02*
X124019153Y-34320476D01*
X124019153Y-34320476D02*
X124068677Y-34320476D01*
X124068677Y-34320476D02*
X124093439Y-34308095D01*
X124093439Y-34308095D02*
X124105820Y-34295714D01*
X124105820Y-34295714D02*
X124118200Y-34270952D01*
X124118200Y-34270952D02*
X124118200Y-34221428D01*
X124118200Y-34221428D02*
X124105820Y-34196666D01*
X124105820Y-34196666D02*
X124093439Y-34184285D01*
X124093439Y-34184285D02*
X124068677Y-34171904D01*
X124068677Y-34171904D02*
X124019153Y-34171904D01*
X124019153Y-34171904D02*
X123994391Y-34184285D01*
X123994391Y-34184285D02*
X123982010Y-34196666D01*
X123982010Y-34196666D02*
X123969629Y-34221428D01*
D10*
X121042857Y-33159427D02*
X120909524Y-32968951D01*
X120814286Y-33159427D02*
X120814286Y-32759427D01*
X120814286Y-32759427D02*
X120966667Y-32759427D01*
X120966667Y-32759427D02*
X121004762Y-32778475D01*
X121004762Y-32778475D02*
X121023809Y-32797522D01*
X121023809Y-32797522D02*
X121042857Y-32835618D01*
X121042857Y-32835618D02*
X121042857Y-32892760D01*
X121042857Y-32892760D02*
X121023809Y-32930856D01*
X121023809Y-32930856D02*
X121004762Y-32949903D01*
X121004762Y-32949903D02*
X120966667Y-32968951D01*
X120966667Y-32968951D02*
X120814286Y-32968951D01*
X121176190Y-32759427D02*
X121423809Y-32759427D01*
X121423809Y-32759427D02*
X121290476Y-32911808D01*
X121290476Y-32911808D02*
X121347619Y-32911808D01*
X121347619Y-32911808D02*
X121385714Y-32930856D01*
X121385714Y-32930856D02*
X121404762Y-32949903D01*
X121404762Y-32949903D02*
X121423809Y-32987999D01*
X121423809Y-32987999D02*
X121423809Y-33083237D01*
X121423809Y-33083237D02*
X121404762Y-33121332D01*
X121404762Y-33121332D02*
X121385714Y-33140380D01*
X121385714Y-33140380D02*
X121347619Y-33159427D01*
X121347619Y-33159427D02*
X121233333Y-33159427D01*
X121233333Y-33159427D02*
X121195238Y-33140380D01*
X121195238Y-33140380D02*
X121176190Y-33121332D01*
X121614285Y-33159427D02*
X121690476Y-33159427D01*
X121690476Y-33159427D02*
X121728571Y-33140380D01*
X121728571Y-33140380D02*
X121747619Y-33121332D01*
X121747619Y-33121332D02*
X121785714Y-33064189D01*
X121785714Y-33064189D02*
X121804761Y-32987999D01*
X121804761Y-32987999D02*
X121804761Y-32835618D01*
X121804761Y-32835618D02*
X121785714Y-32797522D01*
X121785714Y-32797522D02*
X121766666Y-32778475D01*
X121766666Y-32778475D02*
X121728571Y-32759427D01*
X121728571Y-32759427D02*
X121652380Y-32759427D01*
X121652380Y-32759427D02*
X121614285Y-32778475D01*
X121614285Y-32778475D02*
X121595238Y-32797522D01*
X121595238Y-32797522D02*
X121576190Y-32835618D01*
X121576190Y-32835618D02*
X121576190Y-32930856D01*
X121576190Y-32930856D02*
X121595238Y-32968951D01*
X121595238Y-32968951D02*
X121614285Y-32987999D01*
X121614285Y-32987999D02*
X121652380Y-33007046D01*
X121652380Y-33007046D02*
X121728571Y-33007046D01*
X121728571Y-33007046D02*
X121766666Y-32987999D01*
X121766666Y-32987999D02*
X121785714Y-32968951D01*
X121785714Y-32968951D02*
X121804761Y-32930856D01*
D12*
X132442800Y-41016667D02*
X132395180Y-41159524D01*
X132395180Y-41159524D02*
X132395180Y-41397619D01*
X132395180Y-41397619D02*
X132442800Y-41492857D01*
X132442800Y-41492857D02*
X132490419Y-41540476D01*
X132490419Y-41540476D02*
X132585657Y-41588095D01*
X132585657Y-41588095D02*
X132680895Y-41588095D01*
X132680895Y-41588095D02*
X132776133Y-41540476D01*
X132776133Y-41540476D02*
X132823752Y-41492857D01*
X132823752Y-41492857D02*
X132871371Y-41397619D01*
X132871371Y-41397619D02*
X132918990Y-41207143D01*
X132918990Y-41207143D02*
X132966609Y-41111905D01*
X132966609Y-41111905D02*
X133014228Y-41064286D01*
X133014228Y-41064286D02*
X133109466Y-41016667D01*
X133109466Y-41016667D02*
X133204704Y-41016667D01*
X133204704Y-41016667D02*
X133299942Y-41064286D01*
X133299942Y-41064286D02*
X133347561Y-41111905D01*
X133347561Y-41111905D02*
X133395180Y-41207143D01*
X133395180Y-41207143D02*
X133395180Y-41445238D01*
X133395180Y-41445238D02*
X133347561Y-41588095D01*
X133395180Y-41921429D02*
X132395180Y-42159524D01*
X132395180Y-42159524D02*
X133109466Y-42350000D01*
X133109466Y-42350000D02*
X132395180Y-42540476D01*
X132395180Y-42540476D02*
X133395180Y-42778572D01*
X132395180Y-43683333D02*
X132395180Y-43111905D01*
X132395180Y-43397619D02*
X133395180Y-43397619D01*
X133395180Y-43397619D02*
X133252323Y-43302381D01*
X133252323Y-43302381D02*
X133157085Y-43207143D01*
X133157085Y-43207143D02*
X133109466Y-43111905D01*
X112557200Y-44283332D02*
X112604819Y-44140475D01*
X112604819Y-44140475D02*
X112604819Y-43902380D01*
X112604819Y-43902380D02*
X112557200Y-43807142D01*
X112557200Y-43807142D02*
X112509580Y-43759523D01*
X112509580Y-43759523D02*
X112414342Y-43711904D01*
X112414342Y-43711904D02*
X112319104Y-43711904D01*
X112319104Y-43711904D02*
X112223866Y-43759523D01*
X112223866Y-43759523D02*
X112176247Y-43807142D01*
X112176247Y-43807142D02*
X112128628Y-43902380D01*
X112128628Y-43902380D02*
X112081009Y-44092856D01*
X112081009Y-44092856D02*
X112033390Y-44188094D01*
X112033390Y-44188094D02*
X111985771Y-44235713D01*
X111985771Y-44235713D02*
X111890533Y-44283332D01*
X111890533Y-44283332D02*
X111795295Y-44283332D01*
X111795295Y-44283332D02*
X111700057Y-44235713D01*
X111700057Y-44235713D02*
X111652438Y-44188094D01*
X111652438Y-44188094D02*
X111604819Y-44092856D01*
X111604819Y-44092856D02*
X111604819Y-43854761D01*
X111604819Y-43854761D02*
X111652438Y-43711904D01*
X111604819Y-43378570D02*
X112604819Y-43140475D01*
X112604819Y-43140475D02*
X111890533Y-42949999D01*
X111890533Y-42949999D02*
X112604819Y-42759523D01*
X112604819Y-42759523D02*
X111604819Y-42521428D01*
X111700057Y-42188094D02*
X111652438Y-42140475D01*
X111652438Y-42140475D02*
X111604819Y-42045237D01*
X111604819Y-42045237D02*
X111604819Y-41807142D01*
X111604819Y-41807142D02*
X111652438Y-41711904D01*
X111652438Y-41711904D02*
X111700057Y-41664285D01*
X111700057Y-41664285D02*
X111795295Y-41616666D01*
X111795295Y-41616666D02*
X111890533Y-41616666D01*
X111890533Y-41616666D02*
X112033390Y-41664285D01*
X112033390Y-41664285D02*
X112604819Y-42235713D01*
X112604819Y-42235713D02*
X112604819Y-41616666D01*
D13*
X134627409Y-48119047D02*
X135032171Y-48119047D01*
X135032171Y-48119047D02*
X135079790Y-48095237D01*
X135079790Y-48095237D02*
X135103600Y-48071428D01*
X135103600Y-48071428D02*
X135127409Y-48023809D01*
X135127409Y-48023809D02*
X135127409Y-47928571D01*
X135127409Y-47928571D02*
X135103600Y-47880952D01*
X135103600Y-47880952D02*
X135079790Y-47857142D01*
X135079790Y-47857142D02*
X135032171Y-47833333D01*
X135032171Y-47833333D02*
X134627409Y-47833333D01*
X135127409Y-47333332D02*
X135127409Y-47619046D01*
X135127409Y-47476189D02*
X134627409Y-47476189D01*
X134627409Y-47476189D02*
X134698838Y-47523808D01*
X134698838Y-47523808D02*
X134746457Y-47571427D01*
X134746457Y-47571427D02*
X134770266Y-47619046D01*
X134675028Y-47142856D02*
X134651219Y-47119047D01*
X134651219Y-47119047D02*
X134627409Y-47071428D01*
X134627409Y-47071428D02*
X134627409Y-46952380D01*
X134627409Y-46952380D02*
X134651219Y-46904761D01*
X134651219Y-46904761D02*
X134675028Y-46880952D01*
X134675028Y-46880952D02*
X134722647Y-46857142D01*
X134722647Y-46857142D02*
X134770266Y-46857142D01*
X134770266Y-46857142D02*
X134841695Y-46880952D01*
X134841695Y-46880952D02*
X135127409Y-47166666D01*
X135127409Y-47166666D02*
X135127409Y-46857142D01*
D10*
X120804762Y-36481927D02*
X120804762Y-36805737D01*
X120804762Y-36805737D02*
X120823809Y-36843832D01*
X120823809Y-36843832D02*
X120842857Y-36862880D01*
X120842857Y-36862880D02*
X120880952Y-36881927D01*
X120880952Y-36881927D02*
X120957143Y-36881927D01*
X120957143Y-36881927D02*
X120995238Y-36862880D01*
X120995238Y-36862880D02*
X121014285Y-36843832D01*
X121014285Y-36843832D02*
X121033333Y-36805737D01*
X121033333Y-36805737D02*
X121033333Y-36481927D01*
X121433333Y-36881927D02*
X121204762Y-36881927D01*
X121319048Y-36881927D02*
X121319048Y-36481927D01*
X121319048Y-36481927D02*
X121280952Y-36539070D01*
X121280952Y-36539070D02*
X121242857Y-36577165D01*
X121242857Y-36577165D02*
X121204762Y-36596213D01*
X121776190Y-36615260D02*
X121776190Y-36881927D01*
X121680952Y-36462880D02*
X121585714Y-36748594D01*
X121585714Y-36748594D02*
X121833333Y-36748594D01*
D13*
X139480952Y-49727409D02*
X139480952Y-50132171D01*
X139480952Y-50132171D02*
X139504762Y-50179790D01*
X139504762Y-50179790D02*
X139528571Y-50203600D01*
X139528571Y-50203600D02*
X139576190Y-50227409D01*
X139576190Y-50227409D02*
X139671428Y-50227409D01*
X139671428Y-50227409D02*
X139719047Y-50203600D01*
X139719047Y-50203600D02*
X139742857Y-50179790D01*
X139742857Y-50179790D02*
X139766666Y-50132171D01*
X139766666Y-50132171D02*
X139766666Y-49727409D01*
X140266667Y-50227409D02*
X139980953Y-50227409D01*
X140123810Y-50227409D02*
X140123810Y-49727409D01*
X140123810Y-49727409D02*
X140076191Y-49798838D01*
X140076191Y-49798838D02*
X140028572Y-49846457D01*
X140028572Y-49846457D02*
X139980953Y-49870266D01*
X140695238Y-49727409D02*
X140600000Y-49727409D01*
X140600000Y-49727409D02*
X140552381Y-49751219D01*
X140552381Y-49751219D02*
X140528571Y-49775028D01*
X140528571Y-49775028D02*
X140480952Y-49846457D01*
X140480952Y-49846457D02*
X140457143Y-49941695D01*
X140457143Y-49941695D02*
X140457143Y-50132171D01*
X140457143Y-50132171D02*
X140480952Y-50179790D01*
X140480952Y-50179790D02*
X140504762Y-50203600D01*
X140504762Y-50203600D02*
X140552381Y-50227409D01*
X140552381Y-50227409D02*
X140647619Y-50227409D01*
X140647619Y-50227409D02*
X140695238Y-50203600D01*
X140695238Y-50203600D02*
X140719047Y-50179790D01*
X140719047Y-50179790D02*
X140742857Y-50132171D01*
X140742857Y-50132171D02*
X140742857Y-50013123D01*
X140742857Y-50013123D02*
X140719047Y-49965504D01*
X140719047Y-49965504D02*
X140695238Y-49941695D01*
X140695238Y-49941695D02*
X140647619Y-49917885D01*
X140647619Y-49917885D02*
X140552381Y-49917885D01*
X140552381Y-49917885D02*
X140504762Y-49941695D01*
X140504762Y-49941695D02*
X140480952Y-49965504D01*
X140480952Y-49965504D02*
X140457143Y-50013123D01*
D12*
X132541667Y-61882200D02*
X132684524Y-61929819D01*
X132684524Y-61929819D02*
X132922619Y-61929819D01*
X132922619Y-61929819D02*
X133017857Y-61882200D01*
X133017857Y-61882200D02*
X133065476Y-61834580D01*
X133065476Y-61834580D02*
X133113095Y-61739342D01*
X133113095Y-61739342D02*
X133113095Y-61644104D01*
X133113095Y-61644104D02*
X133065476Y-61548866D01*
X133065476Y-61548866D02*
X133017857Y-61501247D01*
X133017857Y-61501247D02*
X132922619Y-61453628D01*
X132922619Y-61453628D02*
X132732143Y-61406009D01*
X132732143Y-61406009D02*
X132636905Y-61358390D01*
X132636905Y-61358390D02*
X132589286Y-61310771D01*
X132589286Y-61310771D02*
X132541667Y-61215533D01*
X132541667Y-61215533D02*
X132541667Y-61120295D01*
X132541667Y-61120295D02*
X132589286Y-61025057D01*
X132589286Y-61025057D02*
X132636905Y-60977438D01*
X132636905Y-60977438D02*
X132732143Y-60929819D01*
X132732143Y-60929819D02*
X132970238Y-60929819D01*
X132970238Y-60929819D02*
X133113095Y-60977438D01*
X133446429Y-60929819D02*
X133684524Y-61929819D01*
X133684524Y-61929819D02*
X133875000Y-61215533D01*
X133875000Y-61215533D02*
X134065476Y-61929819D01*
X134065476Y-61929819D02*
X134303572Y-60929819D01*
X135113095Y-60929819D02*
X134922619Y-60929819D01*
X134922619Y-60929819D02*
X134827381Y-60977438D01*
X134827381Y-60977438D02*
X134779762Y-61025057D01*
X134779762Y-61025057D02*
X134684524Y-61167914D01*
X134684524Y-61167914D02*
X134636905Y-61358390D01*
X134636905Y-61358390D02*
X134636905Y-61739342D01*
X134636905Y-61739342D02*
X134684524Y-61834580D01*
X134684524Y-61834580D02*
X134732143Y-61882200D01*
X134732143Y-61882200D02*
X134827381Y-61929819D01*
X134827381Y-61929819D02*
X135017857Y-61929819D01*
X135017857Y-61929819D02*
X135113095Y-61882200D01*
X135113095Y-61882200D02*
X135160714Y-61834580D01*
X135160714Y-61834580D02*
X135208333Y-61739342D01*
X135208333Y-61739342D02*
X135208333Y-61501247D01*
X135208333Y-61501247D02*
X135160714Y-61406009D01*
X135160714Y-61406009D02*
X135113095Y-61358390D01*
X135113095Y-61358390D02*
X135017857Y-61310771D01*
X135017857Y-61310771D02*
X134827381Y-61310771D01*
X134827381Y-61310771D02*
X134732143Y-61358390D01*
X134732143Y-61358390D02*
X134684524Y-61406009D01*
X134684524Y-61406009D02*
X134636905Y-61501247D01*
D14*
X140323890Y-52268452D02*
X139919128Y-52268452D01*
X139919128Y-52268452D02*
X139871509Y-52292262D01*
X139871509Y-52292262D02*
X139847700Y-52316071D01*
X139847700Y-52316071D02*
X139823890Y-52363690D01*
X139823890Y-52363690D02*
X139823890Y-52458928D01*
X139823890Y-52458928D02*
X139847700Y-52506547D01*
X139847700Y-52506547D02*
X139871509Y-52530357D01*
X139871509Y-52530357D02*
X139919128Y-52554166D01*
X139919128Y-52554166D02*
X140323890Y-52554166D01*
X139823890Y-53054167D02*
X139823890Y-52768453D01*
X139823890Y-52911310D02*
X140323890Y-52911310D01*
X140323890Y-52911310D02*
X140252461Y-52863691D01*
X140252461Y-52863691D02*
X140204842Y-52816072D01*
X140204842Y-52816072D02*
X140181033Y-52768453D01*
X140323890Y-53220833D02*
X140323890Y-53554166D01*
X140323890Y-53554166D02*
X139823890Y-53339881D01*
D13*
X121527409Y-40419047D02*
X121932171Y-40419047D01*
X121932171Y-40419047D02*
X121979790Y-40395237D01*
X121979790Y-40395237D02*
X122003600Y-40371428D01*
X122003600Y-40371428D02*
X122027409Y-40323809D01*
X122027409Y-40323809D02*
X122027409Y-40228571D01*
X122027409Y-40228571D02*
X122003600Y-40180952D01*
X122003600Y-40180952D02*
X121979790Y-40157142D01*
X121979790Y-40157142D02*
X121932171Y-40133333D01*
X121932171Y-40133333D02*
X121527409Y-40133333D01*
X122027409Y-39633332D02*
X122027409Y-39919046D01*
X122027409Y-39776189D02*
X121527409Y-39776189D01*
X121527409Y-39776189D02*
X121598838Y-39823808D01*
X121598838Y-39823808D02*
X121646457Y-39871427D01*
X121646457Y-39871427D02*
X121670266Y-39919046D01*
X121527409Y-39180952D02*
X121527409Y-39419047D01*
X121527409Y-39419047D02*
X121765504Y-39442856D01*
X121765504Y-39442856D02*
X121741695Y-39419047D01*
X121741695Y-39419047D02*
X121717885Y-39371428D01*
X121717885Y-39371428D02*
X121717885Y-39252380D01*
X121717885Y-39252380D02*
X121741695Y-39204761D01*
X121741695Y-39204761D02*
X121765504Y-39180952D01*
X121765504Y-39180952D02*
X121813123Y-39157142D01*
X121813123Y-39157142D02*
X121932171Y-39157142D01*
X121932171Y-39157142D02*
X121979790Y-39180952D01*
X121979790Y-39180952D02*
X122003600Y-39204761D01*
X122003600Y-39204761D02*
X122027409Y-39252380D01*
X122027409Y-39252380D02*
X122027409Y-39371428D01*
X122027409Y-39371428D02*
X122003600Y-39419047D01*
X122003600Y-39419047D02*
X121979790Y-39442856D01*
D11*
X118818200Y-35867142D02*
X118694391Y-35953809D01*
X118818200Y-36015714D02*
X118558200Y-36015714D01*
X118558200Y-36015714D02*
X118558200Y-35916666D01*
X118558200Y-35916666D02*
X118570581Y-35891904D01*
X118570581Y-35891904D02*
X118582962Y-35879523D01*
X118582962Y-35879523D02*
X118607724Y-35867142D01*
X118607724Y-35867142D02*
X118644867Y-35867142D01*
X118644867Y-35867142D02*
X118669629Y-35879523D01*
X118669629Y-35879523D02*
X118682010Y-35891904D01*
X118682010Y-35891904D02*
X118694391Y-35916666D01*
X118694391Y-35916666D02*
X118694391Y-36015714D01*
X118558200Y-35780476D02*
X118558200Y-35619523D01*
X118558200Y-35619523D02*
X118657248Y-35706190D01*
X118657248Y-35706190D02*
X118657248Y-35669047D01*
X118657248Y-35669047D02*
X118669629Y-35644285D01*
X118669629Y-35644285D02*
X118682010Y-35631904D01*
X118682010Y-35631904D02*
X118706772Y-35619523D01*
X118706772Y-35619523D02*
X118768677Y-35619523D01*
X118768677Y-35619523D02*
X118793439Y-35631904D01*
X118793439Y-35631904D02*
X118805820Y-35644285D01*
X118805820Y-35644285D02*
X118818200Y-35669047D01*
X118818200Y-35669047D02*
X118818200Y-35743333D01*
X118818200Y-35743333D02*
X118805820Y-35768095D01*
X118805820Y-35768095D02*
X118793439Y-35780476D01*
X118558200Y-35458571D02*
X118558200Y-35433809D01*
X118558200Y-35433809D02*
X118570581Y-35409047D01*
X118570581Y-35409047D02*
X118582962Y-35396666D01*
X118582962Y-35396666D02*
X118607724Y-35384285D01*
X118607724Y-35384285D02*
X118657248Y-35371904D01*
X118657248Y-35371904D02*
X118719153Y-35371904D01*
X118719153Y-35371904D02*
X118768677Y-35384285D01*
X118768677Y-35384285D02*
X118793439Y-35396666D01*
X118793439Y-35396666D02*
X118805820Y-35409047D01*
X118805820Y-35409047D02*
X118818200Y-35433809D01*
X118818200Y-35433809D02*
X118818200Y-35458571D01*
X118818200Y-35458571D02*
X118805820Y-35483333D01*
X118805820Y-35483333D02*
X118793439Y-35495714D01*
X118793439Y-35495714D02*
X118768677Y-35508095D01*
X118768677Y-35508095D02*
X118719153Y-35520476D01*
X118719153Y-35520476D02*
X118657248Y-35520476D01*
X118657248Y-35520476D02*
X118607724Y-35508095D01*
X118607724Y-35508095D02*
X118582962Y-35495714D01*
X118582962Y-35495714D02*
X118570581Y-35483333D01*
X118570581Y-35483333D02*
X118558200Y-35458571D01*
D10*
X110046632Y-49857142D02*
X110065680Y-49876190D01*
X110065680Y-49876190D02*
X110084727Y-49933332D01*
X110084727Y-49933332D02*
X110084727Y-49971428D01*
X110084727Y-49971428D02*
X110065680Y-50028571D01*
X110065680Y-50028571D02*
X110027584Y-50066666D01*
X110027584Y-50066666D02*
X109989489Y-50085713D01*
X109989489Y-50085713D02*
X109913299Y-50104761D01*
X109913299Y-50104761D02*
X109856156Y-50104761D01*
X109856156Y-50104761D02*
X109779965Y-50085713D01*
X109779965Y-50085713D02*
X109741870Y-50066666D01*
X109741870Y-50066666D02*
X109703775Y-50028571D01*
X109703775Y-50028571D02*
X109684727Y-49971428D01*
X109684727Y-49971428D02*
X109684727Y-49933332D01*
X109684727Y-49933332D02*
X109703775Y-49876190D01*
X109703775Y-49876190D02*
X109722822Y-49857142D01*
X109818060Y-49514285D02*
X110084727Y-49514285D01*
X109665680Y-49609523D02*
X109951394Y-49704761D01*
X109951394Y-49704761D02*
X109951394Y-49457142D01*
X109684727Y-49114285D02*
X109684727Y-49304761D01*
X109684727Y-49304761D02*
X109875203Y-49323809D01*
X109875203Y-49323809D02*
X109856156Y-49304761D01*
X109856156Y-49304761D02*
X109837108Y-49266666D01*
X109837108Y-49266666D02*
X109837108Y-49171428D01*
X109837108Y-49171428D02*
X109856156Y-49133333D01*
X109856156Y-49133333D02*
X109875203Y-49114285D01*
X109875203Y-49114285D02*
X109913299Y-49095238D01*
X109913299Y-49095238D02*
X110008537Y-49095238D01*
X110008537Y-49095238D02*
X110046632Y-49114285D01*
X110046632Y-49114285D02*
X110065680Y-49133333D01*
X110065680Y-49133333D02*
X110084727Y-49171428D01*
X110084727Y-49171428D02*
X110084727Y-49266666D01*
X110084727Y-49266666D02*
X110065680Y-49304761D01*
X110065680Y-49304761D02*
X110046632Y-49323809D01*
D13*
X107230209Y-50219047D02*
X107634971Y-50219047D01*
X107634971Y-50219047D02*
X107682590Y-50195237D01*
X107682590Y-50195237D02*
X107706400Y-50171428D01*
X107706400Y-50171428D02*
X107730209Y-50123809D01*
X107730209Y-50123809D02*
X107730209Y-50028571D01*
X107730209Y-50028571D02*
X107706400Y-49980952D01*
X107706400Y-49980952D02*
X107682590Y-49957142D01*
X107682590Y-49957142D02*
X107634971Y-49933333D01*
X107634971Y-49933333D02*
X107230209Y-49933333D01*
X107277828Y-49719046D02*
X107254019Y-49695237D01*
X107254019Y-49695237D02*
X107230209Y-49647618D01*
X107230209Y-49647618D02*
X107230209Y-49528570D01*
X107230209Y-49528570D02*
X107254019Y-49480951D01*
X107254019Y-49480951D02*
X107277828Y-49457142D01*
X107277828Y-49457142D02*
X107325447Y-49433332D01*
X107325447Y-49433332D02*
X107373066Y-49433332D01*
X107373066Y-49433332D02*
X107444495Y-49457142D01*
X107444495Y-49457142D02*
X107730209Y-49742856D01*
X107730209Y-49742856D02*
X107730209Y-49433332D01*
X107230209Y-48980952D02*
X107230209Y-49219047D01*
X107230209Y-49219047D02*
X107468304Y-49242856D01*
X107468304Y-49242856D02*
X107444495Y-49219047D01*
X107444495Y-49219047D02*
X107420685Y-49171428D01*
X107420685Y-49171428D02*
X107420685Y-49052380D01*
X107420685Y-49052380D02*
X107444495Y-49004761D01*
X107444495Y-49004761D02*
X107468304Y-48980952D01*
X107468304Y-48980952D02*
X107515923Y-48957142D01*
X107515923Y-48957142D02*
X107634971Y-48957142D01*
X107634971Y-48957142D02*
X107682590Y-48980952D01*
X107682590Y-48980952D02*
X107706400Y-49004761D01*
X107706400Y-49004761D02*
X107730209Y-49052380D01*
X107730209Y-49052380D02*
X107730209Y-49171428D01*
X107730209Y-49171428D02*
X107706400Y-49219047D01*
X107706400Y-49219047D02*
X107682590Y-49242856D01*
X136727409Y-43219047D02*
X137132171Y-43219047D01*
X137132171Y-43219047D02*
X137179790Y-43195237D01*
X137179790Y-43195237D02*
X137203600Y-43171428D01*
X137203600Y-43171428D02*
X137227409Y-43123809D01*
X137227409Y-43123809D02*
X137227409Y-43028571D01*
X137227409Y-43028571D02*
X137203600Y-42980952D01*
X137203600Y-42980952D02*
X137179790Y-42957142D01*
X137179790Y-42957142D02*
X137132171Y-42933333D01*
X137132171Y-42933333D02*
X136727409Y-42933333D01*
X136775028Y-42719046D02*
X136751219Y-42695237D01*
X136751219Y-42695237D02*
X136727409Y-42647618D01*
X136727409Y-42647618D02*
X136727409Y-42528570D01*
X136727409Y-42528570D02*
X136751219Y-42480951D01*
X136751219Y-42480951D02*
X136775028Y-42457142D01*
X136775028Y-42457142D02*
X136822647Y-42433332D01*
X136822647Y-42433332D02*
X136870266Y-42433332D01*
X136870266Y-42433332D02*
X136941695Y-42457142D01*
X136941695Y-42457142D02*
X137227409Y-42742856D01*
X137227409Y-42742856D02*
X137227409Y-42433332D01*
X136941695Y-42147618D02*
X136917885Y-42195237D01*
X136917885Y-42195237D02*
X136894076Y-42219047D01*
X136894076Y-42219047D02*
X136846457Y-42242856D01*
X136846457Y-42242856D02*
X136822647Y-42242856D01*
X136822647Y-42242856D02*
X136775028Y-42219047D01*
X136775028Y-42219047D02*
X136751219Y-42195237D01*
X136751219Y-42195237D02*
X136727409Y-42147618D01*
X136727409Y-42147618D02*
X136727409Y-42052380D01*
X136727409Y-42052380D02*
X136751219Y-42004761D01*
X136751219Y-42004761D02*
X136775028Y-41980952D01*
X136775028Y-41980952D02*
X136822647Y-41957142D01*
X136822647Y-41957142D02*
X136846457Y-41957142D01*
X136846457Y-41957142D02*
X136894076Y-41980952D01*
X136894076Y-41980952D02*
X136917885Y-42004761D01*
X136917885Y-42004761D02*
X136941695Y-42052380D01*
X136941695Y-42052380D02*
X136941695Y-42147618D01*
X136941695Y-42147618D02*
X136965504Y-42195237D01*
X136965504Y-42195237D02*
X136989314Y-42219047D01*
X136989314Y-42219047D02*
X137036933Y-42242856D01*
X137036933Y-42242856D02*
X137132171Y-42242856D01*
X137132171Y-42242856D02*
X137179790Y-42219047D01*
X137179790Y-42219047D02*
X137203600Y-42195237D01*
X137203600Y-42195237D02*
X137227409Y-42147618D01*
X137227409Y-42147618D02*
X137227409Y-42052380D01*
X137227409Y-42052380D02*
X137203600Y-42004761D01*
X137203600Y-42004761D02*
X137179790Y-41980952D01*
X137179790Y-41980952D02*
X137132171Y-41957142D01*
X137132171Y-41957142D02*
X137036933Y-41957142D01*
X137036933Y-41957142D02*
X136989314Y-41980952D01*
X136989314Y-41980952D02*
X136965504Y-42004761D01*
X136965504Y-42004761D02*
X136941695Y-42052380D01*
X107727409Y-43319047D02*
X108132171Y-43319047D01*
X108132171Y-43319047D02*
X108179790Y-43295237D01*
X108179790Y-43295237D02*
X108203600Y-43271428D01*
X108203600Y-43271428D02*
X108227409Y-43223809D01*
X108227409Y-43223809D02*
X108227409Y-43128571D01*
X108227409Y-43128571D02*
X108203600Y-43080952D01*
X108203600Y-43080952D02*
X108179790Y-43057142D01*
X108179790Y-43057142D02*
X108132171Y-43033333D01*
X108132171Y-43033333D02*
X107727409Y-43033333D01*
X107775028Y-42819046D02*
X107751219Y-42795237D01*
X107751219Y-42795237D02*
X107727409Y-42747618D01*
X107727409Y-42747618D02*
X107727409Y-42628570D01*
X107727409Y-42628570D02*
X107751219Y-42580951D01*
X107751219Y-42580951D02*
X107775028Y-42557142D01*
X107775028Y-42557142D02*
X107822647Y-42533332D01*
X107822647Y-42533332D02*
X107870266Y-42533332D01*
X107870266Y-42533332D02*
X107941695Y-42557142D01*
X107941695Y-42557142D02*
X108227409Y-42842856D01*
X108227409Y-42842856D02*
X108227409Y-42533332D01*
X108227409Y-42295237D02*
X108227409Y-42199999D01*
X108227409Y-42199999D02*
X108203600Y-42152380D01*
X108203600Y-42152380D02*
X108179790Y-42128571D01*
X108179790Y-42128571D02*
X108108361Y-42080952D01*
X108108361Y-42080952D02*
X108013123Y-42057142D01*
X108013123Y-42057142D02*
X107822647Y-42057142D01*
X107822647Y-42057142D02*
X107775028Y-42080952D01*
X107775028Y-42080952D02*
X107751219Y-42104761D01*
X107751219Y-42104761D02*
X107727409Y-42152380D01*
X107727409Y-42152380D02*
X107727409Y-42247618D01*
X107727409Y-42247618D02*
X107751219Y-42295237D01*
X107751219Y-42295237D02*
X107775028Y-42319047D01*
X107775028Y-42319047D02*
X107822647Y-42342856D01*
X107822647Y-42342856D02*
X107941695Y-42342856D01*
X107941695Y-42342856D02*
X107989314Y-42319047D01*
X107989314Y-42319047D02*
X108013123Y-42295237D01*
X108013123Y-42295237D02*
X108036933Y-42247618D01*
X108036933Y-42247618D02*
X108036933Y-42152380D01*
X108036933Y-42152380D02*
X108013123Y-42104761D01*
X108013123Y-42104761D02*
X107989314Y-42080952D01*
X107989314Y-42080952D02*
X107941695Y-42057142D01*
X116227409Y-40519047D02*
X116632171Y-40519047D01*
X116632171Y-40519047D02*
X116679790Y-40495237D01*
X116679790Y-40495237D02*
X116703600Y-40471428D01*
X116703600Y-40471428D02*
X116727409Y-40423809D01*
X116727409Y-40423809D02*
X116727409Y-40328571D01*
X116727409Y-40328571D02*
X116703600Y-40280952D01*
X116703600Y-40280952D02*
X116679790Y-40257142D01*
X116679790Y-40257142D02*
X116632171Y-40233333D01*
X116632171Y-40233333D02*
X116227409Y-40233333D01*
X116727409Y-39733332D02*
X116727409Y-40019046D01*
X116727409Y-39876189D02*
X116227409Y-39876189D01*
X116227409Y-39876189D02*
X116298838Y-39923808D01*
X116298838Y-39923808D02*
X116346457Y-39971427D01*
X116346457Y-39971427D02*
X116370266Y-40019046D01*
X116441695Y-39447618D02*
X116417885Y-39495237D01*
X116417885Y-39495237D02*
X116394076Y-39519047D01*
X116394076Y-39519047D02*
X116346457Y-39542856D01*
X116346457Y-39542856D02*
X116322647Y-39542856D01*
X116322647Y-39542856D02*
X116275028Y-39519047D01*
X116275028Y-39519047D02*
X116251219Y-39495237D01*
X116251219Y-39495237D02*
X116227409Y-39447618D01*
X116227409Y-39447618D02*
X116227409Y-39352380D01*
X116227409Y-39352380D02*
X116251219Y-39304761D01*
X116251219Y-39304761D02*
X116275028Y-39280952D01*
X116275028Y-39280952D02*
X116322647Y-39257142D01*
X116322647Y-39257142D02*
X116346457Y-39257142D01*
X116346457Y-39257142D02*
X116394076Y-39280952D01*
X116394076Y-39280952D02*
X116417885Y-39304761D01*
X116417885Y-39304761D02*
X116441695Y-39352380D01*
X116441695Y-39352380D02*
X116441695Y-39447618D01*
X116441695Y-39447618D02*
X116465504Y-39495237D01*
X116465504Y-39495237D02*
X116489314Y-39519047D01*
X116489314Y-39519047D02*
X116536933Y-39542856D01*
X116536933Y-39542856D02*
X116632171Y-39542856D01*
X116632171Y-39542856D02*
X116679790Y-39519047D01*
X116679790Y-39519047D02*
X116703600Y-39495237D01*
X116703600Y-39495237D02*
X116727409Y-39447618D01*
X116727409Y-39447618D02*
X116727409Y-39352380D01*
X116727409Y-39352380D02*
X116703600Y-39304761D01*
X116703600Y-39304761D02*
X116679790Y-39280952D01*
X116679790Y-39280952D02*
X116632171Y-39257142D01*
X116632171Y-39257142D02*
X116536933Y-39257142D01*
X116536933Y-39257142D02*
X116489314Y-39280952D01*
X116489314Y-39280952D02*
X116465504Y-39304761D01*
X116465504Y-39304761D02*
X116441695Y-39352380D01*
X128477409Y-37869047D02*
X128882171Y-37869047D01*
X128882171Y-37869047D02*
X128929790Y-37845237D01*
X128929790Y-37845237D02*
X128953600Y-37821428D01*
X128953600Y-37821428D02*
X128977409Y-37773809D01*
X128977409Y-37773809D02*
X128977409Y-37678571D01*
X128977409Y-37678571D02*
X128953600Y-37630952D01*
X128953600Y-37630952D02*
X128929790Y-37607142D01*
X128929790Y-37607142D02*
X128882171Y-37583333D01*
X128882171Y-37583333D02*
X128477409Y-37583333D01*
X128525028Y-37369046D02*
X128501219Y-37345237D01*
X128501219Y-37345237D02*
X128477409Y-37297618D01*
X128477409Y-37297618D02*
X128477409Y-37178570D01*
X128477409Y-37178570D02*
X128501219Y-37130951D01*
X128501219Y-37130951D02*
X128525028Y-37107142D01*
X128525028Y-37107142D02*
X128572647Y-37083332D01*
X128572647Y-37083332D02*
X128620266Y-37083332D01*
X128620266Y-37083332D02*
X128691695Y-37107142D01*
X128691695Y-37107142D02*
X128977409Y-37392856D01*
X128977409Y-37392856D02*
X128977409Y-37083332D01*
X128977409Y-36607142D02*
X128977409Y-36892856D01*
X128977409Y-36749999D02*
X128477409Y-36749999D01*
X128477409Y-36749999D02*
X128548838Y-36797618D01*
X128548838Y-36797618D02*
X128596457Y-36845237D01*
X128596457Y-36845237D02*
X128620266Y-36892856D01*
X128477409Y-40869047D02*
X128882171Y-40869047D01*
X128882171Y-40869047D02*
X128929790Y-40845237D01*
X128929790Y-40845237D02*
X128953600Y-40821428D01*
X128953600Y-40821428D02*
X128977409Y-40773809D01*
X128977409Y-40773809D02*
X128977409Y-40678571D01*
X128977409Y-40678571D02*
X128953600Y-40630952D01*
X128953600Y-40630952D02*
X128929790Y-40607142D01*
X128929790Y-40607142D02*
X128882171Y-40583333D01*
X128882171Y-40583333D02*
X128477409Y-40583333D01*
X128525028Y-40369046D02*
X128501219Y-40345237D01*
X128501219Y-40345237D02*
X128477409Y-40297618D01*
X128477409Y-40297618D02*
X128477409Y-40178570D01*
X128477409Y-40178570D02*
X128501219Y-40130951D01*
X128501219Y-40130951D02*
X128525028Y-40107142D01*
X128525028Y-40107142D02*
X128572647Y-40083332D01*
X128572647Y-40083332D02*
X128620266Y-40083332D01*
X128620266Y-40083332D02*
X128691695Y-40107142D01*
X128691695Y-40107142D02*
X128977409Y-40392856D01*
X128977409Y-40392856D02*
X128977409Y-40083332D01*
X128525028Y-39892856D02*
X128501219Y-39869047D01*
X128501219Y-39869047D02*
X128477409Y-39821428D01*
X128477409Y-39821428D02*
X128477409Y-39702380D01*
X128477409Y-39702380D02*
X128501219Y-39654761D01*
X128501219Y-39654761D02*
X128525028Y-39630952D01*
X128525028Y-39630952D02*
X128572647Y-39607142D01*
X128572647Y-39607142D02*
X128620266Y-39607142D01*
X128620266Y-39607142D02*
X128691695Y-39630952D01*
X128691695Y-39630952D02*
X128977409Y-39916666D01*
X128977409Y-39916666D02*
X128977409Y-39607142D01*
D10*
X107242857Y-47543832D02*
X107223809Y-47562880D01*
X107223809Y-47562880D02*
X107166667Y-47581927D01*
X107166667Y-47581927D02*
X107128571Y-47581927D01*
X107128571Y-47581927D02*
X107071428Y-47562880D01*
X107071428Y-47562880D02*
X107033333Y-47524784D01*
X107033333Y-47524784D02*
X107014286Y-47486689D01*
X107014286Y-47486689D02*
X106995238Y-47410499D01*
X106995238Y-47410499D02*
X106995238Y-47353356D01*
X106995238Y-47353356D02*
X107014286Y-47277165D01*
X107014286Y-47277165D02*
X107033333Y-47239070D01*
X107033333Y-47239070D02*
X107071428Y-47200975D01*
X107071428Y-47200975D02*
X107128571Y-47181927D01*
X107128571Y-47181927D02*
X107166667Y-47181927D01*
X107166667Y-47181927D02*
X107223809Y-47200975D01*
X107223809Y-47200975D02*
X107242857Y-47220022D01*
X107585714Y-47315260D02*
X107585714Y-47581927D01*
X107490476Y-47162880D02*
X107395238Y-47448594D01*
X107395238Y-47448594D02*
X107642857Y-47448594D01*
X107966666Y-47181927D02*
X107890476Y-47181927D01*
X107890476Y-47181927D02*
X107852380Y-47200975D01*
X107852380Y-47200975D02*
X107833333Y-47220022D01*
X107833333Y-47220022D02*
X107795238Y-47277165D01*
X107795238Y-47277165D02*
X107776190Y-47353356D01*
X107776190Y-47353356D02*
X107776190Y-47505737D01*
X107776190Y-47505737D02*
X107795238Y-47543832D01*
X107795238Y-47543832D02*
X107814285Y-47562880D01*
X107814285Y-47562880D02*
X107852380Y-47581927D01*
X107852380Y-47581927D02*
X107928571Y-47581927D01*
X107928571Y-47581927D02*
X107966666Y-47562880D01*
X107966666Y-47562880D02*
X107985714Y-47543832D01*
X107985714Y-47543832D02*
X108004761Y-47505737D01*
X108004761Y-47505737D02*
X108004761Y-47410499D01*
X108004761Y-47410499D02*
X107985714Y-47372403D01*
X107985714Y-47372403D02*
X107966666Y-47353356D01*
X107966666Y-47353356D02*
X107928571Y-47334308D01*
X107928571Y-47334308D02*
X107852380Y-47334308D01*
X107852380Y-47334308D02*
X107814285Y-47353356D01*
X107814285Y-47353356D02*
X107795238Y-47372403D01*
X107795238Y-47372403D02*
X107776190Y-47410499D01*
D11*
X118689765Y-39960714D02*
X118701670Y-39972618D01*
X118701670Y-39972618D02*
X118713574Y-40008333D01*
X118713574Y-40008333D02*
X118713574Y-40032142D01*
X118713574Y-40032142D02*
X118701670Y-40067856D01*
X118701670Y-40067856D02*
X118677860Y-40091666D01*
X118677860Y-40091666D02*
X118654050Y-40103571D01*
X118654050Y-40103571D02*
X118606431Y-40115475D01*
X118606431Y-40115475D02*
X118570717Y-40115475D01*
X118570717Y-40115475D02*
X118523098Y-40103571D01*
X118523098Y-40103571D02*
X118499289Y-40091666D01*
X118499289Y-40091666D02*
X118475479Y-40067856D01*
X118475479Y-40067856D02*
X118463574Y-40032142D01*
X118463574Y-40032142D02*
X118463574Y-40008333D01*
X118463574Y-40008333D02*
X118475479Y-39972618D01*
X118475479Y-39972618D02*
X118487384Y-39960714D01*
X118463574Y-39877380D02*
X118463574Y-39722618D01*
X118463574Y-39722618D02*
X118558812Y-39805952D01*
X118558812Y-39805952D02*
X118558812Y-39770237D01*
X118558812Y-39770237D02*
X118570717Y-39746428D01*
X118570717Y-39746428D02*
X118582622Y-39734523D01*
X118582622Y-39734523D02*
X118606431Y-39722618D01*
X118606431Y-39722618D02*
X118665955Y-39722618D01*
X118665955Y-39722618D02*
X118689765Y-39734523D01*
X118689765Y-39734523D02*
X118701670Y-39746428D01*
X118701670Y-39746428D02*
X118713574Y-39770237D01*
X118713574Y-39770237D02*
X118713574Y-39841666D01*
X118713574Y-39841666D02*
X118701670Y-39865475D01*
X118701670Y-39865475D02*
X118689765Y-39877380D01*
X118463574Y-39639285D02*
X118463574Y-39484523D01*
X118463574Y-39484523D02*
X118558812Y-39567857D01*
X118558812Y-39567857D02*
X118558812Y-39532142D01*
X118558812Y-39532142D02*
X118570717Y-39508333D01*
X118570717Y-39508333D02*
X118582622Y-39496428D01*
X118582622Y-39496428D02*
X118606431Y-39484523D01*
X118606431Y-39484523D02*
X118665955Y-39484523D01*
X118665955Y-39484523D02*
X118689765Y-39496428D01*
X118689765Y-39496428D02*
X118701670Y-39508333D01*
X118701670Y-39508333D02*
X118713574Y-39532142D01*
X118713574Y-39532142D02*
X118713574Y-39603571D01*
X118713574Y-39603571D02*
X118701670Y-39627380D01*
X118701670Y-39627380D02*
X118689765Y-39639285D01*
X131718200Y-55043332D02*
X131594391Y-55129999D01*
X131718200Y-55191904D02*
X131458200Y-55191904D01*
X131458200Y-55191904D02*
X131458200Y-55092856D01*
X131458200Y-55092856D02*
X131470581Y-55068094D01*
X131470581Y-55068094D02*
X131482962Y-55055713D01*
X131482962Y-55055713D02*
X131507724Y-55043332D01*
X131507724Y-55043332D02*
X131544867Y-55043332D01*
X131544867Y-55043332D02*
X131569629Y-55055713D01*
X131569629Y-55055713D02*
X131582010Y-55068094D01*
X131582010Y-55068094D02*
X131594391Y-55092856D01*
X131594391Y-55092856D02*
X131594391Y-55191904D01*
X131569629Y-54894761D02*
X131557248Y-54919523D01*
X131557248Y-54919523D02*
X131544867Y-54931904D01*
X131544867Y-54931904D02*
X131520105Y-54944285D01*
X131520105Y-54944285D02*
X131507724Y-54944285D01*
X131507724Y-54944285D02*
X131482962Y-54931904D01*
X131482962Y-54931904D02*
X131470581Y-54919523D01*
X131470581Y-54919523D02*
X131458200Y-54894761D01*
X131458200Y-54894761D02*
X131458200Y-54845237D01*
X131458200Y-54845237D02*
X131470581Y-54820475D01*
X131470581Y-54820475D02*
X131482962Y-54808094D01*
X131482962Y-54808094D02*
X131507724Y-54795713D01*
X131507724Y-54795713D02*
X131520105Y-54795713D01*
X131520105Y-54795713D02*
X131544867Y-54808094D01*
X131544867Y-54808094D02*
X131557248Y-54820475D01*
X131557248Y-54820475D02*
X131569629Y-54845237D01*
X131569629Y-54845237D02*
X131569629Y-54894761D01*
X131569629Y-54894761D02*
X131582010Y-54919523D01*
X131582010Y-54919523D02*
X131594391Y-54931904D01*
X131594391Y-54931904D02*
X131619153Y-54944285D01*
X131619153Y-54944285D02*
X131668677Y-54944285D01*
X131668677Y-54944285D02*
X131693439Y-54931904D01*
X131693439Y-54931904D02*
X131705820Y-54919523D01*
X131705820Y-54919523D02*
X131718200Y-54894761D01*
X131718200Y-54894761D02*
X131718200Y-54845237D01*
X131718200Y-54845237D02*
X131705820Y-54820475D01*
X131705820Y-54820475D02*
X131693439Y-54808094D01*
X131693439Y-54808094D02*
X131668677Y-54795713D01*
X131668677Y-54795713D02*
X131619153Y-54795713D01*
X131619153Y-54795713D02*
X131594391Y-54808094D01*
X131594391Y-54808094D02*
X131582010Y-54820475D01*
X131582010Y-54820475D02*
X131569629Y-54845237D01*
D10*
X112281927Y-59195237D02*
X111881927Y-59195237D01*
X111881927Y-59195237D02*
X111881927Y-59099999D01*
X111881927Y-59099999D02*
X111900975Y-59042856D01*
X111900975Y-59042856D02*
X111939070Y-59004761D01*
X111939070Y-59004761D02*
X111977165Y-58985714D01*
X111977165Y-58985714D02*
X112053356Y-58966666D01*
X112053356Y-58966666D02*
X112110499Y-58966666D01*
X112110499Y-58966666D02*
X112186689Y-58985714D01*
X112186689Y-58985714D02*
X112224784Y-59004761D01*
X112224784Y-59004761D02*
X112262880Y-59042856D01*
X112262880Y-59042856D02*
X112281927Y-59099999D01*
X112281927Y-59099999D02*
X112281927Y-59195237D01*
X111920022Y-58814285D02*
X111900975Y-58795237D01*
X111900975Y-58795237D02*
X111881927Y-58757142D01*
X111881927Y-58757142D02*
X111881927Y-58661904D01*
X111881927Y-58661904D02*
X111900975Y-58623809D01*
X111900975Y-58623809D02*
X111920022Y-58604761D01*
X111920022Y-58604761D02*
X111958118Y-58585714D01*
X111958118Y-58585714D02*
X111996213Y-58585714D01*
X111996213Y-58585714D02*
X112053356Y-58604761D01*
X112053356Y-58604761D02*
X112281927Y-58833333D01*
X112281927Y-58833333D02*
X112281927Y-58585714D01*
D11*
X111221000Y-49767142D02*
X111097191Y-49853809D01*
X111221000Y-49915714D02*
X110961000Y-49915714D01*
X110961000Y-49915714D02*
X110961000Y-49816666D01*
X110961000Y-49816666D02*
X110973381Y-49791904D01*
X110973381Y-49791904D02*
X110985762Y-49779523D01*
X110985762Y-49779523D02*
X111010524Y-49767142D01*
X111010524Y-49767142D02*
X111047667Y-49767142D01*
X111047667Y-49767142D02*
X111072429Y-49779523D01*
X111072429Y-49779523D02*
X111084810Y-49791904D01*
X111084810Y-49791904D02*
X111097191Y-49816666D01*
X111097191Y-49816666D02*
X111097191Y-49915714D01*
X110985762Y-49668095D02*
X110973381Y-49655714D01*
X110973381Y-49655714D02*
X110961000Y-49630952D01*
X110961000Y-49630952D02*
X110961000Y-49569047D01*
X110961000Y-49569047D02*
X110973381Y-49544285D01*
X110973381Y-49544285D02*
X110985762Y-49531904D01*
X110985762Y-49531904D02*
X111010524Y-49519523D01*
X111010524Y-49519523D02*
X111035286Y-49519523D01*
X111035286Y-49519523D02*
X111072429Y-49531904D01*
X111072429Y-49531904D02*
X111221000Y-49680476D01*
X111221000Y-49680476D02*
X111221000Y-49519523D01*
X110961000Y-49358571D02*
X110961000Y-49333809D01*
X110961000Y-49333809D02*
X110973381Y-49309047D01*
X110973381Y-49309047D02*
X110985762Y-49296666D01*
X110985762Y-49296666D02*
X111010524Y-49284285D01*
X111010524Y-49284285D02*
X111060048Y-49271904D01*
X111060048Y-49271904D02*
X111121953Y-49271904D01*
X111121953Y-49271904D02*
X111171477Y-49284285D01*
X111171477Y-49284285D02*
X111196239Y-49296666D01*
X111196239Y-49296666D02*
X111208620Y-49309047D01*
X111208620Y-49309047D02*
X111221000Y-49333809D01*
X111221000Y-49333809D02*
X111221000Y-49358571D01*
X111221000Y-49358571D02*
X111208620Y-49383333D01*
X111208620Y-49383333D02*
X111196239Y-49395714D01*
X111196239Y-49395714D02*
X111171477Y-49408095D01*
X111171477Y-49408095D02*
X111121953Y-49420476D01*
X111121953Y-49420476D02*
X111060048Y-49420476D01*
X111060048Y-49420476D02*
X111010524Y-49408095D01*
X111010524Y-49408095D02*
X110985762Y-49395714D01*
X110985762Y-49395714D02*
X110973381Y-49383333D01*
X110973381Y-49383333D02*
X110961000Y-49358571D01*
D10*
X114343832Y-59157142D02*
X114362880Y-59176190D01*
X114362880Y-59176190D02*
X114381927Y-59233332D01*
X114381927Y-59233332D02*
X114381927Y-59271428D01*
X114381927Y-59271428D02*
X114362880Y-59328571D01*
X114362880Y-59328571D02*
X114324784Y-59366666D01*
X114324784Y-59366666D02*
X114286689Y-59385713D01*
X114286689Y-59385713D02*
X114210499Y-59404761D01*
X114210499Y-59404761D02*
X114153356Y-59404761D01*
X114153356Y-59404761D02*
X114077165Y-59385713D01*
X114077165Y-59385713D02*
X114039070Y-59366666D01*
X114039070Y-59366666D02*
X114000975Y-59328571D01*
X114000975Y-59328571D02*
X113981927Y-59271428D01*
X113981927Y-59271428D02*
X113981927Y-59233332D01*
X113981927Y-59233332D02*
X114000975Y-59176190D01*
X114000975Y-59176190D02*
X114020022Y-59157142D01*
X113981927Y-59023809D02*
X113981927Y-58776190D01*
X113981927Y-58776190D02*
X114134308Y-58909523D01*
X114134308Y-58909523D02*
X114134308Y-58852380D01*
X114134308Y-58852380D02*
X114153356Y-58814285D01*
X114153356Y-58814285D02*
X114172403Y-58795237D01*
X114172403Y-58795237D02*
X114210499Y-58776190D01*
X114210499Y-58776190D02*
X114305737Y-58776190D01*
X114305737Y-58776190D02*
X114343832Y-58795237D01*
X114343832Y-58795237D02*
X114362880Y-58814285D01*
X114362880Y-58814285D02*
X114381927Y-58852380D01*
X114381927Y-58852380D02*
X114381927Y-58966666D01*
X114381927Y-58966666D02*
X114362880Y-59004761D01*
X114362880Y-59004761D02*
X114343832Y-59023809D01*
X113981927Y-58414285D02*
X113981927Y-58604761D01*
X113981927Y-58604761D02*
X114172403Y-58623809D01*
X114172403Y-58623809D02*
X114153356Y-58604761D01*
X114153356Y-58604761D02*
X114134308Y-58566666D01*
X114134308Y-58566666D02*
X114134308Y-58471428D01*
X114134308Y-58471428D02*
X114153356Y-58433333D01*
X114153356Y-58433333D02*
X114172403Y-58414285D01*
X114172403Y-58414285D02*
X114210499Y-58395238D01*
X114210499Y-58395238D02*
X114305737Y-58395238D01*
X114305737Y-58395238D02*
X114343832Y-58414285D01*
X114343832Y-58414285D02*
X114362880Y-58433333D01*
X114362880Y-58433333D02*
X114381927Y-58471428D01*
X114381927Y-58471428D02*
X114381927Y-58566666D01*
X114381927Y-58566666D02*
X114362880Y-58604761D01*
X114362880Y-58604761D02*
X114343832Y-58623809D01*
D11*
X110718200Y-58943332D02*
X110594391Y-59029999D01*
X110718200Y-59091904D02*
X110458200Y-59091904D01*
X110458200Y-59091904D02*
X110458200Y-58992856D01*
X110458200Y-58992856D02*
X110470581Y-58968094D01*
X110470581Y-58968094D02*
X110482962Y-58955713D01*
X110482962Y-58955713D02*
X110507724Y-58943332D01*
X110507724Y-58943332D02*
X110544867Y-58943332D01*
X110544867Y-58943332D02*
X110569629Y-58955713D01*
X110569629Y-58955713D02*
X110582010Y-58968094D01*
X110582010Y-58968094D02*
X110594391Y-58992856D01*
X110594391Y-58992856D02*
X110594391Y-59091904D01*
X110458200Y-58720475D02*
X110458200Y-58769999D01*
X110458200Y-58769999D02*
X110470581Y-58794761D01*
X110470581Y-58794761D02*
X110482962Y-58807142D01*
X110482962Y-58807142D02*
X110520105Y-58831904D01*
X110520105Y-58831904D02*
X110569629Y-58844285D01*
X110569629Y-58844285D02*
X110668677Y-58844285D01*
X110668677Y-58844285D02*
X110693439Y-58831904D01*
X110693439Y-58831904D02*
X110705820Y-58819523D01*
X110705820Y-58819523D02*
X110718200Y-58794761D01*
X110718200Y-58794761D02*
X110718200Y-58745237D01*
X110718200Y-58745237D02*
X110705820Y-58720475D01*
X110705820Y-58720475D02*
X110693439Y-58708094D01*
X110693439Y-58708094D02*
X110668677Y-58695713D01*
X110668677Y-58695713D02*
X110606772Y-58695713D01*
X110606772Y-58695713D02*
X110582010Y-58708094D01*
X110582010Y-58708094D02*
X110569629Y-58720475D01*
X110569629Y-58720475D02*
X110557248Y-58745237D01*
X110557248Y-58745237D02*
X110557248Y-58794761D01*
X110557248Y-58794761D02*
X110569629Y-58819523D01*
X110569629Y-58819523D02*
X110582010Y-58831904D01*
X110582010Y-58831904D02*
X110606772Y-58844285D01*
X126756965Y-37410714D02*
X126768870Y-37422618D01*
X126768870Y-37422618D02*
X126780774Y-37458333D01*
X126780774Y-37458333D02*
X126780774Y-37482142D01*
X126780774Y-37482142D02*
X126768870Y-37517856D01*
X126768870Y-37517856D02*
X126745060Y-37541666D01*
X126745060Y-37541666D02*
X126721250Y-37553571D01*
X126721250Y-37553571D02*
X126673631Y-37565475D01*
X126673631Y-37565475D02*
X126637917Y-37565475D01*
X126637917Y-37565475D02*
X126590298Y-37553571D01*
X126590298Y-37553571D02*
X126566489Y-37541666D01*
X126566489Y-37541666D02*
X126542679Y-37517856D01*
X126542679Y-37517856D02*
X126530774Y-37482142D01*
X126530774Y-37482142D02*
X126530774Y-37458333D01*
X126530774Y-37458333D02*
X126542679Y-37422618D01*
X126542679Y-37422618D02*
X126554584Y-37410714D01*
X126614108Y-37196428D02*
X126780774Y-37196428D01*
X126518870Y-37255952D02*
X126697441Y-37315475D01*
X126697441Y-37315475D02*
X126697441Y-37160714D01*
X126614108Y-36958333D02*
X126780774Y-36958333D01*
X126518870Y-37017857D02*
X126697441Y-37077380D01*
X126697441Y-37077380D02*
X126697441Y-36922619D01*
X137139765Y-47960714D02*
X137151670Y-47972618D01*
X137151670Y-47972618D02*
X137163574Y-48008333D01*
X137163574Y-48008333D02*
X137163574Y-48032142D01*
X137163574Y-48032142D02*
X137151670Y-48067856D01*
X137151670Y-48067856D02*
X137127860Y-48091666D01*
X137127860Y-48091666D02*
X137104050Y-48103571D01*
X137104050Y-48103571D02*
X137056431Y-48115475D01*
X137056431Y-48115475D02*
X137020717Y-48115475D01*
X137020717Y-48115475D02*
X136973098Y-48103571D01*
X136973098Y-48103571D02*
X136949289Y-48091666D01*
X136949289Y-48091666D02*
X136925479Y-48067856D01*
X136925479Y-48067856D02*
X136913574Y-48032142D01*
X136913574Y-48032142D02*
X136913574Y-48008333D01*
X136913574Y-48008333D02*
X136925479Y-47972618D01*
X136925479Y-47972618D02*
X136937384Y-47960714D01*
X137163574Y-47722618D02*
X137163574Y-47865475D01*
X137163574Y-47794047D02*
X136913574Y-47794047D01*
X136913574Y-47794047D02*
X136949289Y-47817856D01*
X136949289Y-47817856D02*
X136973098Y-47841666D01*
X136973098Y-47841666D02*
X136985003Y-47865475D01*
X136913574Y-47639285D02*
X136913574Y-47484523D01*
X136913574Y-47484523D02*
X137008812Y-47567857D01*
X137008812Y-47567857D02*
X137008812Y-47532142D01*
X137008812Y-47532142D02*
X137020717Y-47508333D01*
X137020717Y-47508333D02*
X137032622Y-47496428D01*
X137032622Y-47496428D02*
X137056431Y-47484523D01*
X137056431Y-47484523D02*
X137115955Y-47484523D01*
X137115955Y-47484523D02*
X137139765Y-47496428D01*
X137139765Y-47496428D02*
X137151670Y-47508333D01*
X137151670Y-47508333D02*
X137163574Y-47532142D01*
X137163574Y-47532142D02*
X137163574Y-47603571D01*
X137163574Y-47603571D02*
X137151670Y-47627380D01*
X137151670Y-47627380D02*
X137139765Y-47639285D01*
X107142085Y-51639765D02*
X107130181Y-51651670D01*
X107130181Y-51651670D02*
X107094466Y-51663574D01*
X107094466Y-51663574D02*
X107070657Y-51663574D01*
X107070657Y-51663574D02*
X107034943Y-51651670D01*
X107034943Y-51651670D02*
X107011133Y-51627860D01*
X107011133Y-51627860D02*
X106999228Y-51604050D01*
X106999228Y-51604050D02*
X106987324Y-51556431D01*
X106987324Y-51556431D02*
X106987324Y-51520717D01*
X106987324Y-51520717D02*
X106999228Y-51473098D01*
X106999228Y-51473098D02*
X107011133Y-51449289D01*
X107011133Y-51449289D02*
X107034943Y-51425479D01*
X107034943Y-51425479D02*
X107070657Y-51413574D01*
X107070657Y-51413574D02*
X107094466Y-51413574D01*
X107094466Y-51413574D02*
X107130181Y-51425479D01*
X107130181Y-51425479D02*
X107142085Y-51437384D01*
X107380181Y-51663574D02*
X107237324Y-51663574D01*
X107308752Y-51663574D02*
X107308752Y-51413574D01*
X107308752Y-51413574D02*
X107284943Y-51449289D01*
X107284943Y-51449289D02*
X107261133Y-51473098D01*
X107261133Y-51473098D02*
X107237324Y-51485003D01*
X107475419Y-51437384D02*
X107487323Y-51425479D01*
X107487323Y-51425479D02*
X107511133Y-51413574D01*
X107511133Y-51413574D02*
X107570657Y-51413574D01*
X107570657Y-51413574D02*
X107594466Y-51425479D01*
X107594466Y-51425479D02*
X107606371Y-51437384D01*
X107606371Y-51437384D02*
X107618276Y-51461193D01*
X107618276Y-51461193D02*
X107618276Y-51485003D01*
X107618276Y-51485003D02*
X107606371Y-51520717D01*
X107606371Y-51520717D02*
X107463514Y-51663574D01*
X107463514Y-51663574D02*
X107618276Y-51663574D01*
X124118200Y-36667142D02*
X123994391Y-36753809D01*
X124118200Y-36815714D02*
X123858200Y-36815714D01*
X123858200Y-36815714D02*
X123858200Y-36716666D01*
X123858200Y-36716666D02*
X123870581Y-36691904D01*
X123870581Y-36691904D02*
X123882962Y-36679523D01*
X123882962Y-36679523D02*
X123907724Y-36667142D01*
X123907724Y-36667142D02*
X123944867Y-36667142D01*
X123944867Y-36667142D02*
X123969629Y-36679523D01*
X123969629Y-36679523D02*
X123982010Y-36691904D01*
X123982010Y-36691904D02*
X123994391Y-36716666D01*
X123994391Y-36716666D02*
X123994391Y-36815714D01*
X123858200Y-36580476D02*
X123858200Y-36419523D01*
X123858200Y-36419523D02*
X123957248Y-36506190D01*
X123957248Y-36506190D02*
X123957248Y-36469047D01*
X123957248Y-36469047D02*
X123969629Y-36444285D01*
X123969629Y-36444285D02*
X123982010Y-36431904D01*
X123982010Y-36431904D02*
X124006772Y-36419523D01*
X124006772Y-36419523D02*
X124068677Y-36419523D01*
X124068677Y-36419523D02*
X124093439Y-36431904D01*
X124093439Y-36431904D02*
X124105820Y-36444285D01*
X124105820Y-36444285D02*
X124118200Y-36469047D01*
X124118200Y-36469047D02*
X124118200Y-36543333D01*
X124118200Y-36543333D02*
X124105820Y-36568095D01*
X124105820Y-36568095D02*
X124093439Y-36580476D01*
X124118200Y-36171904D02*
X124118200Y-36320476D01*
X124118200Y-36246190D02*
X123858200Y-36246190D01*
X123858200Y-36246190D02*
X123895343Y-36270952D01*
X123895343Y-36270952D02*
X123920105Y-36295714D01*
X123920105Y-36295714D02*
X123932486Y-36320476D01*
X114318200Y-56343332D02*
X114194391Y-56429999D01*
X114318200Y-56491904D02*
X114058200Y-56491904D01*
X114058200Y-56491904D02*
X114058200Y-56392856D01*
X114058200Y-56392856D02*
X114070581Y-56368094D01*
X114070581Y-56368094D02*
X114082962Y-56355713D01*
X114082962Y-56355713D02*
X114107724Y-56343332D01*
X114107724Y-56343332D02*
X114144867Y-56343332D01*
X114144867Y-56343332D02*
X114169629Y-56355713D01*
X114169629Y-56355713D02*
X114182010Y-56368094D01*
X114182010Y-56368094D02*
X114194391Y-56392856D01*
X114194391Y-56392856D02*
X114194391Y-56491904D01*
X114318200Y-56219523D02*
X114318200Y-56169999D01*
X114318200Y-56169999D02*
X114305820Y-56145237D01*
X114305820Y-56145237D02*
X114293439Y-56132856D01*
X114293439Y-56132856D02*
X114256296Y-56108094D01*
X114256296Y-56108094D02*
X114206772Y-56095713D01*
X114206772Y-56095713D02*
X114107724Y-56095713D01*
X114107724Y-56095713D02*
X114082962Y-56108094D01*
X114082962Y-56108094D02*
X114070581Y-56120475D01*
X114070581Y-56120475D02*
X114058200Y-56145237D01*
X114058200Y-56145237D02*
X114058200Y-56194761D01*
X114058200Y-56194761D02*
X114070581Y-56219523D01*
X114070581Y-56219523D02*
X114082962Y-56231904D01*
X114082962Y-56231904D02*
X114107724Y-56244285D01*
X114107724Y-56244285D02*
X114169629Y-56244285D01*
X114169629Y-56244285D02*
X114194391Y-56231904D01*
X114194391Y-56231904D02*
X114206772Y-56219523D01*
X114206772Y-56219523D02*
X114219153Y-56194761D01*
X114219153Y-56194761D02*
X114219153Y-56145237D01*
X114219153Y-56145237D02*
X114206772Y-56120475D01*
X114206772Y-56120475D02*
X114194391Y-56108094D01*
X114194391Y-56108094D02*
X114169629Y-56095713D01*
D12*
X122238095Y-51704819D02*
X122238095Y-52514342D01*
X122238095Y-52514342D02*
X122285714Y-52609580D01*
X122285714Y-52609580D02*
X122333333Y-52657200D01*
X122333333Y-52657200D02*
X122428571Y-52704819D01*
X122428571Y-52704819D02*
X122619047Y-52704819D01*
X122619047Y-52704819D02*
X122714285Y-52657200D01*
X122714285Y-52657200D02*
X122761904Y-52609580D01*
X122761904Y-52609580D02*
X122809523Y-52514342D01*
X122809523Y-52514342D02*
X122809523Y-51704819D01*
X123428571Y-52133390D02*
X123333333Y-52085771D01*
X123333333Y-52085771D02*
X123285714Y-52038152D01*
X123285714Y-52038152D02*
X123238095Y-51942914D01*
X123238095Y-51942914D02*
X123238095Y-51895295D01*
X123238095Y-51895295D02*
X123285714Y-51800057D01*
X123285714Y-51800057D02*
X123333333Y-51752438D01*
X123333333Y-51752438D02*
X123428571Y-51704819D01*
X123428571Y-51704819D02*
X123619047Y-51704819D01*
X123619047Y-51704819D02*
X123714285Y-51752438D01*
X123714285Y-51752438D02*
X123761904Y-51800057D01*
X123761904Y-51800057D02*
X123809523Y-51895295D01*
X123809523Y-51895295D02*
X123809523Y-51942914D01*
X123809523Y-51942914D02*
X123761904Y-52038152D01*
X123761904Y-52038152D02*
X123714285Y-52085771D01*
X123714285Y-52085771D02*
X123619047Y-52133390D01*
X123619047Y-52133390D02*
X123428571Y-52133390D01*
X123428571Y-52133390D02*
X123333333Y-52181009D01*
X123333333Y-52181009D02*
X123285714Y-52228628D01*
X123285714Y-52228628D02*
X123238095Y-52323866D01*
X123238095Y-52323866D02*
X123238095Y-52514342D01*
X123238095Y-52514342D02*
X123285714Y-52609580D01*
X123285714Y-52609580D02*
X123333333Y-52657200D01*
X123333333Y-52657200D02*
X123428571Y-52704819D01*
X123428571Y-52704819D02*
X123619047Y-52704819D01*
X123619047Y-52704819D02*
X123714285Y-52657200D01*
X123714285Y-52657200D02*
X123761904Y-52609580D01*
X123761904Y-52609580D02*
X123809523Y-52514342D01*
X123809523Y-52514342D02*
X123809523Y-52323866D01*
X123809523Y-52323866D02*
X123761904Y-52228628D01*
X123761904Y-52228628D02*
X123714285Y-52181009D01*
X123714285Y-52181009D02*
X123619047Y-52133390D01*
D11*
X124118200Y-40567142D02*
X123994391Y-40653809D01*
X124118200Y-40715714D02*
X123858200Y-40715714D01*
X123858200Y-40715714D02*
X123858200Y-40616666D01*
X123858200Y-40616666D02*
X123870581Y-40591904D01*
X123870581Y-40591904D02*
X123882962Y-40579523D01*
X123882962Y-40579523D02*
X123907724Y-40567142D01*
X123907724Y-40567142D02*
X123944867Y-40567142D01*
X123944867Y-40567142D02*
X123969629Y-40579523D01*
X123969629Y-40579523D02*
X123982010Y-40591904D01*
X123982010Y-40591904D02*
X123994391Y-40616666D01*
X123994391Y-40616666D02*
X123994391Y-40715714D01*
X123882962Y-40468095D02*
X123870581Y-40455714D01*
X123870581Y-40455714D02*
X123858200Y-40430952D01*
X123858200Y-40430952D02*
X123858200Y-40369047D01*
X123858200Y-40369047D02*
X123870581Y-40344285D01*
X123870581Y-40344285D02*
X123882962Y-40331904D01*
X123882962Y-40331904D02*
X123907724Y-40319523D01*
X123907724Y-40319523D02*
X123932486Y-40319523D01*
X123932486Y-40319523D02*
X123969629Y-40331904D01*
X123969629Y-40331904D02*
X124118200Y-40480476D01*
X124118200Y-40480476D02*
X124118200Y-40319523D01*
X123858200Y-40084285D02*
X123858200Y-40208095D01*
X123858200Y-40208095D02*
X123982010Y-40220476D01*
X123982010Y-40220476D02*
X123969629Y-40208095D01*
X123969629Y-40208095D02*
X123957248Y-40183333D01*
X123957248Y-40183333D02*
X123957248Y-40121428D01*
X123957248Y-40121428D02*
X123969629Y-40096666D01*
X123969629Y-40096666D02*
X123982010Y-40084285D01*
X123982010Y-40084285D02*
X124006772Y-40071904D01*
X124006772Y-40071904D02*
X124068677Y-40071904D01*
X124068677Y-40071904D02*
X124093439Y-40084285D01*
X124093439Y-40084285D02*
X124105820Y-40096666D01*
X124105820Y-40096666D02*
X124118200Y-40121428D01*
X124118200Y-40121428D02*
X124118200Y-40183333D01*
X124118200Y-40183333D02*
X124105820Y-40208095D01*
X124105820Y-40208095D02*
X124093439Y-40220476D01*
X107332857Y-46318200D02*
X107246190Y-46194391D01*
X107184285Y-46318200D02*
X107184285Y-46058200D01*
X107184285Y-46058200D02*
X107283333Y-46058200D01*
X107283333Y-46058200D02*
X107308095Y-46070581D01*
X107308095Y-46070581D02*
X107320476Y-46082962D01*
X107320476Y-46082962D02*
X107332857Y-46107724D01*
X107332857Y-46107724D02*
X107332857Y-46144867D01*
X107332857Y-46144867D02*
X107320476Y-46169629D01*
X107320476Y-46169629D02*
X107308095Y-46182010D01*
X107308095Y-46182010D02*
X107283333Y-46194391D01*
X107283333Y-46194391D02*
X107184285Y-46194391D01*
X107580476Y-46318200D02*
X107431904Y-46318200D01*
X107506190Y-46318200D02*
X107506190Y-46058200D01*
X107506190Y-46058200D02*
X107481428Y-46095343D01*
X107481428Y-46095343D02*
X107456666Y-46120105D01*
X107456666Y-46120105D02*
X107431904Y-46132486D01*
X107741428Y-46058200D02*
X107766190Y-46058200D01*
X107766190Y-46058200D02*
X107790952Y-46070581D01*
X107790952Y-46070581D02*
X107803333Y-46082962D01*
X107803333Y-46082962D02*
X107815714Y-46107724D01*
X107815714Y-46107724D02*
X107828095Y-46157248D01*
X107828095Y-46157248D02*
X107828095Y-46219153D01*
X107828095Y-46219153D02*
X107815714Y-46268677D01*
X107815714Y-46268677D02*
X107803333Y-46293439D01*
X107803333Y-46293439D02*
X107790952Y-46305820D01*
X107790952Y-46305820D02*
X107766190Y-46318200D01*
X107766190Y-46318200D02*
X107741428Y-46318200D01*
X107741428Y-46318200D02*
X107716666Y-46305820D01*
X107716666Y-46305820D02*
X107704285Y-46293439D01*
X107704285Y-46293439D02*
X107691904Y-46268677D01*
X107691904Y-46268677D02*
X107679523Y-46219153D01*
X107679523Y-46219153D02*
X107679523Y-46157248D01*
X107679523Y-46157248D02*
X107691904Y-46107724D01*
X107691904Y-46107724D02*
X107704285Y-46082962D01*
X107704285Y-46082962D02*
X107716666Y-46070581D01*
X107716666Y-46070581D02*
X107741428Y-46058200D01*
X126746718Y-40410714D02*
X126758623Y-40422618D01*
X126758623Y-40422618D02*
X126770527Y-40458333D01*
X126770527Y-40458333D02*
X126770527Y-40482142D01*
X126770527Y-40482142D02*
X126758623Y-40517856D01*
X126758623Y-40517856D02*
X126734813Y-40541666D01*
X126734813Y-40541666D02*
X126711003Y-40553571D01*
X126711003Y-40553571D02*
X126663384Y-40565475D01*
X126663384Y-40565475D02*
X126627670Y-40565475D01*
X126627670Y-40565475D02*
X126580051Y-40553571D01*
X126580051Y-40553571D02*
X126556242Y-40541666D01*
X126556242Y-40541666D02*
X126532432Y-40517856D01*
X126532432Y-40517856D02*
X126520527Y-40482142D01*
X126520527Y-40482142D02*
X126520527Y-40458333D01*
X126520527Y-40458333D02*
X126532432Y-40422618D01*
X126532432Y-40422618D02*
X126544337Y-40410714D01*
X126520527Y-40327380D02*
X126520527Y-40172618D01*
X126520527Y-40172618D02*
X126615765Y-40255952D01*
X126615765Y-40255952D02*
X126615765Y-40220237D01*
X126615765Y-40220237D02*
X126627670Y-40196428D01*
X126627670Y-40196428D02*
X126639575Y-40184523D01*
X126639575Y-40184523D02*
X126663384Y-40172618D01*
X126663384Y-40172618D02*
X126722908Y-40172618D01*
X126722908Y-40172618D02*
X126746718Y-40184523D01*
X126746718Y-40184523D02*
X126758623Y-40196428D01*
X126758623Y-40196428D02*
X126770527Y-40220237D01*
X126770527Y-40220237D02*
X126770527Y-40291666D01*
X126770527Y-40291666D02*
X126758623Y-40315475D01*
X126758623Y-40315475D02*
X126746718Y-40327380D01*
X126520527Y-40089285D02*
X126520527Y-39922619D01*
X126520527Y-39922619D02*
X126770527Y-40029761D01*
X124128200Y-38657142D02*
X124004391Y-38743809D01*
X124128200Y-38805714D02*
X123868200Y-38805714D01*
X123868200Y-38805714D02*
X123868200Y-38706666D01*
X123868200Y-38706666D02*
X123880581Y-38681904D01*
X123880581Y-38681904D02*
X123892962Y-38669523D01*
X123892962Y-38669523D02*
X123917724Y-38657142D01*
X123917724Y-38657142D02*
X123954867Y-38657142D01*
X123954867Y-38657142D02*
X123979629Y-38669523D01*
X123979629Y-38669523D02*
X123992010Y-38681904D01*
X123992010Y-38681904D02*
X124004391Y-38706666D01*
X124004391Y-38706666D02*
X124004391Y-38805714D01*
X123892962Y-38558095D02*
X123880581Y-38545714D01*
X123880581Y-38545714D02*
X123868200Y-38520952D01*
X123868200Y-38520952D02*
X123868200Y-38459047D01*
X123868200Y-38459047D02*
X123880581Y-38434285D01*
X123880581Y-38434285D02*
X123892962Y-38421904D01*
X123892962Y-38421904D02*
X123917724Y-38409523D01*
X123917724Y-38409523D02*
X123942486Y-38409523D01*
X123942486Y-38409523D02*
X123979629Y-38421904D01*
X123979629Y-38421904D02*
X124128200Y-38570476D01*
X124128200Y-38570476D02*
X124128200Y-38409523D01*
X123892962Y-38310476D02*
X123880581Y-38298095D01*
X123880581Y-38298095D02*
X123868200Y-38273333D01*
X123868200Y-38273333D02*
X123868200Y-38211428D01*
X123868200Y-38211428D02*
X123880581Y-38186666D01*
X123880581Y-38186666D02*
X123892962Y-38174285D01*
X123892962Y-38174285D02*
X123917724Y-38161904D01*
X123917724Y-38161904D02*
X123942486Y-38161904D01*
X123942486Y-38161904D02*
X123979629Y-38174285D01*
X123979629Y-38174285D02*
X124128200Y-38322857D01*
X124128200Y-38322857D02*
X124128200Y-38161904D01*
X109085657Y-51668200D02*
X108998990Y-51544391D01*
X108937085Y-51668200D02*
X108937085Y-51408200D01*
X108937085Y-51408200D02*
X109036133Y-51408200D01*
X109036133Y-51408200D02*
X109060895Y-51420581D01*
X109060895Y-51420581D02*
X109073276Y-51432962D01*
X109073276Y-51432962D02*
X109085657Y-51457724D01*
X109085657Y-51457724D02*
X109085657Y-51494867D01*
X109085657Y-51494867D02*
X109073276Y-51519629D01*
X109073276Y-51519629D02*
X109060895Y-51532010D01*
X109060895Y-51532010D02*
X109036133Y-51544391D01*
X109036133Y-51544391D02*
X108937085Y-51544391D01*
X109333276Y-51668200D02*
X109184704Y-51668200D01*
X109258990Y-51668200D02*
X109258990Y-51408200D01*
X109258990Y-51408200D02*
X109234228Y-51445343D01*
X109234228Y-51445343D02*
X109209466Y-51470105D01*
X109209466Y-51470105D02*
X109184704Y-51482486D01*
X109457085Y-51668200D02*
X109506609Y-51668200D01*
X109506609Y-51668200D02*
X109531371Y-51655820D01*
X109531371Y-51655820D02*
X109543752Y-51643439D01*
X109543752Y-51643439D02*
X109568514Y-51606296D01*
X109568514Y-51606296D02*
X109580895Y-51556772D01*
X109580895Y-51556772D02*
X109580895Y-51457724D01*
X109580895Y-51457724D02*
X109568514Y-51432962D01*
X109568514Y-51432962D02*
X109556133Y-51420581D01*
X109556133Y-51420581D02*
X109531371Y-51408200D01*
X109531371Y-51408200D02*
X109481847Y-51408200D01*
X109481847Y-51408200D02*
X109457085Y-51420581D01*
X109457085Y-51420581D02*
X109444704Y-51432962D01*
X109444704Y-51432962D02*
X109432323Y-51457724D01*
X109432323Y-51457724D02*
X109432323Y-51519629D01*
X109432323Y-51519629D02*
X109444704Y-51544391D01*
X109444704Y-51544391D02*
X109457085Y-51556772D01*
X109457085Y-51556772D02*
X109481847Y-51569153D01*
X109481847Y-51569153D02*
X109531371Y-51569153D01*
X109531371Y-51569153D02*
X109556133Y-51556772D01*
X109556133Y-51556772D02*
X109568514Y-51544391D01*
X109568514Y-51544391D02*
X109580895Y-51519629D01*
D14*
X138200000Y-56700000D02*
X138200000Y-58300000D01*
X137400000Y-56700000D02*
X138200000Y-56700000D01*
X138200000Y-58300000D02*
X137400000Y-58300000D01*
X137400000Y-58300000D02*
X137400000Y-56700000D01*
X136600000Y-56700000D02*
X136600000Y-58300000D01*
X135800000Y-56700000D02*
X136600000Y-56700000D01*
X136600000Y-58300000D02*
X135800000Y-58300000D01*
X135800000Y-58300000D02*
X135800000Y-56700000D01*
X134200000Y-56700000D02*
X135000000Y-56700000D01*
X134200000Y-58300000D02*
X134200000Y-56700000D01*
X135000000Y-56700000D02*
X135000000Y-58300000D01*
X135000000Y-58300000D02*
X134200000Y-58300000D01*
X132600000Y-56700000D02*
X133400000Y-56700000D01*
X132600000Y-58300000D02*
X132600000Y-56700000D01*
X133400000Y-56700000D02*
X133400000Y-58300000D01*
X133400000Y-58300000D02*
X132600000Y-58300000D01*
X131350000Y-56600000D02*
X131850000Y-56600000D01*
X131350000Y-57600000D02*
X131350000Y-56600000D01*
X131850000Y-56600000D02*
X131850000Y-57600000D01*
X131850000Y-57600000D02*
X131350000Y-57600000D01*
X119450000Y-39300000D02*
X119950000Y-39300000D01*
X119450000Y-40300000D02*
X119450000Y-39300000D01*
X119950000Y-39300000D02*
X119950000Y-40300000D01*
X119950000Y-40300000D02*
X119450000Y-40300000D01*
X118450000Y-37100000D02*
X118950000Y-37100000D01*
X118450000Y-38100000D02*
X118450000Y-37100000D01*
X118950000Y-37100000D02*
X118950000Y-38100000D01*
X118950000Y-38100000D02*
X118450000Y-38100000D01*
X141750000Y-49900000D02*
X142250000Y-49900000D01*
X141750000Y-50900000D02*
X141750000Y-49900000D01*
X142250000Y-49900000D02*
X142250000Y-50900000D01*
X142250000Y-50900000D02*
X141750000Y-50900000D01*
X124900000Y-38600000D02*
X125700000Y-38600000D01*
X124900000Y-40200000D02*
X124900000Y-38600000D01*
X125700000Y-38600000D02*
X125700000Y-40200000D01*
X125700000Y-40200000D02*
X124900000Y-40200000D01*
X137498600Y-52000000D02*
X138298600Y-52000000D01*
X137498600Y-53600000D02*
X137498600Y-52000000D01*
X138298600Y-52000000D02*
X138298600Y-53600000D01*
X138298600Y-53600000D02*
X137498600Y-53600000D01*
X136000000Y-52000000D02*
X136800000Y-52000000D01*
X136000000Y-53600000D02*
X136000000Y-52000000D01*
X136800000Y-52000000D02*
X136800000Y-53600000D01*
X136800000Y-53600000D02*
X136000000Y-53600000D01*
X136230000Y-39575000D02*
X136770000Y-39575000D01*
X136230000Y-40625000D02*
X136230000Y-39575000D01*
X136770000Y-39575000D02*
X136770000Y-40625000D01*
X136770000Y-40625000D02*
X136230000Y-40625000D01*
X137330000Y-39585000D02*
X137870000Y-39585000D01*
X137330000Y-40635000D02*
X137330000Y-39585000D01*
X137870000Y-39585000D02*
X137870000Y-40635000D01*
X137870000Y-40635000D02*
X137330000Y-40635000D01*
X107230000Y-39775000D02*
X107770000Y-39775000D01*
X107230000Y-40825000D02*
X107230000Y-39775000D01*
X107770000Y-39775000D02*
X107770000Y-40825000D01*
X107770000Y-40825000D02*
X107230000Y-40825000D01*
X108330000Y-39775000D02*
X108870000Y-39775000D01*
X108330000Y-40825000D02*
X108330000Y-39775000D01*
X108870000Y-39775000D02*
X108870000Y-40825000D01*
X108870000Y-40825000D02*
X108330000Y-40825000D01*
X119775000Y-34230000D02*
X120825000Y-34230000D01*
X119775000Y-34770000D02*
X119775000Y-34230000D01*
X120825000Y-34230000D02*
X120825000Y-34770000D01*
X120825000Y-34770000D02*
X119775000Y-34770000D01*
X123730000Y-33975000D02*
X124270000Y-33975000D01*
X123730000Y-35025000D02*
X123730000Y-33975000D01*
X124270000Y-33975000D02*
X124270000Y-35025000D01*
X124270000Y-35025000D02*
X123730000Y-35025000D01*
X120500000Y-32565000D02*
X122100000Y-32565000D01*
X120500000Y-33390000D02*
X120500000Y-32565000D01*
X122100000Y-32565000D02*
X122100000Y-33390000D01*
X122100000Y-33390000D02*
X120500000Y-33390000D01*
X131350000Y-39850000D02*
X131350000Y-45350000D01*
X131350000Y-45350000D02*
X133350000Y-45350000D01*
X133350000Y-45350000D02*
X134350000Y-44350000D01*
X134350000Y-39850000D02*
X131350000Y-39850000D01*
X134350000Y-44350000D02*
X134350000Y-39850000D01*
X110650000Y-40950000D02*
X110650000Y-45450000D01*
X110650000Y-45450000D02*
X113650000Y-45450000D01*
X111650000Y-39950000D02*
X110650000Y-40950000D01*
X113650000Y-39950000D02*
X111650000Y-39950000D01*
X113650000Y-45450000D02*
X113650000Y-39950000D01*
X134225000Y-46900000D02*
X134225000Y-48600000D01*
X134725000Y-46400000D02*
X134225000Y-46900000D01*
X135575000Y-46400000D02*
X134725000Y-46400000D01*
X135575000Y-46400000D02*
X135575000Y-48600000D01*
X135575000Y-48600000D02*
X134225000Y-48600000D01*
X120500000Y-35250000D02*
X122100000Y-35250000D01*
X120500000Y-38150000D02*
X120500000Y-35250000D01*
X121700000Y-38150000D02*
X120500000Y-38150000D01*
X122100000Y-35250000D02*
X122100000Y-37750000D01*
X122100000Y-37750000D02*
X121700000Y-38150000D01*
X139000000Y-50675000D02*
X139000000Y-49325000D01*
X140700000Y-49325000D02*
X139000000Y-49325000D01*
X141200000Y-49825000D02*
X140700000Y-49325000D01*
X141200000Y-50675000D02*
X139000000Y-50675000D01*
X141200000Y-50675000D02*
X141200000Y-49825000D01*
X131275000Y-60075000D02*
X136575000Y-60075000D01*
X131275000Y-62975000D02*
X131275000Y-60075000D01*
X135675000Y-62975000D02*
X131275000Y-62975000D01*
X136575000Y-60075000D02*
X136575000Y-62075000D01*
X136575000Y-62075000D02*
X135675000Y-62975000D01*
X139100000Y-53837500D02*
X139100000Y-51837500D01*
X139150000Y-51837500D02*
X140650000Y-51837500D01*
X141100000Y-52287500D02*
X140650000Y-51837500D01*
X141100000Y-52287500D02*
X141100000Y-53837500D01*
X141100000Y-53837500D02*
X139150000Y-53837500D01*
X121125000Y-38700000D02*
X122475000Y-38700000D01*
X121125000Y-40900000D02*
X121125000Y-38700000D01*
X121125000Y-40900000D02*
X121975000Y-40900000D01*
X121975000Y-40900000D02*
X122475000Y-40400000D01*
X122475000Y-40400000D02*
X122475000Y-38700000D01*
X118430000Y-35175000D02*
X118970000Y-35175000D01*
X118430000Y-36225000D02*
X118430000Y-35175000D01*
X118970000Y-35175000D02*
X118970000Y-36225000D01*
X118970000Y-36225000D02*
X118430000Y-36225000D01*
X109502800Y-48800000D02*
X110302800Y-48800000D01*
X109502800Y-50400000D02*
X109502800Y-48800000D01*
X110302800Y-48800000D02*
X110302800Y-50400000D01*
X110302800Y-50400000D02*
X109502800Y-50400000D01*
X106827800Y-48500000D02*
X108177800Y-48500000D01*
X106827800Y-50700000D02*
X106827800Y-48500000D01*
X106827800Y-50700000D02*
X107677800Y-50700000D01*
X107677800Y-50700000D02*
X108177800Y-50200000D01*
X108177800Y-50200000D02*
X108177800Y-48500000D01*
X136325000Y-41500000D02*
X137675000Y-41500000D01*
X136325000Y-43700000D02*
X136325000Y-41500000D01*
X136325000Y-43700000D02*
X137175000Y-43700000D01*
X137175000Y-43700000D02*
X137675000Y-43200000D01*
X137675000Y-43200000D02*
X137675000Y-41500000D01*
X107325000Y-42100000D02*
X107325000Y-43800000D01*
X107825000Y-41600000D02*
X107325000Y-42100000D01*
X108675000Y-41600000D02*
X107825000Y-41600000D01*
X108675000Y-41600000D02*
X108675000Y-43800000D01*
X108675000Y-43800000D02*
X107325000Y-43800000D01*
X115825000Y-39300000D02*
X115825000Y-41000000D01*
X116325000Y-38800000D02*
X115825000Y-39300000D01*
X117175000Y-38800000D02*
X116325000Y-38800000D01*
X117175000Y-38800000D02*
X117175000Y-41000000D01*
X117175000Y-41000000D02*
X115825000Y-41000000D01*
X128075000Y-36150000D02*
X129425000Y-36150000D01*
X128075000Y-38350000D02*
X128075000Y-36150000D01*
X128075000Y-38350000D02*
X128925000Y-38350000D01*
X128925000Y-38350000D02*
X129425000Y-37850000D01*
X129425000Y-37850000D02*
X129425000Y-36150000D01*
X128075000Y-39150000D02*
X129425000Y-39150000D01*
X128075000Y-41350000D02*
X128075000Y-39150000D01*
X128075000Y-41350000D02*
X128925000Y-41350000D01*
X128925000Y-41350000D02*
X129425000Y-40850000D01*
X129425000Y-40850000D02*
X129425000Y-39150000D01*
X106700000Y-47000000D02*
X108300000Y-47000000D01*
X106700000Y-47800000D02*
X106700000Y-47000000D01*
X108300000Y-47000000D02*
X108300000Y-47800000D01*
X108300000Y-47800000D02*
X106700000Y-47800000D01*
X118350000Y-39300000D02*
X118850000Y-39300000D01*
X118350000Y-40300000D02*
X118350000Y-39300000D01*
X118850000Y-39300000D02*
X118850000Y-40300000D01*
X118850000Y-40300000D02*
X118350000Y-40300000D01*
X131330000Y-54475000D02*
X131870000Y-54475000D01*
X131330000Y-55525000D02*
X131330000Y-54475000D01*
X131870000Y-54475000D02*
X131870000Y-55525000D01*
X131870000Y-55525000D02*
X131330000Y-55525000D01*
X111700000Y-58100000D02*
X111700000Y-59700000D01*
X111700000Y-59700000D02*
X112500000Y-59700000D01*
X112200000Y-58100000D02*
X111700000Y-58100000D01*
X112500000Y-58400000D02*
X112200000Y-58100000D01*
X112500000Y-59700000D02*
X112500000Y-58400000D01*
X110832800Y-49075000D02*
X111372800Y-49075000D01*
X110832800Y-50125000D02*
X110832800Y-49075000D01*
X111372800Y-49075000D02*
X111372800Y-50125000D01*
X111372800Y-50125000D02*
X110832800Y-50125000D01*
X113800000Y-58100000D02*
X114600000Y-58100000D01*
X113800000Y-59700000D02*
X113800000Y-58100000D01*
X114600000Y-58100000D02*
X114600000Y-59700000D01*
X114600000Y-59700000D02*
X113800000Y-59700000D01*
X110330000Y-58375000D02*
X110870000Y-58375000D01*
X110330000Y-59425000D02*
X110330000Y-58375000D01*
X110870000Y-58375000D02*
X110870000Y-59425000D01*
X110870000Y-59425000D02*
X110330000Y-59425000D01*
X126417200Y-36750000D02*
X126917200Y-36750000D01*
X126417200Y-37750000D02*
X126417200Y-36750000D01*
X126917200Y-36750000D02*
X126917200Y-37750000D01*
X126917200Y-37750000D02*
X126417200Y-37750000D01*
X136800000Y-47300000D02*
X137300000Y-47300000D01*
X136800000Y-48300000D02*
X136800000Y-47300000D01*
X137300000Y-47300000D02*
X137300000Y-48300000D01*
X137300000Y-48300000D02*
X136800000Y-48300000D01*
X106802800Y-51300000D02*
X107802800Y-51300000D01*
X106802800Y-51800000D02*
X106802800Y-51300000D01*
X107802800Y-51300000D02*
X107802800Y-51800000D01*
X107802800Y-51800000D02*
X106802800Y-51800000D01*
X123730000Y-35975000D02*
X124270000Y-35975000D01*
X123730000Y-37025000D02*
X123730000Y-35975000D01*
X124270000Y-35975000D02*
X124270000Y-37025000D01*
X124270000Y-37025000D02*
X123730000Y-37025000D01*
X113930000Y-55775000D02*
X114470000Y-55775000D01*
X113930000Y-56825000D02*
X113930000Y-55775000D01*
X114470000Y-55775000D02*
X114470000Y-56825000D01*
X114470000Y-56825000D02*
X113930000Y-56825000D01*
D12*
X115300000Y-44550000D02*
X115300000Y-59950000D01*
X115300000Y-59950000D02*
X130700000Y-59950000D01*
X130700000Y-44550000D02*
X115300000Y-44550000D01*
X130700000Y-59950000D02*
X130700000Y-44550000D01*
D14*
X123730000Y-39875000D02*
X124270000Y-39875000D01*
X123730000Y-40925000D02*
X123730000Y-39875000D01*
X124270000Y-39875000D02*
X124270000Y-40925000D01*
X124270000Y-40925000D02*
X123730000Y-40925000D01*
X106975000Y-45930000D02*
X108025000Y-45930000D01*
X106975000Y-46470000D02*
X106975000Y-45930000D01*
X108025000Y-45930000D02*
X108025000Y-46470000D01*
X108025000Y-46470000D02*
X106975000Y-46470000D01*
X126406953Y-39750000D02*
X126906953Y-39750000D01*
X126406953Y-40750000D02*
X126406953Y-39750000D01*
X126906953Y-39750000D02*
X126906953Y-40750000D01*
X126906953Y-40750000D02*
X126406953Y-40750000D01*
X123740000Y-37965000D02*
X124280000Y-37965000D01*
X123740000Y-39015000D02*
X123740000Y-37965000D01*
X124280000Y-37965000D02*
X124280000Y-39015000D01*
X124280000Y-39015000D02*
X123740000Y-39015000D01*
X108727800Y-51280000D02*
X109777800Y-51280000D01*
X108727800Y-51820000D02*
X108727800Y-51280000D01*
X109777800Y-51280000D02*
X109777800Y-51820000D01*
X109777800Y-51820000D02*
X108727800Y-51820000D01*
M02*
