G04 #@! TF.GenerationSoftware,KiCad,Pcbnew,8.0.7*
G04 #@! TF.CreationDate,2025-04-02T23:58:34+11:00*
G04 #@! TF.ProjectId,Ganglion_01,47616e67-6c69-46f6-9e5f-30312e6b6963,01*
G04 #@! TF.SameCoordinates,Original*
G04 #@! TF.FileFunction,Copper,L2,Inr*
G04 #@! TF.FilePolarity,Positive*
%FSLAX46Y46*%
G04 Gerber Fmt 4.6, Leading zero omitted, Abs format (unit mm)*
G04 Created by KiCad (PCBNEW 8.0.7) date 2025-04-02 23:58:34*
%MOMM*%
%LPD*%
G01*
G04 APERTURE LIST*
G04 #@! TA.AperFunction,ComponentPad*
%ADD10C,6.400000*%
G04 #@! TD*
G04 #@! TA.AperFunction,ViaPad*
%ADD11C,0.600000*%
G04 #@! TD*
G04 APERTURE END LIST*
D10*
X141500000Y-33500000D03*
X141500000Y-61500000D03*
X103500000Y-61500000D03*
X103500000Y-33500000D03*
D11*
X127200000Y-38500000D03*
X112800000Y-47500000D03*
X117800000Y-38100000D03*
X131042051Y-36763366D03*
X110229122Y-36870878D03*
X115800000Y-33000000D03*
X112800000Y-46700000D03*
X105700000Y-50200000D03*
X128300000Y-32500000D03*
X109000000Y-38100000D03*
X105500000Y-52700000D03*
X137300000Y-50800000D03*
X119400000Y-38500000D03*
X123825886Y-53073177D03*
X132778768Y-33121232D03*
X110900000Y-46100000D03*
X105500000Y-51100000D03*
X125400000Y-41175000D03*
X138500000Y-41600000D03*
X137700000Y-47300000D03*
X135700000Y-33300000D03*
X122175597Y-53075701D03*
X114800000Y-37800000D03*
X120500000Y-55400000D03*
X111600000Y-52600000D03*
X116000000Y-44200000D03*
X107700000Y-50800000D03*
X138900000Y-49100000D03*
X133900000Y-62600000D03*
X117000000Y-58100000D03*
X124500000Y-55700000D03*
X113100000Y-33800000D03*
X125800000Y-53900000D03*
X119300000Y-31900000D03*
X120200000Y-53900000D03*
X115800000Y-42100000D03*
X129100000Y-58300000D03*
X128430584Y-35762824D03*
X124900000Y-36700000D03*
X121400000Y-36500000D03*
X107700000Y-43700000D03*
X113900000Y-47200000D03*
X125400000Y-37800000D03*
X125600000Y-58300000D03*
X126700000Y-48900000D03*
X122600000Y-41300000D03*
X131000000Y-38000000D03*
X121300000Y-58300000D03*
X105500000Y-51900000D03*
X123825278Y-51426495D03*
X142000000Y-49300000D03*
X117822268Y-36749543D03*
X114900000Y-52600000D03*
X129700000Y-35900000D03*
X124100000Y-48900000D03*
X127900000Y-44000000D03*
X132800000Y-45800000D03*
X135300000Y-41300000D03*
X109700000Y-44000000D03*
X137100000Y-43700000D03*
X109800000Y-39600000D03*
X133000000Y-49100000D03*
X127900000Y-46500000D03*
X120000000Y-48900000D03*
X133000000Y-47500000D03*
X120800000Y-48900000D03*
X128800000Y-46200000D03*
X119200000Y-48900000D03*
X133000000Y-48300000D03*
X128600000Y-47400000D03*
X118449997Y-48900000D03*
X124700000Y-44200000D03*
X121500000Y-45915034D03*
X142014806Y-52797039D03*
X141300000Y-49000000D03*
X131300000Y-50200000D03*
X108024500Y-38500000D03*
X136900000Y-38200000D03*
X117800000Y-53800000D03*
X110300000Y-53800000D03*
X113800000Y-53800000D03*
X109700000Y-42700000D03*
X135300000Y-42600000D03*
X106600000Y-41500000D03*
X141100000Y-50100000D03*
X137200000Y-54300000D03*
X117100000Y-49000000D03*
X113400000Y-56400000D03*
X117100000Y-49800000D03*
X137700000Y-48300000D03*
X133800000Y-56000000D03*
X132300000Y-51600000D03*
X132800000Y-43100000D03*
X111600000Y-43300000D03*
X122900000Y-57500000D03*
X114500000Y-61100000D03*
G04 #@! TA.AperFunction,Conductor*
G36*
X133250913Y-46414124D02*
G01*
X133279930Y-46429303D01*
X133279932Y-46429303D01*
X133279935Y-46429305D01*
X133324407Y-46442363D01*
X133346969Y-46448988D01*
X133346973Y-46448988D01*
X133346975Y-46448989D01*
X133358788Y-46450687D01*
X133420081Y-46459500D01*
X133420082Y-46459500D01*
X144800500Y-46459500D01*
X144867539Y-46479185D01*
X144913294Y-46531989D01*
X144924500Y-46583500D01*
X144924500Y-60115618D01*
X144904815Y-60182657D01*
X144852011Y-60228412D01*
X144782853Y-60238356D01*
X144719297Y-60209331D01*
X144685307Y-60161515D01*
X144639828Y-60047373D01*
X144639826Y-60047369D01*
X144639824Y-60047363D01*
X144464361Y-59716403D01*
X144464356Y-59716395D01*
X144464352Y-59716388D01*
X144254143Y-59406355D01*
X144011635Y-59120853D01*
X143739681Y-58863244D01*
X143739674Y-58863238D01*
X143739671Y-58863236D01*
X143659112Y-58801997D01*
X143441468Y-58636549D01*
X143122703Y-58444754D01*
X143120498Y-58443427D01*
X143120485Y-58443420D01*
X142780530Y-58286140D01*
X142780525Y-58286138D01*
X142780520Y-58286136D01*
X142607485Y-58227833D01*
X142425533Y-58166526D01*
X142059696Y-58086000D01*
X141687299Y-58045500D01*
X141687298Y-58045500D01*
X141312702Y-58045500D01*
X141312700Y-58045500D01*
X140940303Y-58086000D01*
X140574466Y-58166526D01*
X140342303Y-58244752D01*
X140219480Y-58286136D01*
X140219477Y-58286137D01*
X140219469Y-58286140D01*
X139879514Y-58443420D01*
X139879501Y-58443427D01*
X139612399Y-58604137D01*
X139558532Y-58636549D01*
X139481019Y-58695473D01*
X139260328Y-58863236D01*
X139260319Y-58863244D01*
X138988364Y-59120853D01*
X138745856Y-59406355D01*
X138535647Y-59716388D01*
X138535639Y-59716402D01*
X138535639Y-59716403D01*
X138464614Y-59850372D01*
X138360173Y-60047369D01*
X138360171Y-60047372D01*
X138221522Y-60395356D01*
X138221521Y-60395358D01*
X138121311Y-60756285D01*
X138121306Y-60756306D01*
X138060707Y-61125939D01*
X138060706Y-61125956D01*
X138040426Y-61499997D01*
X138040426Y-61500002D01*
X138060706Y-61874043D01*
X138060707Y-61874060D01*
X138121306Y-62243693D01*
X138121311Y-62243714D01*
X138221521Y-62604641D01*
X138221522Y-62604643D01*
X138360171Y-62952627D01*
X138360173Y-62952630D01*
X138360176Y-62952637D01*
X138535639Y-63283597D01*
X138535641Y-63283600D01*
X138535647Y-63283611D01*
X138639220Y-63436368D01*
X138745857Y-63593645D01*
X138988365Y-63879147D01*
X139260319Y-64136756D01*
X139558532Y-64363451D01*
X139879506Y-64556575D01*
X139879510Y-64556576D01*
X139879514Y-64556579D01*
X140163490Y-64687961D01*
X140216068Y-64733975D01*
X140235422Y-64801111D01*
X140215408Y-64868052D01*
X140162379Y-64913547D01*
X140111424Y-64924500D01*
X130899500Y-64924500D01*
X130832461Y-64904815D01*
X130786706Y-64852011D01*
X130775500Y-64800500D01*
X130775500Y-62599998D01*
X133340715Y-62599998D01*
X133340715Y-62600001D01*
X133359771Y-62744752D01*
X133359773Y-62744757D01*
X133415642Y-62879638D01*
X133415645Y-62879644D01*
X133504525Y-62995473D01*
X133504526Y-62995474D01*
X133620355Y-63084354D01*
X133620361Y-63084357D01*
X133687801Y-63112291D01*
X133755246Y-63140228D01*
X133826586Y-63149620D01*
X133899999Y-63159285D01*
X133900000Y-63159285D01*
X133900001Y-63159285D01*
X133948251Y-63152932D01*
X134044754Y-63140228D01*
X134179643Y-63084355D01*
X134295474Y-62995474D01*
X134384355Y-62879643D01*
X134440228Y-62744754D01*
X134459285Y-62600000D01*
X134456325Y-62577519D01*
X134440228Y-62455247D01*
X134440228Y-62455246D01*
X134384355Y-62320358D01*
X134295474Y-62204526D01*
X134179643Y-62115645D01*
X134179640Y-62115644D01*
X134179638Y-62115642D01*
X134044757Y-62059773D01*
X134044752Y-62059771D01*
X133900001Y-62040715D01*
X133899999Y-62040715D01*
X133755247Y-62059771D01*
X133755245Y-62059772D01*
X133620361Y-62115643D01*
X133620358Y-62115644D01*
X133620358Y-62115645D01*
X133526277Y-62187836D01*
X133504526Y-62204526D01*
X133415643Y-62320361D01*
X133359772Y-62455245D01*
X133359771Y-62455247D01*
X133340715Y-62599998D01*
X130775500Y-62599998D01*
X130775500Y-59984983D01*
X130775500Y-59984982D01*
X130764006Y-59957233D01*
X130742767Y-59935994D01*
X130715018Y-59924500D01*
X115315018Y-59924500D01*
X115284982Y-59924500D01*
X115257231Y-59935995D01*
X115235995Y-59957231D01*
X115224500Y-59984982D01*
X115224500Y-60776728D01*
X115204815Y-60843767D01*
X115152011Y-60889522D01*
X115082853Y-60899466D01*
X115019297Y-60870441D01*
X114985939Y-60824182D01*
X114985881Y-60824042D01*
X114984355Y-60820358D01*
X114895474Y-60704526D01*
X114779643Y-60615645D01*
X114779640Y-60615644D01*
X114779638Y-60615642D01*
X114644757Y-60559773D01*
X114644752Y-60559771D01*
X114500001Y-60540715D01*
X114499999Y-60540715D01*
X114355247Y-60559771D01*
X114355245Y-60559772D01*
X114220361Y-60615643D01*
X114220358Y-60615644D01*
X114220358Y-60615645D01*
X114104526Y-60704526D01*
X114049124Y-60776728D01*
X114015643Y-60820361D01*
X113959772Y-60955245D01*
X113959771Y-60955247D01*
X113940715Y-61099998D01*
X113940715Y-61100001D01*
X113959771Y-61244752D01*
X113959773Y-61244757D01*
X114015642Y-61379638D01*
X114015645Y-61379644D01*
X114104525Y-61495473D01*
X114104526Y-61495474D01*
X114220355Y-61584354D01*
X114220361Y-61584357D01*
X114250129Y-61596687D01*
X114355246Y-61640228D01*
X114427623Y-61649756D01*
X114499999Y-61659285D01*
X114500000Y-61659285D01*
X114500001Y-61659285D01*
X114548251Y-61652932D01*
X114644754Y-61640228D01*
X114779643Y-61584355D01*
X114895474Y-61495474D01*
X114984355Y-61379643D01*
X114985938Y-61375822D01*
X114988136Y-61373093D01*
X114988421Y-61372601D01*
X114988497Y-61372645D01*
X115029778Y-61321417D01*
X115096072Y-61299351D01*
X115163771Y-61316629D01*
X115211383Y-61367765D01*
X115224500Y-61423272D01*
X115224500Y-64800500D01*
X115204815Y-64867539D01*
X115152011Y-64913294D01*
X115100500Y-64924500D01*
X113383500Y-64924500D01*
X113316461Y-64904815D01*
X113270706Y-64852011D01*
X113259500Y-64800500D01*
X113259500Y-62577493D01*
X113259336Y-62568288D01*
X113259019Y-62559413D01*
X113259018Y-62559404D01*
X113242822Y-62477987D01*
X113234340Y-62455247D01*
X113218405Y-62412522D01*
X113212142Y-62399431D01*
X113200000Y-62345917D01*
X113200000Y-61624122D01*
X113214124Y-61566648D01*
X113229303Y-61537632D01*
X113248988Y-61470593D01*
X113259500Y-61397481D01*
X113259500Y-58099998D01*
X116440715Y-58099998D01*
X116440715Y-58100001D01*
X116459771Y-58244752D01*
X116459773Y-58244757D01*
X116515642Y-58379638D01*
X116515645Y-58379644D01*
X116604525Y-58495473D01*
X116604526Y-58495474D01*
X116720355Y-58584354D01*
X116720361Y-58584357D01*
X116787801Y-58612291D01*
X116855246Y-58640228D01*
X116927623Y-58649756D01*
X116999999Y-58659285D01*
X117000000Y-58659285D01*
X117000001Y-58659285D01*
X117048251Y-58652932D01*
X117144754Y-58640228D01*
X117279643Y-58584355D01*
X117395474Y-58495474D01*
X117484355Y-58379643D01*
X117517345Y-58299998D01*
X120740715Y-58299998D01*
X120740715Y-58300001D01*
X120759771Y-58444752D01*
X120759773Y-58444757D01*
X120815642Y-58579638D01*
X120815645Y-58579644D01*
X120904525Y-58695473D01*
X120904526Y-58695474D01*
X121020355Y-58784354D01*
X121020361Y-58784357D01*
X121062948Y-58801997D01*
X121155246Y-58840228D01*
X121227623Y-58849756D01*
X121299999Y-58859285D01*
X121300000Y-58859285D01*
X121300001Y-58859285D01*
X121358009Y-58851648D01*
X121444754Y-58840228D01*
X121579643Y-58784355D01*
X121695474Y-58695474D01*
X121784355Y-58579643D01*
X121840228Y-58444754D01*
X121859285Y-58300000D01*
X121859285Y-58299998D01*
X125040715Y-58299998D01*
X125040715Y-58300001D01*
X125059771Y-58444752D01*
X125059773Y-58444757D01*
X125115642Y-58579638D01*
X125115645Y-58579644D01*
X125204525Y-58695473D01*
X125204526Y-58695474D01*
X125320355Y-58784354D01*
X125320361Y-58784357D01*
X125362948Y-58801997D01*
X125455246Y-58840228D01*
X125527623Y-58849756D01*
X125599999Y-58859285D01*
X125600000Y-58859285D01*
X125600001Y-58859285D01*
X125658009Y-58851648D01*
X125744754Y-58840228D01*
X125879643Y-58784355D01*
X125995474Y-58695474D01*
X126084355Y-58579643D01*
X126140228Y-58444754D01*
X126159285Y-58300000D01*
X126159285Y-58299998D01*
X128540715Y-58299998D01*
X128540715Y-58300001D01*
X128559771Y-58444752D01*
X128559773Y-58444757D01*
X128615642Y-58579638D01*
X128615645Y-58579644D01*
X128704525Y-58695473D01*
X128704526Y-58695474D01*
X128820355Y-58784354D01*
X128820361Y-58784357D01*
X128862948Y-58801997D01*
X128955246Y-58840228D01*
X129027623Y-58849756D01*
X129099999Y-58859285D01*
X129100000Y-58859285D01*
X129100001Y-58859285D01*
X129158009Y-58851648D01*
X129244754Y-58840228D01*
X129379643Y-58784355D01*
X129495474Y-58695474D01*
X129584355Y-58579643D01*
X129640228Y-58444754D01*
X129659285Y-58300000D01*
X129657460Y-58286140D01*
X129640228Y-58155247D01*
X129640228Y-58155246D01*
X129584355Y-58020358D01*
X129495474Y-57904526D01*
X129379643Y-57815645D01*
X129379640Y-57815644D01*
X129379638Y-57815642D01*
X129244757Y-57759773D01*
X129244752Y-57759771D01*
X129100001Y-57740715D01*
X129099999Y-57740715D01*
X128955247Y-57759771D01*
X128955245Y-57759772D01*
X128820361Y-57815643D01*
X128820358Y-57815644D01*
X128820358Y-57815645D01*
X128704526Y-57904526D01*
X128665607Y-57955247D01*
X128615643Y-58020361D01*
X128559772Y-58155245D01*
X128559771Y-58155247D01*
X128540715Y-58299998D01*
X126159285Y-58299998D01*
X126157460Y-58286140D01*
X126140228Y-58155247D01*
X126140228Y-58155246D01*
X126084355Y-58020358D01*
X125995474Y-57904526D01*
X125879643Y-57815645D01*
X125879640Y-57815644D01*
X125879638Y-57815642D01*
X125744757Y-57759773D01*
X125744752Y-57759771D01*
X125600001Y-57740715D01*
X125599999Y-57740715D01*
X125455247Y-57759771D01*
X125455245Y-57759772D01*
X125320361Y-57815643D01*
X125320358Y-57815644D01*
X125320358Y-57815645D01*
X125204526Y-57904526D01*
X125165607Y-57955247D01*
X125115643Y-58020361D01*
X125059772Y-58155245D01*
X125059771Y-58155247D01*
X125040715Y-58299998D01*
X121859285Y-58299998D01*
X121857460Y-58286140D01*
X121840228Y-58155247D01*
X121840228Y-58155246D01*
X121784355Y-58020358D01*
X121695474Y-57904526D01*
X121579643Y-57815645D01*
X121579640Y-57815644D01*
X121579638Y-57815642D01*
X121444757Y-57759773D01*
X121444752Y-57759771D01*
X121300001Y-57740715D01*
X121299999Y-57740715D01*
X121155247Y-57759771D01*
X121155245Y-57759772D01*
X121020361Y-57815643D01*
X121020358Y-57815644D01*
X121020358Y-57815645D01*
X120904526Y-57904526D01*
X120865607Y-57955247D01*
X120815643Y-58020361D01*
X120759772Y-58155245D01*
X120759771Y-58155247D01*
X120740715Y-58299998D01*
X117517345Y-58299998D01*
X117540228Y-58244754D01*
X117559285Y-58100000D01*
X117540228Y-57955246D01*
X117484355Y-57820358D01*
X117395474Y-57704526D01*
X117279643Y-57615645D01*
X117279640Y-57615644D01*
X117279638Y-57615642D01*
X117144757Y-57559773D01*
X117144752Y-57559771D01*
X117000001Y-57540715D01*
X116999999Y-57540715D01*
X116855247Y-57559771D01*
X116855245Y-57559772D01*
X116720361Y-57615643D01*
X116720358Y-57615644D01*
X116720358Y-57615645D01*
X116604526Y-57704526D01*
X116519262Y-57815645D01*
X116515643Y-57820361D01*
X116459772Y-57955245D01*
X116459771Y-57955247D01*
X116440715Y-58099998D01*
X113259500Y-58099998D01*
X113259500Y-57499998D01*
X122340715Y-57499998D01*
X122340715Y-57500001D01*
X122359771Y-57644752D01*
X122359773Y-57644757D01*
X122415642Y-57779638D01*
X122415645Y-57779644D01*
X122504525Y-57895473D01*
X122504526Y-57895474D01*
X122620355Y-57984354D01*
X122620361Y-57984357D01*
X122687801Y-58012291D01*
X122755246Y-58040228D01*
X122827623Y-58049756D01*
X122899999Y-58059285D01*
X122900000Y-58059285D01*
X122900001Y-58059285D01*
X122948251Y-58052932D01*
X123044754Y-58040228D01*
X123179643Y-57984355D01*
X123295474Y-57895474D01*
X123384355Y-57779643D01*
X123440228Y-57644754D01*
X123459285Y-57500000D01*
X123440228Y-57355246D01*
X123384355Y-57220358D01*
X123295474Y-57104526D01*
X123179643Y-57015645D01*
X123179640Y-57015644D01*
X123179638Y-57015642D01*
X123044757Y-56959773D01*
X123044752Y-56959771D01*
X122900001Y-56940715D01*
X122899999Y-56940715D01*
X122755247Y-56959771D01*
X122755245Y-56959772D01*
X122620361Y-57015643D01*
X122504526Y-57104526D01*
X122415643Y-57220361D01*
X122359772Y-57355245D01*
X122359771Y-57355247D01*
X122340715Y-57499998D01*
X113259500Y-57499998D01*
X113259500Y-56831667D01*
X113259275Y-56820863D01*
X113258845Y-56810544D01*
X113241610Y-56727770D01*
X113216415Y-56662603D01*
X113215880Y-56661650D01*
X113215772Y-56661238D01*
X113214526Y-56658593D01*
X113215019Y-56658360D01*
X113200000Y-56600937D01*
X113200000Y-56197596D01*
X113212303Y-56143747D01*
X113229300Y-56108489D01*
X113229301Y-56108488D01*
X113229301Y-56108485D01*
X113229303Y-56108483D01*
X113248988Y-56041444D01*
X113259500Y-55968332D01*
X113259500Y-55399998D01*
X119940715Y-55399998D01*
X119940715Y-55400001D01*
X119959771Y-55544752D01*
X119959773Y-55544757D01*
X120015642Y-55679638D01*
X120015645Y-55679644D01*
X120104525Y-55795473D01*
X120104526Y-55795474D01*
X120220355Y-55884354D01*
X120220361Y-55884357D01*
X120287801Y-55912291D01*
X120355246Y-55940228D01*
X120427623Y-55949756D01*
X120499999Y-55959285D01*
X120500000Y-55959285D01*
X120500001Y-55959285D01*
X120548251Y-55952932D01*
X120644754Y-55940228D01*
X120779643Y-55884355D01*
X120895474Y-55795474D01*
X120968736Y-55699998D01*
X123940715Y-55699998D01*
X123940715Y-55700001D01*
X123959771Y-55844752D01*
X123959773Y-55844757D01*
X124015642Y-55979638D01*
X124015645Y-55979644D01*
X124104525Y-56095473D01*
X124104526Y-56095474D01*
X124220355Y-56184354D01*
X124220361Y-56184357D01*
X124287801Y-56212291D01*
X124355246Y-56240228D01*
X124427623Y-56249756D01*
X124499999Y-56259285D01*
X124500000Y-56259285D01*
X124500001Y-56259285D01*
X124561192Y-56251229D01*
X124644754Y-56240228D01*
X124779643Y-56184355D01*
X124895474Y-56095474D01*
X124984355Y-55979643D01*
X125040228Y-55844754D01*
X125059285Y-55700000D01*
X125056604Y-55679638D01*
X125040228Y-55555247D01*
X125040228Y-55555246D01*
X124984355Y-55420358D01*
X124895474Y-55304526D01*
X124779643Y-55215645D01*
X124779640Y-55215644D01*
X124779638Y-55215642D01*
X124644757Y-55159773D01*
X124644752Y-55159771D01*
X124500001Y-55140715D01*
X124499999Y-55140715D01*
X124355247Y-55159771D01*
X124355245Y-55159772D01*
X124220361Y-55215643D01*
X124220358Y-55215644D01*
X124220358Y-55215645D01*
X124104526Y-55304526D01*
X124031266Y-55400001D01*
X124015643Y-55420361D01*
X123959772Y-55555245D01*
X123959771Y-55555247D01*
X123940715Y-55699998D01*
X120968736Y-55699998D01*
X120984355Y-55679643D01*
X121040228Y-55544754D01*
X121052932Y-55448251D01*
X121059285Y-55400001D01*
X121059285Y-55399998D01*
X121040228Y-55255247D01*
X121040228Y-55255246D01*
X120984355Y-55120358D01*
X120895474Y-55004526D01*
X120779643Y-54915645D01*
X120779640Y-54915644D01*
X120779638Y-54915642D01*
X120644757Y-54859773D01*
X120644752Y-54859771D01*
X120500001Y-54840715D01*
X120499999Y-54840715D01*
X120355247Y-54859771D01*
X120355245Y-54859772D01*
X120220361Y-54915643D01*
X120104526Y-55004526D01*
X120015643Y-55120361D01*
X119959772Y-55255245D01*
X119959771Y-55255247D01*
X119940715Y-55399998D01*
X113259500Y-55399998D01*
X113259500Y-54335638D01*
X113279185Y-54268599D01*
X113331989Y-54222844D01*
X113401147Y-54212900D01*
X113458983Y-54237261D01*
X113520357Y-54284355D01*
X113520360Y-54284356D01*
X113520361Y-54284357D01*
X113587801Y-54312291D01*
X113655246Y-54340228D01*
X113727623Y-54349756D01*
X113799999Y-54359285D01*
X113800000Y-54359285D01*
X113800001Y-54359285D01*
X113848251Y-54352932D01*
X113944754Y-54340228D01*
X114079643Y-54284355D01*
X114195474Y-54195474D01*
X114284355Y-54079643D01*
X114340228Y-53944754D01*
X114359285Y-53800000D01*
X114359285Y-53799998D01*
X117240715Y-53799998D01*
X117240715Y-53800001D01*
X117259771Y-53944752D01*
X117259773Y-53944757D01*
X117315642Y-54079638D01*
X117315645Y-54079644D01*
X117404525Y-54195473D01*
X117404526Y-54195474D01*
X117520355Y-54284354D01*
X117520361Y-54284357D01*
X117587801Y-54312291D01*
X117655246Y-54340228D01*
X117727623Y-54349756D01*
X117799999Y-54359285D01*
X117800000Y-54359285D01*
X117800001Y-54359285D01*
X117848251Y-54352932D01*
X117944754Y-54340228D01*
X118079643Y-54284355D01*
X118195474Y-54195474D01*
X118284355Y-54079643D01*
X118340228Y-53944754D01*
X118346120Y-53899998D01*
X119640715Y-53899998D01*
X119640715Y-53900001D01*
X119659771Y-54044752D01*
X119659773Y-54044757D01*
X119715642Y-54179638D01*
X119715645Y-54179644D01*
X119804525Y-54295473D01*
X119804526Y-54295474D01*
X119920355Y-54384354D01*
X119920361Y-54384357D01*
X119987801Y-54412291D01*
X120055246Y-54440228D01*
X120127623Y-54449756D01*
X120199999Y-54459285D01*
X120200000Y-54459285D01*
X120200001Y-54459285D01*
X120248251Y-54452932D01*
X120344754Y-54440228D01*
X120479643Y-54384355D01*
X120595474Y-54295474D01*
X120684355Y-54179643D01*
X120740228Y-54044754D01*
X120759285Y-53900000D01*
X120759285Y-53899998D01*
X125240715Y-53899998D01*
X125240715Y-53900001D01*
X125259771Y-54044752D01*
X125259773Y-54044757D01*
X125315642Y-54179638D01*
X125315645Y-54179644D01*
X125404525Y-54295473D01*
X125404526Y-54295474D01*
X125520355Y-54384354D01*
X125520361Y-54384357D01*
X125587801Y-54412291D01*
X125655246Y-54440228D01*
X125727623Y-54449756D01*
X125799999Y-54459285D01*
X125800000Y-54459285D01*
X125800001Y-54459285D01*
X125848251Y-54452932D01*
X125944754Y-54440228D01*
X126079643Y-54384355D01*
X126195474Y-54295474D01*
X126284355Y-54179643D01*
X126340228Y-54044754D01*
X126359285Y-53900000D01*
X126340228Y-53755246D01*
X126284355Y-53620358D01*
X126195474Y-53504526D01*
X126079643Y-53415645D01*
X126079640Y-53415644D01*
X126079638Y-53415642D01*
X125944757Y-53359773D01*
X125944752Y-53359771D01*
X125800001Y-53340715D01*
X125799999Y-53340715D01*
X125655247Y-53359771D01*
X125655245Y-53359772D01*
X125520361Y-53415643D01*
X125520358Y-53415644D01*
X125520358Y-53415645D01*
X125404526Y-53504526D01*
X125319044Y-53615929D01*
X125315643Y-53620361D01*
X125259772Y-53755245D01*
X125259771Y-53755247D01*
X125240715Y-53899998D01*
X120759285Y-53899998D01*
X120740228Y-53755246D01*
X120684355Y-53620358D01*
X120595474Y-53504526D01*
X120479643Y-53415645D01*
X120479640Y-53415644D01*
X120479638Y-53415642D01*
X120344757Y-53359773D01*
X120344752Y-53359771D01*
X120200001Y-53340715D01*
X120199999Y-53340715D01*
X120055247Y-53359771D01*
X120055245Y-53359772D01*
X119920361Y-53415643D01*
X119920358Y-53415644D01*
X119920358Y-53415645D01*
X119804526Y-53504526D01*
X119719044Y-53615929D01*
X119715643Y-53620361D01*
X119659772Y-53755245D01*
X119659771Y-53755247D01*
X119640715Y-53899998D01*
X118346120Y-53899998D01*
X118359285Y-53800000D01*
X118340228Y-53655246D01*
X118284355Y-53520358D01*
X118195474Y-53404526D01*
X118079643Y-53315645D01*
X118079640Y-53315644D01*
X118079638Y-53315642D01*
X117944757Y-53259773D01*
X117944752Y-53259771D01*
X117800001Y-53240715D01*
X117799999Y-53240715D01*
X117655247Y-53259771D01*
X117655245Y-53259772D01*
X117520361Y-53315643D01*
X117520358Y-53315644D01*
X117520358Y-53315645D01*
X117404526Y-53404526D01*
X117327794Y-53504526D01*
X117315643Y-53520361D01*
X117259772Y-53655245D01*
X117259771Y-53655247D01*
X117240715Y-53799998D01*
X114359285Y-53799998D01*
X114340228Y-53655246D01*
X114284355Y-53520358D01*
X114195474Y-53404526D01*
X114079643Y-53315645D01*
X114079640Y-53315644D01*
X114079638Y-53315642D01*
X113944757Y-53259773D01*
X113944752Y-53259771D01*
X113800001Y-53240715D01*
X113799999Y-53240715D01*
X113655247Y-53259771D01*
X113655245Y-53259772D01*
X113520360Y-53315643D01*
X113520357Y-53315645D01*
X113458986Y-53362737D01*
X113393817Y-53387931D01*
X113325372Y-53373892D01*
X113275382Y-53325078D01*
X113259500Y-53264361D01*
X113259500Y-52599998D01*
X114340715Y-52599998D01*
X114340715Y-52600001D01*
X114359771Y-52744752D01*
X114359773Y-52744757D01*
X114415642Y-52879638D01*
X114415645Y-52879644D01*
X114504525Y-52995473D01*
X114504526Y-52995474D01*
X114620355Y-53084354D01*
X114620361Y-53084357D01*
X114687801Y-53112291D01*
X114755246Y-53140228D01*
X114827623Y-53149756D01*
X114899999Y-53159285D01*
X114900000Y-53159285D01*
X114900001Y-53159285D01*
X114948251Y-53152932D01*
X115044754Y-53140228D01*
X115179643Y-53084355D01*
X115190924Y-53075699D01*
X121616312Y-53075699D01*
X121616312Y-53075702D01*
X121635368Y-53220453D01*
X121635370Y-53220458D01*
X121691239Y-53355339D01*
X121691242Y-53355345D01*
X121780122Y-53471174D01*
X121780123Y-53471175D01*
X121895952Y-53560055D01*
X121895958Y-53560058D01*
X121963398Y-53587992D01*
X122030843Y-53615929D01*
X122064508Y-53620361D01*
X122175596Y-53634986D01*
X122175597Y-53634986D01*
X122175598Y-53634986D01*
X122223848Y-53628633D01*
X122320351Y-53615929D01*
X122455240Y-53560056D01*
X122571071Y-53471175D01*
X122659952Y-53355344D01*
X122715825Y-53220455D01*
X122728529Y-53123952D01*
X122734882Y-53075702D01*
X122734882Y-53075699D01*
X122734550Y-53073175D01*
X123266601Y-53073175D01*
X123266601Y-53073178D01*
X123285657Y-53217929D01*
X123285659Y-53217934D01*
X123341528Y-53352815D01*
X123341531Y-53352821D01*
X123430411Y-53468650D01*
X123430412Y-53468651D01*
X123546241Y-53557531D01*
X123546247Y-53557534D01*
X123552336Y-53560056D01*
X123681132Y-53613405D01*
X123733946Y-53620358D01*
X123825885Y-53632462D01*
X123825886Y-53632462D01*
X123825887Y-53632462D01*
X123874137Y-53626109D01*
X123970640Y-53613405D01*
X124105529Y-53557532D01*
X124221360Y-53468651D01*
X124310241Y-53352820D01*
X124366114Y-53217931D01*
X124383699Y-53084357D01*
X124385171Y-53073178D01*
X124385171Y-53073175D01*
X124369966Y-52957681D01*
X124366114Y-52928423D01*
X124311692Y-52797037D01*
X141455521Y-52797037D01*
X141455521Y-52797040D01*
X141474577Y-52941791D01*
X141474579Y-52941796D01*
X141530448Y-53076677D01*
X141530451Y-53076683D01*
X141619331Y-53192512D01*
X141619332Y-53192513D01*
X141735161Y-53281393D01*
X141735167Y-53281396D01*
X141802607Y-53309330D01*
X141870052Y-53337267D01*
X141942429Y-53346795D01*
X142014805Y-53356324D01*
X142014806Y-53356324D01*
X142014807Y-53356324D01*
X142063057Y-53349971D01*
X142159560Y-53337267D01*
X142294449Y-53281394D01*
X142410280Y-53192513D01*
X142499161Y-53076682D01*
X142555034Y-52941793D01*
X142574091Y-52797039D01*
X142573962Y-52796062D01*
X142555034Y-52652286D01*
X142555034Y-52652285D01*
X142499161Y-52517397D01*
X142410280Y-52401565D01*
X142294449Y-52312684D01*
X142294446Y-52312683D01*
X142294444Y-52312681D01*
X142159563Y-52256812D01*
X142159558Y-52256810D01*
X142014807Y-52237754D01*
X142014805Y-52237754D01*
X141870053Y-52256810D01*
X141870051Y-52256811D01*
X141735167Y-52312682D01*
X141735164Y-52312683D01*
X141735164Y-52312684D01*
X141619332Y-52401565D01*
X141531690Y-52515783D01*
X141530449Y-52517400D01*
X141474578Y-52652284D01*
X141474577Y-52652286D01*
X141455521Y-52797037D01*
X124311692Y-52797037D01*
X124310241Y-52793535D01*
X124221360Y-52677703D01*
X124105529Y-52588822D01*
X124105526Y-52588821D01*
X124105524Y-52588819D01*
X123970643Y-52532950D01*
X123970638Y-52532948D01*
X123825887Y-52513892D01*
X123825885Y-52513892D01*
X123681133Y-52532948D01*
X123681131Y-52532949D01*
X123546247Y-52588820D01*
X123546244Y-52588821D01*
X123546244Y-52588822D01*
X123430412Y-52677703D01*
X123413305Y-52699998D01*
X123341529Y-52793538D01*
X123285658Y-52928422D01*
X123285657Y-52928424D01*
X123266601Y-53073175D01*
X122734550Y-53073175D01*
X122722177Y-52979198D01*
X122715825Y-52930947D01*
X122659952Y-52796059D01*
X122571071Y-52680227D01*
X122455240Y-52591346D01*
X122455237Y-52591345D01*
X122455235Y-52591343D01*
X122320354Y-52535474D01*
X122320349Y-52535472D01*
X122175598Y-52516416D01*
X122175596Y-52516416D01*
X122030844Y-52535472D01*
X122030842Y-52535473D01*
X121895958Y-52591344D01*
X121895955Y-52591345D01*
X121895955Y-52591346D01*
X121780123Y-52680227D01*
X121693177Y-52793538D01*
X121691240Y-52796062D01*
X121635369Y-52930946D01*
X121635368Y-52930948D01*
X121616312Y-53075699D01*
X115190924Y-53075699D01*
X115295474Y-52995474D01*
X115384355Y-52879643D01*
X115440228Y-52744754D01*
X115459285Y-52600000D01*
X115458145Y-52591344D01*
X115440228Y-52455247D01*
X115440228Y-52455246D01*
X115384355Y-52320358D01*
X115295474Y-52204526D01*
X115179643Y-52115645D01*
X115179640Y-52115644D01*
X115179638Y-52115642D01*
X115044757Y-52059773D01*
X115044752Y-52059771D01*
X114900001Y-52040715D01*
X114899999Y-52040715D01*
X114755247Y-52059771D01*
X114755245Y-52059772D01*
X114620361Y-52115643D01*
X114620358Y-52115644D01*
X114620358Y-52115645D01*
X114504526Y-52204526D01*
X114421534Y-52312684D01*
X114415643Y-52320361D01*
X114359772Y-52455245D01*
X114359771Y-52455247D01*
X114340715Y-52599998D01*
X113259500Y-52599998D01*
X113259500Y-51426493D01*
X123265993Y-51426493D01*
X123265993Y-51426496D01*
X123285049Y-51571247D01*
X123285051Y-51571252D01*
X123340920Y-51706133D01*
X123340923Y-51706139D01*
X123429803Y-51821968D01*
X123429804Y-51821969D01*
X123545633Y-51910849D01*
X123545639Y-51910852D01*
X123613079Y-51938786D01*
X123680524Y-51966723D01*
X123752901Y-51976251D01*
X123825277Y-51985780D01*
X123825278Y-51985780D01*
X123825279Y-51985780D01*
X123891901Y-51977009D01*
X123970032Y-51966723D01*
X124104921Y-51910850D01*
X124220752Y-51821969D01*
X124309633Y-51706138D01*
X124365506Y-51571249D01*
X124384563Y-51426495D01*
X124365506Y-51281741D01*
X124309633Y-51146853D01*
X124220752Y-51031021D01*
X124104921Y-50942140D01*
X124104918Y-50942139D01*
X124104916Y-50942137D01*
X123970035Y-50886268D01*
X123970030Y-50886266D01*
X123825279Y-50867210D01*
X123825277Y-50867210D01*
X123680525Y-50886266D01*
X123680523Y-50886267D01*
X123545639Y-50942138D01*
X123545636Y-50942139D01*
X123545636Y-50942140D01*
X123429804Y-51031021D01*
X123376876Y-51099999D01*
X123340921Y-51146856D01*
X123285050Y-51281740D01*
X123285049Y-51281742D01*
X123265993Y-51426493D01*
X113259500Y-51426493D01*
X113259500Y-50799998D01*
X136740715Y-50799998D01*
X136740715Y-50800001D01*
X136759771Y-50944752D01*
X136759773Y-50944757D01*
X136815642Y-51079638D01*
X136815645Y-51079644D01*
X136904525Y-51195473D01*
X136904526Y-51195474D01*
X137020355Y-51284354D01*
X137020361Y-51284357D01*
X137061944Y-51301581D01*
X137155246Y-51340228D01*
X137227623Y-51349756D01*
X137299999Y-51359285D01*
X137300000Y-51359285D01*
X137300001Y-51359285D01*
X137348251Y-51352932D01*
X137444754Y-51340228D01*
X137579643Y-51284355D01*
X137695474Y-51195474D01*
X137784355Y-51079643D01*
X137840228Y-50944754D01*
X137859285Y-50800000D01*
X137840228Y-50655246D01*
X137784355Y-50520358D01*
X137695474Y-50404526D01*
X137579643Y-50315645D01*
X137579640Y-50315644D01*
X137579638Y-50315642D01*
X137444757Y-50259773D01*
X137444752Y-50259771D01*
X137300001Y-50240715D01*
X137299999Y-50240715D01*
X137155247Y-50259771D01*
X137155245Y-50259772D01*
X137020361Y-50315643D01*
X137020358Y-50315644D01*
X137020358Y-50315645D01*
X136904529Y-50404524D01*
X136904526Y-50404526D01*
X136815643Y-50520361D01*
X136759772Y-50655245D01*
X136759771Y-50655247D01*
X136740715Y-50799998D01*
X113259500Y-50799998D01*
X113259500Y-48283500D01*
X113279185Y-48216461D01*
X113331989Y-48170706D01*
X113383500Y-48159500D01*
X113536092Y-48159500D01*
X113536099Y-48159500D01*
X113536107Y-48159499D01*
X113536128Y-48159499D01*
X113547006Y-48158947D01*
X113562306Y-48158173D01*
X113587220Y-48155644D01*
X113682657Y-48126694D01*
X113705695Y-48114467D01*
X113763822Y-48100000D01*
X114037260Y-48100000D01*
X114094733Y-48114124D01*
X114123750Y-48129303D01*
X114123752Y-48129303D01*
X114123755Y-48129305D01*
X114170049Y-48142898D01*
X114190789Y-48148988D01*
X114190793Y-48148988D01*
X114190795Y-48148989D01*
X114202608Y-48150687D01*
X114263901Y-48159500D01*
X117316500Y-48159500D01*
X117383539Y-48179185D01*
X117429294Y-48231989D01*
X117440500Y-48283500D01*
X117440500Y-48638276D01*
X117440501Y-48638299D01*
X117447453Y-48697950D01*
X117447456Y-48697969D01*
X117452748Y-48720361D01*
X117460571Y-48753465D01*
X117460576Y-48753483D01*
X117460577Y-48753485D01*
X117469973Y-48784463D01*
X117469976Y-48784470D01*
X117481495Y-48803118D01*
X117500000Y-48868284D01*
X117500000Y-49700000D01*
X121063341Y-49700000D01*
X121120814Y-49714124D01*
X121149831Y-49729303D01*
X121149833Y-49729303D01*
X121149836Y-49729305D01*
X121194298Y-49742360D01*
X121216870Y-49748988D01*
X121216874Y-49748988D01*
X121216876Y-49748989D01*
X121228689Y-49750687D01*
X121289982Y-49759500D01*
X121289983Y-49759500D01*
X123610012Y-49759500D01*
X123610018Y-49759500D01*
X123675689Y-49751053D01*
X123736408Y-49735170D01*
X123772892Y-49722664D01*
X123774259Y-49721727D01*
X123775676Y-49721264D01*
X123780407Y-49718888D01*
X123780766Y-49719603D01*
X123840682Y-49700055D01*
X123844375Y-49700000D01*
X124363341Y-49700000D01*
X124420814Y-49714124D01*
X124449831Y-49729303D01*
X124449833Y-49729303D01*
X124449836Y-49729305D01*
X124494298Y-49742360D01*
X124516870Y-49748988D01*
X124516874Y-49748988D01*
X124516876Y-49748989D01*
X124528689Y-49750687D01*
X124589982Y-49759500D01*
X124589983Y-49759500D01*
X126210012Y-49759500D01*
X126210018Y-49759500D01*
X126275689Y-49751053D01*
X126336408Y-49735170D01*
X126372892Y-49722664D01*
X126374259Y-49721727D01*
X126375676Y-49721264D01*
X126380407Y-49718888D01*
X126380766Y-49719603D01*
X126440682Y-49700055D01*
X126444375Y-49700000D01*
X126963341Y-49700000D01*
X127020814Y-49714124D01*
X127049831Y-49729303D01*
X127049833Y-49729303D01*
X127049836Y-49729305D01*
X127094298Y-49742360D01*
X127116870Y-49748988D01*
X127116874Y-49748988D01*
X127116876Y-49748989D01*
X127128689Y-49750687D01*
X127189982Y-49759500D01*
X130696695Y-49759500D01*
X130763734Y-49779185D01*
X130809489Y-49831989D01*
X130819433Y-49901147D01*
X130811256Y-49930953D01*
X130759772Y-50055245D01*
X130759771Y-50055247D01*
X130740715Y-50199998D01*
X130740715Y-50200001D01*
X130759771Y-50344752D01*
X130759773Y-50344757D01*
X130815642Y-50479638D01*
X130815645Y-50479644D01*
X130904525Y-50595473D01*
X130904526Y-50595474D01*
X131020355Y-50684354D01*
X131020361Y-50684357D01*
X131087801Y-50712291D01*
X131155246Y-50740228D01*
X131227623Y-50749756D01*
X131299999Y-50759285D01*
X131300000Y-50759285D01*
X131300001Y-50759285D01*
X131348251Y-50752932D01*
X131444754Y-50740228D01*
X131579643Y-50684355D01*
X131695474Y-50595474D01*
X131784355Y-50479643D01*
X131840228Y-50344754D01*
X131859285Y-50200000D01*
X131840228Y-50055246D01*
X131788744Y-49930953D01*
X131781275Y-49861483D01*
X131812550Y-49799004D01*
X131872639Y-49763352D01*
X131903305Y-49759500D01*
X132175991Y-49759500D01*
X132176000Y-49759500D01*
X132231163Y-49753569D01*
X132282674Y-49742363D01*
X132309461Y-49735014D01*
X132342422Y-49716245D01*
X132403781Y-49700000D01*
X132500000Y-49700000D01*
X132500000Y-49666716D01*
X132519685Y-49599677D01*
X132572489Y-49553922D01*
X132641647Y-49543978D01*
X132699484Y-49568339D01*
X132720357Y-49584355D01*
X132720360Y-49584356D01*
X132720361Y-49584357D01*
X132751966Y-49597448D01*
X132855246Y-49640228D01*
X132927623Y-49649756D01*
X132999999Y-49659285D01*
X133000000Y-49659285D01*
X133000001Y-49659285D01*
X133068613Y-49650252D01*
X133144754Y-49640228D01*
X133279643Y-49584355D01*
X133395474Y-49495474D01*
X133484355Y-49379643D01*
X133540228Y-49244754D01*
X133559285Y-49100000D01*
X133559285Y-49099998D01*
X138340715Y-49099998D01*
X138340715Y-49100001D01*
X138359771Y-49244752D01*
X138359773Y-49244757D01*
X138415642Y-49379638D01*
X138415645Y-49379644D01*
X138504525Y-49495473D01*
X138504526Y-49495474D01*
X138620355Y-49584354D01*
X138620361Y-49584357D01*
X138651966Y-49597448D01*
X138755246Y-49640228D01*
X138827623Y-49649756D01*
X138899999Y-49659285D01*
X138900000Y-49659285D01*
X138900001Y-49659285D01*
X138968613Y-49650252D01*
X139044754Y-49640228D01*
X139179643Y-49584355D01*
X139295474Y-49495474D01*
X139384355Y-49379643D01*
X139440228Y-49244754D01*
X139459285Y-49100000D01*
X139446120Y-48999998D01*
X140740715Y-48999998D01*
X140740715Y-49000001D01*
X140759771Y-49144752D01*
X140759773Y-49144757D01*
X140815642Y-49279638D01*
X140815645Y-49279644D01*
X140904525Y-49395473D01*
X140904526Y-49395474D01*
X141020355Y-49484354D01*
X141020361Y-49484357D01*
X141080968Y-49509461D01*
X141155246Y-49540228D01*
X141189306Y-49544712D01*
X141299999Y-49559285D01*
X141300000Y-49559285D01*
X141410692Y-49544712D01*
X141479727Y-49555477D01*
X141525252Y-49592164D01*
X141604525Y-49695473D01*
X141604526Y-49695474D01*
X141720355Y-49784354D01*
X141720361Y-49784357D01*
X141769054Y-49804526D01*
X141855246Y-49840228D01*
X141927623Y-49849756D01*
X141999999Y-49859285D01*
X142000000Y-49859285D01*
X142000001Y-49859285D01*
X142048251Y-49852932D01*
X142144754Y-49840228D01*
X142279643Y-49784355D01*
X142395474Y-49695474D01*
X142484355Y-49579643D01*
X142540228Y-49444754D01*
X142559285Y-49300000D01*
X142556604Y-49279638D01*
X142540228Y-49155247D01*
X142540228Y-49155246D01*
X142484355Y-49020358D01*
X142395474Y-48904526D01*
X142279643Y-48815645D01*
X142279640Y-48815644D01*
X142279638Y-48815642D01*
X142144757Y-48759773D01*
X142144752Y-48759771D01*
X142000001Y-48740715D01*
X141999999Y-48740715D01*
X141889306Y-48755288D01*
X141820271Y-48744522D01*
X141774747Y-48707836D01*
X141695474Y-48604526D01*
X141579643Y-48515645D01*
X141579640Y-48515644D01*
X141579638Y-48515642D01*
X141444757Y-48459773D01*
X141444752Y-48459771D01*
X141300001Y-48440715D01*
X141299999Y-48440715D01*
X141155247Y-48459771D01*
X141155245Y-48459772D01*
X141020361Y-48515643D01*
X141020358Y-48515644D01*
X141020358Y-48515645D01*
X140904526Y-48604526D01*
X140825255Y-48707835D01*
X140815643Y-48720361D01*
X140759772Y-48855245D01*
X140759771Y-48855247D01*
X140740715Y-48999998D01*
X139446120Y-48999998D01*
X139440228Y-48955246D01*
X139384355Y-48820358D01*
X139295474Y-48704526D01*
X139179643Y-48615645D01*
X139179640Y-48615644D01*
X139179638Y-48615642D01*
X139044757Y-48559773D01*
X139044752Y-48559771D01*
X138900001Y-48540715D01*
X138899999Y-48540715D01*
X138755247Y-48559771D01*
X138755245Y-48559772D01*
X138620361Y-48615643D01*
X138620358Y-48615644D01*
X138620358Y-48615645D01*
X138504526Y-48704526D01*
X138419262Y-48815645D01*
X138415643Y-48820361D01*
X138359772Y-48955245D01*
X138359771Y-48955247D01*
X138340715Y-49099998D01*
X133559285Y-49099998D01*
X133540228Y-48955246D01*
X133484355Y-48820358D01*
X133484354Y-48820356D01*
X133449924Y-48775487D01*
X133424729Y-48710318D01*
X133438767Y-48641873D01*
X133449916Y-48624524D01*
X133484355Y-48579643D01*
X133540228Y-48444754D01*
X133559285Y-48300000D01*
X133540228Y-48155246D01*
X133484355Y-48020358D01*
X133484354Y-48020356D01*
X133449924Y-47975487D01*
X133424729Y-47910318D01*
X133438767Y-47841873D01*
X133449916Y-47824524D01*
X133484355Y-47779643D01*
X133540228Y-47644754D01*
X133559285Y-47500000D01*
X133540228Y-47355246D01*
X133517343Y-47299998D01*
X137140715Y-47299998D01*
X137140715Y-47300001D01*
X137159771Y-47444752D01*
X137159773Y-47444757D01*
X137215642Y-47579638D01*
X137215645Y-47579644D01*
X137304525Y-47695473D01*
X137304526Y-47695474D01*
X137420355Y-47784354D01*
X137420361Y-47784357D01*
X137487801Y-47812291D01*
X137555246Y-47840228D01*
X137627623Y-47849756D01*
X137699999Y-47859285D01*
X137700000Y-47859285D01*
X137700001Y-47859285D01*
X137748251Y-47852932D01*
X137844754Y-47840228D01*
X137979643Y-47784355D01*
X138095474Y-47695474D01*
X138184355Y-47579643D01*
X138240228Y-47444754D01*
X138259285Y-47300000D01*
X138240228Y-47155246D01*
X138184355Y-47020358D01*
X138095474Y-46904526D01*
X137979643Y-46815645D01*
X137979640Y-46815644D01*
X137979638Y-46815642D01*
X137844757Y-46759773D01*
X137844752Y-46759771D01*
X137700001Y-46740715D01*
X137699999Y-46740715D01*
X137555247Y-46759771D01*
X137555245Y-46759772D01*
X137420361Y-46815643D01*
X137420358Y-46815644D01*
X137420358Y-46815645D01*
X137304526Y-46904526D01*
X137219262Y-47015645D01*
X137215643Y-47020361D01*
X137159772Y-47155245D01*
X137159771Y-47155247D01*
X137140715Y-47299998D01*
X133517343Y-47299998D01*
X133484355Y-47220358D01*
X133395474Y-47104526D01*
X133279643Y-47015645D01*
X133279640Y-47015644D01*
X133279638Y-47015642D01*
X133144757Y-46959773D01*
X133144752Y-46959771D01*
X133000001Y-46940715D01*
X132999999Y-46940715D01*
X132855247Y-46959771D01*
X132855245Y-46959772D01*
X132730953Y-47011256D01*
X132661483Y-47018725D01*
X132599004Y-46987450D01*
X132563352Y-46927361D01*
X132559500Y-46896695D01*
X132559500Y-46524000D01*
X132579185Y-46456961D01*
X132631989Y-46411206D01*
X132683500Y-46400000D01*
X133193440Y-46400000D01*
X133250913Y-46414124D01*
G37*
G04 #@! TD.AperFunction*
G04 #@! TA.AperFunction,Conductor*
G36*
X140178463Y-30095185D02*
G01*
X140224218Y-30147989D01*
X140234162Y-30217147D01*
X140205137Y-30280703D01*
X140163490Y-30312039D01*
X139879514Y-30443420D01*
X139879501Y-30443427D01*
X139612399Y-30604137D01*
X139558532Y-30636549D01*
X139466100Y-30706813D01*
X139260328Y-30863236D01*
X139260319Y-30863244D01*
X138988364Y-31120853D01*
X138745856Y-31406355D01*
X138535647Y-31716388D01*
X138360173Y-32047369D01*
X138360171Y-32047372D01*
X138221522Y-32395356D01*
X138221521Y-32395358D01*
X138121311Y-32756285D01*
X138121306Y-32756306D01*
X138060707Y-33125939D01*
X138060706Y-33125956D01*
X138045603Y-33404524D01*
X138040426Y-33500000D01*
X138058872Y-33840228D01*
X138060706Y-33874043D01*
X138060707Y-33874060D01*
X138121306Y-34243693D01*
X138121311Y-34243714D01*
X138221521Y-34604641D01*
X138221522Y-34604643D01*
X138360171Y-34952627D01*
X138360173Y-34952630D01*
X138360176Y-34952637D01*
X138535639Y-35283597D01*
X138535641Y-35283600D01*
X138535647Y-35283611D01*
X138745856Y-35593644D01*
X138883122Y-35755245D01*
X138988365Y-35879147D01*
X139260319Y-36136756D01*
X139558532Y-36363451D01*
X139879506Y-36556575D01*
X139879510Y-36556576D01*
X139879514Y-36556579D01*
X140219469Y-36713859D01*
X140219480Y-36713864D01*
X140574466Y-36833473D01*
X140940303Y-36913999D01*
X141312702Y-36954500D01*
X141312708Y-36954500D01*
X141687292Y-36954500D01*
X141687298Y-36954500D01*
X142059697Y-36913999D01*
X142425534Y-36833473D01*
X142780520Y-36713864D01*
X143120494Y-36556575D01*
X143441468Y-36363451D01*
X143739681Y-36136756D01*
X144011635Y-35879147D01*
X144254143Y-35593645D01*
X144407575Y-35367350D01*
X144464352Y-35283611D01*
X144464353Y-35283607D01*
X144464361Y-35283597D01*
X144639824Y-34952637D01*
X144685307Y-34838484D01*
X144728407Y-34783492D01*
X144794396Y-34760531D01*
X144862323Y-34776892D01*
X144910622Y-34827380D01*
X144924500Y-34884381D01*
X144924500Y-46076000D01*
X144904815Y-46143039D01*
X144852011Y-46188794D01*
X144800500Y-46200000D01*
X133420081Y-46200000D01*
X133353042Y-46180315D01*
X133307287Y-46127511D01*
X133297343Y-46058353D01*
X133305520Y-46028548D01*
X133322220Y-45988228D01*
X133340228Y-45944754D01*
X133352932Y-45848251D01*
X133359285Y-45800001D01*
X133359285Y-45799998D01*
X133340228Y-45655247D01*
X133340228Y-45655246D01*
X133284355Y-45520358D01*
X133195474Y-45404526D01*
X133079643Y-45315645D01*
X133079640Y-45315644D01*
X133079638Y-45315642D01*
X132944757Y-45259773D01*
X132944752Y-45259771D01*
X132800001Y-45240715D01*
X132799999Y-45240715D01*
X132655247Y-45259771D01*
X132655245Y-45259772D01*
X132520361Y-45315643D01*
X132520358Y-45315644D01*
X132520358Y-45315645D01*
X132404526Y-45404526D01*
X132316258Y-45519560D01*
X132315643Y-45520361D01*
X132259772Y-45655245D01*
X132259771Y-45655247D01*
X132240715Y-45799998D01*
X132240715Y-45800001D01*
X132259771Y-45944752D01*
X132259773Y-45944757D01*
X132314607Y-46077139D01*
X132322076Y-46146608D01*
X132300000Y-46190709D01*
X132300000Y-49376000D01*
X132280315Y-49443039D01*
X132227511Y-49488794D01*
X132176000Y-49500000D01*
X127189982Y-49500000D01*
X127122943Y-49480315D01*
X127077188Y-49427511D01*
X127067244Y-49358353D01*
X127091607Y-49300513D01*
X127107622Y-49279643D01*
X127184355Y-49179643D01*
X127240228Y-49044754D01*
X127259285Y-48900000D01*
X127240228Y-48755246D01*
X127184355Y-48620358D01*
X127095474Y-48504526D01*
X126979643Y-48415645D01*
X126979640Y-48415644D01*
X126979638Y-48415642D01*
X126844757Y-48359773D01*
X126844752Y-48359771D01*
X126700001Y-48340715D01*
X126699999Y-48340715D01*
X126555247Y-48359771D01*
X126555245Y-48359772D01*
X126420361Y-48415643D01*
X126420358Y-48415644D01*
X126420358Y-48415645D01*
X126304526Y-48504526D01*
X126219262Y-48615645D01*
X126215643Y-48620361D01*
X126159772Y-48755245D01*
X126159771Y-48755247D01*
X126140715Y-48899998D01*
X126140715Y-48900001D01*
X126159771Y-49044752D01*
X126159773Y-49044757D01*
X126215642Y-49179638D01*
X126215645Y-49179644D01*
X126265607Y-49244754D01*
X126292378Y-49279643D01*
X126308393Y-49300513D01*
X126333588Y-49365682D01*
X126319550Y-49434127D01*
X126270737Y-49484117D01*
X126210018Y-49500000D01*
X124589982Y-49500000D01*
X124522943Y-49480315D01*
X124477188Y-49427511D01*
X124467244Y-49358353D01*
X124491607Y-49300513D01*
X124507622Y-49279643D01*
X124584355Y-49179643D01*
X124640228Y-49044754D01*
X124659285Y-48900000D01*
X124640228Y-48755246D01*
X124584355Y-48620358D01*
X124495474Y-48504526D01*
X124379643Y-48415645D01*
X124379640Y-48415644D01*
X124379638Y-48415642D01*
X124244757Y-48359773D01*
X124244752Y-48359771D01*
X124100001Y-48340715D01*
X124099999Y-48340715D01*
X123955247Y-48359771D01*
X123955245Y-48359772D01*
X123820361Y-48415643D01*
X123820358Y-48415644D01*
X123820358Y-48415645D01*
X123704526Y-48504526D01*
X123619262Y-48615645D01*
X123615643Y-48620361D01*
X123559772Y-48755245D01*
X123559771Y-48755247D01*
X123540715Y-48899998D01*
X123540715Y-48900001D01*
X123559771Y-49044752D01*
X123559773Y-49044757D01*
X123615642Y-49179638D01*
X123615645Y-49179644D01*
X123665607Y-49244754D01*
X123692378Y-49279643D01*
X123708393Y-49300513D01*
X123733588Y-49365682D01*
X123719550Y-49434127D01*
X123670737Y-49484117D01*
X123610018Y-49500000D01*
X121289982Y-49500000D01*
X121222943Y-49480315D01*
X121177188Y-49427511D01*
X121167244Y-49358353D01*
X121191607Y-49300513D01*
X121207622Y-49279643D01*
X121284355Y-49179643D01*
X121340228Y-49044754D01*
X121359285Y-48900000D01*
X121340228Y-48755246D01*
X121284355Y-48620358D01*
X121195474Y-48504526D01*
X121079643Y-48415645D01*
X121079640Y-48415644D01*
X121079638Y-48415642D01*
X120944757Y-48359773D01*
X120944752Y-48359771D01*
X120800001Y-48340715D01*
X120799999Y-48340715D01*
X120655247Y-48359771D01*
X120655245Y-48359772D01*
X120520360Y-48415643D01*
X120520357Y-48415645D01*
X120475486Y-48450076D01*
X120410317Y-48475270D01*
X120341872Y-48461231D01*
X120324519Y-48450079D01*
X120279643Y-48415645D01*
X120279640Y-48415644D01*
X120279638Y-48415642D01*
X120144757Y-48359773D01*
X120144752Y-48359771D01*
X120000001Y-48340715D01*
X119999999Y-48340715D01*
X119855247Y-48359771D01*
X119855245Y-48359772D01*
X119720360Y-48415643D01*
X119720357Y-48415645D01*
X119675486Y-48450076D01*
X119610317Y-48475270D01*
X119541872Y-48461231D01*
X119524519Y-48450079D01*
X119479643Y-48415645D01*
X119479640Y-48415644D01*
X119479638Y-48415642D01*
X119344757Y-48359773D01*
X119344752Y-48359771D01*
X119200001Y-48340715D01*
X119199999Y-48340715D01*
X119055247Y-48359771D01*
X119055245Y-48359772D01*
X118920359Y-48415644D01*
X118900481Y-48430896D01*
X118835311Y-48456087D01*
X118766866Y-48442046D01*
X118749512Y-48430893D01*
X118729640Y-48415645D01*
X118729635Y-48415642D01*
X118594754Y-48359773D01*
X118594749Y-48359771D01*
X118449998Y-48340715D01*
X118449996Y-48340715D01*
X118305244Y-48359771D01*
X118305242Y-48359772D01*
X118170358Y-48415643D01*
X118170355Y-48415644D01*
X118170355Y-48415645D01*
X118054523Y-48504526D01*
X117969259Y-48615645D01*
X117965640Y-48620361D01*
X117938561Y-48685736D01*
X117894720Y-48740139D01*
X117828426Y-48762204D01*
X117760726Y-48744925D01*
X117713116Y-48693787D01*
X117700000Y-48638283D01*
X117700000Y-47900000D01*
X114263901Y-47900000D01*
X114196862Y-47880315D01*
X114151107Y-47827511D01*
X114141163Y-47758353D01*
X114170188Y-47694797D01*
X114188414Y-47677625D01*
X114217157Y-47655569D01*
X114295474Y-47595474D01*
X114384355Y-47479643D01*
X114440228Y-47344754D01*
X114459285Y-47200000D01*
X114447556Y-47110912D01*
X114440760Y-47059285D01*
X114440228Y-47055246D01*
X114384355Y-46920358D01*
X114295474Y-46804526D01*
X114179643Y-46715645D01*
X114179640Y-46715644D01*
X114179638Y-46715642D01*
X114044757Y-46659773D01*
X114044752Y-46659771D01*
X113900001Y-46640715D01*
X113899999Y-46640715D01*
X113755247Y-46659771D01*
X113755245Y-46659772D01*
X113620361Y-46715643D01*
X113620358Y-46715644D01*
X113620358Y-46715645D01*
X113504526Y-46804526D01*
X113419262Y-46915645D01*
X113415643Y-46920361D01*
X113359772Y-47055245D01*
X113359771Y-47055247D01*
X113340715Y-47199998D01*
X113340715Y-47200001D01*
X113359771Y-47344752D01*
X113359773Y-47344757D01*
X113415642Y-47479638D01*
X113415645Y-47479644D01*
X113504525Y-47595473D01*
X113504526Y-47595474D01*
X113611586Y-47677625D01*
X113652788Y-47734053D01*
X113656943Y-47803799D01*
X113622730Y-47864719D01*
X113561013Y-47897471D01*
X113536099Y-47900000D01*
X113000000Y-47900000D01*
X113000000Y-55968332D01*
X112980315Y-56035371D01*
X112974376Y-56043818D01*
X112915643Y-56120360D01*
X112859772Y-56255245D01*
X112859771Y-56255247D01*
X112840715Y-56399998D01*
X112840715Y-56400001D01*
X112859771Y-56544752D01*
X112859773Y-56544757D01*
X112915642Y-56679638D01*
X112915645Y-56679644D01*
X112948596Y-56722585D01*
X112974375Y-56756181D01*
X112999570Y-56821348D01*
X113000000Y-56831667D01*
X113000000Y-61397481D01*
X112980315Y-61464520D01*
X112927511Y-61510275D01*
X112858353Y-61520219D01*
X112794797Y-61491194D01*
X112788319Y-61485162D01*
X112746545Y-61443388D01*
X112746541Y-61443385D01*
X112631817Y-61366728D01*
X112631804Y-61366721D01*
X112504332Y-61313921D01*
X112504322Y-61313918D01*
X112368995Y-61287000D01*
X112368993Y-61287000D01*
X112231007Y-61287000D01*
X112231005Y-61287000D01*
X112095677Y-61313918D01*
X112095667Y-61313921D01*
X111968195Y-61366721D01*
X111968182Y-61366728D01*
X111853458Y-61443385D01*
X111853454Y-61443388D01*
X111755888Y-61540954D01*
X111755885Y-61540958D01*
X111679228Y-61655682D01*
X111679221Y-61655695D01*
X111626421Y-61783167D01*
X111626418Y-61783177D01*
X111599500Y-61918504D01*
X111599500Y-61918507D01*
X111599500Y-62056493D01*
X111599500Y-62056495D01*
X111599499Y-62056495D01*
X111626418Y-62191822D01*
X111626421Y-62191832D01*
X111679221Y-62319304D01*
X111679228Y-62319317D01*
X111755885Y-62434041D01*
X111755888Y-62434045D01*
X111853454Y-62531611D01*
X111853458Y-62531614D01*
X111968182Y-62608271D01*
X111968195Y-62608278D01*
X112095667Y-62661078D01*
X112095672Y-62661080D01*
X112095676Y-62661080D01*
X112095677Y-62661081D01*
X112231004Y-62688000D01*
X112231007Y-62688000D01*
X112368995Y-62688000D01*
X112460041Y-62669889D01*
X112504328Y-62661080D01*
X112631811Y-62608275D01*
X112746542Y-62531614D01*
X112746545Y-62531611D01*
X112788319Y-62489838D01*
X112849642Y-62456353D01*
X112919334Y-62461337D01*
X112975267Y-62503209D01*
X112999684Y-62568673D01*
X113000000Y-62577519D01*
X113000000Y-64800500D01*
X112980315Y-64867539D01*
X112927511Y-64913294D01*
X112876000Y-64924500D01*
X104888576Y-64924500D01*
X104821537Y-64904815D01*
X104775782Y-64852011D01*
X104765838Y-64782853D01*
X104794863Y-64719297D01*
X104836510Y-64687961D01*
X105071096Y-64579428D01*
X105120494Y-64556575D01*
X105441468Y-64363451D01*
X105739681Y-64136756D01*
X106011635Y-63879147D01*
X106254143Y-63593645D01*
X106464361Y-63283597D01*
X106639824Y-62952637D01*
X106778476Y-62604647D01*
X106779767Y-62600000D01*
X106819957Y-62455246D01*
X106878691Y-62243706D01*
X106909383Y-62056495D01*
X108599499Y-62056495D01*
X108626418Y-62191822D01*
X108626421Y-62191832D01*
X108679221Y-62319304D01*
X108679228Y-62319317D01*
X108755885Y-62434041D01*
X108755888Y-62434045D01*
X108853454Y-62531611D01*
X108853458Y-62531614D01*
X108968182Y-62608271D01*
X108968195Y-62608278D01*
X109095667Y-62661078D01*
X109095672Y-62661080D01*
X109095676Y-62661080D01*
X109095677Y-62661081D01*
X109231004Y-62688000D01*
X109231007Y-62688000D01*
X109368995Y-62688000D01*
X109460041Y-62669889D01*
X109504328Y-62661080D01*
X109631811Y-62608275D01*
X109746542Y-62531614D01*
X109844114Y-62434042D01*
X109920775Y-62319311D01*
X109973580Y-62191828D01*
X110000500Y-62056493D01*
X110000500Y-61918507D01*
X110000500Y-61918504D01*
X109973581Y-61783177D01*
X109973580Y-61783176D01*
X109973580Y-61783172D01*
X109973578Y-61783167D01*
X109920778Y-61655695D01*
X109920771Y-61655682D01*
X109844114Y-61540958D01*
X109844111Y-61540954D01*
X109746545Y-61443388D01*
X109746541Y-61443385D01*
X109631817Y-61366728D01*
X109631804Y-61366721D01*
X109504332Y-61313921D01*
X109504322Y-61313918D01*
X109368995Y-61287000D01*
X109368993Y-61287000D01*
X109231007Y-61287000D01*
X109231005Y-61287000D01*
X109095677Y-61313918D01*
X109095667Y-61313921D01*
X108968195Y-61366721D01*
X108968182Y-61366728D01*
X108853458Y-61443385D01*
X108853454Y-61443388D01*
X108755888Y-61540954D01*
X108755885Y-61540958D01*
X108679228Y-61655682D01*
X108679221Y-61655695D01*
X108626421Y-61783167D01*
X108626418Y-61783177D01*
X108599500Y-61918504D01*
X108599500Y-61918507D01*
X108599500Y-62056493D01*
X108599500Y-62056495D01*
X108599499Y-62056495D01*
X106909383Y-62056495D01*
X106932005Y-61918507D01*
X106939292Y-61874060D01*
X106939292Y-61874057D01*
X106939294Y-61874046D01*
X106959574Y-61500000D01*
X106939294Y-61125954D01*
X106878691Y-60756294D01*
X106818836Y-60540715D01*
X106778478Y-60395358D01*
X106778477Y-60395356D01*
X106639828Y-60047372D01*
X106639826Y-60047369D01*
X106639824Y-60047363D01*
X106464361Y-59716403D01*
X106464356Y-59716395D01*
X106464352Y-59716388D01*
X106254143Y-59406355D01*
X106011635Y-59120853D01*
X105739681Y-58863244D01*
X105739674Y-58863238D01*
X105739671Y-58863236D01*
X105635904Y-58784355D01*
X105441468Y-58636549D01*
X105122703Y-58444754D01*
X105120498Y-58443427D01*
X105120485Y-58443420D01*
X104780530Y-58286140D01*
X104780525Y-58286138D01*
X104780520Y-58286136D01*
X104607485Y-58227833D01*
X104425533Y-58166526D01*
X104059696Y-58086000D01*
X103687299Y-58045500D01*
X103687298Y-58045500D01*
X103312702Y-58045500D01*
X103312700Y-58045500D01*
X102940303Y-58086000D01*
X102574466Y-58166526D01*
X102342297Y-58244754D01*
X102219480Y-58286136D01*
X102219477Y-58286137D01*
X102219469Y-58286140D01*
X101879514Y-58443420D01*
X101879501Y-58443427D01*
X101653110Y-58579643D01*
X101558532Y-58636549D01*
X101481017Y-58695474D01*
X101260328Y-58863236D01*
X101260319Y-58863244D01*
X100988364Y-59120853D01*
X100745856Y-59406355D01*
X100535647Y-59716388D01*
X100360173Y-60047369D01*
X100360171Y-60047373D01*
X100314693Y-60161515D01*
X100271593Y-60216507D01*
X100205603Y-60239468D01*
X100137676Y-60223107D01*
X100089378Y-60172619D01*
X100075500Y-60115618D01*
X100075500Y-53799998D01*
X109740715Y-53799998D01*
X109740715Y-53800001D01*
X109759771Y-53944752D01*
X109759773Y-53944757D01*
X109815642Y-54079638D01*
X109815645Y-54079644D01*
X109904525Y-54195473D01*
X109904526Y-54195474D01*
X110020355Y-54284354D01*
X110020361Y-54284357D01*
X110058127Y-54300000D01*
X110155246Y-54340228D01*
X110227623Y-54349756D01*
X110299999Y-54359285D01*
X110300000Y-54359285D01*
X110300001Y-54359285D01*
X110348251Y-54352932D01*
X110444754Y-54340228D01*
X110579643Y-54284355D01*
X110695474Y-54195474D01*
X110784355Y-54079643D01*
X110840228Y-53944754D01*
X110859285Y-53800000D01*
X110840228Y-53655246D01*
X110784355Y-53520358D01*
X110695474Y-53404526D01*
X110579643Y-53315645D01*
X110579640Y-53315644D01*
X110579638Y-53315642D01*
X110444757Y-53259773D01*
X110444752Y-53259771D01*
X110300001Y-53240715D01*
X110299999Y-53240715D01*
X110155247Y-53259771D01*
X110155245Y-53259772D01*
X110020361Y-53315643D01*
X110020358Y-53315644D01*
X110020358Y-53315645D01*
X109904526Y-53404526D01*
X109827794Y-53504526D01*
X109815643Y-53520361D01*
X109759772Y-53655245D01*
X109759771Y-53655247D01*
X109740715Y-53799998D01*
X100075500Y-53799998D01*
X100075500Y-51099998D01*
X104940715Y-51099998D01*
X104940715Y-51100001D01*
X104959771Y-51244752D01*
X104959773Y-51244757D01*
X105015642Y-51379638D01*
X105015642Y-51379639D01*
X105015644Y-51379642D01*
X105015645Y-51379643D01*
X105050076Y-51424514D01*
X105075270Y-51489682D01*
X105061232Y-51558127D01*
X105050076Y-51575486D01*
X105015645Y-51620357D01*
X105015643Y-51620360D01*
X104959772Y-51755245D01*
X104959771Y-51755247D01*
X104940715Y-51899998D01*
X104940715Y-51900001D01*
X104959771Y-52044752D01*
X104959773Y-52044757D01*
X105015642Y-52179638D01*
X105015642Y-52179639D01*
X105015644Y-52179642D01*
X105015645Y-52179643D01*
X105050076Y-52224514D01*
X105075270Y-52289682D01*
X105061232Y-52358127D01*
X105050076Y-52375486D01*
X105015645Y-52420357D01*
X105015643Y-52420360D01*
X104959772Y-52555245D01*
X104959771Y-52555247D01*
X104940715Y-52699998D01*
X104940715Y-52700001D01*
X104959771Y-52844752D01*
X104959773Y-52844757D01*
X105015642Y-52979638D01*
X105015645Y-52979644D01*
X105104525Y-53095473D01*
X105104526Y-53095474D01*
X105220355Y-53184354D01*
X105220361Y-53184357D01*
X105240052Y-53192513D01*
X105355246Y-53240228D01*
X105427623Y-53249756D01*
X105499999Y-53259285D01*
X105500000Y-53259285D01*
X105500001Y-53259285D01*
X105548251Y-53252932D01*
X105644754Y-53240228D01*
X105779643Y-53184355D01*
X105895474Y-53095474D01*
X105984355Y-52979643D01*
X106040228Y-52844754D01*
X106059285Y-52700000D01*
X106046120Y-52599998D01*
X111040715Y-52599998D01*
X111040715Y-52600001D01*
X111059771Y-52744752D01*
X111059773Y-52744757D01*
X111115642Y-52879638D01*
X111115645Y-52879644D01*
X111204525Y-52995473D01*
X111204526Y-52995474D01*
X111320355Y-53084354D01*
X111320361Y-53084357D01*
X111387801Y-53112291D01*
X111455246Y-53140228D01*
X111527623Y-53149756D01*
X111599999Y-53159285D01*
X111600000Y-53159285D01*
X111600001Y-53159285D01*
X111648251Y-53152932D01*
X111744754Y-53140228D01*
X111879643Y-53084355D01*
X111995474Y-52995474D01*
X112084355Y-52879643D01*
X112140228Y-52744754D01*
X112159285Y-52600000D01*
X112157813Y-52588822D01*
X112140228Y-52455247D01*
X112140228Y-52455246D01*
X112084355Y-52320358D01*
X111995474Y-52204526D01*
X111879643Y-52115645D01*
X111879640Y-52115644D01*
X111879638Y-52115642D01*
X111744757Y-52059773D01*
X111744752Y-52059771D01*
X111600001Y-52040715D01*
X111599999Y-52040715D01*
X111455247Y-52059771D01*
X111455245Y-52059772D01*
X111320361Y-52115643D01*
X111320358Y-52115644D01*
X111320358Y-52115645D01*
X111204526Y-52204526D01*
X111121534Y-52312684D01*
X111115643Y-52320361D01*
X111059772Y-52455245D01*
X111059771Y-52455247D01*
X111040715Y-52599998D01*
X106046120Y-52599998D01*
X106040228Y-52555246D01*
X105984355Y-52420358D01*
X105984354Y-52420357D01*
X105984354Y-52420356D01*
X105949924Y-52375487D01*
X105924729Y-52310318D01*
X105938767Y-52241873D01*
X105949916Y-52224524D01*
X105984355Y-52179643D01*
X106040228Y-52044754D01*
X106059285Y-51900000D01*
X106040228Y-51755246D01*
X105984355Y-51620358D01*
X105984354Y-51620357D01*
X105984354Y-51620356D01*
X105949924Y-51575487D01*
X105924729Y-51510318D01*
X105938767Y-51441873D01*
X105949916Y-51424524D01*
X105984355Y-51379643D01*
X106040228Y-51244754D01*
X106059285Y-51100000D01*
X106056604Y-51079638D01*
X106040228Y-50955247D01*
X106040228Y-50955246D01*
X105984355Y-50820358D01*
X105968732Y-50799998D01*
X107140715Y-50799998D01*
X107140715Y-50800001D01*
X107159771Y-50944752D01*
X107159773Y-50944757D01*
X107215642Y-51079638D01*
X107215645Y-51079644D01*
X107304525Y-51195473D01*
X107304526Y-51195474D01*
X107420355Y-51284354D01*
X107420361Y-51284357D01*
X107487801Y-51312291D01*
X107555246Y-51340228D01*
X107627623Y-51349756D01*
X107699999Y-51359285D01*
X107700000Y-51359285D01*
X107700001Y-51359285D01*
X107748251Y-51352932D01*
X107844754Y-51340228D01*
X107979643Y-51284355D01*
X108095474Y-51195474D01*
X108184355Y-51079643D01*
X108240228Y-50944754D01*
X108252932Y-50848251D01*
X108259285Y-50800001D01*
X108259285Y-50799998D01*
X108240228Y-50655247D01*
X108240228Y-50655246D01*
X108184355Y-50520358D01*
X108095474Y-50404526D01*
X107979643Y-50315645D01*
X107979640Y-50315644D01*
X107979638Y-50315642D01*
X107844757Y-50259773D01*
X107844752Y-50259771D01*
X107700001Y-50240715D01*
X107699999Y-50240715D01*
X107555247Y-50259771D01*
X107555245Y-50259772D01*
X107420361Y-50315643D01*
X107420358Y-50315644D01*
X107420358Y-50315645D01*
X107363485Y-50359285D01*
X107304526Y-50404526D01*
X107215643Y-50520361D01*
X107159772Y-50655245D01*
X107159771Y-50655247D01*
X107140715Y-50799998D01*
X105968732Y-50799998D01*
X105895474Y-50704526D01*
X105779643Y-50615645D01*
X105779640Y-50615644D01*
X105779638Y-50615642D01*
X105644757Y-50559773D01*
X105644752Y-50559771D01*
X105500001Y-50540715D01*
X105499999Y-50540715D01*
X105355247Y-50559771D01*
X105355245Y-50559772D01*
X105220361Y-50615643D01*
X105220358Y-50615644D01*
X105220358Y-50615645D01*
X105104526Y-50704526D01*
X105031266Y-50800001D01*
X105015643Y-50820361D01*
X104959772Y-50955245D01*
X104959771Y-50955247D01*
X104940715Y-51099998D01*
X100075500Y-51099998D01*
X100075500Y-46099998D01*
X110340715Y-46099998D01*
X110340715Y-46100001D01*
X110359771Y-46244752D01*
X110359773Y-46244757D01*
X110415642Y-46379638D01*
X110415645Y-46379644D01*
X110504525Y-46495473D01*
X110504526Y-46495474D01*
X110620355Y-46584354D01*
X110620361Y-46584357D01*
X110687801Y-46612291D01*
X110755246Y-46640228D01*
X110789610Y-46644752D01*
X110899999Y-46659285D01*
X110900000Y-46659285D01*
X110900001Y-46659285D01*
X110948251Y-46652932D01*
X111044754Y-46640228D01*
X111179643Y-46584355D01*
X111289578Y-46499998D01*
X127340715Y-46499998D01*
X127340715Y-46500001D01*
X127359771Y-46644752D01*
X127359773Y-46644757D01*
X127415642Y-46779638D01*
X127415645Y-46779644D01*
X127504525Y-46895473D01*
X127504526Y-46895474D01*
X127620355Y-46984354D01*
X127620361Y-46984357D01*
X127669049Y-47004524D01*
X127755246Y-47040228D01*
X127900000Y-47059285D01*
X127941902Y-47053768D01*
X128010936Y-47064533D01*
X128063192Y-47110912D01*
X128082078Y-47178181D01*
X128072649Y-47224158D01*
X128059772Y-47255246D01*
X128059771Y-47255247D01*
X128040715Y-47399998D01*
X128040715Y-47400001D01*
X128059771Y-47544752D01*
X128059773Y-47544757D01*
X128115642Y-47679638D01*
X128115645Y-47679644D01*
X128204525Y-47795473D01*
X128204526Y-47795474D01*
X128320355Y-47884354D01*
X128320361Y-47884357D01*
X128358127Y-47900000D01*
X128455246Y-47940228D01*
X128527623Y-47949756D01*
X128599999Y-47959285D01*
X128600000Y-47959285D01*
X128600001Y-47959285D01*
X128648251Y-47952932D01*
X128744754Y-47940228D01*
X128879643Y-47884355D01*
X128995474Y-47795474D01*
X129084355Y-47679643D01*
X129140228Y-47544754D01*
X129159285Y-47400000D01*
X129140228Y-47255246D01*
X129084355Y-47120358D01*
X128995474Y-47004526D01*
X128924394Y-46949984D01*
X128883193Y-46893557D01*
X128879038Y-46823810D01*
X128913251Y-46762890D01*
X128952428Y-46737049D01*
X129079643Y-46684355D01*
X129195474Y-46595474D01*
X129284355Y-46479643D01*
X129340228Y-46344754D01*
X129359285Y-46200000D01*
X129358584Y-46194678D01*
X129340228Y-46055247D01*
X129340228Y-46055246D01*
X129284355Y-45920358D01*
X129195474Y-45804526D01*
X129079643Y-45715645D01*
X129079640Y-45715644D01*
X129079638Y-45715642D01*
X128944757Y-45659773D01*
X128944752Y-45659771D01*
X128800001Y-45640715D01*
X128799999Y-45640715D01*
X128655247Y-45659771D01*
X128655245Y-45659772D01*
X128520361Y-45715643D01*
X128404526Y-45804526D01*
X128315642Y-45920361D01*
X128315642Y-45920362D01*
X128309490Y-45935215D01*
X128265648Y-45989618D01*
X128199353Y-46011681D01*
X128147478Y-46002321D01*
X128044757Y-45959773D01*
X128044752Y-45959771D01*
X127900001Y-45940715D01*
X127899999Y-45940715D01*
X127755247Y-45959771D01*
X127755245Y-45959772D01*
X127620361Y-46015643D01*
X127620358Y-46015644D01*
X127620358Y-46015645D01*
X127504526Y-46104526D01*
X127438396Y-46190709D01*
X127415643Y-46220361D01*
X127359772Y-46355245D01*
X127359771Y-46355247D01*
X127340715Y-46499998D01*
X111289578Y-46499998D01*
X111295474Y-46495474D01*
X111384355Y-46379643D01*
X111440228Y-46244754D01*
X111459285Y-46100000D01*
X111456275Y-46077139D01*
X111440228Y-45955247D01*
X111440228Y-45955246D01*
X111423571Y-45915032D01*
X120940715Y-45915032D01*
X120940715Y-45915035D01*
X120959771Y-46059786D01*
X120959773Y-46059791D01*
X121015642Y-46194672D01*
X121015645Y-46194678D01*
X121104525Y-46310507D01*
X121104526Y-46310508D01*
X121220355Y-46399388D01*
X121220361Y-46399391D01*
X121287801Y-46427325D01*
X121355246Y-46455262D01*
X121427623Y-46464790D01*
X121499999Y-46474319D01*
X121500000Y-46474319D01*
X121500001Y-46474319D01*
X121548251Y-46467966D01*
X121644754Y-46455262D01*
X121779643Y-46399389D01*
X121895474Y-46310508D01*
X121984355Y-46194677D01*
X122040228Y-46059788D01*
X122059285Y-45915034D01*
X122040228Y-45770280D01*
X121984355Y-45635392D01*
X121895474Y-45519560D01*
X121779643Y-45430679D01*
X121779640Y-45430678D01*
X121779638Y-45430676D01*
X121644757Y-45374807D01*
X121644752Y-45374805D01*
X121500001Y-45355749D01*
X121499999Y-45355749D01*
X121355247Y-45374805D01*
X121355245Y-45374806D01*
X121220361Y-45430677D01*
X121220358Y-45430678D01*
X121220358Y-45430679D01*
X121104526Y-45519560D01*
X121030798Y-45615645D01*
X121015643Y-45635395D01*
X120959772Y-45770279D01*
X120959771Y-45770281D01*
X120940715Y-45915032D01*
X111423571Y-45915032D01*
X111384355Y-45820358D01*
X111295474Y-45704526D01*
X111179643Y-45615645D01*
X111179640Y-45615644D01*
X111179638Y-45615642D01*
X111044757Y-45559773D01*
X111044752Y-45559771D01*
X110900001Y-45540715D01*
X110899999Y-45540715D01*
X110755247Y-45559771D01*
X110755245Y-45559772D01*
X110620361Y-45615643D01*
X110620358Y-45615644D01*
X110620358Y-45615645D01*
X110504526Y-45704526D01*
X110427794Y-45804526D01*
X110415643Y-45820361D01*
X110359772Y-45955245D01*
X110359771Y-45955247D01*
X110340715Y-46099998D01*
X100075500Y-46099998D01*
X100075500Y-43699998D01*
X107140715Y-43699998D01*
X107140715Y-43700001D01*
X107159771Y-43844752D01*
X107159773Y-43844757D01*
X107215642Y-43979638D01*
X107215645Y-43979644D01*
X107304525Y-44095473D01*
X107304526Y-44095474D01*
X107420355Y-44184354D01*
X107420361Y-44184357D01*
X107487801Y-44212291D01*
X107555246Y-44240228D01*
X107627623Y-44249756D01*
X107699999Y-44259285D01*
X107700000Y-44259285D01*
X107700001Y-44259285D01*
X107748251Y-44252932D01*
X107844754Y-44240228D01*
X107979643Y-44184355D01*
X108095474Y-44095474D01*
X108184355Y-43979643D01*
X108240228Y-43844754D01*
X108252932Y-43748251D01*
X108259285Y-43700001D01*
X108259285Y-43699998D01*
X108240228Y-43555247D01*
X108240228Y-43555246D01*
X108184355Y-43420358D01*
X108095474Y-43304526D01*
X107979643Y-43215645D01*
X107979640Y-43215644D01*
X107979638Y-43215642D01*
X107844757Y-43159773D01*
X107844752Y-43159771D01*
X107700001Y-43140715D01*
X107699999Y-43140715D01*
X107555247Y-43159771D01*
X107555245Y-43159772D01*
X107420361Y-43215643D01*
X107420358Y-43215644D01*
X107420358Y-43215645D01*
X107304526Y-43304526D01*
X107266237Y-43354426D01*
X107215643Y-43420361D01*
X107159772Y-43555245D01*
X107159771Y-43555247D01*
X107140715Y-43699998D01*
X100075500Y-43699998D01*
X100075500Y-42699998D01*
X109140715Y-42699998D01*
X109140715Y-42700001D01*
X109159771Y-42844752D01*
X109159773Y-42844757D01*
X109215642Y-42979638D01*
X109215645Y-42979644D01*
X109304525Y-43095473D01*
X109304526Y-43095474D01*
X109420355Y-43184354D01*
X109420361Y-43184357D01*
X109543684Y-43235439D01*
X109598088Y-43279280D01*
X109620153Y-43345574D01*
X109602874Y-43413273D01*
X109551737Y-43460884D01*
X109543690Y-43464558D01*
X109515060Y-43476417D01*
X109420361Y-43515643D01*
X109420358Y-43515644D01*
X109420358Y-43515645D01*
X109304526Y-43604526D01*
X109219262Y-43715645D01*
X109215643Y-43720361D01*
X109159772Y-43855245D01*
X109159771Y-43855247D01*
X109140715Y-43999998D01*
X109140715Y-44000001D01*
X109159771Y-44144752D01*
X109159773Y-44144757D01*
X109215642Y-44279638D01*
X109215645Y-44279644D01*
X109304525Y-44395473D01*
X109304526Y-44395474D01*
X109420355Y-44484354D01*
X109420361Y-44484357D01*
X109487801Y-44512291D01*
X109555246Y-44540228D01*
X109627623Y-44549756D01*
X109699999Y-44559285D01*
X109700000Y-44559285D01*
X109700001Y-44559285D01*
X109748251Y-44552932D01*
X109844754Y-44540228D01*
X109979643Y-44484355D01*
X110095474Y-44395474D01*
X110184355Y-44279643D01*
X110217345Y-44199998D01*
X115440715Y-44199998D01*
X115440715Y-44200001D01*
X115459771Y-44344752D01*
X115459773Y-44344757D01*
X115515642Y-44479638D01*
X115515645Y-44479644D01*
X115604525Y-44595473D01*
X115604526Y-44595474D01*
X115720355Y-44684354D01*
X115720361Y-44684357D01*
X115787801Y-44712291D01*
X115855246Y-44740228D01*
X115927623Y-44749756D01*
X115999999Y-44759285D01*
X116000000Y-44759285D01*
X116000001Y-44759285D01*
X116048251Y-44752932D01*
X116144754Y-44740228D01*
X116279643Y-44684355D01*
X116395474Y-44595474D01*
X116484355Y-44479643D01*
X116540228Y-44344754D01*
X116559285Y-44200000D01*
X116559285Y-44199998D01*
X124140715Y-44199998D01*
X124140715Y-44200001D01*
X124159771Y-44344752D01*
X124159773Y-44344757D01*
X124215642Y-44479638D01*
X124215645Y-44479644D01*
X124304525Y-44595473D01*
X124304526Y-44595474D01*
X124420355Y-44684354D01*
X124420361Y-44684357D01*
X124487801Y-44712291D01*
X124555246Y-44740228D01*
X124627623Y-44749756D01*
X124699999Y-44759285D01*
X124700000Y-44759285D01*
X124700001Y-44759285D01*
X124748251Y-44752932D01*
X124844754Y-44740228D01*
X124979643Y-44684355D01*
X125095474Y-44595474D01*
X125184355Y-44479643D01*
X125240228Y-44344754D01*
X125259285Y-44200000D01*
X125257225Y-44184355D01*
X125240228Y-44055247D01*
X125240228Y-44055246D01*
X125217343Y-43999998D01*
X127340715Y-43999998D01*
X127340715Y-44000001D01*
X127359771Y-44144752D01*
X127359773Y-44144757D01*
X127415642Y-44279638D01*
X127415645Y-44279644D01*
X127504525Y-44395473D01*
X127504526Y-44395474D01*
X127620355Y-44484354D01*
X127620361Y-44484357D01*
X127687801Y-44512291D01*
X127755246Y-44540228D01*
X127827623Y-44549756D01*
X127899999Y-44559285D01*
X127900000Y-44559285D01*
X127900001Y-44559285D01*
X127948251Y-44552932D01*
X128044754Y-44540228D01*
X128179643Y-44484355D01*
X128295474Y-44395474D01*
X128384355Y-44279643D01*
X128440228Y-44144754D01*
X128459285Y-44000000D01*
X128456604Y-43979638D01*
X128440228Y-43855247D01*
X128440228Y-43855246D01*
X128384355Y-43720358D01*
X128368732Y-43699998D01*
X136540715Y-43699998D01*
X136540715Y-43700001D01*
X136559771Y-43844752D01*
X136559773Y-43844757D01*
X136615642Y-43979638D01*
X136615645Y-43979644D01*
X136704525Y-44095473D01*
X136704526Y-44095474D01*
X136820355Y-44184354D01*
X136820361Y-44184357D01*
X136887801Y-44212291D01*
X136955246Y-44240228D01*
X137027623Y-44249756D01*
X137099999Y-44259285D01*
X137100000Y-44259285D01*
X137100001Y-44259285D01*
X137148251Y-44252932D01*
X137244754Y-44240228D01*
X137379643Y-44184355D01*
X137495474Y-44095474D01*
X137584355Y-43979643D01*
X137640228Y-43844754D01*
X137652932Y-43748251D01*
X137659285Y-43700001D01*
X137659285Y-43699998D01*
X137640228Y-43555247D01*
X137640228Y-43555246D01*
X137584355Y-43420358D01*
X137495474Y-43304526D01*
X137379643Y-43215645D01*
X137379640Y-43215644D01*
X137379638Y-43215642D01*
X137244757Y-43159773D01*
X137244752Y-43159771D01*
X137100001Y-43140715D01*
X137099999Y-43140715D01*
X136955247Y-43159771D01*
X136955245Y-43159772D01*
X136820361Y-43215643D01*
X136820358Y-43215644D01*
X136820358Y-43215645D01*
X136704526Y-43304526D01*
X136666237Y-43354426D01*
X136615643Y-43420361D01*
X136559772Y-43555245D01*
X136559771Y-43555247D01*
X136540715Y-43699998D01*
X128368732Y-43699998D01*
X128295474Y-43604526D01*
X128179643Y-43515645D01*
X128179640Y-43515644D01*
X128179638Y-43515642D01*
X128044757Y-43459773D01*
X128044752Y-43459771D01*
X127900001Y-43440715D01*
X127899999Y-43440715D01*
X127755247Y-43459771D01*
X127755245Y-43459772D01*
X127620361Y-43515643D01*
X127620358Y-43515644D01*
X127620358Y-43515645D01*
X127504526Y-43604526D01*
X127419262Y-43715645D01*
X127415643Y-43720361D01*
X127359772Y-43855245D01*
X127359771Y-43855247D01*
X127340715Y-43999998D01*
X125217343Y-43999998D01*
X125184355Y-43920358D01*
X125095474Y-43804526D01*
X124979643Y-43715645D01*
X124979640Y-43715644D01*
X124979638Y-43715642D01*
X124844757Y-43659773D01*
X124844752Y-43659771D01*
X124700001Y-43640715D01*
X124699999Y-43640715D01*
X124555247Y-43659771D01*
X124555245Y-43659772D01*
X124420361Y-43715643D01*
X124420358Y-43715644D01*
X124420358Y-43715645D01*
X124304526Y-43804526D01*
X124265607Y-43855247D01*
X124215643Y-43920361D01*
X124159772Y-44055245D01*
X124159771Y-44055247D01*
X124140715Y-44199998D01*
X116559285Y-44199998D01*
X116557225Y-44184355D01*
X116540228Y-44055247D01*
X116540228Y-44055246D01*
X116484355Y-43920358D01*
X116395474Y-43804526D01*
X116279643Y-43715645D01*
X116279640Y-43715644D01*
X116279638Y-43715642D01*
X116144757Y-43659773D01*
X116144752Y-43659771D01*
X116000001Y-43640715D01*
X115999999Y-43640715D01*
X115855247Y-43659771D01*
X115855245Y-43659772D01*
X115720361Y-43715643D01*
X115720358Y-43715644D01*
X115720358Y-43715645D01*
X115604526Y-43804526D01*
X115565607Y-43855247D01*
X115515643Y-43920361D01*
X115459772Y-44055245D01*
X115459771Y-44055247D01*
X115440715Y-44199998D01*
X110217345Y-44199998D01*
X110240228Y-44144754D01*
X110259285Y-44000000D01*
X110256604Y-43979638D01*
X110240228Y-43855247D01*
X110240228Y-43855246D01*
X110184355Y-43720358D01*
X110095474Y-43604526D01*
X109979643Y-43515645D01*
X109979640Y-43515644D01*
X109979638Y-43515642D01*
X109856316Y-43464561D01*
X109801912Y-43420720D01*
X109779847Y-43354426D01*
X109793739Y-43299998D01*
X111040715Y-43299998D01*
X111040715Y-43300001D01*
X111059771Y-43444752D01*
X111059773Y-43444757D01*
X111115642Y-43579638D01*
X111115645Y-43579644D01*
X111204525Y-43695473D01*
X111204526Y-43695474D01*
X111320355Y-43784354D01*
X111320361Y-43784357D01*
X111369049Y-43804524D01*
X111455246Y-43840228D01*
X111489610Y-43844752D01*
X111599999Y-43859285D01*
X111600000Y-43859285D01*
X111600001Y-43859285D01*
X111648251Y-43852932D01*
X111744754Y-43840228D01*
X111879643Y-43784355D01*
X111995474Y-43695474D01*
X112084355Y-43579643D01*
X112140228Y-43444754D01*
X112158689Y-43304526D01*
X112159285Y-43300001D01*
X112159285Y-43299998D01*
X112140228Y-43155247D01*
X112140228Y-43155246D01*
X112117343Y-43099998D01*
X132240715Y-43099998D01*
X132240715Y-43100001D01*
X132259771Y-43244752D01*
X132259773Y-43244757D01*
X132315642Y-43379638D01*
X132315645Y-43379644D01*
X132404525Y-43495473D01*
X132404526Y-43495474D01*
X132520355Y-43584354D01*
X132520361Y-43584357D01*
X132569049Y-43604524D01*
X132655246Y-43640228D01*
X132727623Y-43649756D01*
X132799999Y-43659285D01*
X132800000Y-43659285D01*
X132800001Y-43659285D01*
X132848251Y-43652932D01*
X132944754Y-43640228D01*
X133079643Y-43584355D01*
X133195474Y-43495474D01*
X133284355Y-43379643D01*
X133340228Y-43244754D01*
X133359285Y-43100000D01*
X133357225Y-43084355D01*
X133340228Y-42955247D01*
X133340228Y-42955246D01*
X133284355Y-42820358D01*
X133195474Y-42704526D01*
X133079643Y-42615645D01*
X133079640Y-42615644D01*
X133079638Y-42615642D01*
X132944757Y-42559773D01*
X132944752Y-42559771D01*
X132800001Y-42540715D01*
X132799999Y-42540715D01*
X132655247Y-42559771D01*
X132655245Y-42559772D01*
X132520361Y-42615643D01*
X132520358Y-42615644D01*
X132520358Y-42615645D01*
X132404526Y-42704526D01*
X132319262Y-42815645D01*
X132315643Y-42820361D01*
X132259772Y-42955245D01*
X132259771Y-42955247D01*
X132240715Y-43099998D01*
X112117343Y-43099998D01*
X112084355Y-43020358D01*
X111995474Y-42904526D01*
X111879643Y-42815645D01*
X111879640Y-42815644D01*
X111879638Y-42815642D01*
X111744757Y-42759773D01*
X111744752Y-42759771D01*
X111600001Y-42740715D01*
X111599999Y-42740715D01*
X111455247Y-42759771D01*
X111455245Y-42759772D01*
X111320361Y-42815643D01*
X111320358Y-42815644D01*
X111320358Y-42815645D01*
X111204526Y-42904526D01*
X111165607Y-42955247D01*
X111115643Y-43020361D01*
X111059772Y-43155245D01*
X111059771Y-43155247D01*
X111040715Y-43299998D01*
X109793739Y-43299998D01*
X109797126Y-43286727D01*
X109848263Y-43239116D01*
X109856316Y-43235439D01*
X109979638Y-43184357D01*
X109979637Y-43184357D01*
X109979643Y-43184355D01*
X110095474Y-43095474D01*
X110184355Y-42979643D01*
X110240228Y-42844754D01*
X110258689Y-42704526D01*
X110259285Y-42700001D01*
X110259285Y-42699998D01*
X110240228Y-42555247D01*
X110240228Y-42555246D01*
X110184355Y-42420358D01*
X110095474Y-42304526D01*
X109979643Y-42215645D01*
X109979640Y-42215644D01*
X109979638Y-42215642D01*
X109844757Y-42159773D01*
X109844752Y-42159771D01*
X109700001Y-42140715D01*
X109699999Y-42140715D01*
X109555247Y-42159771D01*
X109555245Y-42159772D01*
X109420361Y-42215643D01*
X109420358Y-42215644D01*
X109420358Y-42215645D01*
X109304529Y-42304524D01*
X109304526Y-42304526D01*
X109215643Y-42420361D01*
X109159772Y-42555245D01*
X109159771Y-42555247D01*
X109140715Y-42699998D01*
X100075500Y-42699998D01*
X100075500Y-42099998D01*
X115240715Y-42099998D01*
X115240715Y-42100001D01*
X115259771Y-42244752D01*
X115259773Y-42244757D01*
X115315642Y-42379638D01*
X115315645Y-42379644D01*
X115404525Y-42495473D01*
X115404526Y-42495474D01*
X115520355Y-42584354D01*
X115520361Y-42584357D01*
X115587801Y-42612291D01*
X115655246Y-42640228D01*
X115727623Y-42649756D01*
X115799999Y-42659285D01*
X115800000Y-42659285D01*
X115800001Y-42659285D01*
X115848251Y-42652932D01*
X115944754Y-42640228D01*
X116079643Y-42584355D01*
X116195474Y-42495474D01*
X116284355Y-42379643D01*
X116340228Y-42244754D01*
X116359285Y-42100000D01*
X116357225Y-42084355D01*
X116340228Y-41955247D01*
X116340228Y-41955246D01*
X116284355Y-41820358D01*
X116195474Y-41704526D01*
X116079643Y-41615645D01*
X116079640Y-41615644D01*
X116079638Y-41615642D01*
X115944757Y-41559773D01*
X115944752Y-41559771D01*
X115800001Y-41540715D01*
X115799999Y-41540715D01*
X115655247Y-41559771D01*
X115655245Y-41559772D01*
X115520361Y-41615643D01*
X115520358Y-41615644D01*
X115520358Y-41615645D01*
X115416324Y-41695473D01*
X115404526Y-41704526D01*
X115315643Y-41820361D01*
X115259772Y-41955245D01*
X115259771Y-41955247D01*
X115240715Y-42099998D01*
X100075500Y-42099998D01*
X100075500Y-41499998D01*
X106040715Y-41499998D01*
X106040715Y-41500001D01*
X106059771Y-41644752D01*
X106059773Y-41644757D01*
X106115642Y-41779638D01*
X106115645Y-41779644D01*
X106204525Y-41895473D01*
X106204526Y-41895474D01*
X106320355Y-41984354D01*
X106320361Y-41984357D01*
X106387801Y-42012291D01*
X106455246Y-42040228D01*
X106527623Y-42049756D01*
X106599999Y-42059285D01*
X106600000Y-42059285D01*
X106600001Y-42059285D01*
X106648251Y-42052932D01*
X106744754Y-42040228D01*
X106879643Y-41984355D01*
X106995474Y-41895474D01*
X107084355Y-41779643D01*
X107140228Y-41644754D01*
X107159285Y-41500000D01*
X107140228Y-41355246D01*
X107117343Y-41299998D01*
X122040715Y-41299998D01*
X122040715Y-41300001D01*
X122059771Y-41444752D01*
X122059773Y-41444757D01*
X122115642Y-41579638D01*
X122115645Y-41579644D01*
X122204525Y-41695473D01*
X122204526Y-41695474D01*
X122320355Y-41784354D01*
X122320361Y-41784357D01*
X122387801Y-41812291D01*
X122455246Y-41840228D01*
X122527623Y-41849756D01*
X122599999Y-41859285D01*
X122600000Y-41859285D01*
X122600001Y-41859285D01*
X122648251Y-41852932D01*
X122744754Y-41840228D01*
X122879643Y-41784355D01*
X122995474Y-41695474D01*
X123084355Y-41579643D01*
X123140228Y-41444754D01*
X123152932Y-41348251D01*
X123159285Y-41300001D01*
X123159285Y-41299998D01*
X123142828Y-41174998D01*
X124840715Y-41174998D01*
X124840715Y-41175001D01*
X124859771Y-41319752D01*
X124859773Y-41319757D01*
X124915642Y-41454638D01*
X124915645Y-41454644D01*
X125004525Y-41570473D01*
X125004526Y-41570474D01*
X125120355Y-41659354D01*
X125120361Y-41659357D01*
X125187801Y-41687291D01*
X125255246Y-41715228D01*
X125327623Y-41724756D01*
X125399999Y-41734285D01*
X125400000Y-41734285D01*
X125400001Y-41734285D01*
X125448251Y-41727932D01*
X125544754Y-41715228D01*
X125679643Y-41659355D01*
X125795474Y-41570474D01*
X125884355Y-41454643D01*
X125940228Y-41319754D01*
X125942829Y-41299998D01*
X134740715Y-41299998D01*
X134740715Y-41300001D01*
X134759771Y-41444752D01*
X134759773Y-41444757D01*
X134815642Y-41579638D01*
X134815645Y-41579644D01*
X134904525Y-41695473D01*
X134904526Y-41695474D01*
X135020355Y-41784354D01*
X135020361Y-41784357D01*
X135143684Y-41835439D01*
X135198088Y-41879280D01*
X135220153Y-41945574D01*
X135202874Y-42013273D01*
X135151737Y-42060884D01*
X135143690Y-42064558D01*
X135115060Y-42076417D01*
X135020361Y-42115643D01*
X135020358Y-42115644D01*
X135020358Y-42115645D01*
X134904526Y-42204526D01*
X134827794Y-42304526D01*
X134815643Y-42320361D01*
X134759772Y-42455245D01*
X134759771Y-42455247D01*
X134740715Y-42599998D01*
X134740715Y-42600001D01*
X134759771Y-42744752D01*
X134759773Y-42744757D01*
X134815642Y-42879638D01*
X134815645Y-42879644D01*
X134904525Y-42995473D01*
X134904526Y-42995474D01*
X135020355Y-43084354D01*
X135020361Y-43084357D01*
X135087801Y-43112291D01*
X135155246Y-43140228D01*
X135227623Y-43149756D01*
X135299999Y-43159285D01*
X135300000Y-43159285D01*
X135300001Y-43159285D01*
X135348251Y-43152932D01*
X135444754Y-43140228D01*
X135579643Y-43084355D01*
X135695474Y-42995474D01*
X135784355Y-42879643D01*
X135840228Y-42744754D01*
X135859285Y-42600000D01*
X135857225Y-42584355D01*
X135840228Y-42455247D01*
X135840228Y-42455246D01*
X135784355Y-42320358D01*
X135695474Y-42204526D01*
X135579643Y-42115645D01*
X135579640Y-42115644D01*
X135579638Y-42115642D01*
X135456316Y-42064561D01*
X135401912Y-42020720D01*
X135379847Y-41954426D01*
X135397126Y-41886727D01*
X135448263Y-41839116D01*
X135456316Y-41835439D01*
X135579638Y-41784357D01*
X135579637Y-41784357D01*
X135579643Y-41784355D01*
X135695474Y-41695474D01*
X135768736Y-41599998D01*
X137940715Y-41599998D01*
X137940715Y-41600001D01*
X137959771Y-41744752D01*
X137959773Y-41744757D01*
X138015642Y-41879638D01*
X138015645Y-41879644D01*
X138104525Y-41995473D01*
X138104526Y-41995474D01*
X138220355Y-42084354D01*
X138220361Y-42084357D01*
X138287801Y-42112291D01*
X138355246Y-42140228D01*
X138427623Y-42149756D01*
X138499999Y-42159285D01*
X138500000Y-42159285D01*
X138500001Y-42159285D01*
X138548251Y-42152932D01*
X138644754Y-42140228D01*
X138779643Y-42084355D01*
X138895474Y-41995474D01*
X138984355Y-41879643D01*
X139040228Y-41744754D01*
X139059285Y-41600000D01*
X139056604Y-41579638D01*
X139040228Y-41455247D01*
X139040228Y-41455246D01*
X138984355Y-41320358D01*
X138895474Y-41204526D01*
X138779643Y-41115645D01*
X138779640Y-41115644D01*
X138779638Y-41115642D01*
X138644757Y-41059773D01*
X138644752Y-41059771D01*
X138500001Y-41040715D01*
X138499999Y-41040715D01*
X138355247Y-41059771D01*
X138355245Y-41059772D01*
X138220361Y-41115643D01*
X138220358Y-41115644D01*
X138220358Y-41115645D01*
X138104526Y-41204526D01*
X138016109Y-41319754D01*
X138015643Y-41320361D01*
X137959772Y-41455245D01*
X137959771Y-41455247D01*
X137940715Y-41599998D01*
X135768736Y-41599998D01*
X135784355Y-41579643D01*
X135840228Y-41444754D01*
X135852932Y-41348251D01*
X135859285Y-41300001D01*
X135859285Y-41299998D01*
X135840228Y-41155247D01*
X135840228Y-41155246D01*
X135784355Y-41020358D01*
X135695474Y-40904526D01*
X135579643Y-40815645D01*
X135579640Y-40815644D01*
X135579638Y-40815642D01*
X135444757Y-40759773D01*
X135444752Y-40759771D01*
X135300001Y-40740715D01*
X135299999Y-40740715D01*
X135155247Y-40759771D01*
X135155245Y-40759772D01*
X135020361Y-40815643D01*
X135020358Y-40815644D01*
X135020358Y-40815645D01*
X134904526Y-40904526D01*
X134819262Y-41015645D01*
X134815643Y-41020361D01*
X134759772Y-41155245D01*
X134759771Y-41155247D01*
X134740715Y-41299998D01*
X125942829Y-41299998D01*
X125959285Y-41175000D01*
X125956684Y-41155247D01*
X125940228Y-41030247D01*
X125940228Y-41030246D01*
X125884355Y-40895358D01*
X125795474Y-40779526D01*
X125679643Y-40690645D01*
X125679640Y-40690644D01*
X125679638Y-40690642D01*
X125544757Y-40634773D01*
X125544752Y-40634771D01*
X125400001Y-40615715D01*
X125399999Y-40615715D01*
X125255247Y-40634771D01*
X125255245Y-40634772D01*
X125120361Y-40690643D01*
X125120358Y-40690644D01*
X125120358Y-40690645D01*
X125004526Y-40779526D01*
X124976813Y-40815643D01*
X124915643Y-40895361D01*
X124859772Y-41030245D01*
X124859771Y-41030247D01*
X124840715Y-41174998D01*
X123142828Y-41174998D01*
X123140228Y-41155247D01*
X123140228Y-41155246D01*
X123084355Y-41020358D01*
X122995474Y-40904526D01*
X122879643Y-40815645D01*
X122879640Y-40815644D01*
X122879638Y-40815642D01*
X122744757Y-40759773D01*
X122744752Y-40759771D01*
X122600001Y-40740715D01*
X122599999Y-40740715D01*
X122455247Y-40759771D01*
X122455245Y-40759772D01*
X122320361Y-40815643D01*
X122320358Y-40815644D01*
X122320358Y-40815645D01*
X122204526Y-40904526D01*
X122119262Y-41015645D01*
X122115643Y-41020361D01*
X122059772Y-41155245D01*
X122059771Y-41155247D01*
X122040715Y-41299998D01*
X107117343Y-41299998D01*
X107084355Y-41220358D01*
X106995474Y-41104526D01*
X106879643Y-41015645D01*
X106879640Y-41015644D01*
X106879638Y-41015642D01*
X106744757Y-40959773D01*
X106744752Y-40959771D01*
X106600001Y-40940715D01*
X106599999Y-40940715D01*
X106455247Y-40959771D01*
X106455245Y-40959772D01*
X106320361Y-41015643D01*
X106320358Y-41015644D01*
X106320358Y-41015645D01*
X106204526Y-41104526D01*
X106127794Y-41204526D01*
X106115643Y-41220361D01*
X106059772Y-41355245D01*
X106059771Y-41355247D01*
X106040715Y-41499998D01*
X100075500Y-41499998D01*
X100075500Y-39599998D01*
X109240715Y-39599998D01*
X109240715Y-39600001D01*
X109259771Y-39744752D01*
X109259773Y-39744757D01*
X109315642Y-39879638D01*
X109315645Y-39879644D01*
X109404525Y-39995473D01*
X109404526Y-39995474D01*
X109520355Y-40084354D01*
X109520361Y-40084357D01*
X109587801Y-40112291D01*
X109655246Y-40140228D01*
X109727623Y-40149756D01*
X109799999Y-40159285D01*
X109800000Y-40159285D01*
X109800001Y-40159285D01*
X109848251Y-40152932D01*
X109944754Y-40140228D01*
X110079643Y-40084355D01*
X110195474Y-39995474D01*
X110284355Y-39879643D01*
X110340228Y-39744754D01*
X110359285Y-39600000D01*
X110340228Y-39455246D01*
X110284355Y-39320358D01*
X110195474Y-39204526D01*
X110079643Y-39115645D01*
X110079640Y-39115644D01*
X110079638Y-39115642D01*
X109944757Y-39059773D01*
X109944752Y-39059771D01*
X109800001Y-39040715D01*
X109799999Y-39040715D01*
X109655247Y-39059771D01*
X109655245Y-39059772D01*
X109520361Y-39115643D01*
X109404526Y-39204526D01*
X109315643Y-39320361D01*
X109259772Y-39455245D01*
X109259771Y-39455247D01*
X109240715Y-39599998D01*
X100075500Y-39599998D01*
X100075500Y-38499998D01*
X107465215Y-38499998D01*
X107465215Y-38500001D01*
X107484271Y-38644752D01*
X107484273Y-38644757D01*
X107540142Y-38779638D01*
X107540145Y-38779644D01*
X107629025Y-38895473D01*
X107629026Y-38895474D01*
X107744855Y-38984354D01*
X107744861Y-38984357D01*
X107812301Y-39012291D01*
X107879746Y-39040228D01*
X107952123Y-39049756D01*
X108024499Y-39059285D01*
X108024500Y-39059285D01*
X108024501Y-39059285D01*
X108072751Y-39052932D01*
X108169254Y-39040228D01*
X108304143Y-38984355D01*
X108419974Y-38895474D01*
X108508855Y-38779643D01*
X108561421Y-38652737D01*
X108605260Y-38598335D01*
X108671554Y-38576270D01*
X108723433Y-38585630D01*
X108818134Y-38624855D01*
X108855246Y-38640228D01*
X108889610Y-38644752D01*
X108999999Y-38659285D01*
X109000000Y-38659285D01*
X109000001Y-38659285D01*
X109049722Y-38652739D01*
X109144754Y-38640228D01*
X109279643Y-38584355D01*
X109389578Y-38499998D01*
X118840715Y-38499998D01*
X118840715Y-38500001D01*
X118859771Y-38644752D01*
X118859773Y-38644757D01*
X118915642Y-38779638D01*
X118915645Y-38779644D01*
X119004525Y-38895473D01*
X119004526Y-38895474D01*
X119120355Y-38984354D01*
X119120361Y-38984357D01*
X119187801Y-39012291D01*
X119255246Y-39040228D01*
X119327623Y-39049756D01*
X119399999Y-39059285D01*
X119400000Y-39059285D01*
X119400001Y-39059285D01*
X119448251Y-39052932D01*
X119544754Y-39040228D01*
X119679643Y-38984355D01*
X119795474Y-38895474D01*
X119884355Y-38779643D01*
X119940228Y-38644754D01*
X119959285Y-38500000D01*
X119957225Y-38484355D01*
X119940228Y-38355247D01*
X119940228Y-38355246D01*
X119884355Y-38220358D01*
X119795474Y-38104526D01*
X119679643Y-38015645D01*
X119679640Y-38015644D01*
X119679638Y-38015642D01*
X119544757Y-37959773D01*
X119544752Y-37959771D01*
X119400001Y-37940715D01*
X119399999Y-37940715D01*
X119255247Y-37959771D01*
X119255245Y-37959772D01*
X119120361Y-38015643D01*
X119120358Y-38015644D01*
X119120358Y-38015645D01*
X119004526Y-38104526D01*
X118931266Y-38200001D01*
X118915643Y-38220361D01*
X118859772Y-38355245D01*
X118859771Y-38355247D01*
X118840715Y-38499998D01*
X109389578Y-38499998D01*
X109395474Y-38495474D01*
X109484355Y-38379643D01*
X109540228Y-38244754D01*
X109558689Y-38104526D01*
X109559285Y-38100001D01*
X109559285Y-38099998D01*
X109540228Y-37955247D01*
X109540228Y-37955246D01*
X109484355Y-37820358D01*
X109468732Y-37799998D01*
X114240715Y-37799998D01*
X114240715Y-37800001D01*
X114259771Y-37944752D01*
X114259773Y-37944757D01*
X114315642Y-38079638D01*
X114315645Y-38079644D01*
X114404525Y-38195473D01*
X114404526Y-38195474D01*
X114520355Y-38284354D01*
X114520361Y-38284357D01*
X114587801Y-38312291D01*
X114655246Y-38340228D01*
X114689610Y-38344752D01*
X114799999Y-38359285D01*
X114800000Y-38359285D01*
X114800001Y-38359285D01*
X114848251Y-38352932D01*
X114944754Y-38340228D01*
X115079643Y-38284355D01*
X115195474Y-38195474D01*
X115284355Y-38079643D01*
X115340228Y-37944754D01*
X115352932Y-37848251D01*
X115359285Y-37800001D01*
X115359285Y-37799998D01*
X115340228Y-37655247D01*
X115340228Y-37655246D01*
X115284355Y-37520358D01*
X115195474Y-37404526D01*
X115079643Y-37315645D01*
X115079640Y-37315644D01*
X115079638Y-37315642D01*
X114944757Y-37259773D01*
X114944752Y-37259771D01*
X114800001Y-37240715D01*
X114799999Y-37240715D01*
X114655247Y-37259771D01*
X114655245Y-37259772D01*
X114520361Y-37315643D01*
X114520358Y-37315644D01*
X114520358Y-37315645D01*
X114404526Y-37404526D01*
X114319262Y-37515645D01*
X114315643Y-37520361D01*
X114259772Y-37655245D01*
X114259771Y-37655247D01*
X114240715Y-37799998D01*
X109468732Y-37799998D01*
X109395474Y-37704526D01*
X109279643Y-37615645D01*
X109279640Y-37615644D01*
X109279638Y-37615642D01*
X109144757Y-37559773D01*
X109144752Y-37559771D01*
X109000001Y-37540715D01*
X108999999Y-37540715D01*
X108855247Y-37559771D01*
X108855245Y-37559772D01*
X108720361Y-37615643D01*
X108720358Y-37615644D01*
X108720358Y-37615645D01*
X108604526Y-37704526D01*
X108527794Y-37804526D01*
X108515643Y-37820361D01*
X108463079Y-37947261D01*
X108419238Y-38001665D01*
X108352943Y-38023729D01*
X108301066Y-38014369D01*
X108169257Y-37959773D01*
X108169252Y-37959771D01*
X108024501Y-37940715D01*
X108024499Y-37940715D01*
X107879747Y-37959771D01*
X107879745Y-37959772D01*
X107744861Y-38015643D01*
X107744858Y-38015644D01*
X107744858Y-38015645D01*
X107629026Y-38104526D01*
X107555766Y-38200001D01*
X107540143Y-38220361D01*
X107484272Y-38355245D01*
X107484271Y-38355247D01*
X107465215Y-38499998D01*
X100075500Y-38499998D01*
X100075500Y-34884381D01*
X100095185Y-34817342D01*
X100147989Y-34771587D01*
X100217147Y-34761643D01*
X100280703Y-34790668D01*
X100314693Y-34838484D01*
X100360171Y-34952627D01*
X100360173Y-34952630D01*
X100360176Y-34952637D01*
X100535639Y-35283597D01*
X100535641Y-35283600D01*
X100535647Y-35283611D01*
X100745856Y-35593644D01*
X100883122Y-35755245D01*
X100988365Y-35879147D01*
X101260319Y-36136756D01*
X101558532Y-36363451D01*
X101879506Y-36556575D01*
X101879510Y-36556576D01*
X101879514Y-36556579D01*
X102219469Y-36713859D01*
X102219480Y-36713864D01*
X102574466Y-36833473D01*
X102940303Y-36913999D01*
X103312702Y-36954500D01*
X103312708Y-36954500D01*
X103687292Y-36954500D01*
X103687298Y-36954500D01*
X104059697Y-36913999D01*
X104425534Y-36833473D01*
X104674635Y-36749541D01*
X117262983Y-36749541D01*
X117262983Y-36749544D01*
X117282039Y-36894295D01*
X117282041Y-36894300D01*
X117337910Y-37029181D01*
X117337913Y-37029187D01*
X117426793Y-37145016D01*
X117426794Y-37145017D01*
X117542623Y-37233897D01*
X117542629Y-37233900D01*
X117564413Y-37242923D01*
X117677514Y-37289771D01*
X117749891Y-37299299D01*
X117822267Y-37308828D01*
X117822268Y-37308828D01*
X117822269Y-37308828D01*
X117870519Y-37302475D01*
X117967022Y-37289771D01*
X118101911Y-37233898D01*
X118217742Y-37145017D01*
X118306623Y-37029186D01*
X118362496Y-36894297D01*
X118381553Y-36749543D01*
X118362496Y-36604789D01*
X118319090Y-36499998D01*
X120840715Y-36499998D01*
X120840715Y-36500001D01*
X120859771Y-36644752D01*
X120859773Y-36644757D01*
X120915642Y-36779638D01*
X120915645Y-36779644D01*
X121004525Y-36895473D01*
X121004526Y-36895474D01*
X121120355Y-36984354D01*
X121120361Y-36984357D01*
X121187801Y-37012291D01*
X121255246Y-37040228D01*
X121327623Y-37049756D01*
X121399999Y-37059285D01*
X121400000Y-37059285D01*
X121400001Y-37059285D01*
X121448251Y-37052932D01*
X121544754Y-37040228D01*
X121679643Y-36984355D01*
X121795474Y-36895474D01*
X121884355Y-36779643D01*
X121917345Y-36699998D01*
X124340715Y-36699998D01*
X124340715Y-36700001D01*
X124359771Y-36844752D01*
X124359773Y-36844757D01*
X124415642Y-36979638D01*
X124415645Y-36979644D01*
X124504525Y-37095473D01*
X124504526Y-37095474D01*
X124620355Y-37184354D01*
X124620361Y-37184357D01*
X124687801Y-37212291D01*
X124755246Y-37240228D01*
X124827121Y-37249690D01*
X124883220Y-37257076D01*
X124947117Y-37285342D01*
X124985588Y-37343667D01*
X124986419Y-37413532D01*
X124965411Y-37455501D01*
X124915645Y-37520357D01*
X124915643Y-37520360D01*
X124859772Y-37655245D01*
X124859771Y-37655247D01*
X124840715Y-37799998D01*
X124840715Y-37800001D01*
X124859771Y-37944752D01*
X124859773Y-37944757D01*
X124915642Y-38079638D01*
X124915645Y-38079644D01*
X125004525Y-38195473D01*
X125004526Y-38195474D01*
X125120355Y-38284354D01*
X125120361Y-38284357D01*
X125187801Y-38312291D01*
X125255246Y-38340228D01*
X125289610Y-38344752D01*
X125399999Y-38359285D01*
X125400000Y-38359285D01*
X125400001Y-38359285D01*
X125448251Y-38352932D01*
X125544754Y-38340228D01*
X125679643Y-38284355D01*
X125795474Y-38195474D01*
X125884355Y-38079643D01*
X125917345Y-37999998D01*
X130440715Y-37999998D01*
X130440715Y-38000001D01*
X130459771Y-38144752D01*
X130459773Y-38144757D01*
X130515642Y-38279638D01*
X130515645Y-38279644D01*
X130604525Y-38395473D01*
X130604526Y-38395474D01*
X130720355Y-38484354D01*
X130720361Y-38484357D01*
X130787801Y-38512291D01*
X130855246Y-38540228D01*
X130927623Y-38549756D01*
X130999999Y-38559285D01*
X131000000Y-38559285D01*
X131000001Y-38559285D01*
X131048251Y-38552932D01*
X131144754Y-38540228D01*
X131279643Y-38484355D01*
X131395474Y-38395474D01*
X131484355Y-38279643D01*
X131517345Y-38199998D01*
X136340715Y-38199998D01*
X136340715Y-38200001D01*
X136359771Y-38344752D01*
X136359773Y-38344757D01*
X136415642Y-38479638D01*
X136415645Y-38479644D01*
X136504525Y-38595473D01*
X136504526Y-38595474D01*
X136620355Y-38684354D01*
X136620361Y-38684357D01*
X136687801Y-38712291D01*
X136755246Y-38740228D01*
X136827623Y-38749756D01*
X136899999Y-38759285D01*
X136900000Y-38759285D01*
X136900001Y-38759285D01*
X136948251Y-38752932D01*
X137044754Y-38740228D01*
X137179643Y-38684355D01*
X137295474Y-38595474D01*
X137384355Y-38479643D01*
X137440228Y-38344754D01*
X137453393Y-38244752D01*
X137459285Y-38200001D01*
X137459285Y-38199998D01*
X137440228Y-38055247D01*
X137440228Y-38055246D01*
X137384355Y-37920358D01*
X137295474Y-37804526D01*
X137179643Y-37715645D01*
X137179640Y-37715644D01*
X137179638Y-37715642D01*
X137044757Y-37659773D01*
X137044752Y-37659771D01*
X136900001Y-37640715D01*
X136899999Y-37640715D01*
X136755247Y-37659771D01*
X136755245Y-37659772D01*
X136620361Y-37715643D01*
X136620358Y-37715644D01*
X136620358Y-37715645D01*
X136504526Y-37804526D01*
X136465607Y-37855247D01*
X136415643Y-37920361D01*
X136359772Y-38055245D01*
X136359771Y-38055247D01*
X136340715Y-38199998D01*
X131517345Y-38199998D01*
X131540228Y-38144754D01*
X131559285Y-38000000D01*
X131540228Y-37855246D01*
X131484355Y-37720358D01*
X131395474Y-37604526D01*
X131279643Y-37515645D01*
X131279640Y-37515644D01*
X131279638Y-37515642D01*
X131144757Y-37459773D01*
X131144752Y-37459771D01*
X131000001Y-37440715D01*
X130999999Y-37440715D01*
X130855247Y-37459771D01*
X130855245Y-37459772D01*
X130720361Y-37515643D01*
X130720358Y-37515644D01*
X130720358Y-37515645D01*
X130604526Y-37604526D01*
X130519262Y-37715645D01*
X130515643Y-37720361D01*
X130459772Y-37855245D01*
X130459771Y-37855247D01*
X130440715Y-37999998D01*
X125917345Y-37999998D01*
X125940228Y-37944754D01*
X125952932Y-37848251D01*
X125959285Y-37800001D01*
X125959285Y-37799998D01*
X125940228Y-37655247D01*
X125940228Y-37655246D01*
X125884355Y-37520358D01*
X125795474Y-37404526D01*
X125679643Y-37315645D01*
X125679640Y-37315644D01*
X125679638Y-37315642D01*
X125544757Y-37259773D01*
X125544755Y-37259772D01*
X125544754Y-37259772D01*
X125514195Y-37255749D01*
X125416778Y-37242923D01*
X125352882Y-37214656D01*
X125314411Y-37156331D01*
X125313580Y-37086467D01*
X125334587Y-37044500D01*
X125384355Y-36979643D01*
X125440228Y-36844754D01*
X125457460Y-36713864D01*
X125459285Y-36700001D01*
X125459285Y-36699998D01*
X125440403Y-36556575D01*
X125440228Y-36555246D01*
X125384355Y-36420358D01*
X125295474Y-36304526D01*
X125179643Y-36215645D01*
X125179640Y-36215644D01*
X125179638Y-36215642D01*
X125044757Y-36159773D01*
X125044752Y-36159771D01*
X124900001Y-36140715D01*
X124899999Y-36140715D01*
X124755247Y-36159771D01*
X124755245Y-36159772D01*
X124620361Y-36215643D01*
X124620358Y-36215644D01*
X124620358Y-36215645D01*
X124504526Y-36304526D01*
X124465607Y-36355247D01*
X124415643Y-36420361D01*
X124359772Y-36555245D01*
X124359771Y-36555247D01*
X124340715Y-36699998D01*
X121917345Y-36699998D01*
X121940228Y-36644754D01*
X121959285Y-36500000D01*
X121955322Y-36469901D01*
X121940228Y-36355247D01*
X121940228Y-36355246D01*
X121884355Y-36220358D01*
X121795474Y-36104526D01*
X121679643Y-36015645D01*
X121679640Y-36015644D01*
X121679638Y-36015642D01*
X121544757Y-35959773D01*
X121544752Y-35959771D01*
X121400001Y-35940715D01*
X121399999Y-35940715D01*
X121255247Y-35959771D01*
X121255245Y-35959772D01*
X121120361Y-36015643D01*
X121120358Y-36015644D01*
X121120358Y-36015645D01*
X121004526Y-36104526D01*
X120919262Y-36215645D01*
X120915643Y-36220361D01*
X120859772Y-36355245D01*
X120859771Y-36355247D01*
X120840715Y-36499998D01*
X118319090Y-36499998D01*
X118306623Y-36469901D01*
X118217742Y-36354069D01*
X118101911Y-36265188D01*
X118101908Y-36265187D01*
X118101906Y-36265185D01*
X117967025Y-36209316D01*
X117967020Y-36209314D01*
X117822269Y-36190258D01*
X117822267Y-36190258D01*
X117677515Y-36209314D01*
X117677513Y-36209315D01*
X117542629Y-36265186D01*
X117542626Y-36265187D01*
X117542626Y-36265188D01*
X117426794Y-36354069D01*
X117360684Y-36440226D01*
X117337911Y-36469904D01*
X117282040Y-36604788D01*
X117282039Y-36604790D01*
X117262983Y-36749541D01*
X104674635Y-36749541D01*
X104780520Y-36713864D01*
X105120494Y-36556575D01*
X105441468Y-36363451D01*
X105739681Y-36136756D01*
X106011635Y-35879147D01*
X106110443Y-35762822D01*
X127871299Y-35762822D01*
X127871299Y-35762825D01*
X127890355Y-35907576D01*
X127890357Y-35907581D01*
X127946226Y-36042462D01*
X127946229Y-36042468D01*
X128035109Y-36158297D01*
X128035110Y-36158298D01*
X128150939Y-36247178D01*
X128150945Y-36247181D01*
X128194418Y-36265188D01*
X128285830Y-36303052D01*
X128358207Y-36312580D01*
X128430583Y-36322109D01*
X128430584Y-36322109D01*
X128430585Y-36322109D01*
X128478835Y-36315756D01*
X128575338Y-36303052D01*
X128710227Y-36247179D01*
X128826058Y-36158298D01*
X128914939Y-36042467D01*
X128923439Y-36021945D01*
X128967279Y-35967541D01*
X129033573Y-35945475D01*
X129101272Y-35962753D01*
X129148884Y-36013889D01*
X129157776Y-36037304D01*
X129159772Y-36044755D01*
X129215642Y-36179638D01*
X129215645Y-36179644D01*
X129304525Y-36295473D01*
X129304526Y-36295474D01*
X129420355Y-36384354D01*
X129420361Y-36384357D01*
X129487801Y-36412291D01*
X129555246Y-36440228D01*
X129627623Y-36449756D01*
X129699999Y-36459285D01*
X129700000Y-36459285D01*
X129700001Y-36459285D01*
X129748251Y-36452932D01*
X129844754Y-36440228D01*
X129979643Y-36384355D01*
X130095474Y-36295474D01*
X130184355Y-36179643D01*
X130240228Y-36044754D01*
X130259285Y-35900000D01*
X130240228Y-35755246D01*
X130184355Y-35620358D01*
X130095474Y-35504526D01*
X129979643Y-35415645D01*
X129979640Y-35415644D01*
X129979638Y-35415642D01*
X129844757Y-35359773D01*
X129844752Y-35359771D01*
X129700001Y-35340715D01*
X129699999Y-35340715D01*
X129555247Y-35359771D01*
X129555245Y-35359772D01*
X129420361Y-35415643D01*
X129304526Y-35504526D01*
X129215642Y-35620361D01*
X129215641Y-35620364D01*
X129207141Y-35640884D01*
X129163298Y-35695286D01*
X129097003Y-35717348D01*
X129029305Y-35700066D01*
X128981696Y-35648928D01*
X128972805Y-35625514D01*
X128970813Y-35618080D01*
X128970812Y-35618070D01*
X128914939Y-35483182D01*
X128826058Y-35367350D01*
X128710227Y-35278469D01*
X128710224Y-35278468D01*
X128710222Y-35278466D01*
X128575341Y-35222597D01*
X128575336Y-35222595D01*
X128430585Y-35203539D01*
X128430583Y-35203539D01*
X128285831Y-35222595D01*
X128285829Y-35222596D01*
X128150945Y-35278467D01*
X128150942Y-35278468D01*
X128150942Y-35278469D01*
X128035110Y-35367350D01*
X127998054Y-35415643D01*
X127946227Y-35483185D01*
X127890356Y-35618069D01*
X127890355Y-35618071D01*
X127871299Y-35762822D01*
X106110443Y-35762822D01*
X106254143Y-35593645D01*
X106407575Y-35367350D01*
X106464352Y-35283611D01*
X106464353Y-35283607D01*
X106464361Y-35283597D01*
X106639824Y-34952637D01*
X106778476Y-34604647D01*
X106878691Y-34243706D01*
X106924500Y-33964284D01*
X106939292Y-33874060D01*
X106939292Y-33874057D01*
X106939294Y-33874046D01*
X106943309Y-33799998D01*
X112540715Y-33799998D01*
X112540715Y-33800001D01*
X112559771Y-33944752D01*
X112559773Y-33944757D01*
X112615642Y-34079638D01*
X112615645Y-34079644D01*
X112704525Y-34195473D01*
X112704526Y-34195474D01*
X112820355Y-34284354D01*
X112820361Y-34284357D01*
X112887801Y-34312291D01*
X112955246Y-34340228D01*
X113027623Y-34349756D01*
X113099999Y-34359285D01*
X113100000Y-34359285D01*
X113100001Y-34359285D01*
X113148251Y-34352932D01*
X113244754Y-34340228D01*
X113379643Y-34284355D01*
X113495474Y-34195474D01*
X113584355Y-34079643D01*
X113640228Y-33944754D01*
X113659285Y-33800000D01*
X113657225Y-33784355D01*
X113640228Y-33655247D01*
X113640228Y-33655246D01*
X113584355Y-33520358D01*
X113495474Y-33404526D01*
X113379643Y-33315645D01*
X113379640Y-33315644D01*
X113379638Y-33315642D01*
X113244757Y-33259773D01*
X113244752Y-33259771D01*
X113100001Y-33240715D01*
X113099999Y-33240715D01*
X112955247Y-33259771D01*
X112955245Y-33259772D01*
X112820361Y-33315643D01*
X112820358Y-33315644D01*
X112820358Y-33315645D01*
X112704526Y-33404526D01*
X112618448Y-33516706D01*
X112615643Y-33520361D01*
X112559772Y-33655245D01*
X112559771Y-33655247D01*
X112540715Y-33799998D01*
X106943309Y-33799998D01*
X106959574Y-33500000D01*
X106939294Y-33125954D01*
X106938520Y-33121230D01*
X132219483Y-33121230D01*
X132219483Y-33121233D01*
X132238539Y-33265984D01*
X132238541Y-33265989D01*
X132294410Y-33400870D01*
X132294413Y-33400876D01*
X132383293Y-33516705D01*
X132383294Y-33516706D01*
X132499123Y-33605586D01*
X132499129Y-33605589D01*
X132566569Y-33633523D01*
X132634014Y-33661460D01*
X132706391Y-33670988D01*
X132778767Y-33680517D01*
X132778768Y-33680517D01*
X132778769Y-33680517D01*
X132827019Y-33674164D01*
X132923522Y-33661460D01*
X133058411Y-33605587D01*
X133174242Y-33516706D01*
X133263123Y-33400875D01*
X133304908Y-33299998D01*
X135140715Y-33299998D01*
X135140715Y-33300001D01*
X135159771Y-33444752D01*
X135159773Y-33444757D01*
X135215642Y-33579638D01*
X135215645Y-33579644D01*
X135304525Y-33695473D01*
X135304526Y-33695474D01*
X135420355Y-33784354D01*
X135420361Y-33784357D01*
X135487801Y-33812291D01*
X135555246Y-33840228D01*
X135627623Y-33849756D01*
X135699999Y-33859285D01*
X135700000Y-33859285D01*
X135700001Y-33859285D01*
X135748251Y-33852932D01*
X135844754Y-33840228D01*
X135979643Y-33784355D01*
X136095474Y-33695474D01*
X136184355Y-33579643D01*
X136240228Y-33444754D01*
X136259285Y-33300000D01*
X136254807Y-33265989D01*
X136240228Y-33155247D01*
X136240228Y-33155246D01*
X136184355Y-33020358D01*
X136095474Y-32904526D01*
X135979643Y-32815645D01*
X135979640Y-32815644D01*
X135979638Y-32815642D01*
X135844757Y-32759773D01*
X135844752Y-32759771D01*
X135700001Y-32740715D01*
X135699999Y-32740715D01*
X135555247Y-32759771D01*
X135555245Y-32759772D01*
X135420361Y-32815643D01*
X135304526Y-32904526D01*
X135215643Y-33020361D01*
X135159772Y-33155245D01*
X135159771Y-33155247D01*
X135140715Y-33299998D01*
X133304908Y-33299998D01*
X133318996Y-33265986D01*
X133338053Y-33121232D01*
X133318996Y-32976478D01*
X133263123Y-32841590D01*
X133174242Y-32725758D01*
X133058411Y-32636877D01*
X133058408Y-32636876D01*
X133058406Y-32636874D01*
X132923525Y-32581005D01*
X132923520Y-32581003D01*
X132778769Y-32561947D01*
X132778767Y-32561947D01*
X132634015Y-32581003D01*
X132634013Y-32581004D01*
X132499129Y-32636875D01*
X132499126Y-32636876D01*
X132499126Y-32636877D01*
X132383294Y-32725758D01*
X132314322Y-32815645D01*
X132294411Y-32841593D01*
X132238540Y-32976477D01*
X132238539Y-32976479D01*
X132219483Y-33121230D01*
X106938520Y-33121230D01*
X106921982Y-33020358D01*
X106878693Y-32756306D01*
X106878692Y-32756305D01*
X106878691Y-32756294D01*
X106790935Y-32440226D01*
X106778478Y-32395358D01*
X106778477Y-32395356D01*
X106774093Y-32384354D01*
X106639824Y-32047363D01*
X106561696Y-31899998D01*
X118740715Y-31899998D01*
X118740715Y-31900001D01*
X118759771Y-32044752D01*
X118759773Y-32044757D01*
X118815642Y-32179638D01*
X118815645Y-32179644D01*
X118904525Y-32295473D01*
X118904526Y-32295474D01*
X119020355Y-32384354D01*
X119020361Y-32384357D01*
X119087801Y-32412291D01*
X119155246Y-32440228D01*
X119227623Y-32449756D01*
X119299999Y-32459285D01*
X119300000Y-32459285D01*
X119300001Y-32459285D01*
X119348251Y-32452932D01*
X119444754Y-32440228D01*
X119579643Y-32384355D01*
X119695474Y-32295474D01*
X119784355Y-32179643D01*
X119840228Y-32044754D01*
X119859285Y-31900000D01*
X119840228Y-31755246D01*
X119784355Y-31620358D01*
X119695474Y-31504526D01*
X119579643Y-31415645D01*
X119579640Y-31415644D01*
X119579638Y-31415642D01*
X119444757Y-31359773D01*
X119444752Y-31359771D01*
X119300001Y-31340715D01*
X119299999Y-31340715D01*
X119155247Y-31359771D01*
X119155245Y-31359772D01*
X119020361Y-31415643D01*
X118904526Y-31504526D01*
X118815643Y-31620361D01*
X118759772Y-31755245D01*
X118759771Y-31755247D01*
X118740715Y-31899998D01*
X106561696Y-31899998D01*
X106464361Y-31716403D01*
X106464356Y-31716395D01*
X106464352Y-31716388D01*
X106254143Y-31406355D01*
X106011635Y-31120853D01*
X105985340Y-31095945D01*
X105739681Y-30863244D01*
X105739674Y-30863238D01*
X105739671Y-30863236D01*
X105668933Y-30809463D01*
X105441468Y-30636549D01*
X105228229Y-30508247D01*
X105120498Y-30443427D01*
X105120485Y-30443420D01*
X104836510Y-30312039D01*
X104783932Y-30266025D01*
X104764578Y-30198889D01*
X104784592Y-30131948D01*
X104837621Y-30086453D01*
X104888576Y-30075500D01*
X140111424Y-30075500D01*
X140178463Y-30095185D01*
G37*
G04 #@! TD.AperFunction*
M02*
