G04 #@! TF.GenerationSoftware,KiCad,Pcbnew,8.0.7*
G04 #@! TF.CreationDate,2025-04-02T23:58:34+11:00*
G04 #@! TF.ProjectId,Ganglion_01,47616e67-6c69-46f6-9e5f-30312e6b6963,01*
G04 #@! TF.SameCoordinates,Original*
G04 #@! TF.FileFunction,Copper,L1,Top*
G04 #@! TF.FilePolarity,Positive*
%FSLAX46Y46*%
G04 Gerber Fmt 4.6, Leading zero omitted, Abs format (unit mm)*
G04 Created by KiCad (PCBNEW 8.0.7) date 2025-04-02 23:58:34*
%MOMM*%
%LPD*%
G01*
G04 APERTURE LIST*
G04 Aperture macros list*
%AMRoundRect*
0 Rectangle with rounded corners*
0 $1 Rounding radius*
0 $2 $3 $4 $5 $6 $7 $8 $9 X,Y pos of 4 corners*
0 Add a 4 corners polygon primitive as box body*
4,1,4,$2,$3,$4,$5,$6,$7,$8,$9,$2,$3,0*
0 Add four circle primitives for the rounded corners*
1,1,$1+$1,$2,$3*
1,1,$1+$1,$4,$5*
1,1,$1+$1,$6,$7*
1,1,$1+$1,$8,$9*
0 Add four rect primitives between the rounded corners*
20,1,$1+$1,$2,$3,$4,$5,0*
20,1,$1+$1,$4,$5,$6,$7,0*
20,1,$1+$1,$6,$7,$8,$9,0*
20,1,$1+$1,$8,$9,$2,$3,0*%
%AMFreePoly0*
4,1,6,0.600000,-0.600000,-0.600000,-0.600000,-0.600000,0.000000,0.000000,0.600000,0.600000,0.600000,0.600000,-0.600000,0.600000,-0.600000,$1*%
G04 Aperture macros list end*
G04 #@! TA.AperFunction,SMDPad,CuDef*
%ADD10RoundRect,0.225000X-0.250000X0.225000X-0.250000X-0.225000X0.250000X-0.225000X0.250000X0.225000X0*%
G04 #@! TD*
G04 #@! TA.AperFunction,SMDPad,CuDef*
%ADD11RoundRect,0.225000X0.250000X-0.225000X0.250000X0.225000X-0.250000X0.225000X-0.250000X-0.225000X0*%
G04 #@! TD*
G04 #@! TA.AperFunction,SMDPad,CuDef*
%ADD12RoundRect,0.140000X0.170000X-0.140000X0.170000X0.140000X-0.170000X0.140000X-0.170000X-0.140000X0*%
G04 #@! TD*
G04 #@! TA.AperFunction,SMDPad,CuDef*
%ADD13RoundRect,0.140000X-0.170000X0.140000X-0.170000X-0.140000X0.170000X-0.140000X0.170000X0.140000X0*%
G04 #@! TD*
G04 #@! TA.AperFunction,SMDPad,CuDef*
%ADD14RoundRect,0.135000X0.185000X-0.135000X0.185000X0.135000X-0.185000X0.135000X-0.185000X-0.135000X0*%
G04 #@! TD*
G04 #@! TA.AperFunction,SMDPad,CuDef*
%ADD15RoundRect,0.135000X-0.185000X0.135000X-0.185000X-0.135000X0.185000X-0.135000X0.185000X0.135000X0*%
G04 #@! TD*
G04 #@! TA.AperFunction,SMDPad,CuDef*
%ADD16RoundRect,0.135000X-0.135000X-0.185000X0.135000X-0.185000X0.135000X0.185000X-0.135000X0.185000X0*%
G04 #@! TD*
G04 #@! TA.AperFunction,SMDPad,CuDef*
%ADD17RoundRect,0.200000X0.200000X0.275000X-0.200000X0.275000X-0.200000X-0.275000X0.200000X-0.275000X0*%
G04 #@! TD*
G04 #@! TA.AperFunction,SMDPad,CuDef*
%ADD18R,1.600000X1.000000*%
G04 #@! TD*
G04 #@! TA.AperFunction,SMDPad,CuDef*
%ADD19R,0.650000X0.400000*%
G04 #@! TD*
G04 #@! TA.AperFunction,SMDPad,CuDef*
%ADD20RoundRect,0.150000X0.512500X0.150000X-0.512500X0.150000X-0.512500X-0.150000X0.512500X-0.150000X0*%
G04 #@! TD*
G04 #@! TA.AperFunction,SMDPad,CuDef*
%ADD21R,0.400000X0.650000*%
G04 #@! TD*
G04 #@! TA.AperFunction,SMDPad,CuDef*
%ADD22R,1.050000X0.650000*%
G04 #@! TD*
G04 #@! TA.AperFunction,SMDPad,CuDef*
%ADD23R,0.250000X0.400000*%
G04 #@! TD*
G04 #@! TA.AperFunction,SMDPad,CuDef*
%ADD24R,0.400000X0.250000*%
G04 #@! TD*
G04 #@! TA.AperFunction,SMDPad,CuDef*
%ADD25RoundRect,0.225000X0.225000X0.250000X-0.225000X0.250000X-0.225000X-0.250000X0.225000X-0.250000X0*%
G04 #@! TD*
G04 #@! TA.AperFunction,SMDPad,CuDef*
%ADD26RoundRect,0.237500X-0.237500X0.287500X-0.237500X-0.287500X0.237500X-0.287500X0.237500X0.287500X0*%
G04 #@! TD*
G04 #@! TA.AperFunction,ComponentPad*
%ADD27C,6.400000*%
G04 #@! TD*
G04 #@! TA.AperFunction,SMDPad,CuDef*
%ADD28C,1.500000*%
G04 #@! TD*
G04 #@! TA.AperFunction,SMDPad,CuDef*
%ADD29RoundRect,0.140000X0.140000X0.170000X-0.140000X0.170000X-0.140000X-0.170000X0.140000X-0.170000X0*%
G04 #@! TD*
G04 #@! TA.AperFunction,SMDPad,CuDef*
%ADD30R,0.800000X0.400000*%
G04 #@! TD*
G04 #@! TA.AperFunction,SMDPad,CuDef*
%ADD31R,0.400000X0.800000*%
G04 #@! TD*
G04 #@! TA.AperFunction,SMDPad,CuDef*
%ADD32FreePoly0,180.000000*%
G04 #@! TD*
G04 #@! TA.AperFunction,SMDPad,CuDef*
%ADD33R,1.200000X1.200000*%
G04 #@! TD*
G04 #@! TA.AperFunction,SMDPad,CuDef*
%ADD34R,0.800000X0.800000*%
G04 #@! TD*
G04 #@! TA.AperFunction,ViaPad*
%ADD35C,0.600000*%
G04 #@! TD*
G04 #@! TA.AperFunction,Conductor*
%ADD36C,0.177800*%
G04 #@! TD*
G04 #@! TA.AperFunction,Conductor*
%ADD37C,0.150000*%
G04 #@! TD*
G04 #@! TA.AperFunction,Conductor*
%ADD38C,0.250000*%
G04 #@! TD*
G04 #@! TA.AperFunction,Conductor*
%ADD39C,0.200000*%
G04 #@! TD*
G04 APERTURE END LIST*
D10*
X137800000Y-56725000D03*
X137800000Y-58275000D03*
X136200000Y-56725000D03*
X136200000Y-58275000D03*
D11*
X134600000Y-58275000D03*
X134600000Y-56725000D03*
X133000000Y-58275000D03*
X133000000Y-56725000D03*
D12*
X131600000Y-57580000D03*
X131600000Y-56620000D03*
D13*
X119700000Y-39320000D03*
X119700000Y-40280000D03*
X118700000Y-37120000D03*
X118700000Y-38080000D03*
X142000000Y-49920000D03*
X142000000Y-50880000D03*
D11*
X125300000Y-40175000D03*
X125300000Y-38625000D03*
X137898600Y-53575000D03*
X137898600Y-52025000D03*
X136400000Y-53575000D03*
X136400000Y-52025000D03*
D14*
X136500000Y-40610000D03*
X136500000Y-39590000D03*
D15*
X137600000Y-39600000D03*
X137600000Y-40620000D03*
D14*
X107500000Y-40810000D03*
X107500000Y-39790000D03*
D15*
X108600000Y-39790000D03*
X108600000Y-40810000D03*
D16*
X119790000Y-34500000D03*
X120810000Y-34500000D03*
D14*
X124000000Y-35010000D03*
X124000000Y-33990000D03*
D17*
X122125000Y-32977500D03*
X120475000Y-32977500D03*
D18*
X133850000Y-44350000D03*
X131550000Y-42600000D03*
X133850000Y-40850000D03*
X111150000Y-40950000D03*
X113450000Y-42700000D03*
X111150000Y-44450000D03*
D19*
X133950000Y-46850000D03*
X133950000Y-47500000D03*
X133950000Y-48150000D03*
X135850000Y-48150000D03*
X135850000Y-47500000D03*
X135850000Y-46850000D03*
D20*
X122437500Y-37650000D03*
X122437500Y-36700000D03*
X122437500Y-35750000D03*
X120162500Y-35750000D03*
X120162500Y-37650000D03*
D21*
X140750000Y-49050000D03*
X140100000Y-49050000D03*
X139450000Y-49050000D03*
X139450000Y-50950000D03*
X140750000Y-50950000D03*
D22*
X135975000Y-62575000D03*
X131825000Y-62575000D03*
X135975000Y-60425000D03*
X131825000Y-60425000D03*
D23*
X140850000Y-51912500D03*
X140350000Y-51912500D03*
X139850000Y-51912500D03*
X139350000Y-51912500D03*
D24*
X139175000Y-52587500D03*
X139175000Y-53087500D03*
D23*
X139350000Y-53762500D03*
X139850000Y-53762500D03*
X140350000Y-53762500D03*
X140850000Y-53762500D03*
D24*
X141025000Y-53087500D03*
X141025000Y-52587500D03*
D19*
X122750000Y-40450000D03*
X122750000Y-39800000D03*
X122750000Y-39150000D03*
X120850000Y-39150000D03*
X120850000Y-40450000D03*
D14*
X118700000Y-36210000D03*
X118700000Y-35190000D03*
D11*
X109902800Y-50375000D03*
X109902800Y-48825000D03*
D19*
X108452800Y-50250000D03*
X108452800Y-49600000D03*
X108452800Y-48950000D03*
X106552800Y-48950000D03*
X106552800Y-50250000D03*
X137950000Y-43250000D03*
X137950000Y-42600000D03*
X137950000Y-41950000D03*
X136050000Y-41950000D03*
X136050000Y-42600000D03*
X136050000Y-43250000D03*
X107050000Y-42050000D03*
X107050000Y-42700000D03*
X107050000Y-43350000D03*
X108950000Y-43350000D03*
X108950000Y-42700000D03*
X108950000Y-42050000D03*
X115550000Y-39250000D03*
X115550000Y-39900000D03*
X115550000Y-40550000D03*
X117450000Y-40550000D03*
X117450000Y-39250000D03*
X129700000Y-37900000D03*
X129700000Y-37250000D03*
X129700000Y-36600000D03*
X127800000Y-36600000D03*
X127800000Y-37900000D03*
X129700000Y-40900000D03*
X129700000Y-40250000D03*
X129700000Y-39600000D03*
X127800000Y-39600000D03*
X127800000Y-40900000D03*
D25*
X108275000Y-47400000D03*
X106725000Y-47400000D03*
D13*
X118600000Y-39320000D03*
X118600000Y-40280000D03*
D14*
X131600000Y-55510000D03*
X131600000Y-54490000D03*
D26*
X112100000Y-58025000D03*
X112100000Y-59775000D03*
D14*
X111102800Y-50110000D03*
X111102800Y-49090000D03*
D27*
X141500000Y-33500000D03*
D11*
X114200000Y-59675000D03*
X114200000Y-58125000D03*
D14*
X110600000Y-59410000D03*
X110600000Y-58390000D03*
D28*
X123200000Y-43500000D03*
D13*
X126667200Y-36770000D03*
X126667200Y-37730000D03*
X137050000Y-47320000D03*
X137050000Y-48280000D03*
D27*
X141500000Y-61500000D03*
D29*
X107782800Y-51550000D03*
X106822800Y-51550000D03*
D15*
X124000000Y-35990000D03*
X124000000Y-37010000D03*
X114200000Y-55790000D03*
X114200000Y-56810000D03*
D28*
X120400000Y-43500000D03*
D27*
X103500000Y-61500000D03*
D30*
X130000000Y-58200000D03*
X130000000Y-57350000D03*
X130000000Y-56500000D03*
X130000000Y-55650000D03*
X130000000Y-54800000D03*
X130000000Y-53950000D03*
X130000000Y-53100000D03*
X130000000Y-52250000D03*
X130000000Y-51400000D03*
X130000000Y-50550000D03*
X130000000Y-49700000D03*
X130000000Y-48850000D03*
X130000000Y-48000000D03*
X130000000Y-47150000D03*
X130000000Y-46300000D03*
D31*
X128950000Y-45250000D03*
X128100000Y-45250000D03*
X127250000Y-45250000D03*
X126400000Y-45250000D03*
X125550000Y-45250000D03*
X124700000Y-45250000D03*
X123850000Y-45250000D03*
X123000000Y-45250000D03*
X122150000Y-45250000D03*
X121300000Y-45250000D03*
X120450000Y-45250000D03*
X119600000Y-45250000D03*
X118750000Y-45250000D03*
X117900000Y-45250000D03*
X117050000Y-45250000D03*
D30*
X116000000Y-46300000D03*
X116000000Y-47150000D03*
X116000000Y-48000000D03*
X116000000Y-48850000D03*
X116000000Y-49700000D03*
X116000000Y-50550000D03*
X116000000Y-51400000D03*
X116000000Y-52250000D03*
X116000000Y-53100000D03*
X116000000Y-53950000D03*
X116000000Y-54800000D03*
X116000000Y-55650000D03*
X116000000Y-56500000D03*
X116000000Y-57350000D03*
X116000000Y-58200000D03*
D31*
X117050000Y-59250000D03*
X117900000Y-59250000D03*
X118750000Y-59250000D03*
X119600000Y-59250000D03*
X120450000Y-59250000D03*
X121300000Y-59250000D03*
X122150000Y-59250000D03*
X123000000Y-59250000D03*
X123850000Y-59250000D03*
X124700000Y-59250000D03*
X125550000Y-59250000D03*
X126400000Y-59250000D03*
X127250000Y-59250000D03*
X128100000Y-59250000D03*
X128950000Y-59250000D03*
D32*
X124650000Y-53900000D03*
D33*
X124650000Y-52250000D03*
X124650000Y-50600000D03*
X123000000Y-53900000D03*
X123000000Y-52250000D03*
X123000000Y-50600000D03*
X121350000Y-53900000D03*
X121350000Y-52250000D03*
X121350000Y-50600000D03*
D34*
X130000000Y-59250000D03*
X130000000Y-45250000D03*
X116000000Y-45250000D03*
X116000000Y-59250000D03*
D14*
X124000000Y-40910000D03*
X124000000Y-39890000D03*
D16*
X106990000Y-46200000D03*
X108010000Y-46200000D03*
D13*
X126656953Y-39770000D03*
X126656953Y-40730000D03*
D27*
X103500000Y-33500000D03*
D14*
X124010000Y-39000000D03*
X124010000Y-37980000D03*
D16*
X108742800Y-51550000D03*
X109762800Y-51550000D03*
D35*
X127200000Y-38500000D03*
X112800000Y-47500000D03*
X117800000Y-38100000D03*
X131042051Y-36763366D03*
X110229122Y-36870878D03*
X115800000Y-33000000D03*
X112800000Y-46700000D03*
X105700000Y-50200000D03*
X128300000Y-32500000D03*
X109000000Y-38100000D03*
X105500000Y-52700000D03*
X137300000Y-50800000D03*
X119400000Y-38500000D03*
X123825886Y-53073177D03*
X132778768Y-33121232D03*
X110900000Y-46100000D03*
X105500000Y-51100000D03*
X125400000Y-41175000D03*
X138500000Y-41600000D03*
X137700000Y-47300000D03*
X135700000Y-33300000D03*
X122175597Y-53075701D03*
X114800000Y-37800000D03*
X120500000Y-55400000D03*
X111600000Y-52600000D03*
X116000000Y-44200000D03*
X107700000Y-50800000D03*
X138900000Y-49100000D03*
X133900000Y-62600000D03*
X117000000Y-58100000D03*
X124500000Y-55700000D03*
X113100000Y-33800000D03*
X125800000Y-53900000D03*
X119300000Y-31900000D03*
X120200000Y-53900000D03*
X115800000Y-42100000D03*
X129100000Y-58300000D03*
X128430584Y-35762824D03*
X124900000Y-36700000D03*
X121400000Y-36500000D03*
X107700000Y-43700000D03*
X113900000Y-47200000D03*
X125400000Y-37800000D03*
X125600000Y-58300000D03*
X126700000Y-48900000D03*
X122600000Y-41300000D03*
X131000000Y-38000000D03*
X121300000Y-58300000D03*
X105500000Y-51900000D03*
X123825278Y-51426495D03*
X142000000Y-49300000D03*
X117822268Y-36749543D03*
X114900000Y-52600000D03*
X129700000Y-35900000D03*
X124100000Y-48900000D03*
X127900000Y-44000000D03*
X132800000Y-45800000D03*
X135300000Y-41300000D03*
X109700000Y-44000000D03*
X137100000Y-43700000D03*
X109800000Y-39600000D03*
X133000000Y-49100000D03*
X127900000Y-46500000D03*
X120000000Y-48900000D03*
X133000000Y-47500000D03*
X120800000Y-48900000D03*
X128800000Y-46200000D03*
X119200000Y-48900000D03*
X133000000Y-48300000D03*
X128600000Y-47400000D03*
X118449997Y-48900000D03*
X124700000Y-44200000D03*
X121500000Y-45915034D03*
X142014806Y-52797039D03*
X141300000Y-49000000D03*
X131300000Y-50200000D03*
X108024500Y-38500000D03*
X136900000Y-38200000D03*
X117800000Y-53800000D03*
X110300000Y-53800000D03*
X113800000Y-53800000D03*
X109700000Y-42700000D03*
X135300000Y-42600000D03*
X106600000Y-41500000D03*
X141100000Y-50100000D03*
X137200000Y-54300000D03*
X117100000Y-49000000D03*
X113400000Y-56400000D03*
X117100000Y-49800000D03*
X137700000Y-48300000D03*
X133800000Y-56000000D03*
X132300000Y-51600000D03*
X132800000Y-43100000D03*
X111600000Y-43300000D03*
X122900000Y-57500000D03*
X114500000Y-61100000D03*
D36*
X134600000Y-56725000D02*
X137800000Y-56725000D01*
X134600000Y-58275000D02*
X137800000Y-58275000D01*
D37*
X131600000Y-54490000D02*
X131790000Y-54300000D01*
X131790000Y-54300000D02*
X133800000Y-54300000D01*
X133800000Y-54300000D02*
X135400000Y-55900000D01*
X138400000Y-55900000D02*
X138700000Y-56200000D01*
X137075000Y-60425000D02*
X135975000Y-60425000D01*
X135400000Y-55900000D02*
X138400000Y-55900000D01*
X138700000Y-56200000D02*
X138700000Y-58800000D01*
X138700000Y-58800000D02*
X137075000Y-60425000D01*
X126667200Y-37730000D02*
X127630000Y-37730000D01*
X127200000Y-40186953D02*
X126656953Y-40730000D01*
X108742800Y-51550000D02*
X108092800Y-52200000D01*
X119870000Y-40450000D02*
X120850000Y-40450000D01*
X124900000Y-41700000D02*
X125686953Y-41700000D01*
X106822800Y-50520000D02*
X106552800Y-50250000D01*
X127200000Y-38500000D02*
X127200000Y-40186953D01*
X125686953Y-41700000D02*
X126656953Y-40730000D01*
X118600000Y-40280000D02*
X119700000Y-40280000D01*
X106822800Y-51720000D02*
X106822800Y-51550000D01*
X118680000Y-38100000D02*
X118700000Y-38080000D01*
X126656953Y-40730000D02*
X127630000Y-40730000D01*
X124000000Y-40910000D02*
X124110000Y-40910000D01*
X106822800Y-51550000D02*
X106822800Y-50520000D01*
X117450000Y-39250000D02*
X117530000Y-39250000D01*
X118600000Y-40280000D02*
X118480000Y-40280000D01*
X120162500Y-37650000D02*
X119450000Y-37650000D01*
X105700000Y-50200000D02*
X106502800Y-50200000D01*
X107302800Y-52200000D02*
X106822800Y-51720000D01*
X127200000Y-38500000D02*
X127800000Y-37900000D01*
X124110000Y-40910000D02*
X124900000Y-41700000D01*
X118480000Y-40280000D02*
X117450000Y-39250000D01*
X117530000Y-39250000D02*
X118700000Y-38080000D01*
X119700000Y-40280000D02*
X119870000Y-40450000D01*
X106502800Y-50200000D02*
X106552800Y-50250000D01*
X117800000Y-38100000D02*
X118680000Y-38100000D01*
X127630000Y-37730000D02*
X127800000Y-37900000D01*
X127630000Y-40730000D02*
X127800000Y-40900000D01*
X108092800Y-52200000D02*
X107302800Y-52200000D01*
X119450000Y-37650000D02*
X119020000Y-38080000D01*
X119020000Y-38080000D02*
X118700000Y-38080000D01*
X129900000Y-58300000D02*
X130000000Y-58200000D01*
X115550000Y-41950000D02*
X115600000Y-42000000D01*
D36*
X137300000Y-51426400D02*
X137898600Y-52025000D01*
D37*
X128193408Y-36000000D02*
X127000000Y-36000000D01*
D36*
X107782800Y-49917200D02*
X108100000Y-49600000D01*
D37*
X122175597Y-53074403D02*
X123000000Y-52250000D01*
D38*
X121350000Y-50600000D02*
X124650000Y-50600000D01*
X123000000Y-50600000D02*
X123000000Y-53900000D01*
D37*
X122600000Y-41300000D02*
X123000000Y-41300000D01*
X116200000Y-56500000D02*
X116000000Y-56500000D01*
D38*
X124650000Y-50600000D02*
X124650000Y-53900000D01*
D37*
X115700000Y-42100000D02*
X115800000Y-42100000D01*
X121350000Y-53900000D02*
X120200000Y-53900000D01*
X119400000Y-38500000D02*
X119400000Y-39020000D01*
X123825278Y-51426495D02*
X123826495Y-51426495D01*
X125600000Y-59200000D02*
X125550000Y-59250000D01*
D36*
X111102800Y-49090000D02*
X110167800Y-49090000D01*
D37*
X121400000Y-36500000D02*
X122237500Y-36500000D01*
X125600000Y-58300000D02*
X125600000Y-59200000D01*
X139300000Y-52587500D02*
X139300000Y-53087500D01*
X139300000Y-53587500D02*
X139350000Y-53637500D01*
X138500000Y-41600000D02*
X138300000Y-41600000D01*
X119400000Y-39020000D02*
X119700000Y-39320000D01*
X123825278Y-51426495D02*
X123825278Y-51425278D01*
X123826495Y-51426495D02*
X124650000Y-52250000D01*
X116000000Y-55650000D02*
X116000000Y-56500000D01*
D38*
X121350000Y-53900000D02*
X124650000Y-53900000D01*
D37*
X139400000Y-49100000D02*
X139450000Y-49050000D01*
X123002709Y-52250000D02*
X123825886Y-53073177D01*
X122175597Y-53075701D02*
X122174299Y-53075701D01*
X130000000Y-45100000D02*
X130000000Y-45250000D01*
X129100000Y-58300000D02*
X129900000Y-58300000D01*
D36*
X131370000Y-57350000D02*
X131600000Y-57580000D01*
D37*
X137898600Y-52025000D02*
X136400000Y-52025000D01*
X123100000Y-39800000D02*
X122750000Y-39800000D01*
D36*
X116000000Y-59250000D02*
X114625000Y-59250000D01*
D37*
X115550000Y-40550000D02*
X115550000Y-41950000D01*
D36*
X130000000Y-59250000D02*
X130000000Y-57350000D01*
X131825000Y-62575000D02*
X135975000Y-62575000D01*
D37*
X128430584Y-35762824D02*
X128193408Y-36000000D01*
X138300000Y-41600000D02*
X137950000Y-41950000D01*
X127000000Y-36000000D02*
X126667200Y-36332800D01*
X123825278Y-51425278D02*
X123000000Y-50600000D01*
X116000000Y-44200000D02*
X116000000Y-45250000D01*
X122175597Y-53075701D02*
X122175597Y-53074403D01*
X128900000Y-44000000D02*
X130000000Y-45100000D01*
D36*
X135950000Y-47400000D02*
X135850000Y-47500000D01*
D37*
X126667200Y-36332800D02*
X126667200Y-36770000D01*
X122174299Y-53075701D02*
X121350000Y-53900000D01*
X137950000Y-42600000D02*
X137950000Y-41950000D01*
D38*
X121350000Y-52250000D02*
X124650000Y-52250000D01*
D36*
X109127800Y-49600000D02*
X109902800Y-48825000D01*
D37*
X129700000Y-35900000D02*
X129700000Y-36600000D01*
D36*
X137300000Y-50800000D02*
X137300000Y-51426400D01*
D37*
X118530000Y-39250000D02*
X118600000Y-39320000D01*
X123825886Y-53075886D02*
X124650000Y-53900000D01*
D36*
X130000000Y-59250000D02*
X116000000Y-59250000D01*
D37*
X126656953Y-39770000D02*
X126445000Y-39770000D01*
X123000000Y-41300000D02*
X123300000Y-41000000D01*
X127900000Y-44000000D02*
X128900000Y-44000000D01*
X125400000Y-37800000D02*
X125400000Y-38525000D01*
X125400000Y-38525000D02*
X125300000Y-38625000D01*
D36*
X114625000Y-59250000D02*
X114200000Y-59675000D01*
D37*
X123825886Y-53073177D02*
X123825886Y-53075886D01*
D38*
X121350000Y-52250000D02*
X121350000Y-50600000D01*
X134600000Y-58275000D02*
X133000000Y-58275000D01*
D36*
X112100000Y-58025000D02*
X113750000Y-59675000D01*
X107400000Y-43700000D02*
X107050000Y-43350000D01*
X107782800Y-51550000D02*
X107782800Y-49917200D01*
D37*
X126445000Y-39770000D02*
X125300000Y-38625000D01*
X118600000Y-39320000D02*
X119700000Y-39320000D01*
X124010000Y-37980000D02*
X124655000Y-37980000D01*
X124650000Y-53900000D02*
X125800000Y-53900000D01*
X122237500Y-36500000D02*
X122437500Y-36700000D01*
X124655000Y-37980000D02*
X125300000Y-38625000D01*
X137070000Y-47300000D02*
X137050000Y-47320000D01*
X115600000Y-42000000D02*
X115700000Y-42100000D01*
X117050000Y-57350000D02*
X116200000Y-56500000D01*
X121300000Y-58300000D02*
X121300000Y-59250000D01*
X126667200Y-36770000D02*
X126430000Y-36770000D01*
X138900000Y-49100000D02*
X139400000Y-49100000D01*
X131000000Y-38300000D02*
X131000000Y-38000000D01*
X118192725Y-37120000D02*
X118700000Y-37120000D01*
D38*
X132295000Y-58275000D02*
X131600000Y-57580000D01*
D37*
X126430000Y-36770000D02*
X125400000Y-37800000D01*
D36*
X130000000Y-57350000D02*
X131370000Y-57350000D01*
D38*
X133000000Y-58275000D02*
X132295000Y-58275000D01*
D36*
X136970000Y-47400000D02*
X135950000Y-47400000D01*
D37*
X137700000Y-47300000D02*
X137070000Y-47300000D01*
X129700000Y-39600000D02*
X131000000Y-38300000D01*
X123300000Y-41000000D02*
X123300000Y-40000000D01*
D36*
X108100000Y-49600000D02*
X108452800Y-49600000D01*
D37*
X139300000Y-52587500D02*
X138461100Y-52587500D01*
X123000000Y-52250000D02*
X123002709Y-52250000D01*
X136075000Y-62575000D02*
X136075000Y-62525000D01*
D36*
X108452800Y-49600000D02*
X109127800Y-49600000D01*
X107700000Y-43700000D02*
X107400000Y-43700000D01*
X113750000Y-59675000D02*
X114200000Y-59675000D01*
D37*
X142000000Y-49300000D02*
X142000000Y-49920000D01*
X139850000Y-53637500D02*
X139350000Y-53637500D01*
X117050000Y-59250000D02*
X117050000Y-57350000D01*
D36*
X110167800Y-49090000D02*
X109902800Y-48825000D01*
D37*
X138461100Y-52587500D02*
X137898600Y-52025000D01*
X123300000Y-40000000D02*
X123100000Y-39800000D01*
D38*
X121350000Y-52250000D02*
X121350000Y-53900000D01*
D37*
X139300000Y-53087500D02*
X139300000Y-53587500D01*
X117822268Y-36749543D02*
X118192725Y-37120000D01*
X135300000Y-38900000D02*
X135300000Y-41300000D01*
X129774907Y-37324907D02*
X133724907Y-37324907D01*
X133724907Y-37324907D02*
X135300000Y-38900000D01*
D39*
X136050000Y-41950000D02*
X136500000Y-41500000D01*
D37*
X129700000Y-37250000D02*
X129774907Y-37324907D01*
D39*
X136500000Y-41500000D02*
X136500000Y-40610000D01*
X135950000Y-41950000D02*
X136050000Y-41950000D01*
X135300000Y-41300000D02*
X135950000Y-41950000D01*
X107800000Y-42725000D02*
X107800000Y-41210000D01*
X114700000Y-43250000D02*
X112550000Y-45400000D01*
X108425000Y-43350000D02*
X107800000Y-42725000D01*
X108950000Y-43350000D02*
X108425000Y-43350000D01*
X112550000Y-45400000D02*
X110100000Y-45400000D01*
X114700000Y-40375000D02*
X114700000Y-43250000D01*
X115175000Y-39900000D02*
X114700000Y-40375000D01*
X109700000Y-45000000D02*
X109700000Y-44000000D01*
X115550000Y-39900000D02*
X115175000Y-39900000D01*
X110100000Y-45400000D02*
X109700000Y-45000000D01*
X109600000Y-44000000D02*
X108950000Y-43350000D01*
X109700000Y-44000000D02*
X109600000Y-44000000D01*
X107800000Y-41210000D02*
X107400000Y-40810000D01*
D37*
X129700000Y-40250000D02*
X131150000Y-40250000D01*
X137100000Y-43700000D02*
X136450000Y-44350000D01*
X133850000Y-42950000D02*
X133850000Y-44350000D01*
X109800000Y-39600000D02*
X111150000Y-40950000D01*
X136450000Y-44350000D02*
X133850000Y-44350000D01*
X131150000Y-40250000D02*
X133850000Y-42950000D01*
X137500000Y-43700000D02*
X137950000Y-43250000D01*
X137100000Y-43700000D02*
X137500000Y-43700000D01*
X139850000Y-52037500D02*
X139900000Y-51987500D01*
X120000000Y-48900000D02*
X121400000Y-47500000D01*
X139900000Y-50600000D02*
X139900000Y-50425000D01*
X139500000Y-50200000D02*
X137700000Y-50200000D01*
X121400000Y-47500000D02*
X127100000Y-47500000D01*
X134000000Y-50200000D02*
X133000000Y-49200000D01*
X127100000Y-47500000D02*
X128100000Y-46500000D01*
X139675000Y-50200000D02*
X139500000Y-50200000D01*
X128100000Y-46500000D02*
X128100000Y-45250000D01*
X137700000Y-50200000D02*
X134000000Y-50200000D01*
X139900000Y-51987500D02*
X139900000Y-50600000D01*
X139900000Y-50425000D02*
X139675000Y-50200000D01*
X142062500Y-52037500D02*
X142800000Y-51300000D01*
X140850000Y-52037500D02*
X142062500Y-52037500D01*
X133000000Y-47500000D02*
X133950000Y-47500000D01*
X137800000Y-49300000D02*
X135800000Y-49300000D01*
X121800000Y-47900000D02*
X127300000Y-47900000D01*
X128950000Y-46250000D02*
X128950000Y-45250000D01*
X142800000Y-49000000D02*
X142200000Y-48400000D01*
X135800000Y-49300000D02*
X134600000Y-48100000D01*
X142800000Y-51300000D02*
X142800000Y-49000000D01*
X127300000Y-47900000D02*
X128950000Y-46250000D01*
X134600000Y-48100000D02*
X134600000Y-47675000D01*
X120800000Y-48900000D02*
X121800000Y-47900000D01*
X142200000Y-48400000D02*
X138700000Y-48400000D01*
X134425000Y-47500000D02*
X133950000Y-47500000D01*
X138700000Y-48400000D02*
X137800000Y-49300000D01*
X134600000Y-47675000D02*
X134425000Y-47500000D01*
X127600000Y-48300000D02*
X129600000Y-46300000D01*
X140100000Y-49525000D02*
X139825000Y-49800000D01*
X133000000Y-48300000D02*
X133150000Y-48150000D01*
X135700000Y-49800000D02*
X134050000Y-48150000D01*
X140100000Y-49050000D02*
X140100000Y-49525000D01*
X120942463Y-49500000D02*
X122142463Y-48300000D01*
X139825000Y-49800000D02*
X135700000Y-49800000D01*
X119800000Y-49500000D02*
X120942463Y-49500000D01*
X122142463Y-48300000D02*
X127600000Y-48300000D01*
X134050000Y-48150000D02*
X133950000Y-48150000D01*
X129600000Y-46300000D02*
X130000000Y-46300000D01*
X119200000Y-48900000D02*
X119800000Y-49500000D01*
X133150000Y-48150000D02*
X133950000Y-48150000D01*
X124000000Y-39010000D02*
X124010000Y-39000000D01*
X124285000Y-40175000D02*
X124000000Y-39890000D01*
X122850000Y-39150000D02*
X123860000Y-39150000D01*
X125300000Y-40175000D02*
X124285000Y-40175000D01*
X124000000Y-39890000D02*
X124000000Y-39010000D01*
X123860000Y-39150000D02*
X124010000Y-39000000D01*
X124700000Y-44200000D02*
X124700000Y-45250000D01*
X124000000Y-46800000D02*
X124700000Y-46100000D01*
X118449997Y-48900000D02*
X120549997Y-46800000D01*
X120549997Y-46800000D02*
X124000000Y-46800000D01*
X124700000Y-46100000D02*
X124700000Y-45250000D01*
X109762800Y-50515000D02*
X109902800Y-50375000D01*
X108452800Y-50250000D02*
X109777800Y-50250000D01*
X111102800Y-50110000D02*
X110167800Y-50110000D01*
X110167800Y-50110000D02*
X109902800Y-50375000D01*
X109762800Y-51550000D02*
X109762800Y-50515000D01*
X109777800Y-50250000D02*
X109902800Y-50375000D01*
X108452800Y-48950000D02*
X106552800Y-48950000D01*
X108452800Y-46642800D02*
X108010000Y-46200000D01*
X108452800Y-48950000D02*
X108452800Y-46642800D01*
X116700000Y-36900000D02*
X116700000Y-40775000D01*
X130227208Y-44400000D02*
X130900000Y-44400000D01*
X131100000Y-44600000D02*
X131100000Y-46600000D01*
X118225000Y-42300000D02*
X128127208Y-42300000D01*
X122437500Y-37650000D02*
X121750000Y-37650000D01*
X116700000Y-40775000D02*
X118225000Y-42300000D01*
X118700000Y-36210000D02*
X118590000Y-36100000D01*
X118590000Y-36100000D02*
X117500000Y-36100000D01*
X130900000Y-44400000D02*
X131100000Y-44600000D01*
X118851540Y-36361540D02*
X118700000Y-36210000D01*
X128127208Y-42300000D02*
X130227208Y-44400000D01*
X130550000Y-47150000D02*
X130000000Y-47150000D01*
X120461540Y-36361540D02*
X118851540Y-36361540D01*
X117500000Y-36100000D02*
X116700000Y-36900000D01*
X131100000Y-46600000D02*
X130550000Y-47150000D01*
X121750000Y-37650000D02*
X120461540Y-36361540D01*
X121500000Y-45915034D02*
X121500000Y-45450000D01*
X121500000Y-45450000D02*
X121300000Y-45250000D01*
X140300000Y-49975000D02*
X140750000Y-49525000D01*
D36*
X141300000Y-49000000D02*
X140800000Y-49000000D01*
D37*
X140750000Y-49525000D02*
X140750000Y-49050000D01*
D36*
X140800000Y-49000000D02*
X140750000Y-49050000D01*
X142000000Y-54000000D02*
X142000000Y-52800000D01*
X130000000Y-53100000D02*
X133300000Y-53100000D01*
X140600000Y-55400000D02*
X142000000Y-54000000D01*
D37*
X140350000Y-52037500D02*
X140300000Y-51987500D01*
D36*
X135600000Y-55400000D02*
X140600000Y-55400000D01*
D37*
X140300000Y-51987500D02*
X140300000Y-49975000D01*
D36*
X133300000Y-53100000D02*
X135600000Y-55400000D01*
D37*
X133950000Y-46850000D02*
X132850000Y-46850000D01*
X132400000Y-50000000D02*
X131000000Y-51400000D01*
X132400000Y-47300000D02*
X132400000Y-50000000D01*
X132850000Y-46850000D02*
X132400000Y-47300000D01*
X131000000Y-51400000D02*
X130000000Y-51400000D01*
X133200000Y-52200000D02*
X130050000Y-52200000D01*
X135900000Y-54900000D02*
X133200000Y-52200000D01*
X130050000Y-52200000D02*
X130000000Y-52250000D01*
X141187500Y-52587500D02*
X141500000Y-52900000D01*
X141500000Y-53887500D02*
X140487500Y-54900000D01*
X140487500Y-54900000D02*
X135900000Y-54900000D01*
X140900000Y-52587500D02*
X141187500Y-52587500D01*
X141500000Y-52900000D02*
X141500000Y-53887500D01*
X118349264Y-42000000D02*
X128251472Y-42000000D01*
X130800000Y-48000000D02*
X130000000Y-48000000D01*
X128251472Y-42000000D02*
X130351472Y-44100000D01*
X131400000Y-47400000D02*
X130800000Y-48000000D01*
X117450000Y-41100736D02*
X118349264Y-42000000D01*
X130351472Y-44100000D02*
X131024264Y-44100000D01*
X131400000Y-44475736D02*
X131400000Y-47400000D01*
X117450000Y-40550000D02*
X117450000Y-41100736D01*
X131024264Y-44100000D02*
X131400000Y-44475736D01*
X131272792Y-43500000D02*
X132000000Y-44227208D01*
X130600000Y-43500000D02*
X131272792Y-43500000D01*
X132000000Y-48600000D02*
X130900000Y-49700000D01*
X132000000Y-44227208D02*
X132000000Y-48600000D01*
X127800000Y-36600000D02*
X128700000Y-37500000D01*
X130900000Y-49700000D02*
X130000000Y-49700000D01*
X128700000Y-37500000D02*
X128700000Y-41600000D01*
X128700000Y-41600000D02*
X130600000Y-43500000D01*
X131700000Y-44351472D02*
X131700000Y-48000000D01*
X131148528Y-43800000D02*
X131700000Y-44351472D01*
X130475736Y-43800000D02*
X131148528Y-43800000D01*
X131700000Y-48000000D02*
X130850000Y-48850000D01*
X128400000Y-41724264D02*
X130475736Y-43800000D01*
X128400000Y-40200000D02*
X128400000Y-41724264D01*
X127800000Y-39600000D02*
X128400000Y-40200000D01*
X130850000Y-48850000D02*
X130000000Y-48850000D01*
X130000000Y-50550000D02*
X130950000Y-50550000D01*
X130950000Y-50550000D02*
X131200000Y-50300000D01*
X136250000Y-46850000D02*
X139100000Y-44000000D01*
X139100000Y-44000000D02*
X139100000Y-39200000D01*
X122987500Y-32977500D02*
X122125000Y-32977500D01*
X135850000Y-46850000D02*
X136250000Y-46850000D01*
X124110000Y-34100000D02*
X124000000Y-33990000D01*
X124000000Y-33990000D02*
X122987500Y-32977500D01*
X139100000Y-39200000D02*
X134000000Y-34100000D01*
X134000000Y-34100000D02*
X124110000Y-34100000D01*
X122437500Y-35750000D02*
X122587500Y-35900000D01*
X124000000Y-35010000D02*
X124000000Y-35990000D01*
X122587500Y-35900000D02*
X123810000Y-35900000D01*
X123810000Y-35900000D02*
X123900000Y-35990000D01*
X119790000Y-35377500D02*
X120162500Y-35750000D01*
X119390000Y-34500000D02*
X119790000Y-34500000D01*
X118700000Y-35190000D02*
X119390000Y-34500000D01*
X119790000Y-34500000D02*
X119790000Y-35377500D01*
X123890000Y-37010000D02*
X124000000Y-37010000D01*
X122150000Y-40450000D02*
X122750000Y-40450000D01*
X120850000Y-39150000D02*
X121400000Y-38600000D01*
X120850000Y-39150000D02*
X122150000Y-40450000D01*
X123400000Y-38100000D02*
X123400000Y-37500000D01*
X123400000Y-37500000D02*
X123890000Y-37010000D01*
X121400000Y-38600000D02*
X122900000Y-38600000D01*
X122900000Y-38600000D02*
X123400000Y-38100000D01*
X136900000Y-39190000D02*
X136500000Y-39590000D01*
X136900000Y-38200000D02*
X136900000Y-39190000D01*
X108024500Y-39265500D02*
X107500000Y-39790000D01*
X107500000Y-39790000D02*
X108600000Y-39790000D01*
X108024500Y-38500000D02*
X108024500Y-39265500D01*
X136500000Y-39590000D02*
X137590000Y-39590000D01*
X137590000Y-39590000D02*
X137600000Y-39600000D01*
X129700000Y-37900000D02*
X129100000Y-37900000D01*
X120810000Y-34500000D02*
X120810000Y-33312500D01*
X119422500Y-32977500D02*
X115550000Y-36850000D01*
X115550000Y-36850000D02*
X115550000Y-39250000D01*
X129100000Y-37900000D02*
X129000000Y-38000000D01*
X129000000Y-40675000D02*
X129225000Y-40900000D01*
X128000000Y-34500000D02*
X129000000Y-35500000D01*
X120810000Y-34500000D02*
X128000000Y-34500000D01*
X120810000Y-33312500D02*
X120475000Y-32977500D01*
X129000000Y-38000000D02*
X129000000Y-38100000D01*
X129225000Y-40900000D02*
X129700000Y-40900000D01*
X129000000Y-38100000D02*
X129000000Y-40675000D01*
X120475000Y-32977500D02*
X119422500Y-32977500D01*
X129000000Y-35500000D02*
X129000000Y-38000000D01*
D39*
X108950000Y-42700000D02*
X108425000Y-42700000D01*
X109700000Y-42700000D02*
X111150000Y-44150000D01*
X108300000Y-42575000D02*
X108300000Y-41010000D01*
X108300000Y-41010000D02*
X108500000Y-40810000D01*
X108425000Y-42700000D02*
X108300000Y-42575000D01*
X111150000Y-44150000D02*
X111150000Y-44450000D01*
X108950000Y-42700000D02*
X109700000Y-42700000D01*
X136575000Y-42600000D02*
X137100000Y-42075000D01*
X136050000Y-42600000D02*
X135300000Y-42600000D01*
X135300000Y-42600000D02*
X133850000Y-41150000D01*
X133850000Y-41150000D02*
X133850000Y-40850000D01*
X136050000Y-42600000D02*
X136575000Y-42600000D01*
X137100000Y-42075000D02*
X137100000Y-41120000D01*
X137100000Y-41120000D02*
X137600000Y-40620000D01*
D37*
X106990000Y-46200000D02*
X106990000Y-47135000D01*
X106725000Y-47400000D02*
X106000000Y-46675000D01*
X106725000Y-47400000D02*
X106300000Y-47400000D01*
X106000000Y-46675000D02*
X106000000Y-42100000D01*
X106000000Y-42100000D02*
X106600000Y-41500000D01*
X106600000Y-41600000D02*
X107050000Y-42050000D01*
X106600000Y-41500000D02*
X106600000Y-41600000D01*
X106990000Y-47135000D02*
X106725000Y-47400000D01*
X139450000Y-50950000D02*
X139450000Y-51937500D01*
X139450000Y-51937500D02*
X139350000Y-52037500D01*
D39*
X122150000Y-45250000D02*
X122150000Y-44850000D01*
X120900000Y-43600000D02*
X120000000Y-43600000D01*
X122150000Y-44850000D02*
X120900000Y-43600000D01*
X123000000Y-45250000D02*
X123000000Y-43610000D01*
X123000000Y-43610000D02*
X123010000Y-43600000D01*
D37*
X131600000Y-54490000D02*
X130440000Y-55650000D01*
D36*
X131925000Y-60425000D02*
X136075000Y-60425000D01*
D37*
X130440000Y-55650000D02*
X130000000Y-55650000D01*
X114200000Y-58125000D02*
X115925000Y-58125000D01*
X114200000Y-56810000D02*
X114200000Y-58125000D01*
X115925000Y-58125000D02*
X116000000Y-58200000D01*
D36*
X137200000Y-54300000D02*
X137200000Y-53575000D01*
D38*
X130000000Y-56500000D02*
X133800000Y-56500000D01*
D37*
X138723600Y-54400000D02*
X137898600Y-53575000D01*
D36*
X113590000Y-56400000D02*
X114200000Y-55790000D01*
D37*
X137898600Y-53575000D02*
X137200000Y-53575000D01*
X141100000Y-50600000D02*
X140750000Y-50950000D01*
X140100000Y-54400000D02*
X138723600Y-54400000D01*
D36*
X135900000Y-48200000D02*
X135850000Y-48150000D01*
D37*
X141100000Y-50100000D02*
X141100000Y-50600000D01*
X140350000Y-53637500D02*
X140350000Y-54150000D01*
X140820000Y-50880000D02*
X140750000Y-50950000D01*
X140350000Y-53637500D02*
X140850000Y-53637500D01*
D36*
X131600000Y-55510000D02*
X131600000Y-56620000D01*
X113400000Y-56400000D02*
X113590000Y-56400000D01*
D38*
X133800000Y-56500000D02*
X134375000Y-56500000D01*
X134375000Y-56500000D02*
X134600000Y-56725000D01*
D37*
X137070000Y-48300000D02*
X137050000Y-48280000D01*
X137700000Y-48300000D02*
X137070000Y-48300000D01*
D36*
X133800000Y-56000000D02*
X133800000Y-56500000D01*
D37*
X140350000Y-54150000D02*
X140100000Y-54400000D01*
D36*
X136970000Y-48200000D02*
X135900000Y-48200000D01*
D37*
X137200000Y-53575000D02*
X136400000Y-53575000D01*
X142000000Y-50880000D02*
X140820000Y-50880000D01*
X132300000Y-42600000D02*
X132800000Y-43100000D01*
X131550000Y-42600000D02*
X132300000Y-42600000D01*
X112200000Y-42700000D02*
X111600000Y-43300000D01*
X113450000Y-42700000D02*
X112200000Y-42700000D01*
X110715000Y-58390000D02*
X112100000Y-59775000D01*
X110600000Y-58390000D02*
X110715000Y-58390000D01*
X128700000Y-57100000D02*
X128300000Y-57500000D01*
X130000000Y-53950000D02*
X129150000Y-53950000D01*
X114500000Y-61100000D02*
X114300000Y-60900000D01*
X128700000Y-56500000D02*
X128700000Y-57100000D01*
X126300000Y-57500000D02*
X122900000Y-57500000D01*
X128700000Y-54400000D02*
X128700000Y-56500000D01*
X110600000Y-60000000D02*
X110600000Y-59410000D01*
X129150000Y-53950000D02*
X128700000Y-54400000D01*
X114300000Y-60900000D02*
X111500000Y-60900000D01*
X111500000Y-60900000D02*
X110600000Y-60000000D01*
X128300000Y-57500000D02*
X126300000Y-57500000D01*
M02*
